G04 (created by PCBNEW-RS274X (2012-apr-16-27)-stable) date Sat 18 Jan 2014 02:12:47 PM CET*
G01*
G70*
G90*
%MOIN*%
G04 Gerber Fmt 3.4, Leading zero omitted, Abs format*
%FSLAX34Y34*%
G04 APERTURE LIST*
%ADD10C,0.006000*%
%ADD11R,0.060000X0.060000*%
%ADD12C,0.060000*%
%ADD13R,0.059100X0.035400*%
%ADD14C,0.035000*%
%ADD15C,0.008000*%
%ADD16C,0.016000*%
%ADD17C,0.005000*%
G04 APERTURE END LIST*
G54D10*
G54D11*
X33400Y-44400D03*
G54D12*
X34400Y-44400D03*
X35400Y-44400D03*
G54D11*
X51800Y-44400D03*
G54D12*
X52800Y-44400D03*
X53800Y-44400D03*
G54D13*
X30770Y-45050D03*
X30770Y-43750D03*
X28830Y-45050D03*
X28830Y-43750D03*
X39970Y-45050D03*
X39970Y-43750D03*
X38030Y-45050D03*
X38030Y-43750D03*
X49170Y-45050D03*
X49170Y-43750D03*
X47230Y-45050D03*
X47230Y-43750D03*
X58370Y-45050D03*
X58370Y-43750D03*
X56430Y-45050D03*
X56430Y-43750D03*
G54D14*
X57600Y-45000D03*
X50000Y-45000D03*
X41000Y-45000D03*
X31600Y-45000D03*
G54D15*
X49170Y-43750D02*
X49550Y-43750D01*
X50850Y-45050D02*
X56430Y-45050D01*
X49550Y-43750D02*
X50850Y-45050D01*
X58370Y-43750D02*
X57450Y-43750D01*
X53400Y-43800D02*
X52800Y-44400D01*
X55200Y-43800D02*
X53400Y-43800D01*
X55800Y-44400D02*
X55200Y-43800D01*
X56800Y-44400D02*
X55800Y-44400D01*
X57450Y-43750D02*
X56800Y-44400D01*
X30770Y-43750D02*
X36730Y-43750D01*
X36730Y-43750D02*
X38030Y-45050D01*
X44150Y-43750D02*
X39970Y-43750D01*
X45450Y-45050D02*
X44150Y-43750D01*
X47230Y-45050D02*
X45450Y-45050D01*
X34400Y-44800D02*
X34400Y-44400D01*
X31800Y-44600D02*
X32400Y-45200D01*
X32400Y-45200D02*
X34000Y-45200D01*
X29950Y-45050D02*
X30400Y-44600D01*
X28830Y-45050D02*
X29950Y-45050D01*
X30400Y-44600D02*
X31800Y-44600D01*
X34000Y-45200D02*
X34400Y-44800D01*
G54D16*
X57650Y-45050D02*
X57600Y-45000D01*
X57650Y-45050D02*
X58370Y-45050D01*
X49170Y-45050D02*
X49950Y-45050D01*
X49950Y-45050D02*
X50000Y-45000D01*
X39970Y-45050D02*
X40950Y-45050D01*
X40950Y-45050D02*
X41000Y-45000D01*
X31550Y-45050D02*
X30770Y-45050D01*
X31550Y-45050D02*
X31600Y-45000D01*
G54D10*
G36*
X58850Y-45450D02*
X58789Y-45450D01*
X58789Y-45240D01*
X58789Y-45216D01*
X58789Y-44861D01*
X58789Y-43940D01*
X58789Y-43916D01*
X58789Y-43561D01*
X58784Y-43537D01*
X58775Y-43515D01*
X58762Y-43494D01*
X58745Y-43477D01*
X58724Y-43463D01*
X58702Y-43454D01*
X58678Y-43449D01*
X58654Y-43449D01*
X58063Y-43449D01*
X58039Y-43454D01*
X58017Y-43463D01*
X57996Y-43476D01*
X57979Y-43493D01*
X57965Y-43514D01*
X57956Y-43536D01*
X57951Y-43560D01*
X57951Y-43584D01*
X57951Y-43585D01*
X57452Y-43585D01*
X57450Y-43585D01*
X57418Y-43588D01*
X57387Y-43597D01*
X57372Y-43605D01*
X57360Y-43612D01*
X57335Y-43632D01*
X57333Y-43633D01*
X56851Y-44115D01*
X56851Y-43869D01*
X56851Y-43631D01*
X56850Y-43584D01*
X56850Y-43560D01*
X56845Y-43536D01*
X56835Y-43513D01*
X56822Y-43493D01*
X56804Y-43476D01*
X56784Y-43462D01*
X56761Y-43453D01*
X56737Y-43448D01*
X56554Y-43447D01*
X56523Y-43478D01*
X56523Y-43662D01*
X56820Y-43662D01*
X56851Y-43631D01*
X56851Y-43869D01*
X56820Y-43838D01*
X56523Y-43838D01*
X56523Y-44022D01*
X56554Y-44053D01*
X56737Y-44052D01*
X56761Y-44047D01*
X56784Y-44038D01*
X56804Y-44024D01*
X56822Y-44007D01*
X56835Y-43987D01*
X56845Y-43964D01*
X56850Y-43940D01*
X56850Y-43916D01*
X56851Y-43869D01*
X56851Y-44115D01*
X56731Y-44235D01*
X56337Y-44235D01*
X56337Y-44022D01*
X56337Y-43838D01*
X56337Y-43662D01*
X56337Y-43478D01*
X56306Y-43447D01*
X56123Y-43448D01*
X56099Y-43453D01*
X56076Y-43462D01*
X56056Y-43476D01*
X56038Y-43493D01*
X56025Y-43513D01*
X56015Y-43536D01*
X56010Y-43560D01*
X56010Y-43584D01*
X56009Y-43631D01*
X56040Y-43662D01*
X56337Y-43662D01*
X56337Y-43838D01*
X56040Y-43838D01*
X56009Y-43869D01*
X56010Y-43916D01*
X56010Y-43940D01*
X56015Y-43964D01*
X56025Y-43987D01*
X56038Y-44007D01*
X56056Y-44024D01*
X56076Y-44038D01*
X56099Y-44047D01*
X56123Y-44052D01*
X56306Y-44053D01*
X56337Y-44022D01*
X56337Y-44235D01*
X55868Y-44235D01*
X55318Y-43685D01*
X55317Y-43683D01*
X55293Y-43664D01*
X55292Y-43663D01*
X55265Y-43648D01*
X55264Y-43647D01*
X55242Y-43641D01*
X55234Y-43639D01*
X55202Y-43635D01*
X55201Y-43635D01*
X55200Y-43635D01*
X53400Y-43635D01*
X53368Y-43638D01*
X53337Y-43647D01*
X53322Y-43655D01*
X53310Y-43662D01*
X53284Y-43682D01*
X53283Y-43684D01*
X52960Y-44006D01*
X52926Y-43992D01*
X52844Y-43975D01*
X52761Y-43975D01*
X52679Y-43990D01*
X52602Y-44022D01*
X52532Y-44067D01*
X52473Y-44126D01*
X52426Y-44195D01*
X52393Y-44271D01*
X52376Y-44353D01*
X52374Y-44436D01*
X52390Y-44518D01*
X52420Y-44596D01*
X52466Y-44666D01*
X52523Y-44725D01*
X52592Y-44773D01*
X52668Y-44806D01*
X52750Y-44824D01*
X52833Y-44826D01*
X52915Y-44811D01*
X52993Y-44781D01*
X53063Y-44736D01*
X53124Y-44679D01*
X53171Y-44611D01*
X53205Y-44534D01*
X53224Y-44453D01*
X53225Y-44358D01*
X53209Y-44276D01*
X53193Y-44239D01*
X53468Y-43965D01*
X55131Y-43965D01*
X55682Y-44515D01*
X55683Y-44516D01*
X55707Y-44536D01*
X55708Y-44537D01*
X55720Y-44543D01*
X55735Y-44552D01*
X55736Y-44552D01*
X55766Y-44561D01*
X55767Y-44561D01*
X55798Y-44565D01*
X55800Y-44565D01*
X56798Y-44565D01*
X56800Y-44565D01*
X56830Y-44562D01*
X56832Y-44562D01*
X56862Y-44553D01*
X56863Y-44553D01*
X56878Y-44544D01*
X56890Y-44538D01*
X56891Y-44537D01*
X56915Y-44518D01*
X56916Y-44517D01*
X56917Y-44517D01*
X57519Y-43915D01*
X57951Y-43915D01*
X57951Y-43939D01*
X57956Y-43963D01*
X57965Y-43985D01*
X57978Y-44006D01*
X57995Y-44023D01*
X58016Y-44037D01*
X58038Y-44046D01*
X58062Y-44051D01*
X58086Y-44051D01*
X58677Y-44051D01*
X58701Y-44046D01*
X58723Y-44037D01*
X58744Y-44024D01*
X58761Y-44007D01*
X58775Y-43986D01*
X58784Y-43964D01*
X58789Y-43940D01*
X58789Y-44861D01*
X58784Y-44837D01*
X58775Y-44815D01*
X58762Y-44794D01*
X58745Y-44777D01*
X58724Y-44763D01*
X58702Y-44754D01*
X58678Y-44749D01*
X58654Y-44749D01*
X58063Y-44749D01*
X58039Y-44754D01*
X58017Y-44763D01*
X57996Y-44776D01*
X57979Y-44793D01*
X57965Y-44814D01*
X57956Y-44836D01*
X57954Y-44845D01*
X57856Y-44845D01*
X57834Y-44810D01*
X57792Y-44768D01*
X57744Y-44735D01*
X57690Y-44712D01*
X57632Y-44700D01*
X57573Y-44700D01*
X57515Y-44711D01*
X57461Y-44733D01*
X57411Y-44765D01*
X57369Y-44806D01*
X57336Y-44854D01*
X57313Y-44908D01*
X57301Y-44966D01*
X57300Y-45025D01*
X57310Y-45083D01*
X57332Y-45137D01*
X57364Y-45187D01*
X57404Y-45229D01*
X57453Y-45263D01*
X57506Y-45287D01*
X57564Y-45299D01*
X57623Y-45301D01*
X57681Y-45290D01*
X57736Y-45269D01*
X57758Y-45255D01*
X57954Y-45255D01*
X57956Y-45263D01*
X57965Y-45285D01*
X57978Y-45306D01*
X57995Y-45323D01*
X58016Y-45337D01*
X58038Y-45346D01*
X58062Y-45351D01*
X58086Y-45351D01*
X58677Y-45351D01*
X58701Y-45346D01*
X58723Y-45337D01*
X58744Y-45324D01*
X58761Y-45307D01*
X58775Y-45286D01*
X58784Y-45264D01*
X58789Y-45240D01*
X58789Y-45450D01*
X56849Y-45450D01*
X56849Y-45240D01*
X56849Y-45216D01*
X56849Y-44861D01*
X56844Y-44837D01*
X56835Y-44815D01*
X56822Y-44794D01*
X56805Y-44777D01*
X56784Y-44763D01*
X56762Y-44754D01*
X56738Y-44749D01*
X56714Y-44749D01*
X56123Y-44749D01*
X56099Y-44754D01*
X56077Y-44763D01*
X56056Y-44776D01*
X56039Y-44793D01*
X56025Y-44814D01*
X56016Y-44836D01*
X56011Y-44860D01*
X56011Y-44884D01*
X56011Y-44885D01*
X54225Y-44885D01*
X54225Y-44406D01*
X54219Y-44324D01*
X54195Y-44244D01*
X54190Y-44232D01*
X54137Y-44195D01*
X54005Y-44327D01*
X54005Y-44063D01*
X53968Y-44010D01*
X53889Y-43984D01*
X53806Y-43975D01*
X53724Y-43981D01*
X53644Y-44005D01*
X53632Y-44010D01*
X53595Y-44063D01*
X53800Y-44268D01*
X54005Y-44063D01*
X54005Y-44327D01*
X53932Y-44400D01*
X54137Y-44605D01*
X54190Y-44568D01*
X54216Y-44489D01*
X54225Y-44406D01*
X54225Y-44885D01*
X54005Y-44885D01*
X54005Y-44737D01*
X53800Y-44532D01*
X53668Y-44664D01*
X53668Y-44400D01*
X53463Y-44195D01*
X53410Y-44232D01*
X53384Y-44311D01*
X53375Y-44394D01*
X53381Y-44476D01*
X53405Y-44556D01*
X53410Y-44568D01*
X53463Y-44605D01*
X53668Y-44400D01*
X53668Y-44664D01*
X53595Y-44737D01*
X53632Y-44790D01*
X53711Y-44816D01*
X53794Y-44825D01*
X53876Y-44819D01*
X53956Y-44795D01*
X53968Y-44790D01*
X54005Y-44737D01*
X54005Y-44885D01*
X52224Y-44885D01*
X52224Y-44713D01*
X52224Y-44689D01*
X52224Y-44088D01*
X52219Y-44064D01*
X52210Y-44042D01*
X52197Y-44021D01*
X52180Y-44004D01*
X52159Y-43990D01*
X52137Y-43981D01*
X52113Y-43976D01*
X52089Y-43976D01*
X51488Y-43976D01*
X51464Y-43981D01*
X51442Y-43990D01*
X51421Y-44003D01*
X51404Y-44020D01*
X51390Y-44041D01*
X51381Y-44063D01*
X51376Y-44087D01*
X51376Y-44111D01*
X51376Y-44712D01*
X51381Y-44736D01*
X51390Y-44758D01*
X51403Y-44779D01*
X51420Y-44796D01*
X51441Y-44810D01*
X51463Y-44819D01*
X51487Y-44824D01*
X51511Y-44824D01*
X52112Y-44824D01*
X52136Y-44819D01*
X52158Y-44810D01*
X52179Y-44797D01*
X52196Y-44780D01*
X52210Y-44759D01*
X52219Y-44737D01*
X52224Y-44713D01*
X52224Y-44885D01*
X50918Y-44885D01*
X49668Y-43635D01*
X49667Y-43633D01*
X49643Y-43614D01*
X49642Y-43613D01*
X49615Y-43598D01*
X49614Y-43597D01*
X49592Y-43591D01*
X49589Y-43590D01*
X49589Y-43561D01*
X49584Y-43537D01*
X49575Y-43515D01*
X49562Y-43494D01*
X49545Y-43477D01*
X49524Y-43463D01*
X49502Y-43454D01*
X49478Y-43449D01*
X49454Y-43449D01*
X48863Y-43449D01*
X48839Y-43454D01*
X48817Y-43463D01*
X48796Y-43476D01*
X48779Y-43493D01*
X48765Y-43514D01*
X48756Y-43536D01*
X48751Y-43560D01*
X48751Y-43584D01*
X48751Y-43939D01*
X48756Y-43963D01*
X48765Y-43985D01*
X48778Y-44006D01*
X48795Y-44023D01*
X48816Y-44037D01*
X48838Y-44046D01*
X48862Y-44051D01*
X48886Y-44051D01*
X49477Y-44051D01*
X49501Y-44046D01*
X49523Y-44037D01*
X49544Y-44024D01*
X49561Y-44007D01*
X49565Y-43999D01*
X50732Y-45165D01*
X50733Y-45166D01*
X50757Y-45186D01*
X50758Y-45187D01*
X50770Y-45193D01*
X50785Y-45202D01*
X50786Y-45202D01*
X50816Y-45211D01*
X50817Y-45211D01*
X50848Y-45215D01*
X50850Y-45215D01*
X56011Y-45215D01*
X56011Y-45239D01*
X56016Y-45263D01*
X56025Y-45285D01*
X56038Y-45306D01*
X56055Y-45323D01*
X56076Y-45337D01*
X56098Y-45346D01*
X56122Y-45351D01*
X56146Y-45351D01*
X56737Y-45351D01*
X56761Y-45346D01*
X56783Y-45337D01*
X56804Y-45324D01*
X56821Y-45307D01*
X56835Y-45286D01*
X56844Y-45264D01*
X56849Y-45240D01*
X56849Y-45450D01*
X50300Y-45450D01*
X50300Y-44971D01*
X50289Y-44913D01*
X50266Y-44859D01*
X50234Y-44810D01*
X50192Y-44768D01*
X50144Y-44735D01*
X50090Y-44712D01*
X50032Y-44700D01*
X49973Y-44700D01*
X49915Y-44711D01*
X49861Y-44733D01*
X49811Y-44765D01*
X49769Y-44806D01*
X49742Y-44845D01*
X49585Y-44845D01*
X49584Y-44837D01*
X49575Y-44815D01*
X49562Y-44794D01*
X49545Y-44777D01*
X49524Y-44763D01*
X49502Y-44754D01*
X49478Y-44749D01*
X49454Y-44749D01*
X48863Y-44749D01*
X48839Y-44754D01*
X48817Y-44763D01*
X48796Y-44776D01*
X48779Y-44793D01*
X48765Y-44814D01*
X48756Y-44836D01*
X48751Y-44860D01*
X48751Y-44884D01*
X48751Y-45239D01*
X48756Y-45263D01*
X48765Y-45285D01*
X48778Y-45306D01*
X48795Y-45323D01*
X48816Y-45337D01*
X48838Y-45346D01*
X48862Y-45351D01*
X48886Y-45351D01*
X49477Y-45351D01*
X49501Y-45346D01*
X49523Y-45337D01*
X49544Y-45324D01*
X49561Y-45307D01*
X49575Y-45286D01*
X49584Y-45264D01*
X49585Y-45255D01*
X49841Y-45255D01*
X49853Y-45263D01*
X49906Y-45287D01*
X49964Y-45299D01*
X50023Y-45301D01*
X50081Y-45290D01*
X50136Y-45269D01*
X50185Y-45238D01*
X50228Y-45197D01*
X50262Y-45149D01*
X50286Y-45096D01*
X50299Y-45038D01*
X50300Y-44971D01*
X50300Y-45450D01*
X47651Y-45450D01*
X47651Y-43869D01*
X47651Y-43631D01*
X47650Y-43584D01*
X47650Y-43560D01*
X47645Y-43536D01*
X47635Y-43513D01*
X47622Y-43493D01*
X47604Y-43476D01*
X47584Y-43462D01*
X47561Y-43453D01*
X47537Y-43448D01*
X47354Y-43447D01*
X47323Y-43478D01*
X47323Y-43662D01*
X47620Y-43662D01*
X47651Y-43631D01*
X47651Y-43869D01*
X47620Y-43838D01*
X47323Y-43838D01*
X47323Y-44022D01*
X47354Y-44053D01*
X47537Y-44052D01*
X47561Y-44047D01*
X47584Y-44038D01*
X47604Y-44024D01*
X47622Y-44007D01*
X47635Y-43987D01*
X47645Y-43964D01*
X47650Y-43940D01*
X47650Y-43916D01*
X47651Y-43869D01*
X47651Y-45450D01*
X47649Y-45450D01*
X47649Y-45240D01*
X47649Y-45216D01*
X47649Y-44861D01*
X47644Y-44837D01*
X47635Y-44815D01*
X47622Y-44794D01*
X47605Y-44777D01*
X47584Y-44763D01*
X47562Y-44754D01*
X47538Y-44749D01*
X47514Y-44749D01*
X47137Y-44749D01*
X47137Y-44022D01*
X47137Y-43838D01*
X47137Y-43662D01*
X47137Y-43478D01*
X47106Y-43447D01*
X46923Y-43448D01*
X46899Y-43453D01*
X46876Y-43462D01*
X46856Y-43476D01*
X46838Y-43493D01*
X46825Y-43513D01*
X46815Y-43536D01*
X46810Y-43560D01*
X46810Y-43584D01*
X46809Y-43631D01*
X46840Y-43662D01*
X47137Y-43662D01*
X47137Y-43838D01*
X46840Y-43838D01*
X46809Y-43869D01*
X46810Y-43916D01*
X46810Y-43940D01*
X46815Y-43964D01*
X46825Y-43987D01*
X46838Y-44007D01*
X46856Y-44024D01*
X46876Y-44038D01*
X46899Y-44047D01*
X46923Y-44052D01*
X47106Y-44053D01*
X47137Y-44022D01*
X47137Y-44749D01*
X46923Y-44749D01*
X46899Y-44754D01*
X46877Y-44763D01*
X46856Y-44776D01*
X46839Y-44793D01*
X46825Y-44814D01*
X46816Y-44836D01*
X46811Y-44860D01*
X46811Y-44884D01*
X46811Y-44885D01*
X45518Y-44885D01*
X44268Y-43635D01*
X44267Y-43633D01*
X44243Y-43614D01*
X44242Y-43613D01*
X44215Y-43598D01*
X44214Y-43597D01*
X44192Y-43591D01*
X44184Y-43589D01*
X44152Y-43585D01*
X44151Y-43585D01*
X44150Y-43585D01*
X40389Y-43585D01*
X40389Y-43561D01*
X40384Y-43537D01*
X40375Y-43515D01*
X40362Y-43494D01*
X40345Y-43477D01*
X40324Y-43463D01*
X40302Y-43454D01*
X40278Y-43449D01*
X40254Y-43449D01*
X39663Y-43449D01*
X39639Y-43454D01*
X39617Y-43463D01*
X39596Y-43476D01*
X39579Y-43493D01*
X39565Y-43514D01*
X39556Y-43536D01*
X39551Y-43560D01*
X39551Y-43584D01*
X39551Y-43939D01*
X39556Y-43963D01*
X39565Y-43985D01*
X39578Y-44006D01*
X39595Y-44023D01*
X39616Y-44037D01*
X39638Y-44046D01*
X39662Y-44051D01*
X39686Y-44051D01*
X40277Y-44051D01*
X40301Y-44046D01*
X40323Y-44037D01*
X40344Y-44024D01*
X40361Y-44007D01*
X40375Y-43986D01*
X40384Y-43964D01*
X40389Y-43940D01*
X40389Y-43916D01*
X40389Y-43915D01*
X44081Y-43915D01*
X45332Y-45165D01*
X45333Y-45166D01*
X45357Y-45186D01*
X45358Y-45187D01*
X45370Y-45193D01*
X45385Y-45202D01*
X45386Y-45202D01*
X45416Y-45211D01*
X45417Y-45211D01*
X45448Y-45215D01*
X45450Y-45215D01*
X46811Y-45215D01*
X46811Y-45239D01*
X46816Y-45263D01*
X46825Y-45285D01*
X46838Y-45306D01*
X46855Y-45323D01*
X46876Y-45337D01*
X46898Y-45346D01*
X46922Y-45351D01*
X46946Y-45351D01*
X47537Y-45351D01*
X47561Y-45346D01*
X47583Y-45337D01*
X47604Y-45324D01*
X47621Y-45307D01*
X47635Y-45286D01*
X47644Y-45264D01*
X47649Y-45240D01*
X47649Y-45450D01*
X41300Y-45450D01*
X41300Y-44971D01*
X41289Y-44913D01*
X41266Y-44859D01*
X41234Y-44810D01*
X41192Y-44768D01*
X41144Y-44735D01*
X41090Y-44712D01*
X41032Y-44700D01*
X40973Y-44700D01*
X40915Y-44711D01*
X40861Y-44733D01*
X40811Y-44765D01*
X40769Y-44806D01*
X40742Y-44845D01*
X40385Y-44845D01*
X40384Y-44837D01*
X40375Y-44815D01*
X40362Y-44794D01*
X40345Y-44777D01*
X40324Y-44763D01*
X40302Y-44754D01*
X40278Y-44749D01*
X40254Y-44749D01*
X39663Y-44749D01*
X39639Y-44754D01*
X39617Y-44763D01*
X39596Y-44776D01*
X39579Y-44793D01*
X39565Y-44814D01*
X39556Y-44836D01*
X39551Y-44860D01*
X39551Y-44884D01*
X39551Y-45239D01*
X39556Y-45263D01*
X39565Y-45285D01*
X39578Y-45306D01*
X39595Y-45323D01*
X39616Y-45337D01*
X39638Y-45346D01*
X39662Y-45351D01*
X39686Y-45351D01*
X40277Y-45351D01*
X40301Y-45346D01*
X40323Y-45337D01*
X40344Y-45324D01*
X40361Y-45307D01*
X40375Y-45286D01*
X40384Y-45264D01*
X40385Y-45255D01*
X40841Y-45255D01*
X40853Y-45263D01*
X40906Y-45287D01*
X40964Y-45299D01*
X41023Y-45301D01*
X41081Y-45290D01*
X41136Y-45269D01*
X41185Y-45238D01*
X41228Y-45197D01*
X41262Y-45149D01*
X41286Y-45096D01*
X41299Y-45038D01*
X41300Y-44971D01*
X41300Y-45450D01*
X38451Y-45450D01*
X38451Y-43869D01*
X38451Y-43631D01*
X38450Y-43584D01*
X38450Y-43560D01*
X38445Y-43536D01*
X38435Y-43513D01*
X38422Y-43493D01*
X38404Y-43476D01*
X38384Y-43462D01*
X38361Y-43453D01*
X38337Y-43448D01*
X38154Y-43447D01*
X38123Y-43478D01*
X38123Y-43662D01*
X38420Y-43662D01*
X38451Y-43631D01*
X38451Y-43869D01*
X38420Y-43838D01*
X38123Y-43838D01*
X38123Y-44022D01*
X38154Y-44053D01*
X38337Y-44052D01*
X38361Y-44047D01*
X38384Y-44038D01*
X38404Y-44024D01*
X38422Y-44007D01*
X38435Y-43987D01*
X38445Y-43964D01*
X38450Y-43940D01*
X38450Y-43916D01*
X38451Y-43869D01*
X38451Y-45450D01*
X38449Y-45450D01*
X38449Y-45240D01*
X38449Y-45216D01*
X38449Y-44861D01*
X38444Y-44837D01*
X38435Y-44815D01*
X38422Y-44794D01*
X38405Y-44777D01*
X38384Y-44763D01*
X38362Y-44754D01*
X38338Y-44749D01*
X38314Y-44749D01*
X37962Y-44749D01*
X37937Y-44724D01*
X37937Y-44022D01*
X37937Y-43838D01*
X37937Y-43662D01*
X37937Y-43478D01*
X37906Y-43447D01*
X37723Y-43448D01*
X37699Y-43453D01*
X37676Y-43462D01*
X37656Y-43476D01*
X37638Y-43493D01*
X37625Y-43513D01*
X37615Y-43536D01*
X37610Y-43560D01*
X37610Y-43584D01*
X37609Y-43631D01*
X37640Y-43662D01*
X37937Y-43662D01*
X37937Y-43838D01*
X37640Y-43838D01*
X37609Y-43869D01*
X37610Y-43916D01*
X37610Y-43940D01*
X37615Y-43964D01*
X37625Y-43987D01*
X37638Y-44007D01*
X37656Y-44024D01*
X37676Y-44038D01*
X37699Y-44047D01*
X37723Y-44052D01*
X37906Y-44053D01*
X37937Y-44022D01*
X37937Y-44724D01*
X36848Y-43635D01*
X36847Y-43633D01*
X36823Y-43614D01*
X36822Y-43613D01*
X36795Y-43598D01*
X36794Y-43597D01*
X36772Y-43591D01*
X36764Y-43589D01*
X36732Y-43585D01*
X36731Y-43585D01*
X36730Y-43585D01*
X31189Y-43585D01*
X31189Y-43561D01*
X31184Y-43537D01*
X31175Y-43515D01*
X31162Y-43494D01*
X31145Y-43477D01*
X31124Y-43463D01*
X31102Y-43454D01*
X31078Y-43449D01*
X31054Y-43449D01*
X30463Y-43449D01*
X30439Y-43454D01*
X30417Y-43463D01*
X30396Y-43476D01*
X30379Y-43493D01*
X30365Y-43514D01*
X30356Y-43536D01*
X30351Y-43560D01*
X30351Y-43584D01*
X30351Y-43939D01*
X30356Y-43963D01*
X30365Y-43985D01*
X30378Y-44006D01*
X30395Y-44023D01*
X30416Y-44037D01*
X30438Y-44046D01*
X30462Y-44051D01*
X30486Y-44051D01*
X31077Y-44051D01*
X31101Y-44046D01*
X31123Y-44037D01*
X31144Y-44024D01*
X31161Y-44007D01*
X31175Y-43986D01*
X31184Y-43964D01*
X31189Y-43940D01*
X31189Y-43916D01*
X31189Y-43915D01*
X36661Y-43915D01*
X37611Y-44864D01*
X37611Y-44884D01*
X37611Y-45239D01*
X37616Y-45263D01*
X37625Y-45285D01*
X37638Y-45306D01*
X37655Y-45323D01*
X37676Y-45337D01*
X37698Y-45346D01*
X37722Y-45351D01*
X37746Y-45351D01*
X38337Y-45351D01*
X38361Y-45346D01*
X38383Y-45337D01*
X38404Y-45324D01*
X38421Y-45307D01*
X38435Y-45286D01*
X38444Y-45264D01*
X38449Y-45240D01*
X38449Y-45450D01*
X35825Y-45450D01*
X35825Y-44406D01*
X35819Y-44324D01*
X35795Y-44244D01*
X35790Y-44232D01*
X35737Y-44195D01*
X35605Y-44327D01*
X35605Y-44063D01*
X35568Y-44010D01*
X35489Y-43984D01*
X35406Y-43975D01*
X35324Y-43981D01*
X35244Y-44005D01*
X35232Y-44010D01*
X35195Y-44063D01*
X35400Y-44268D01*
X35605Y-44063D01*
X35605Y-44327D01*
X35532Y-44400D01*
X35737Y-44605D01*
X35790Y-44568D01*
X35816Y-44489D01*
X35825Y-44406D01*
X35825Y-45450D01*
X35605Y-45450D01*
X35605Y-44737D01*
X35400Y-44532D01*
X35268Y-44664D01*
X35268Y-44400D01*
X35063Y-44195D01*
X35010Y-44232D01*
X34984Y-44311D01*
X34975Y-44394D01*
X34981Y-44476D01*
X35005Y-44556D01*
X35010Y-44568D01*
X35063Y-44605D01*
X35268Y-44400D01*
X35268Y-44664D01*
X35195Y-44737D01*
X35232Y-44790D01*
X35311Y-44816D01*
X35394Y-44825D01*
X35476Y-44819D01*
X35556Y-44795D01*
X35568Y-44790D01*
X35605Y-44737D01*
X35605Y-45450D01*
X34825Y-45450D01*
X34825Y-44358D01*
X34809Y-44276D01*
X34777Y-44199D01*
X34731Y-44130D01*
X34672Y-44071D01*
X34603Y-44024D01*
X34526Y-43992D01*
X34444Y-43975D01*
X34361Y-43975D01*
X34279Y-43990D01*
X34202Y-44022D01*
X34132Y-44067D01*
X34073Y-44126D01*
X34026Y-44195D01*
X33993Y-44271D01*
X33976Y-44353D01*
X33974Y-44436D01*
X33990Y-44518D01*
X34020Y-44596D01*
X34066Y-44666D01*
X34123Y-44725D01*
X34192Y-44773D01*
X33931Y-45035D01*
X33824Y-45035D01*
X33824Y-44713D01*
X33824Y-44689D01*
X33824Y-44088D01*
X33819Y-44064D01*
X33810Y-44042D01*
X33797Y-44021D01*
X33780Y-44004D01*
X33759Y-43990D01*
X33737Y-43981D01*
X33713Y-43976D01*
X33689Y-43976D01*
X33088Y-43976D01*
X33064Y-43981D01*
X33042Y-43990D01*
X33021Y-44003D01*
X33004Y-44020D01*
X32990Y-44041D01*
X32981Y-44063D01*
X32976Y-44087D01*
X32976Y-44111D01*
X32976Y-44712D01*
X32981Y-44736D01*
X32990Y-44758D01*
X33003Y-44779D01*
X33020Y-44796D01*
X33041Y-44810D01*
X33063Y-44819D01*
X33087Y-44824D01*
X33111Y-44824D01*
X33712Y-44824D01*
X33736Y-44819D01*
X33758Y-44810D01*
X33779Y-44797D01*
X33796Y-44780D01*
X33810Y-44759D01*
X33819Y-44737D01*
X33824Y-44713D01*
X33824Y-45035D01*
X32468Y-45035D01*
X31918Y-44485D01*
X31917Y-44483D01*
X31893Y-44464D01*
X31892Y-44463D01*
X31865Y-44448D01*
X31864Y-44447D01*
X31842Y-44441D01*
X31834Y-44439D01*
X31802Y-44435D01*
X31801Y-44435D01*
X31800Y-44435D01*
X30400Y-44435D01*
X30368Y-44438D01*
X30337Y-44447D01*
X30322Y-44455D01*
X30310Y-44462D01*
X30284Y-44482D01*
X30283Y-44484D01*
X29881Y-44885D01*
X29251Y-44885D01*
X29251Y-43869D01*
X29251Y-43631D01*
X29250Y-43584D01*
X29250Y-43560D01*
X29245Y-43536D01*
X29235Y-43513D01*
X29222Y-43493D01*
X29204Y-43476D01*
X29184Y-43462D01*
X29161Y-43453D01*
X29137Y-43448D01*
X28954Y-43447D01*
X28923Y-43478D01*
X28923Y-43662D01*
X29220Y-43662D01*
X29251Y-43631D01*
X29251Y-43869D01*
X29220Y-43838D01*
X28923Y-43838D01*
X28923Y-44022D01*
X28954Y-44053D01*
X29137Y-44052D01*
X29161Y-44047D01*
X29184Y-44038D01*
X29204Y-44024D01*
X29222Y-44007D01*
X29235Y-43987D01*
X29245Y-43964D01*
X29250Y-43940D01*
X29250Y-43916D01*
X29251Y-43869D01*
X29251Y-44885D01*
X29249Y-44885D01*
X29249Y-44861D01*
X29244Y-44837D01*
X29235Y-44815D01*
X29222Y-44794D01*
X29205Y-44777D01*
X29184Y-44763D01*
X29162Y-44754D01*
X29138Y-44749D01*
X29114Y-44749D01*
X28737Y-44749D01*
X28737Y-44022D01*
X28737Y-43838D01*
X28737Y-43662D01*
X28737Y-43478D01*
X28706Y-43447D01*
X28523Y-43448D01*
X28499Y-43453D01*
X28476Y-43462D01*
X28456Y-43476D01*
X28438Y-43493D01*
X28425Y-43513D01*
X28415Y-43536D01*
X28410Y-43560D01*
X28410Y-43584D01*
X28409Y-43631D01*
X28440Y-43662D01*
X28737Y-43662D01*
X28737Y-43838D01*
X28440Y-43838D01*
X28409Y-43869D01*
X28410Y-43916D01*
X28410Y-43940D01*
X28415Y-43964D01*
X28425Y-43987D01*
X28438Y-44007D01*
X28456Y-44024D01*
X28476Y-44038D01*
X28499Y-44047D01*
X28523Y-44052D01*
X28706Y-44053D01*
X28737Y-44022D01*
X28737Y-44749D01*
X28523Y-44749D01*
X28499Y-44754D01*
X28477Y-44763D01*
X28456Y-44776D01*
X28439Y-44793D01*
X28425Y-44814D01*
X28416Y-44836D01*
X28411Y-44860D01*
X28411Y-44884D01*
X28411Y-45239D01*
X28416Y-45263D01*
X28425Y-45285D01*
X28438Y-45306D01*
X28455Y-45323D01*
X28476Y-45337D01*
X28498Y-45346D01*
X28522Y-45351D01*
X28546Y-45351D01*
X29137Y-45351D01*
X29161Y-45346D01*
X29183Y-45337D01*
X29204Y-45324D01*
X29221Y-45307D01*
X29235Y-45286D01*
X29244Y-45264D01*
X29249Y-45240D01*
X29249Y-45216D01*
X29249Y-45215D01*
X29948Y-45215D01*
X29950Y-45215D01*
X29980Y-45212D01*
X29982Y-45212D01*
X30012Y-45203D01*
X30013Y-45203D01*
X30028Y-45194D01*
X30040Y-45188D01*
X30041Y-45187D01*
X30065Y-45168D01*
X30066Y-45167D01*
X30067Y-45167D01*
X30351Y-44882D01*
X30351Y-44884D01*
X30351Y-45239D01*
X30356Y-45263D01*
X30365Y-45285D01*
X30378Y-45306D01*
X30395Y-45323D01*
X30416Y-45337D01*
X30438Y-45346D01*
X30462Y-45351D01*
X30486Y-45351D01*
X31077Y-45351D01*
X31101Y-45346D01*
X31123Y-45337D01*
X31144Y-45324D01*
X31161Y-45307D01*
X31175Y-45286D01*
X31184Y-45264D01*
X31185Y-45255D01*
X31441Y-45255D01*
X31453Y-45263D01*
X31506Y-45287D01*
X31564Y-45299D01*
X31623Y-45301D01*
X31681Y-45290D01*
X31736Y-45269D01*
X31785Y-45238D01*
X31828Y-45197D01*
X31862Y-45149D01*
X31886Y-45096D01*
X31899Y-45038D01*
X31900Y-44971D01*
X31891Y-44924D01*
X32282Y-45315D01*
X32283Y-45316D01*
X32307Y-45336D01*
X32308Y-45337D01*
X32320Y-45343D01*
X32335Y-45352D01*
X32336Y-45352D01*
X32366Y-45361D01*
X32367Y-45361D01*
X32398Y-45365D01*
X32400Y-45365D01*
X33998Y-45365D01*
X34000Y-45365D01*
X34030Y-45362D01*
X34032Y-45362D01*
X34062Y-45353D01*
X34063Y-45353D01*
X34078Y-45344D01*
X34090Y-45338D01*
X34091Y-45337D01*
X34115Y-45318D01*
X34116Y-45317D01*
X34117Y-45317D01*
X34515Y-44918D01*
X34516Y-44917D01*
X34536Y-44893D01*
X34537Y-44892D01*
X34543Y-44880D01*
X34552Y-44865D01*
X34552Y-44864D01*
X34561Y-44834D01*
X34561Y-44833D01*
X34565Y-44802D01*
X34565Y-44800D01*
X34565Y-44791D01*
X34593Y-44781D01*
X34663Y-44736D01*
X34724Y-44679D01*
X34771Y-44611D01*
X34805Y-44534D01*
X34824Y-44453D01*
X34825Y-44358D01*
X34825Y-45450D01*
X28350Y-45450D01*
X28350Y-43350D01*
X58850Y-43350D01*
X58850Y-45450D01*
X58850Y-45450D01*
G37*
G54D17*
X58850Y-45450D02*
X58789Y-45450D01*
X58789Y-45240D01*
X58789Y-45216D01*
X58789Y-44861D01*
X58789Y-43940D01*
X58789Y-43916D01*
X58789Y-43561D01*
X58784Y-43537D01*
X58775Y-43515D01*
X58762Y-43494D01*
X58745Y-43477D01*
X58724Y-43463D01*
X58702Y-43454D01*
X58678Y-43449D01*
X58654Y-43449D01*
X58063Y-43449D01*
X58039Y-43454D01*
X58017Y-43463D01*
X57996Y-43476D01*
X57979Y-43493D01*
X57965Y-43514D01*
X57956Y-43536D01*
X57951Y-43560D01*
X57951Y-43584D01*
X57951Y-43585D01*
X57452Y-43585D01*
X57450Y-43585D01*
X57418Y-43588D01*
X57387Y-43597D01*
X57372Y-43605D01*
X57360Y-43612D01*
X57335Y-43632D01*
X57333Y-43633D01*
X56851Y-44115D01*
X56851Y-43869D01*
X56851Y-43631D01*
X56850Y-43584D01*
X56850Y-43560D01*
X56845Y-43536D01*
X56835Y-43513D01*
X56822Y-43493D01*
X56804Y-43476D01*
X56784Y-43462D01*
X56761Y-43453D01*
X56737Y-43448D01*
X56554Y-43447D01*
X56523Y-43478D01*
X56523Y-43662D01*
X56820Y-43662D01*
X56851Y-43631D01*
X56851Y-43869D01*
X56820Y-43838D01*
X56523Y-43838D01*
X56523Y-44022D01*
X56554Y-44053D01*
X56737Y-44052D01*
X56761Y-44047D01*
X56784Y-44038D01*
X56804Y-44024D01*
X56822Y-44007D01*
X56835Y-43987D01*
X56845Y-43964D01*
X56850Y-43940D01*
X56850Y-43916D01*
X56851Y-43869D01*
X56851Y-44115D01*
X56731Y-44235D01*
X56337Y-44235D01*
X56337Y-44022D01*
X56337Y-43838D01*
X56337Y-43662D01*
X56337Y-43478D01*
X56306Y-43447D01*
X56123Y-43448D01*
X56099Y-43453D01*
X56076Y-43462D01*
X56056Y-43476D01*
X56038Y-43493D01*
X56025Y-43513D01*
X56015Y-43536D01*
X56010Y-43560D01*
X56010Y-43584D01*
X56009Y-43631D01*
X56040Y-43662D01*
X56337Y-43662D01*
X56337Y-43838D01*
X56040Y-43838D01*
X56009Y-43869D01*
X56010Y-43916D01*
X56010Y-43940D01*
X56015Y-43964D01*
X56025Y-43987D01*
X56038Y-44007D01*
X56056Y-44024D01*
X56076Y-44038D01*
X56099Y-44047D01*
X56123Y-44052D01*
X56306Y-44053D01*
X56337Y-44022D01*
X56337Y-44235D01*
X55868Y-44235D01*
X55318Y-43685D01*
X55317Y-43683D01*
X55293Y-43664D01*
X55292Y-43663D01*
X55265Y-43648D01*
X55264Y-43647D01*
X55242Y-43641D01*
X55234Y-43639D01*
X55202Y-43635D01*
X55201Y-43635D01*
X55200Y-43635D01*
X53400Y-43635D01*
X53368Y-43638D01*
X53337Y-43647D01*
X53322Y-43655D01*
X53310Y-43662D01*
X53284Y-43682D01*
X53283Y-43684D01*
X52960Y-44006D01*
X52926Y-43992D01*
X52844Y-43975D01*
X52761Y-43975D01*
X52679Y-43990D01*
X52602Y-44022D01*
X52532Y-44067D01*
X52473Y-44126D01*
X52426Y-44195D01*
X52393Y-44271D01*
X52376Y-44353D01*
X52374Y-44436D01*
X52390Y-44518D01*
X52420Y-44596D01*
X52466Y-44666D01*
X52523Y-44725D01*
X52592Y-44773D01*
X52668Y-44806D01*
X52750Y-44824D01*
X52833Y-44826D01*
X52915Y-44811D01*
X52993Y-44781D01*
X53063Y-44736D01*
X53124Y-44679D01*
X53171Y-44611D01*
X53205Y-44534D01*
X53224Y-44453D01*
X53225Y-44358D01*
X53209Y-44276D01*
X53193Y-44239D01*
X53468Y-43965D01*
X55131Y-43965D01*
X55682Y-44515D01*
X55683Y-44516D01*
X55707Y-44536D01*
X55708Y-44537D01*
X55720Y-44543D01*
X55735Y-44552D01*
X55736Y-44552D01*
X55766Y-44561D01*
X55767Y-44561D01*
X55798Y-44565D01*
X55800Y-44565D01*
X56798Y-44565D01*
X56800Y-44565D01*
X56830Y-44562D01*
X56832Y-44562D01*
X56862Y-44553D01*
X56863Y-44553D01*
X56878Y-44544D01*
X56890Y-44538D01*
X56891Y-44537D01*
X56915Y-44518D01*
X56916Y-44517D01*
X56917Y-44517D01*
X57519Y-43915D01*
X57951Y-43915D01*
X57951Y-43939D01*
X57956Y-43963D01*
X57965Y-43985D01*
X57978Y-44006D01*
X57995Y-44023D01*
X58016Y-44037D01*
X58038Y-44046D01*
X58062Y-44051D01*
X58086Y-44051D01*
X58677Y-44051D01*
X58701Y-44046D01*
X58723Y-44037D01*
X58744Y-44024D01*
X58761Y-44007D01*
X58775Y-43986D01*
X58784Y-43964D01*
X58789Y-43940D01*
X58789Y-44861D01*
X58784Y-44837D01*
X58775Y-44815D01*
X58762Y-44794D01*
X58745Y-44777D01*
X58724Y-44763D01*
X58702Y-44754D01*
X58678Y-44749D01*
X58654Y-44749D01*
X58063Y-44749D01*
X58039Y-44754D01*
X58017Y-44763D01*
X57996Y-44776D01*
X57979Y-44793D01*
X57965Y-44814D01*
X57956Y-44836D01*
X57954Y-44845D01*
X57856Y-44845D01*
X57834Y-44810D01*
X57792Y-44768D01*
X57744Y-44735D01*
X57690Y-44712D01*
X57632Y-44700D01*
X57573Y-44700D01*
X57515Y-44711D01*
X57461Y-44733D01*
X57411Y-44765D01*
X57369Y-44806D01*
X57336Y-44854D01*
X57313Y-44908D01*
X57301Y-44966D01*
X57300Y-45025D01*
X57310Y-45083D01*
X57332Y-45137D01*
X57364Y-45187D01*
X57404Y-45229D01*
X57453Y-45263D01*
X57506Y-45287D01*
X57564Y-45299D01*
X57623Y-45301D01*
X57681Y-45290D01*
X57736Y-45269D01*
X57758Y-45255D01*
X57954Y-45255D01*
X57956Y-45263D01*
X57965Y-45285D01*
X57978Y-45306D01*
X57995Y-45323D01*
X58016Y-45337D01*
X58038Y-45346D01*
X58062Y-45351D01*
X58086Y-45351D01*
X58677Y-45351D01*
X58701Y-45346D01*
X58723Y-45337D01*
X58744Y-45324D01*
X58761Y-45307D01*
X58775Y-45286D01*
X58784Y-45264D01*
X58789Y-45240D01*
X58789Y-45450D01*
X56849Y-45450D01*
X56849Y-45240D01*
X56849Y-45216D01*
X56849Y-44861D01*
X56844Y-44837D01*
X56835Y-44815D01*
X56822Y-44794D01*
X56805Y-44777D01*
X56784Y-44763D01*
X56762Y-44754D01*
X56738Y-44749D01*
X56714Y-44749D01*
X56123Y-44749D01*
X56099Y-44754D01*
X56077Y-44763D01*
X56056Y-44776D01*
X56039Y-44793D01*
X56025Y-44814D01*
X56016Y-44836D01*
X56011Y-44860D01*
X56011Y-44884D01*
X56011Y-44885D01*
X54225Y-44885D01*
X54225Y-44406D01*
X54219Y-44324D01*
X54195Y-44244D01*
X54190Y-44232D01*
X54137Y-44195D01*
X54005Y-44327D01*
X54005Y-44063D01*
X53968Y-44010D01*
X53889Y-43984D01*
X53806Y-43975D01*
X53724Y-43981D01*
X53644Y-44005D01*
X53632Y-44010D01*
X53595Y-44063D01*
X53800Y-44268D01*
X54005Y-44063D01*
X54005Y-44327D01*
X53932Y-44400D01*
X54137Y-44605D01*
X54190Y-44568D01*
X54216Y-44489D01*
X54225Y-44406D01*
X54225Y-44885D01*
X54005Y-44885D01*
X54005Y-44737D01*
X53800Y-44532D01*
X53668Y-44664D01*
X53668Y-44400D01*
X53463Y-44195D01*
X53410Y-44232D01*
X53384Y-44311D01*
X53375Y-44394D01*
X53381Y-44476D01*
X53405Y-44556D01*
X53410Y-44568D01*
X53463Y-44605D01*
X53668Y-44400D01*
X53668Y-44664D01*
X53595Y-44737D01*
X53632Y-44790D01*
X53711Y-44816D01*
X53794Y-44825D01*
X53876Y-44819D01*
X53956Y-44795D01*
X53968Y-44790D01*
X54005Y-44737D01*
X54005Y-44885D01*
X52224Y-44885D01*
X52224Y-44713D01*
X52224Y-44689D01*
X52224Y-44088D01*
X52219Y-44064D01*
X52210Y-44042D01*
X52197Y-44021D01*
X52180Y-44004D01*
X52159Y-43990D01*
X52137Y-43981D01*
X52113Y-43976D01*
X52089Y-43976D01*
X51488Y-43976D01*
X51464Y-43981D01*
X51442Y-43990D01*
X51421Y-44003D01*
X51404Y-44020D01*
X51390Y-44041D01*
X51381Y-44063D01*
X51376Y-44087D01*
X51376Y-44111D01*
X51376Y-44712D01*
X51381Y-44736D01*
X51390Y-44758D01*
X51403Y-44779D01*
X51420Y-44796D01*
X51441Y-44810D01*
X51463Y-44819D01*
X51487Y-44824D01*
X51511Y-44824D01*
X52112Y-44824D01*
X52136Y-44819D01*
X52158Y-44810D01*
X52179Y-44797D01*
X52196Y-44780D01*
X52210Y-44759D01*
X52219Y-44737D01*
X52224Y-44713D01*
X52224Y-44885D01*
X50918Y-44885D01*
X49668Y-43635D01*
X49667Y-43633D01*
X49643Y-43614D01*
X49642Y-43613D01*
X49615Y-43598D01*
X49614Y-43597D01*
X49592Y-43591D01*
X49589Y-43590D01*
X49589Y-43561D01*
X49584Y-43537D01*
X49575Y-43515D01*
X49562Y-43494D01*
X49545Y-43477D01*
X49524Y-43463D01*
X49502Y-43454D01*
X49478Y-43449D01*
X49454Y-43449D01*
X48863Y-43449D01*
X48839Y-43454D01*
X48817Y-43463D01*
X48796Y-43476D01*
X48779Y-43493D01*
X48765Y-43514D01*
X48756Y-43536D01*
X48751Y-43560D01*
X48751Y-43584D01*
X48751Y-43939D01*
X48756Y-43963D01*
X48765Y-43985D01*
X48778Y-44006D01*
X48795Y-44023D01*
X48816Y-44037D01*
X48838Y-44046D01*
X48862Y-44051D01*
X48886Y-44051D01*
X49477Y-44051D01*
X49501Y-44046D01*
X49523Y-44037D01*
X49544Y-44024D01*
X49561Y-44007D01*
X49565Y-43999D01*
X50732Y-45165D01*
X50733Y-45166D01*
X50757Y-45186D01*
X50758Y-45187D01*
X50770Y-45193D01*
X50785Y-45202D01*
X50786Y-45202D01*
X50816Y-45211D01*
X50817Y-45211D01*
X50848Y-45215D01*
X50850Y-45215D01*
X56011Y-45215D01*
X56011Y-45239D01*
X56016Y-45263D01*
X56025Y-45285D01*
X56038Y-45306D01*
X56055Y-45323D01*
X56076Y-45337D01*
X56098Y-45346D01*
X56122Y-45351D01*
X56146Y-45351D01*
X56737Y-45351D01*
X56761Y-45346D01*
X56783Y-45337D01*
X56804Y-45324D01*
X56821Y-45307D01*
X56835Y-45286D01*
X56844Y-45264D01*
X56849Y-45240D01*
X56849Y-45450D01*
X50300Y-45450D01*
X50300Y-44971D01*
X50289Y-44913D01*
X50266Y-44859D01*
X50234Y-44810D01*
X50192Y-44768D01*
X50144Y-44735D01*
X50090Y-44712D01*
X50032Y-44700D01*
X49973Y-44700D01*
X49915Y-44711D01*
X49861Y-44733D01*
X49811Y-44765D01*
X49769Y-44806D01*
X49742Y-44845D01*
X49585Y-44845D01*
X49584Y-44837D01*
X49575Y-44815D01*
X49562Y-44794D01*
X49545Y-44777D01*
X49524Y-44763D01*
X49502Y-44754D01*
X49478Y-44749D01*
X49454Y-44749D01*
X48863Y-44749D01*
X48839Y-44754D01*
X48817Y-44763D01*
X48796Y-44776D01*
X48779Y-44793D01*
X48765Y-44814D01*
X48756Y-44836D01*
X48751Y-44860D01*
X48751Y-44884D01*
X48751Y-45239D01*
X48756Y-45263D01*
X48765Y-45285D01*
X48778Y-45306D01*
X48795Y-45323D01*
X48816Y-45337D01*
X48838Y-45346D01*
X48862Y-45351D01*
X48886Y-45351D01*
X49477Y-45351D01*
X49501Y-45346D01*
X49523Y-45337D01*
X49544Y-45324D01*
X49561Y-45307D01*
X49575Y-45286D01*
X49584Y-45264D01*
X49585Y-45255D01*
X49841Y-45255D01*
X49853Y-45263D01*
X49906Y-45287D01*
X49964Y-45299D01*
X50023Y-45301D01*
X50081Y-45290D01*
X50136Y-45269D01*
X50185Y-45238D01*
X50228Y-45197D01*
X50262Y-45149D01*
X50286Y-45096D01*
X50299Y-45038D01*
X50300Y-44971D01*
X50300Y-45450D01*
X47651Y-45450D01*
X47651Y-43869D01*
X47651Y-43631D01*
X47650Y-43584D01*
X47650Y-43560D01*
X47645Y-43536D01*
X47635Y-43513D01*
X47622Y-43493D01*
X47604Y-43476D01*
X47584Y-43462D01*
X47561Y-43453D01*
X47537Y-43448D01*
X47354Y-43447D01*
X47323Y-43478D01*
X47323Y-43662D01*
X47620Y-43662D01*
X47651Y-43631D01*
X47651Y-43869D01*
X47620Y-43838D01*
X47323Y-43838D01*
X47323Y-44022D01*
X47354Y-44053D01*
X47537Y-44052D01*
X47561Y-44047D01*
X47584Y-44038D01*
X47604Y-44024D01*
X47622Y-44007D01*
X47635Y-43987D01*
X47645Y-43964D01*
X47650Y-43940D01*
X47650Y-43916D01*
X47651Y-43869D01*
X47651Y-45450D01*
X47649Y-45450D01*
X47649Y-45240D01*
X47649Y-45216D01*
X47649Y-44861D01*
X47644Y-44837D01*
X47635Y-44815D01*
X47622Y-44794D01*
X47605Y-44777D01*
X47584Y-44763D01*
X47562Y-44754D01*
X47538Y-44749D01*
X47514Y-44749D01*
X47137Y-44749D01*
X47137Y-44022D01*
X47137Y-43838D01*
X47137Y-43662D01*
X47137Y-43478D01*
X47106Y-43447D01*
X46923Y-43448D01*
X46899Y-43453D01*
X46876Y-43462D01*
X46856Y-43476D01*
X46838Y-43493D01*
X46825Y-43513D01*
X46815Y-43536D01*
X46810Y-43560D01*
X46810Y-43584D01*
X46809Y-43631D01*
X46840Y-43662D01*
X47137Y-43662D01*
X47137Y-43838D01*
X46840Y-43838D01*
X46809Y-43869D01*
X46810Y-43916D01*
X46810Y-43940D01*
X46815Y-43964D01*
X46825Y-43987D01*
X46838Y-44007D01*
X46856Y-44024D01*
X46876Y-44038D01*
X46899Y-44047D01*
X46923Y-44052D01*
X47106Y-44053D01*
X47137Y-44022D01*
X47137Y-44749D01*
X46923Y-44749D01*
X46899Y-44754D01*
X46877Y-44763D01*
X46856Y-44776D01*
X46839Y-44793D01*
X46825Y-44814D01*
X46816Y-44836D01*
X46811Y-44860D01*
X46811Y-44884D01*
X46811Y-44885D01*
X45518Y-44885D01*
X44268Y-43635D01*
X44267Y-43633D01*
X44243Y-43614D01*
X44242Y-43613D01*
X44215Y-43598D01*
X44214Y-43597D01*
X44192Y-43591D01*
X44184Y-43589D01*
X44152Y-43585D01*
X44151Y-43585D01*
X44150Y-43585D01*
X40389Y-43585D01*
X40389Y-43561D01*
X40384Y-43537D01*
X40375Y-43515D01*
X40362Y-43494D01*
X40345Y-43477D01*
X40324Y-43463D01*
X40302Y-43454D01*
X40278Y-43449D01*
X40254Y-43449D01*
X39663Y-43449D01*
X39639Y-43454D01*
X39617Y-43463D01*
X39596Y-43476D01*
X39579Y-43493D01*
X39565Y-43514D01*
X39556Y-43536D01*
X39551Y-43560D01*
X39551Y-43584D01*
X39551Y-43939D01*
X39556Y-43963D01*
X39565Y-43985D01*
X39578Y-44006D01*
X39595Y-44023D01*
X39616Y-44037D01*
X39638Y-44046D01*
X39662Y-44051D01*
X39686Y-44051D01*
X40277Y-44051D01*
X40301Y-44046D01*
X40323Y-44037D01*
X40344Y-44024D01*
X40361Y-44007D01*
X40375Y-43986D01*
X40384Y-43964D01*
X40389Y-43940D01*
X40389Y-43916D01*
X40389Y-43915D01*
X44081Y-43915D01*
X45332Y-45165D01*
X45333Y-45166D01*
X45357Y-45186D01*
X45358Y-45187D01*
X45370Y-45193D01*
X45385Y-45202D01*
X45386Y-45202D01*
X45416Y-45211D01*
X45417Y-45211D01*
X45448Y-45215D01*
X45450Y-45215D01*
X46811Y-45215D01*
X46811Y-45239D01*
X46816Y-45263D01*
X46825Y-45285D01*
X46838Y-45306D01*
X46855Y-45323D01*
X46876Y-45337D01*
X46898Y-45346D01*
X46922Y-45351D01*
X46946Y-45351D01*
X47537Y-45351D01*
X47561Y-45346D01*
X47583Y-45337D01*
X47604Y-45324D01*
X47621Y-45307D01*
X47635Y-45286D01*
X47644Y-45264D01*
X47649Y-45240D01*
X47649Y-45450D01*
X41300Y-45450D01*
X41300Y-44971D01*
X41289Y-44913D01*
X41266Y-44859D01*
X41234Y-44810D01*
X41192Y-44768D01*
X41144Y-44735D01*
X41090Y-44712D01*
X41032Y-44700D01*
X40973Y-44700D01*
X40915Y-44711D01*
X40861Y-44733D01*
X40811Y-44765D01*
X40769Y-44806D01*
X40742Y-44845D01*
X40385Y-44845D01*
X40384Y-44837D01*
X40375Y-44815D01*
X40362Y-44794D01*
X40345Y-44777D01*
X40324Y-44763D01*
X40302Y-44754D01*
X40278Y-44749D01*
X40254Y-44749D01*
X39663Y-44749D01*
X39639Y-44754D01*
X39617Y-44763D01*
X39596Y-44776D01*
X39579Y-44793D01*
X39565Y-44814D01*
X39556Y-44836D01*
X39551Y-44860D01*
X39551Y-44884D01*
X39551Y-45239D01*
X39556Y-45263D01*
X39565Y-45285D01*
X39578Y-45306D01*
X39595Y-45323D01*
X39616Y-45337D01*
X39638Y-45346D01*
X39662Y-45351D01*
X39686Y-45351D01*
X40277Y-45351D01*
X40301Y-45346D01*
X40323Y-45337D01*
X40344Y-45324D01*
X40361Y-45307D01*
X40375Y-45286D01*
X40384Y-45264D01*
X40385Y-45255D01*
X40841Y-45255D01*
X40853Y-45263D01*
X40906Y-45287D01*
X40964Y-45299D01*
X41023Y-45301D01*
X41081Y-45290D01*
X41136Y-45269D01*
X41185Y-45238D01*
X41228Y-45197D01*
X41262Y-45149D01*
X41286Y-45096D01*
X41299Y-45038D01*
X41300Y-44971D01*
X41300Y-45450D01*
X38451Y-45450D01*
X38451Y-43869D01*
X38451Y-43631D01*
X38450Y-43584D01*
X38450Y-43560D01*
X38445Y-43536D01*
X38435Y-43513D01*
X38422Y-43493D01*
X38404Y-43476D01*
X38384Y-43462D01*
X38361Y-43453D01*
X38337Y-43448D01*
X38154Y-43447D01*
X38123Y-43478D01*
X38123Y-43662D01*
X38420Y-43662D01*
X38451Y-43631D01*
X38451Y-43869D01*
X38420Y-43838D01*
X38123Y-43838D01*
X38123Y-44022D01*
X38154Y-44053D01*
X38337Y-44052D01*
X38361Y-44047D01*
X38384Y-44038D01*
X38404Y-44024D01*
X38422Y-44007D01*
X38435Y-43987D01*
X38445Y-43964D01*
X38450Y-43940D01*
X38450Y-43916D01*
X38451Y-43869D01*
X38451Y-45450D01*
X38449Y-45450D01*
X38449Y-45240D01*
X38449Y-45216D01*
X38449Y-44861D01*
X38444Y-44837D01*
X38435Y-44815D01*
X38422Y-44794D01*
X38405Y-44777D01*
X38384Y-44763D01*
X38362Y-44754D01*
X38338Y-44749D01*
X38314Y-44749D01*
X37962Y-44749D01*
X37937Y-44724D01*
X37937Y-44022D01*
X37937Y-43838D01*
X37937Y-43662D01*
X37937Y-43478D01*
X37906Y-43447D01*
X37723Y-43448D01*
X37699Y-43453D01*
X37676Y-43462D01*
X37656Y-43476D01*
X37638Y-43493D01*
X37625Y-43513D01*
X37615Y-43536D01*
X37610Y-43560D01*
X37610Y-43584D01*
X37609Y-43631D01*
X37640Y-43662D01*
X37937Y-43662D01*
X37937Y-43838D01*
X37640Y-43838D01*
X37609Y-43869D01*
X37610Y-43916D01*
X37610Y-43940D01*
X37615Y-43964D01*
X37625Y-43987D01*
X37638Y-44007D01*
X37656Y-44024D01*
X37676Y-44038D01*
X37699Y-44047D01*
X37723Y-44052D01*
X37906Y-44053D01*
X37937Y-44022D01*
X37937Y-44724D01*
X36848Y-43635D01*
X36847Y-43633D01*
X36823Y-43614D01*
X36822Y-43613D01*
X36795Y-43598D01*
X36794Y-43597D01*
X36772Y-43591D01*
X36764Y-43589D01*
X36732Y-43585D01*
X36731Y-43585D01*
X36730Y-43585D01*
X31189Y-43585D01*
X31189Y-43561D01*
X31184Y-43537D01*
X31175Y-43515D01*
X31162Y-43494D01*
X31145Y-43477D01*
X31124Y-43463D01*
X31102Y-43454D01*
X31078Y-43449D01*
X31054Y-43449D01*
X30463Y-43449D01*
X30439Y-43454D01*
X30417Y-43463D01*
X30396Y-43476D01*
X30379Y-43493D01*
X30365Y-43514D01*
X30356Y-43536D01*
X30351Y-43560D01*
X30351Y-43584D01*
X30351Y-43939D01*
X30356Y-43963D01*
X30365Y-43985D01*
X30378Y-44006D01*
X30395Y-44023D01*
X30416Y-44037D01*
X30438Y-44046D01*
X30462Y-44051D01*
X30486Y-44051D01*
X31077Y-44051D01*
X31101Y-44046D01*
X31123Y-44037D01*
X31144Y-44024D01*
X31161Y-44007D01*
X31175Y-43986D01*
X31184Y-43964D01*
X31189Y-43940D01*
X31189Y-43916D01*
X31189Y-43915D01*
X36661Y-43915D01*
X37611Y-44864D01*
X37611Y-44884D01*
X37611Y-45239D01*
X37616Y-45263D01*
X37625Y-45285D01*
X37638Y-45306D01*
X37655Y-45323D01*
X37676Y-45337D01*
X37698Y-45346D01*
X37722Y-45351D01*
X37746Y-45351D01*
X38337Y-45351D01*
X38361Y-45346D01*
X38383Y-45337D01*
X38404Y-45324D01*
X38421Y-45307D01*
X38435Y-45286D01*
X38444Y-45264D01*
X38449Y-45240D01*
X38449Y-45450D01*
X35825Y-45450D01*
X35825Y-44406D01*
X35819Y-44324D01*
X35795Y-44244D01*
X35790Y-44232D01*
X35737Y-44195D01*
X35605Y-44327D01*
X35605Y-44063D01*
X35568Y-44010D01*
X35489Y-43984D01*
X35406Y-43975D01*
X35324Y-43981D01*
X35244Y-44005D01*
X35232Y-44010D01*
X35195Y-44063D01*
X35400Y-44268D01*
X35605Y-44063D01*
X35605Y-44327D01*
X35532Y-44400D01*
X35737Y-44605D01*
X35790Y-44568D01*
X35816Y-44489D01*
X35825Y-44406D01*
X35825Y-45450D01*
X35605Y-45450D01*
X35605Y-44737D01*
X35400Y-44532D01*
X35268Y-44664D01*
X35268Y-44400D01*
X35063Y-44195D01*
X35010Y-44232D01*
X34984Y-44311D01*
X34975Y-44394D01*
X34981Y-44476D01*
X35005Y-44556D01*
X35010Y-44568D01*
X35063Y-44605D01*
X35268Y-44400D01*
X35268Y-44664D01*
X35195Y-44737D01*
X35232Y-44790D01*
X35311Y-44816D01*
X35394Y-44825D01*
X35476Y-44819D01*
X35556Y-44795D01*
X35568Y-44790D01*
X35605Y-44737D01*
X35605Y-45450D01*
X34825Y-45450D01*
X34825Y-44358D01*
X34809Y-44276D01*
X34777Y-44199D01*
X34731Y-44130D01*
X34672Y-44071D01*
X34603Y-44024D01*
X34526Y-43992D01*
X34444Y-43975D01*
X34361Y-43975D01*
X34279Y-43990D01*
X34202Y-44022D01*
X34132Y-44067D01*
X34073Y-44126D01*
X34026Y-44195D01*
X33993Y-44271D01*
X33976Y-44353D01*
X33974Y-44436D01*
X33990Y-44518D01*
X34020Y-44596D01*
X34066Y-44666D01*
X34123Y-44725D01*
X34192Y-44773D01*
X33931Y-45035D01*
X33824Y-45035D01*
X33824Y-44713D01*
X33824Y-44689D01*
X33824Y-44088D01*
X33819Y-44064D01*
X33810Y-44042D01*
X33797Y-44021D01*
X33780Y-44004D01*
X33759Y-43990D01*
X33737Y-43981D01*
X33713Y-43976D01*
X33689Y-43976D01*
X33088Y-43976D01*
X33064Y-43981D01*
X33042Y-43990D01*
X33021Y-44003D01*
X33004Y-44020D01*
X32990Y-44041D01*
X32981Y-44063D01*
X32976Y-44087D01*
X32976Y-44111D01*
X32976Y-44712D01*
X32981Y-44736D01*
X32990Y-44758D01*
X33003Y-44779D01*
X33020Y-44796D01*
X33041Y-44810D01*
X33063Y-44819D01*
X33087Y-44824D01*
X33111Y-44824D01*
X33712Y-44824D01*
X33736Y-44819D01*
X33758Y-44810D01*
X33779Y-44797D01*
X33796Y-44780D01*
X33810Y-44759D01*
X33819Y-44737D01*
X33824Y-44713D01*
X33824Y-45035D01*
X32468Y-45035D01*
X31918Y-44485D01*
X31917Y-44483D01*
X31893Y-44464D01*
X31892Y-44463D01*
X31865Y-44448D01*
X31864Y-44447D01*
X31842Y-44441D01*
X31834Y-44439D01*
X31802Y-44435D01*
X31801Y-44435D01*
X31800Y-44435D01*
X30400Y-44435D01*
X30368Y-44438D01*
X30337Y-44447D01*
X30322Y-44455D01*
X30310Y-44462D01*
X30284Y-44482D01*
X30283Y-44484D01*
X29881Y-44885D01*
X29251Y-44885D01*
X29251Y-43869D01*
X29251Y-43631D01*
X29250Y-43584D01*
X29250Y-43560D01*
X29245Y-43536D01*
X29235Y-43513D01*
X29222Y-43493D01*
X29204Y-43476D01*
X29184Y-43462D01*
X29161Y-43453D01*
X29137Y-43448D01*
X28954Y-43447D01*
X28923Y-43478D01*
X28923Y-43662D01*
X29220Y-43662D01*
X29251Y-43631D01*
X29251Y-43869D01*
X29220Y-43838D01*
X28923Y-43838D01*
X28923Y-44022D01*
X28954Y-44053D01*
X29137Y-44052D01*
X29161Y-44047D01*
X29184Y-44038D01*
X29204Y-44024D01*
X29222Y-44007D01*
X29235Y-43987D01*
X29245Y-43964D01*
X29250Y-43940D01*
X29250Y-43916D01*
X29251Y-43869D01*
X29251Y-44885D01*
X29249Y-44885D01*
X29249Y-44861D01*
X29244Y-44837D01*
X29235Y-44815D01*
X29222Y-44794D01*
X29205Y-44777D01*
X29184Y-44763D01*
X29162Y-44754D01*
X29138Y-44749D01*
X29114Y-44749D01*
X28737Y-44749D01*
X28737Y-44022D01*
X28737Y-43838D01*
X28737Y-43662D01*
X28737Y-43478D01*
X28706Y-43447D01*
X28523Y-43448D01*
X28499Y-43453D01*
X28476Y-43462D01*
X28456Y-43476D01*
X28438Y-43493D01*
X28425Y-43513D01*
X28415Y-43536D01*
X28410Y-43560D01*
X28410Y-43584D01*
X28409Y-43631D01*
X28440Y-43662D01*
X28737Y-43662D01*
X28737Y-43838D01*
X28440Y-43838D01*
X28409Y-43869D01*
X28410Y-43916D01*
X28410Y-43940D01*
X28415Y-43964D01*
X28425Y-43987D01*
X28438Y-44007D01*
X28456Y-44024D01*
X28476Y-44038D01*
X28499Y-44047D01*
X28523Y-44052D01*
X28706Y-44053D01*
X28737Y-44022D01*
X28737Y-44749D01*
X28523Y-44749D01*
X28499Y-44754D01*
X28477Y-44763D01*
X28456Y-44776D01*
X28439Y-44793D01*
X28425Y-44814D01*
X28416Y-44836D01*
X28411Y-44860D01*
X28411Y-44884D01*
X28411Y-45239D01*
X28416Y-45263D01*
X28425Y-45285D01*
X28438Y-45306D01*
X28455Y-45323D01*
X28476Y-45337D01*
X28498Y-45346D01*
X28522Y-45351D01*
X28546Y-45351D01*
X29137Y-45351D01*
X29161Y-45346D01*
X29183Y-45337D01*
X29204Y-45324D01*
X29221Y-45307D01*
X29235Y-45286D01*
X29244Y-45264D01*
X29249Y-45240D01*
X29249Y-45216D01*
X29249Y-45215D01*
X29948Y-45215D01*
X29950Y-45215D01*
X29980Y-45212D01*
X29982Y-45212D01*
X30012Y-45203D01*
X30013Y-45203D01*
X30028Y-45194D01*
X30040Y-45188D01*
X30041Y-45187D01*
X30065Y-45168D01*
X30066Y-45167D01*
X30067Y-45167D01*
X30351Y-44882D01*
X30351Y-44884D01*
X30351Y-45239D01*
X30356Y-45263D01*
X30365Y-45285D01*
X30378Y-45306D01*
X30395Y-45323D01*
X30416Y-45337D01*
X30438Y-45346D01*
X30462Y-45351D01*
X30486Y-45351D01*
X31077Y-45351D01*
X31101Y-45346D01*
X31123Y-45337D01*
X31144Y-45324D01*
X31161Y-45307D01*
X31175Y-45286D01*
X31184Y-45264D01*
X31185Y-45255D01*
X31441Y-45255D01*
X31453Y-45263D01*
X31506Y-45287D01*
X31564Y-45299D01*
X31623Y-45301D01*
X31681Y-45290D01*
X31736Y-45269D01*
X31785Y-45238D01*
X31828Y-45197D01*
X31862Y-45149D01*
X31886Y-45096D01*
X31899Y-45038D01*
X31900Y-44971D01*
X31891Y-44924D01*
X32282Y-45315D01*
X32283Y-45316D01*
X32307Y-45336D01*
X32308Y-45337D01*
X32320Y-45343D01*
X32335Y-45352D01*
X32336Y-45352D01*
X32366Y-45361D01*
X32367Y-45361D01*
X32398Y-45365D01*
X32400Y-45365D01*
X33998Y-45365D01*
X34000Y-45365D01*
X34030Y-45362D01*
X34032Y-45362D01*
X34062Y-45353D01*
X34063Y-45353D01*
X34078Y-45344D01*
X34090Y-45338D01*
X34091Y-45337D01*
X34115Y-45318D01*
X34116Y-45317D01*
X34117Y-45317D01*
X34515Y-44918D01*
X34516Y-44917D01*
X34536Y-44893D01*
X34537Y-44892D01*
X34543Y-44880D01*
X34552Y-44865D01*
X34552Y-44864D01*
X34561Y-44834D01*
X34561Y-44833D01*
X34565Y-44802D01*
X34565Y-44800D01*
X34565Y-44791D01*
X34593Y-44781D01*
X34663Y-44736D01*
X34724Y-44679D01*
X34771Y-44611D01*
X34805Y-44534D01*
X34824Y-44453D01*
X34825Y-44358D01*
X34825Y-45450D01*
X28350Y-45450D01*
X28350Y-43350D01*
X58850Y-43350D01*
X58850Y-45450D01*
M02*
