G04 (created by PCBNEW-RS274X (2012-apr-16-27)-stable) date Sat 18 Jan 2014 02:12:47 PM CET*
G01*
G70*
G90*
%MOIN*%
G04 Gerber Fmt 3.4, Leading zero omitted, Abs format*
%FSLAX34Y34*%
G04 APERTURE LIST*
%ADD10C,0.006000*%
G04 APERTURE END LIST*
G54D10*
X32900Y-43900D02*
X32900Y-44900D01*
X32900Y-44900D02*
X35900Y-44900D01*
X35900Y-44900D02*
X35900Y-43900D01*
X35900Y-43900D02*
X32900Y-43900D01*
X33900Y-44900D02*
X33900Y-43900D01*
X51300Y-43900D02*
X51300Y-44900D01*
X51300Y-44900D02*
X54300Y-44900D01*
X54300Y-44900D02*
X54300Y-43900D01*
X54300Y-43900D02*
X51300Y-43900D01*
X52300Y-44900D02*
X52300Y-43900D01*
X32762Y-44105D02*
X32362Y-44105D01*
X32762Y-44334D02*
X32533Y-44162D01*
X32362Y-44334D02*
X32590Y-44105D01*
X32762Y-44715D02*
X32762Y-44486D01*
X32762Y-44600D02*
X32362Y-44600D01*
X32419Y-44562D01*
X32457Y-44524D01*
X32476Y-44486D01*
X51162Y-44105D02*
X50762Y-44105D01*
X51162Y-44334D02*
X50933Y-44162D01*
X50762Y-44334D02*
X50990Y-44105D01*
X50800Y-44486D02*
X50781Y-44505D01*
X50762Y-44543D01*
X50762Y-44639D01*
X50781Y-44677D01*
X50800Y-44696D01*
X50838Y-44715D01*
X50876Y-44715D01*
X50933Y-44696D01*
X51162Y-44467D01*
X51162Y-44715D01*
M02*
