M48
;DRILL file {Pcbnew (2012-apr-16-27)-stable} date Sun 09 Nov 2014 09:33:20 PM UTC
;FORMAT={3:3/ absolute / metric / keep zeros}
FMAT,2
METRIC,TZ
T1C0.635
T2C1.016
%
G90
G05
M71
T1
X062992Y-079248
X064262Y-068707
X065405Y-069088
X069469Y-068326
X071501Y-069723
X073406Y-067437
X074676Y-069723
X077216Y-078740
X078740Y-075438
T2
X067437Y-065786
X067437Y-068326
X081153Y-065278
X081153Y-067818
X081153Y-070358
X081153Y-073533
X081153Y-076073
X081153Y-078613
X083693Y-065278
X083693Y-067818
X083693Y-070358
T0
M30
