G04 (created by PCBNEW-RS274X (2012-apr-16-27)-stable) date Sun 09 Nov 2014 09:22:59 PM UTC*
G01*
G70*
G90*
%MOIN*%
G04 Gerber Fmt 3.4, Leading zero omitted, Abs format*
%FSLAX34Y34*%
G04 APERTURE LIST*
%ADD10C,0.006000*%
%ADD11C,0.080000*%
%ADD12R,0.080000X0.080000*%
%ADD13R,0.080000X0.100000*%
%ADD14R,0.051500X0.043600*%
%ADD15R,0.040000X0.065000*%
%ADD16R,0.073100X0.035700*%
%ADD17R,0.079100X0.102700*%
%ADD18R,0.094800X0.114500*%
%ADD19R,0.094800X0.090900*%
%ADD20R,0.102700X0.102700*%
%ADD21R,0.075000X0.055000*%
%ADD22R,0.055000X0.075000*%
G04 APERTURE END LIST*
G54D10*
G54D11*
X31950Y-25700D03*
X32950Y-25700D03*
X31950Y-26700D03*
X32950Y-26700D03*
X31950Y-27700D03*
G54D12*
X32950Y-27700D03*
G54D13*
X25750Y-30950D03*
X27050Y-30950D03*
G54D12*
X31950Y-30950D03*
G54D11*
X31950Y-29950D03*
X31950Y-28950D03*
G54D14*
X25858Y-27800D03*
X26842Y-27800D03*
X25858Y-30050D03*
X26842Y-30050D03*
G54D15*
X27900Y-28050D03*
X28400Y-28050D03*
X28900Y-28050D03*
X29400Y-28050D03*
X29900Y-28050D03*
X30400Y-28050D03*
X30900Y-28050D03*
X30900Y-25950D03*
X30400Y-25950D03*
X29900Y-25950D03*
X29400Y-25950D03*
X28900Y-25950D03*
X28400Y-25950D03*
X27900Y-25950D03*
G54D16*
X24850Y-29050D03*
X24850Y-28794D03*
X24850Y-29306D03*
X24850Y-28538D03*
X24850Y-29562D03*
G54D17*
X24850Y-27790D03*
X24850Y-30310D03*
G54D18*
X23807Y-27554D03*
X23807Y-30546D03*
G54D19*
X23807Y-28597D03*
X23807Y-29503D03*
G54D20*
X29750Y-29150D03*
X28250Y-29150D03*
G54D21*
X31000Y-30225D03*
X31000Y-30975D03*
G54D12*
X26550Y-26900D03*
G54D11*
X26550Y-25900D03*
G54D22*
X29275Y-30300D03*
X30025Y-30300D03*
X28675Y-30300D03*
X27925Y-30300D03*
G54D21*
X23700Y-25825D03*
X23700Y-26575D03*
G54D22*
X26625Y-29300D03*
X25875Y-29300D03*
X26625Y-28500D03*
X25875Y-28500D03*
X25225Y-26400D03*
X24475Y-26400D03*
X25225Y-25600D03*
X24475Y-25600D03*
M02*
