G04 (created by PCBNEW-RS274X (2012-apr-16-27)-stable) date Sun 09 Nov 2014 09:22:59 PM UTC*
G01*
G70*
G90*
%MOIN*%
G04 Gerber Fmt 3.4, Leading zero omitted, Abs format*
%FSLAX34Y34*%
G04 APERTURE LIST*
%ADD10C,0.006000*%
%ADD11C,0.060000*%
%ADD12R,0.060000X0.060000*%
%ADD13C,0.035000*%
%ADD14C,0.008000*%
%ADD15C,0.012000*%
%ADD16C,0.010000*%
G04 APERTURE END LIST*
G54D10*
G54D11*
X31950Y-25700D03*
X32950Y-25700D03*
X31950Y-26700D03*
X32950Y-26700D03*
X31950Y-27700D03*
G54D12*
X32950Y-27700D03*
X31950Y-30950D03*
G54D11*
X31950Y-29950D03*
X31950Y-28950D03*
G54D12*
X26550Y-26900D03*
G54D11*
X26550Y-25900D03*
G54D13*
X27350Y-26900D03*
X28900Y-26550D03*
X31000Y-29700D03*
X25750Y-27200D03*
X29400Y-27450D03*
X25300Y-27050D03*
X30400Y-31000D03*
X24800Y-31200D03*
X28150Y-27450D03*
G54D14*
X27700Y-26550D02*
X28900Y-26550D01*
X27350Y-26900D02*
X27700Y-26550D01*
X31000Y-29700D02*
X29400Y-28100D01*
X29400Y-28100D02*
X26400Y-28100D01*
X26400Y-28100D02*
X26300Y-28100D01*
X26300Y-28100D02*
X25750Y-27550D01*
X25750Y-27550D02*
X25750Y-27200D01*
X29400Y-27450D02*
X31550Y-27450D01*
X31550Y-27450D02*
X31700Y-27450D01*
X31700Y-27450D02*
X31950Y-27700D01*
G54D15*
X25400Y-27150D02*
X25300Y-27050D01*
X25400Y-28400D02*
X25400Y-27150D01*
G54D10*
G36*
X33425Y-31425D02*
X33400Y-31425D01*
X33400Y-26656D01*
X33398Y-26645D01*
X33398Y-25738D01*
X33397Y-25651D01*
X33379Y-25564D01*
X33350Y-25494D01*
X33287Y-25460D01*
X33190Y-25556D01*
X33190Y-25363D01*
X33156Y-25300D01*
X33074Y-25267D01*
X32988Y-25252D01*
X32901Y-25253D01*
X32814Y-25271D01*
X32744Y-25300D01*
X32710Y-25363D01*
X32950Y-25604D01*
X33190Y-25363D01*
X33190Y-25556D01*
X33046Y-25700D01*
X33287Y-25940D01*
X33350Y-25906D01*
X33383Y-25824D01*
X33398Y-25738D01*
X33398Y-26645D01*
X33383Y-26569D01*
X33349Y-26488D01*
X33300Y-26414D01*
X33238Y-26352D01*
X33190Y-26319D01*
X33190Y-26037D01*
X32950Y-25796D01*
X32854Y-25892D01*
X32854Y-25700D01*
X32613Y-25460D01*
X32550Y-25494D01*
X32517Y-25576D01*
X32502Y-25662D01*
X32503Y-25749D01*
X32521Y-25836D01*
X32550Y-25906D01*
X32613Y-25940D01*
X32854Y-25700D01*
X32854Y-25892D01*
X32710Y-26037D01*
X32744Y-26100D01*
X32826Y-26133D01*
X32912Y-26148D01*
X32999Y-26147D01*
X33086Y-26129D01*
X33156Y-26100D01*
X33190Y-26037D01*
X33190Y-26319D01*
X33165Y-26302D01*
X33084Y-26268D01*
X32997Y-26250D01*
X32909Y-26250D01*
X32822Y-26266D01*
X32741Y-26299D01*
X32667Y-26348D01*
X32604Y-26409D01*
X32554Y-26482D01*
X32519Y-26563D01*
X32501Y-26649D01*
X32499Y-26738D01*
X32515Y-26825D01*
X32548Y-26907D01*
X32596Y-26981D01*
X32657Y-27044D01*
X32729Y-27095D01*
X32810Y-27130D01*
X32896Y-27149D01*
X32985Y-27151D01*
X33071Y-27136D01*
X33154Y-27104D01*
X33228Y-27056D01*
X33292Y-26996D01*
X33343Y-26923D01*
X33379Y-26843D01*
X33399Y-26757D01*
X33400Y-26656D01*
X33400Y-31425D01*
X33399Y-31425D01*
X33399Y-28015D01*
X33399Y-27986D01*
X33399Y-27385D01*
X33393Y-27356D01*
X33382Y-27329D01*
X33366Y-27305D01*
X33345Y-27284D01*
X33321Y-27268D01*
X33294Y-27257D01*
X33265Y-27251D01*
X33236Y-27251D01*
X32635Y-27251D01*
X32606Y-27257D01*
X32579Y-27268D01*
X32555Y-27284D01*
X32534Y-27305D01*
X32518Y-27329D01*
X32507Y-27356D01*
X32501Y-27385D01*
X32501Y-27414D01*
X32501Y-28015D01*
X32507Y-28044D01*
X32518Y-28071D01*
X32534Y-28095D01*
X32555Y-28116D01*
X32579Y-28132D01*
X32606Y-28143D01*
X32635Y-28149D01*
X32664Y-28149D01*
X33265Y-28149D01*
X33294Y-28143D01*
X33321Y-28132D01*
X33345Y-28116D01*
X33366Y-28095D01*
X33382Y-28071D01*
X33393Y-28044D01*
X33399Y-28015D01*
X33399Y-31425D01*
X32400Y-31425D01*
X32400Y-29906D01*
X32400Y-27656D01*
X32400Y-26656D01*
X32400Y-25656D01*
X32383Y-25569D01*
X32349Y-25488D01*
X32300Y-25414D01*
X32238Y-25352D01*
X32165Y-25302D01*
X32084Y-25268D01*
X31997Y-25250D01*
X31909Y-25250D01*
X31822Y-25266D01*
X31741Y-25299D01*
X31667Y-25348D01*
X31604Y-25409D01*
X31554Y-25482D01*
X31519Y-25563D01*
X31501Y-25649D01*
X31499Y-25738D01*
X31515Y-25825D01*
X31548Y-25907D01*
X31596Y-25981D01*
X31657Y-26044D01*
X31729Y-26095D01*
X31810Y-26130D01*
X31896Y-26149D01*
X31985Y-26151D01*
X32071Y-26136D01*
X32154Y-26104D01*
X32228Y-26056D01*
X32292Y-25996D01*
X32343Y-25923D01*
X32379Y-25843D01*
X32399Y-25757D01*
X32400Y-25656D01*
X32400Y-26656D01*
X32383Y-26569D01*
X32349Y-26488D01*
X32300Y-26414D01*
X32238Y-26352D01*
X32165Y-26302D01*
X32084Y-26268D01*
X31997Y-26250D01*
X31909Y-26250D01*
X31822Y-26266D01*
X31741Y-26299D01*
X31667Y-26348D01*
X31604Y-26409D01*
X31554Y-26482D01*
X31519Y-26563D01*
X31501Y-26649D01*
X31499Y-26738D01*
X31515Y-26825D01*
X31548Y-26907D01*
X31596Y-26981D01*
X31657Y-27044D01*
X31729Y-27095D01*
X31810Y-27130D01*
X31896Y-27149D01*
X31985Y-27151D01*
X32071Y-27136D01*
X32154Y-27104D01*
X32228Y-27056D01*
X32292Y-26996D01*
X32343Y-26923D01*
X32379Y-26843D01*
X32399Y-26757D01*
X32400Y-26656D01*
X32400Y-27656D01*
X32383Y-27569D01*
X32349Y-27488D01*
X32300Y-27414D01*
X32238Y-27352D01*
X32165Y-27302D01*
X32084Y-27268D01*
X31997Y-27250D01*
X31909Y-27250D01*
X31822Y-27266D01*
X31785Y-27280D01*
X31775Y-27275D01*
X31740Y-27264D01*
X31703Y-27260D01*
X31701Y-27260D01*
X31700Y-27260D01*
X31553Y-27260D01*
X31550Y-27260D01*
X29662Y-27260D01*
X29652Y-27244D01*
X29607Y-27199D01*
X29555Y-27163D01*
X29496Y-27139D01*
X29434Y-27126D01*
X29370Y-27126D01*
X29308Y-27138D01*
X29249Y-27162D01*
X29224Y-27178D01*
X29224Y-26518D01*
X29212Y-26456D01*
X29187Y-26397D01*
X29152Y-26344D01*
X29107Y-26299D01*
X29055Y-26263D01*
X28996Y-26239D01*
X28934Y-26226D01*
X28870Y-26226D01*
X28808Y-26238D01*
X28749Y-26262D01*
X28696Y-26296D01*
X28650Y-26341D01*
X28637Y-26360D01*
X27701Y-26360D01*
X27700Y-26360D01*
X27663Y-26364D01*
X27628Y-26374D01*
X27611Y-26383D01*
X27596Y-26391D01*
X27567Y-26414D01*
X27566Y-26415D01*
X27565Y-26416D01*
X27401Y-26579D01*
X27384Y-26576D01*
X27320Y-26576D01*
X27258Y-26588D01*
X27199Y-26612D01*
X27146Y-26646D01*
X27100Y-26691D01*
X27065Y-26743D01*
X27040Y-26802D01*
X27026Y-26864D01*
X27026Y-26927D01*
X27037Y-26990D01*
X27061Y-27049D01*
X27095Y-27102D01*
X27139Y-27148D01*
X27191Y-27184D01*
X27250Y-27210D01*
X27312Y-27223D01*
X27375Y-27225D01*
X27438Y-27214D01*
X27497Y-27191D01*
X27551Y-27156D01*
X27597Y-27113D01*
X27633Y-27061D01*
X27659Y-27003D01*
X27673Y-26941D01*
X27674Y-26868D01*
X27670Y-26848D01*
X27778Y-26740D01*
X28637Y-26740D01*
X28645Y-26752D01*
X28689Y-26798D01*
X28741Y-26834D01*
X28800Y-26860D01*
X28862Y-26873D01*
X28925Y-26875D01*
X28988Y-26864D01*
X29047Y-26841D01*
X29101Y-26806D01*
X29147Y-26763D01*
X29183Y-26711D01*
X29209Y-26653D01*
X29223Y-26591D01*
X29224Y-26518D01*
X29224Y-27178D01*
X29196Y-27196D01*
X29150Y-27241D01*
X29115Y-27293D01*
X29090Y-27352D01*
X29076Y-27414D01*
X29076Y-27477D01*
X29087Y-27540D01*
X29111Y-27599D01*
X29145Y-27652D01*
X29189Y-27698D01*
X29241Y-27734D01*
X29300Y-27760D01*
X29362Y-27773D01*
X29425Y-27775D01*
X29488Y-27764D01*
X29547Y-27741D01*
X29601Y-27706D01*
X29647Y-27663D01*
X29662Y-27640D01*
X31502Y-27640D01*
X31501Y-27649D01*
X31499Y-27738D01*
X31515Y-27825D01*
X31548Y-27907D01*
X31596Y-27981D01*
X31657Y-28044D01*
X31729Y-28095D01*
X31810Y-28130D01*
X31896Y-28149D01*
X31985Y-28151D01*
X32071Y-28136D01*
X32154Y-28104D01*
X32228Y-28056D01*
X32292Y-27996D01*
X32343Y-27923D01*
X32379Y-27843D01*
X32399Y-27757D01*
X32400Y-27656D01*
X32400Y-29906D01*
X32398Y-29895D01*
X32398Y-28988D01*
X32397Y-28901D01*
X32379Y-28814D01*
X32350Y-28744D01*
X32287Y-28710D01*
X32190Y-28806D01*
X32190Y-28613D01*
X32156Y-28550D01*
X32074Y-28517D01*
X31988Y-28502D01*
X31901Y-28503D01*
X31814Y-28521D01*
X31744Y-28550D01*
X31710Y-28613D01*
X31950Y-28854D01*
X32190Y-28613D01*
X32190Y-28806D01*
X32046Y-28950D01*
X32287Y-29190D01*
X32350Y-29156D01*
X32383Y-29074D01*
X32398Y-28988D01*
X32398Y-29895D01*
X32383Y-29819D01*
X32349Y-29738D01*
X32300Y-29664D01*
X32238Y-29602D01*
X32190Y-29569D01*
X32190Y-29287D01*
X31950Y-29046D01*
X31854Y-29142D01*
X31854Y-28950D01*
X31613Y-28710D01*
X31550Y-28744D01*
X31517Y-28826D01*
X31502Y-28912D01*
X31503Y-28999D01*
X31521Y-29086D01*
X31550Y-29156D01*
X31613Y-29190D01*
X31854Y-28950D01*
X31854Y-29142D01*
X31710Y-29287D01*
X31744Y-29350D01*
X31826Y-29383D01*
X31912Y-29398D01*
X31999Y-29397D01*
X32086Y-29379D01*
X32156Y-29350D01*
X32190Y-29287D01*
X32190Y-29569D01*
X32165Y-29552D01*
X32084Y-29518D01*
X31997Y-29500D01*
X31909Y-29500D01*
X31822Y-29516D01*
X31741Y-29549D01*
X31667Y-29598D01*
X31604Y-29659D01*
X31554Y-29732D01*
X31519Y-29813D01*
X31501Y-29899D01*
X31499Y-29988D01*
X31515Y-30075D01*
X31548Y-30157D01*
X31596Y-30231D01*
X31657Y-30294D01*
X31729Y-30345D01*
X31810Y-30380D01*
X31896Y-30399D01*
X31985Y-30401D01*
X32071Y-30386D01*
X32154Y-30354D01*
X32228Y-30306D01*
X32292Y-30246D01*
X32343Y-30173D01*
X32379Y-30093D01*
X32399Y-30007D01*
X32400Y-29906D01*
X32400Y-31425D01*
X32399Y-31425D01*
X32399Y-31265D01*
X32399Y-31236D01*
X32399Y-30635D01*
X32393Y-30606D01*
X32382Y-30579D01*
X32366Y-30555D01*
X32345Y-30534D01*
X32321Y-30518D01*
X32294Y-30507D01*
X32265Y-30501D01*
X32236Y-30501D01*
X31635Y-30501D01*
X31606Y-30507D01*
X31579Y-30518D01*
X31555Y-30534D01*
X31534Y-30555D01*
X31518Y-30579D01*
X31507Y-30606D01*
X31501Y-30635D01*
X31501Y-30664D01*
X31501Y-31265D01*
X31507Y-31294D01*
X31518Y-31321D01*
X31534Y-31345D01*
X31555Y-31366D01*
X31579Y-31382D01*
X31606Y-31393D01*
X31635Y-31399D01*
X31664Y-31399D01*
X32265Y-31399D01*
X32294Y-31393D01*
X32321Y-31382D01*
X32345Y-31366D01*
X32366Y-31345D01*
X32382Y-31321D01*
X32393Y-31294D01*
X32399Y-31265D01*
X32399Y-31425D01*
X31324Y-31425D01*
X31324Y-29668D01*
X31312Y-29606D01*
X31287Y-29547D01*
X31252Y-29494D01*
X31207Y-29449D01*
X31155Y-29413D01*
X31096Y-29389D01*
X31034Y-29376D01*
X30970Y-29376D01*
X30948Y-29380D01*
X29539Y-27971D01*
X29536Y-27967D01*
X29534Y-27966D01*
X29507Y-27943D01*
X29505Y-27942D01*
X29475Y-27925D01*
X29440Y-27914D01*
X29403Y-27910D01*
X29401Y-27910D01*
X29400Y-27910D01*
X27000Y-27910D01*
X27000Y-25856D01*
X26983Y-25769D01*
X26949Y-25688D01*
X26900Y-25614D01*
X26838Y-25552D01*
X26765Y-25502D01*
X26684Y-25468D01*
X26597Y-25450D01*
X26509Y-25450D01*
X26422Y-25466D01*
X26341Y-25499D01*
X26267Y-25548D01*
X26204Y-25609D01*
X26154Y-25682D01*
X26119Y-25763D01*
X26101Y-25849D01*
X26099Y-25938D01*
X26115Y-26025D01*
X26148Y-26107D01*
X26196Y-26181D01*
X26257Y-26244D01*
X26329Y-26295D01*
X26410Y-26330D01*
X26496Y-26349D01*
X26585Y-26351D01*
X26671Y-26336D01*
X26754Y-26304D01*
X26828Y-26256D01*
X26892Y-26196D01*
X26943Y-26123D01*
X26979Y-26043D01*
X26999Y-25957D01*
X27000Y-25856D01*
X27000Y-27910D01*
X26999Y-27910D01*
X26999Y-27215D01*
X26999Y-27186D01*
X26999Y-26585D01*
X26993Y-26556D01*
X26982Y-26529D01*
X26966Y-26505D01*
X26945Y-26484D01*
X26921Y-26468D01*
X26894Y-26457D01*
X26865Y-26451D01*
X26836Y-26451D01*
X26235Y-26451D01*
X26206Y-26457D01*
X26179Y-26468D01*
X26155Y-26484D01*
X26134Y-26505D01*
X26118Y-26529D01*
X26107Y-26556D01*
X26101Y-26585D01*
X26101Y-26614D01*
X26101Y-27215D01*
X26107Y-27244D01*
X26118Y-27271D01*
X26134Y-27295D01*
X26155Y-27316D01*
X26179Y-27332D01*
X26206Y-27343D01*
X26235Y-27349D01*
X26264Y-27349D01*
X26865Y-27349D01*
X26894Y-27343D01*
X26921Y-27332D01*
X26945Y-27316D01*
X26966Y-27295D01*
X26982Y-27271D01*
X26993Y-27244D01*
X26999Y-27215D01*
X26999Y-27910D01*
X26403Y-27910D01*
X26400Y-27910D01*
X26378Y-27910D01*
X25940Y-27471D01*
X25940Y-27463D01*
X25951Y-27456D01*
X25997Y-27413D01*
X26033Y-27361D01*
X26059Y-27303D01*
X26073Y-27241D01*
X26074Y-27168D01*
X26062Y-27106D01*
X26037Y-27047D01*
X26002Y-26994D01*
X25957Y-26949D01*
X25905Y-26913D01*
X25846Y-26889D01*
X25784Y-26876D01*
X25720Y-26876D01*
X25658Y-26888D01*
X25599Y-26912D01*
X25546Y-26946D01*
X25500Y-26991D01*
X25465Y-27043D01*
X25440Y-27102D01*
X25426Y-27164D01*
X25426Y-27227D01*
X25437Y-27290D01*
X25461Y-27349D01*
X25495Y-27402D01*
X25539Y-27448D01*
X25560Y-27462D01*
X25560Y-27548D01*
X25560Y-27550D01*
X25560Y-27556D01*
X25563Y-27585D01*
X25573Y-27621D01*
X25574Y-27622D01*
X25590Y-27653D01*
X25592Y-27655D01*
X25599Y-27665D01*
X25614Y-27682D01*
X25615Y-27684D01*
X25616Y-27684D01*
X25620Y-27688D01*
X26163Y-28232D01*
X26164Y-28233D01*
X26165Y-28234D01*
X26170Y-28237D01*
X26193Y-28257D01*
X26194Y-28257D01*
X26225Y-28275D01*
X26226Y-28275D01*
X26260Y-28286D01*
X26297Y-28290D01*
X26299Y-28290D01*
X26300Y-28290D01*
X26397Y-28290D01*
X26400Y-28290D01*
X29321Y-28290D01*
X30679Y-29648D01*
X30676Y-29664D01*
X30676Y-29727D01*
X30687Y-29790D01*
X30711Y-29849D01*
X30745Y-29902D01*
X30789Y-29948D01*
X30841Y-29984D01*
X30900Y-30010D01*
X30962Y-30023D01*
X31025Y-30025D01*
X31088Y-30014D01*
X31147Y-29991D01*
X31201Y-29956D01*
X31247Y-29913D01*
X31283Y-29861D01*
X31309Y-29803D01*
X31323Y-29741D01*
X31324Y-29668D01*
X31324Y-31425D01*
X23375Y-31425D01*
X23375Y-25225D01*
X33425Y-25225D01*
X33425Y-31425D01*
X33425Y-31425D01*
G37*
G54D16*
X33425Y-31425D02*
X33400Y-31425D01*
X33400Y-26656D01*
X33398Y-26645D01*
X33398Y-25738D01*
X33397Y-25651D01*
X33379Y-25564D01*
X33350Y-25494D01*
X33287Y-25460D01*
X33190Y-25556D01*
X33190Y-25363D01*
X33156Y-25300D01*
X33074Y-25267D01*
X32988Y-25252D01*
X32901Y-25253D01*
X32814Y-25271D01*
X32744Y-25300D01*
X32710Y-25363D01*
X32950Y-25604D01*
X33190Y-25363D01*
X33190Y-25556D01*
X33046Y-25700D01*
X33287Y-25940D01*
X33350Y-25906D01*
X33383Y-25824D01*
X33398Y-25738D01*
X33398Y-26645D01*
X33383Y-26569D01*
X33349Y-26488D01*
X33300Y-26414D01*
X33238Y-26352D01*
X33190Y-26319D01*
X33190Y-26037D01*
X32950Y-25796D01*
X32854Y-25892D01*
X32854Y-25700D01*
X32613Y-25460D01*
X32550Y-25494D01*
X32517Y-25576D01*
X32502Y-25662D01*
X32503Y-25749D01*
X32521Y-25836D01*
X32550Y-25906D01*
X32613Y-25940D01*
X32854Y-25700D01*
X32854Y-25892D01*
X32710Y-26037D01*
X32744Y-26100D01*
X32826Y-26133D01*
X32912Y-26148D01*
X32999Y-26147D01*
X33086Y-26129D01*
X33156Y-26100D01*
X33190Y-26037D01*
X33190Y-26319D01*
X33165Y-26302D01*
X33084Y-26268D01*
X32997Y-26250D01*
X32909Y-26250D01*
X32822Y-26266D01*
X32741Y-26299D01*
X32667Y-26348D01*
X32604Y-26409D01*
X32554Y-26482D01*
X32519Y-26563D01*
X32501Y-26649D01*
X32499Y-26738D01*
X32515Y-26825D01*
X32548Y-26907D01*
X32596Y-26981D01*
X32657Y-27044D01*
X32729Y-27095D01*
X32810Y-27130D01*
X32896Y-27149D01*
X32985Y-27151D01*
X33071Y-27136D01*
X33154Y-27104D01*
X33228Y-27056D01*
X33292Y-26996D01*
X33343Y-26923D01*
X33379Y-26843D01*
X33399Y-26757D01*
X33400Y-26656D01*
X33400Y-31425D01*
X33399Y-31425D01*
X33399Y-28015D01*
X33399Y-27986D01*
X33399Y-27385D01*
X33393Y-27356D01*
X33382Y-27329D01*
X33366Y-27305D01*
X33345Y-27284D01*
X33321Y-27268D01*
X33294Y-27257D01*
X33265Y-27251D01*
X33236Y-27251D01*
X32635Y-27251D01*
X32606Y-27257D01*
X32579Y-27268D01*
X32555Y-27284D01*
X32534Y-27305D01*
X32518Y-27329D01*
X32507Y-27356D01*
X32501Y-27385D01*
X32501Y-27414D01*
X32501Y-28015D01*
X32507Y-28044D01*
X32518Y-28071D01*
X32534Y-28095D01*
X32555Y-28116D01*
X32579Y-28132D01*
X32606Y-28143D01*
X32635Y-28149D01*
X32664Y-28149D01*
X33265Y-28149D01*
X33294Y-28143D01*
X33321Y-28132D01*
X33345Y-28116D01*
X33366Y-28095D01*
X33382Y-28071D01*
X33393Y-28044D01*
X33399Y-28015D01*
X33399Y-31425D01*
X32400Y-31425D01*
X32400Y-29906D01*
X32400Y-27656D01*
X32400Y-26656D01*
X32400Y-25656D01*
X32383Y-25569D01*
X32349Y-25488D01*
X32300Y-25414D01*
X32238Y-25352D01*
X32165Y-25302D01*
X32084Y-25268D01*
X31997Y-25250D01*
X31909Y-25250D01*
X31822Y-25266D01*
X31741Y-25299D01*
X31667Y-25348D01*
X31604Y-25409D01*
X31554Y-25482D01*
X31519Y-25563D01*
X31501Y-25649D01*
X31499Y-25738D01*
X31515Y-25825D01*
X31548Y-25907D01*
X31596Y-25981D01*
X31657Y-26044D01*
X31729Y-26095D01*
X31810Y-26130D01*
X31896Y-26149D01*
X31985Y-26151D01*
X32071Y-26136D01*
X32154Y-26104D01*
X32228Y-26056D01*
X32292Y-25996D01*
X32343Y-25923D01*
X32379Y-25843D01*
X32399Y-25757D01*
X32400Y-25656D01*
X32400Y-26656D01*
X32383Y-26569D01*
X32349Y-26488D01*
X32300Y-26414D01*
X32238Y-26352D01*
X32165Y-26302D01*
X32084Y-26268D01*
X31997Y-26250D01*
X31909Y-26250D01*
X31822Y-26266D01*
X31741Y-26299D01*
X31667Y-26348D01*
X31604Y-26409D01*
X31554Y-26482D01*
X31519Y-26563D01*
X31501Y-26649D01*
X31499Y-26738D01*
X31515Y-26825D01*
X31548Y-26907D01*
X31596Y-26981D01*
X31657Y-27044D01*
X31729Y-27095D01*
X31810Y-27130D01*
X31896Y-27149D01*
X31985Y-27151D01*
X32071Y-27136D01*
X32154Y-27104D01*
X32228Y-27056D01*
X32292Y-26996D01*
X32343Y-26923D01*
X32379Y-26843D01*
X32399Y-26757D01*
X32400Y-26656D01*
X32400Y-27656D01*
X32383Y-27569D01*
X32349Y-27488D01*
X32300Y-27414D01*
X32238Y-27352D01*
X32165Y-27302D01*
X32084Y-27268D01*
X31997Y-27250D01*
X31909Y-27250D01*
X31822Y-27266D01*
X31785Y-27280D01*
X31775Y-27275D01*
X31740Y-27264D01*
X31703Y-27260D01*
X31701Y-27260D01*
X31700Y-27260D01*
X31553Y-27260D01*
X31550Y-27260D01*
X29662Y-27260D01*
X29652Y-27244D01*
X29607Y-27199D01*
X29555Y-27163D01*
X29496Y-27139D01*
X29434Y-27126D01*
X29370Y-27126D01*
X29308Y-27138D01*
X29249Y-27162D01*
X29224Y-27178D01*
X29224Y-26518D01*
X29212Y-26456D01*
X29187Y-26397D01*
X29152Y-26344D01*
X29107Y-26299D01*
X29055Y-26263D01*
X28996Y-26239D01*
X28934Y-26226D01*
X28870Y-26226D01*
X28808Y-26238D01*
X28749Y-26262D01*
X28696Y-26296D01*
X28650Y-26341D01*
X28637Y-26360D01*
X27701Y-26360D01*
X27700Y-26360D01*
X27663Y-26364D01*
X27628Y-26374D01*
X27611Y-26383D01*
X27596Y-26391D01*
X27567Y-26414D01*
X27566Y-26415D01*
X27565Y-26416D01*
X27401Y-26579D01*
X27384Y-26576D01*
X27320Y-26576D01*
X27258Y-26588D01*
X27199Y-26612D01*
X27146Y-26646D01*
X27100Y-26691D01*
X27065Y-26743D01*
X27040Y-26802D01*
X27026Y-26864D01*
X27026Y-26927D01*
X27037Y-26990D01*
X27061Y-27049D01*
X27095Y-27102D01*
X27139Y-27148D01*
X27191Y-27184D01*
X27250Y-27210D01*
X27312Y-27223D01*
X27375Y-27225D01*
X27438Y-27214D01*
X27497Y-27191D01*
X27551Y-27156D01*
X27597Y-27113D01*
X27633Y-27061D01*
X27659Y-27003D01*
X27673Y-26941D01*
X27674Y-26868D01*
X27670Y-26848D01*
X27778Y-26740D01*
X28637Y-26740D01*
X28645Y-26752D01*
X28689Y-26798D01*
X28741Y-26834D01*
X28800Y-26860D01*
X28862Y-26873D01*
X28925Y-26875D01*
X28988Y-26864D01*
X29047Y-26841D01*
X29101Y-26806D01*
X29147Y-26763D01*
X29183Y-26711D01*
X29209Y-26653D01*
X29223Y-26591D01*
X29224Y-26518D01*
X29224Y-27178D01*
X29196Y-27196D01*
X29150Y-27241D01*
X29115Y-27293D01*
X29090Y-27352D01*
X29076Y-27414D01*
X29076Y-27477D01*
X29087Y-27540D01*
X29111Y-27599D01*
X29145Y-27652D01*
X29189Y-27698D01*
X29241Y-27734D01*
X29300Y-27760D01*
X29362Y-27773D01*
X29425Y-27775D01*
X29488Y-27764D01*
X29547Y-27741D01*
X29601Y-27706D01*
X29647Y-27663D01*
X29662Y-27640D01*
X31502Y-27640D01*
X31501Y-27649D01*
X31499Y-27738D01*
X31515Y-27825D01*
X31548Y-27907D01*
X31596Y-27981D01*
X31657Y-28044D01*
X31729Y-28095D01*
X31810Y-28130D01*
X31896Y-28149D01*
X31985Y-28151D01*
X32071Y-28136D01*
X32154Y-28104D01*
X32228Y-28056D01*
X32292Y-27996D01*
X32343Y-27923D01*
X32379Y-27843D01*
X32399Y-27757D01*
X32400Y-27656D01*
X32400Y-29906D01*
X32398Y-29895D01*
X32398Y-28988D01*
X32397Y-28901D01*
X32379Y-28814D01*
X32350Y-28744D01*
X32287Y-28710D01*
X32190Y-28806D01*
X32190Y-28613D01*
X32156Y-28550D01*
X32074Y-28517D01*
X31988Y-28502D01*
X31901Y-28503D01*
X31814Y-28521D01*
X31744Y-28550D01*
X31710Y-28613D01*
X31950Y-28854D01*
X32190Y-28613D01*
X32190Y-28806D01*
X32046Y-28950D01*
X32287Y-29190D01*
X32350Y-29156D01*
X32383Y-29074D01*
X32398Y-28988D01*
X32398Y-29895D01*
X32383Y-29819D01*
X32349Y-29738D01*
X32300Y-29664D01*
X32238Y-29602D01*
X32190Y-29569D01*
X32190Y-29287D01*
X31950Y-29046D01*
X31854Y-29142D01*
X31854Y-28950D01*
X31613Y-28710D01*
X31550Y-28744D01*
X31517Y-28826D01*
X31502Y-28912D01*
X31503Y-28999D01*
X31521Y-29086D01*
X31550Y-29156D01*
X31613Y-29190D01*
X31854Y-28950D01*
X31854Y-29142D01*
X31710Y-29287D01*
X31744Y-29350D01*
X31826Y-29383D01*
X31912Y-29398D01*
X31999Y-29397D01*
X32086Y-29379D01*
X32156Y-29350D01*
X32190Y-29287D01*
X32190Y-29569D01*
X32165Y-29552D01*
X32084Y-29518D01*
X31997Y-29500D01*
X31909Y-29500D01*
X31822Y-29516D01*
X31741Y-29549D01*
X31667Y-29598D01*
X31604Y-29659D01*
X31554Y-29732D01*
X31519Y-29813D01*
X31501Y-29899D01*
X31499Y-29988D01*
X31515Y-30075D01*
X31548Y-30157D01*
X31596Y-30231D01*
X31657Y-30294D01*
X31729Y-30345D01*
X31810Y-30380D01*
X31896Y-30399D01*
X31985Y-30401D01*
X32071Y-30386D01*
X32154Y-30354D01*
X32228Y-30306D01*
X32292Y-30246D01*
X32343Y-30173D01*
X32379Y-30093D01*
X32399Y-30007D01*
X32400Y-29906D01*
X32400Y-31425D01*
X32399Y-31425D01*
X32399Y-31265D01*
X32399Y-31236D01*
X32399Y-30635D01*
X32393Y-30606D01*
X32382Y-30579D01*
X32366Y-30555D01*
X32345Y-30534D01*
X32321Y-30518D01*
X32294Y-30507D01*
X32265Y-30501D01*
X32236Y-30501D01*
X31635Y-30501D01*
X31606Y-30507D01*
X31579Y-30518D01*
X31555Y-30534D01*
X31534Y-30555D01*
X31518Y-30579D01*
X31507Y-30606D01*
X31501Y-30635D01*
X31501Y-30664D01*
X31501Y-31265D01*
X31507Y-31294D01*
X31518Y-31321D01*
X31534Y-31345D01*
X31555Y-31366D01*
X31579Y-31382D01*
X31606Y-31393D01*
X31635Y-31399D01*
X31664Y-31399D01*
X32265Y-31399D01*
X32294Y-31393D01*
X32321Y-31382D01*
X32345Y-31366D01*
X32366Y-31345D01*
X32382Y-31321D01*
X32393Y-31294D01*
X32399Y-31265D01*
X32399Y-31425D01*
X31324Y-31425D01*
X31324Y-29668D01*
X31312Y-29606D01*
X31287Y-29547D01*
X31252Y-29494D01*
X31207Y-29449D01*
X31155Y-29413D01*
X31096Y-29389D01*
X31034Y-29376D01*
X30970Y-29376D01*
X30948Y-29380D01*
X29539Y-27971D01*
X29536Y-27967D01*
X29534Y-27966D01*
X29507Y-27943D01*
X29505Y-27942D01*
X29475Y-27925D01*
X29440Y-27914D01*
X29403Y-27910D01*
X29401Y-27910D01*
X29400Y-27910D01*
X27000Y-27910D01*
X27000Y-25856D01*
X26983Y-25769D01*
X26949Y-25688D01*
X26900Y-25614D01*
X26838Y-25552D01*
X26765Y-25502D01*
X26684Y-25468D01*
X26597Y-25450D01*
X26509Y-25450D01*
X26422Y-25466D01*
X26341Y-25499D01*
X26267Y-25548D01*
X26204Y-25609D01*
X26154Y-25682D01*
X26119Y-25763D01*
X26101Y-25849D01*
X26099Y-25938D01*
X26115Y-26025D01*
X26148Y-26107D01*
X26196Y-26181D01*
X26257Y-26244D01*
X26329Y-26295D01*
X26410Y-26330D01*
X26496Y-26349D01*
X26585Y-26351D01*
X26671Y-26336D01*
X26754Y-26304D01*
X26828Y-26256D01*
X26892Y-26196D01*
X26943Y-26123D01*
X26979Y-26043D01*
X26999Y-25957D01*
X27000Y-25856D01*
X27000Y-27910D01*
X26999Y-27910D01*
X26999Y-27215D01*
X26999Y-27186D01*
X26999Y-26585D01*
X26993Y-26556D01*
X26982Y-26529D01*
X26966Y-26505D01*
X26945Y-26484D01*
X26921Y-26468D01*
X26894Y-26457D01*
X26865Y-26451D01*
X26836Y-26451D01*
X26235Y-26451D01*
X26206Y-26457D01*
X26179Y-26468D01*
X26155Y-26484D01*
X26134Y-26505D01*
X26118Y-26529D01*
X26107Y-26556D01*
X26101Y-26585D01*
X26101Y-26614D01*
X26101Y-27215D01*
X26107Y-27244D01*
X26118Y-27271D01*
X26134Y-27295D01*
X26155Y-27316D01*
X26179Y-27332D01*
X26206Y-27343D01*
X26235Y-27349D01*
X26264Y-27349D01*
X26865Y-27349D01*
X26894Y-27343D01*
X26921Y-27332D01*
X26945Y-27316D01*
X26966Y-27295D01*
X26982Y-27271D01*
X26993Y-27244D01*
X26999Y-27215D01*
X26999Y-27910D01*
X26403Y-27910D01*
X26400Y-27910D01*
X26378Y-27910D01*
X25940Y-27471D01*
X25940Y-27463D01*
X25951Y-27456D01*
X25997Y-27413D01*
X26033Y-27361D01*
X26059Y-27303D01*
X26073Y-27241D01*
X26074Y-27168D01*
X26062Y-27106D01*
X26037Y-27047D01*
X26002Y-26994D01*
X25957Y-26949D01*
X25905Y-26913D01*
X25846Y-26889D01*
X25784Y-26876D01*
X25720Y-26876D01*
X25658Y-26888D01*
X25599Y-26912D01*
X25546Y-26946D01*
X25500Y-26991D01*
X25465Y-27043D01*
X25440Y-27102D01*
X25426Y-27164D01*
X25426Y-27227D01*
X25437Y-27290D01*
X25461Y-27349D01*
X25495Y-27402D01*
X25539Y-27448D01*
X25560Y-27462D01*
X25560Y-27548D01*
X25560Y-27550D01*
X25560Y-27556D01*
X25563Y-27585D01*
X25573Y-27621D01*
X25574Y-27622D01*
X25590Y-27653D01*
X25592Y-27655D01*
X25599Y-27665D01*
X25614Y-27682D01*
X25615Y-27684D01*
X25616Y-27684D01*
X25620Y-27688D01*
X26163Y-28232D01*
X26164Y-28233D01*
X26165Y-28234D01*
X26170Y-28237D01*
X26193Y-28257D01*
X26194Y-28257D01*
X26225Y-28275D01*
X26226Y-28275D01*
X26260Y-28286D01*
X26297Y-28290D01*
X26299Y-28290D01*
X26300Y-28290D01*
X26397Y-28290D01*
X26400Y-28290D01*
X29321Y-28290D01*
X30679Y-29648D01*
X30676Y-29664D01*
X30676Y-29727D01*
X30687Y-29790D01*
X30711Y-29849D01*
X30745Y-29902D01*
X30789Y-29948D01*
X30841Y-29984D01*
X30900Y-30010D01*
X30962Y-30023D01*
X31025Y-30025D01*
X31088Y-30014D01*
X31147Y-29991D01*
X31201Y-29956D01*
X31247Y-29913D01*
X31283Y-29861D01*
X31309Y-29803D01*
X31323Y-29741D01*
X31324Y-29668D01*
X31324Y-31425D01*
X23375Y-31425D01*
X23375Y-25225D01*
X33425Y-25225D01*
X33425Y-31425D01*
M02*
