G04 (created by PCBNEW-RS274X (2012-apr-16-27)-stable) date Sun 09 Nov 2014 09:22:59 PM UTC*
G01*
G70*
G90*
%MOIN*%
G04 Gerber Fmt 3.4, Leading zero omitted, Abs format*
%FSLAX34Y34*%
G04 APERTURE LIST*
%ADD10C,0.006000*%
%ADD11C,0.060000*%
%ADD12R,0.060000X0.060000*%
%ADD13R,0.060000X0.080000*%
%ADD14R,0.031500X0.023600*%
%ADD15R,0.020000X0.045000*%
%ADD16R,0.053100X0.015700*%
%ADD17R,0.059100X0.082700*%
%ADD18R,0.074800X0.094500*%
%ADD19R,0.074800X0.070900*%
%ADD20R,0.082700X0.082700*%
%ADD21R,0.055000X0.035000*%
%ADD22R,0.035000X0.055000*%
%ADD23C,0.035000*%
%ADD24C,0.008000*%
%ADD25C,0.012000*%
%ADD26C,0.010000*%
G04 APERTURE END LIST*
G54D10*
G54D11*
X31950Y-25700D03*
X32950Y-25700D03*
X31950Y-26700D03*
X32950Y-26700D03*
X31950Y-27700D03*
G54D12*
X32950Y-27700D03*
G54D13*
X25750Y-30950D03*
X27050Y-30950D03*
G54D12*
X31950Y-30950D03*
G54D11*
X31950Y-29950D03*
X31950Y-28950D03*
G54D14*
X25858Y-27800D03*
X26842Y-27800D03*
X25858Y-30050D03*
X26842Y-30050D03*
G54D15*
X27900Y-28050D03*
X28400Y-28050D03*
X28900Y-28050D03*
X29400Y-28050D03*
X29900Y-28050D03*
X30400Y-28050D03*
X30900Y-28050D03*
X30900Y-25950D03*
X30400Y-25950D03*
X29900Y-25950D03*
X29400Y-25950D03*
X28900Y-25950D03*
X28400Y-25950D03*
X27900Y-25950D03*
G54D16*
X24850Y-29050D03*
X24850Y-28794D03*
X24850Y-29306D03*
X24850Y-28538D03*
X24850Y-29562D03*
G54D17*
X24850Y-27790D03*
X24850Y-30310D03*
G54D18*
X23807Y-27554D03*
X23807Y-30546D03*
G54D19*
X23807Y-28597D03*
X23807Y-29503D03*
G54D20*
X29750Y-29150D03*
X28250Y-29150D03*
G54D21*
X31000Y-30225D03*
X31000Y-30975D03*
G54D12*
X26550Y-26900D03*
G54D11*
X26550Y-25900D03*
G54D22*
X29275Y-30300D03*
X30025Y-30300D03*
X28675Y-30300D03*
X27925Y-30300D03*
G54D21*
X23700Y-25825D03*
X23700Y-26575D03*
G54D22*
X26625Y-29300D03*
X25875Y-29300D03*
X26625Y-28500D03*
X25875Y-28500D03*
X25225Y-26400D03*
X24475Y-26400D03*
X25225Y-25600D03*
X24475Y-25600D03*
G54D23*
X27350Y-26900D03*
X28900Y-26550D03*
X31000Y-29700D03*
X25750Y-27200D03*
X29400Y-27450D03*
X25300Y-27050D03*
X30400Y-31000D03*
X24800Y-31200D03*
X28150Y-27450D03*
G54D24*
X30900Y-25950D02*
X31700Y-25950D01*
X31700Y-25950D02*
X31950Y-25700D01*
X30900Y-28050D02*
X31200Y-28050D01*
X32100Y-28300D02*
X32450Y-27950D01*
X31200Y-28050D02*
X31450Y-28300D01*
X32450Y-27200D02*
X32950Y-26700D01*
X32450Y-27950D02*
X32450Y-27200D01*
X31450Y-28300D02*
X32100Y-28300D01*
X23700Y-25825D02*
X24025Y-25825D01*
X24250Y-25600D02*
X24475Y-25600D01*
X24025Y-25825D02*
X24250Y-25600D01*
X28575Y-29825D02*
X28675Y-30300D01*
X28400Y-29000D02*
X28250Y-29150D01*
X28250Y-29150D02*
X28250Y-29500D01*
X28250Y-29500D02*
X28575Y-29825D01*
X28400Y-28050D02*
X28400Y-29000D01*
X29750Y-29500D02*
X29425Y-29825D01*
X29750Y-29150D02*
X29750Y-29500D01*
X29425Y-29825D02*
X29275Y-30300D01*
X28900Y-28300D02*
X29750Y-29150D01*
X28900Y-28050D02*
X28900Y-28300D01*
X29900Y-25500D02*
X29900Y-25950D01*
X25600Y-25600D02*
X25875Y-25325D01*
X25875Y-25325D02*
X29725Y-25325D01*
X25225Y-25600D02*
X25600Y-25600D01*
X29725Y-25325D02*
X29900Y-25500D01*
X28900Y-26550D02*
X28900Y-25950D01*
X26625Y-28500D02*
X27150Y-28500D01*
X27150Y-28500D02*
X27350Y-28300D01*
X27350Y-28300D02*
X27350Y-26900D01*
X27600Y-27550D02*
X27600Y-28550D01*
X28400Y-25950D02*
X28400Y-26750D01*
X28050Y-27100D02*
X28050Y-27100D01*
X29600Y-27100D02*
X28050Y-27100D01*
X28050Y-27100D02*
X27600Y-27550D01*
X27600Y-28550D02*
X26850Y-29300D01*
X29900Y-28050D02*
X29900Y-27400D01*
X28400Y-26750D02*
X28050Y-27100D01*
X26850Y-29300D02*
X26625Y-29300D01*
X29900Y-27400D02*
X29600Y-27100D01*
X31000Y-30225D02*
X31000Y-29700D01*
X25750Y-27200D02*
X25858Y-27308D01*
X25858Y-27308D02*
X25858Y-27800D01*
X25858Y-28483D02*
X25875Y-28500D01*
X25306Y-28794D02*
X25600Y-28500D01*
X25858Y-27800D02*
X25858Y-28483D01*
X24850Y-28794D02*
X25306Y-28794D01*
X25808Y-28483D02*
X25875Y-28500D01*
X25600Y-28500D02*
X25875Y-28500D01*
X25550Y-29300D02*
X25875Y-29300D01*
X25875Y-30083D02*
X25858Y-30100D01*
X25875Y-29300D02*
X25875Y-30083D01*
X25875Y-29300D02*
X25875Y-30033D01*
X25875Y-30033D02*
X25858Y-30050D01*
X25300Y-29050D02*
X25550Y-29300D01*
X24850Y-29050D02*
X25300Y-29050D01*
X26550Y-25900D02*
X26557Y-25900D01*
X26950Y-25507D02*
X29207Y-25507D01*
X29207Y-25507D02*
X29400Y-25700D01*
X29400Y-25700D02*
X29400Y-25950D01*
X26557Y-25900D02*
X26950Y-25507D01*
X25900Y-26400D02*
X26050Y-26400D01*
X26050Y-26400D02*
X26550Y-25900D01*
X25900Y-26400D02*
X25225Y-26400D01*
X25225Y-26400D02*
X25900Y-26400D01*
X29400Y-28050D02*
X29400Y-27450D01*
X30400Y-25950D02*
X30400Y-26450D01*
X30650Y-26700D02*
X31950Y-26700D01*
X30400Y-26450D02*
X30650Y-26700D01*
G54D25*
X30400Y-28050D02*
X30400Y-28400D01*
X30400Y-28400D02*
X31950Y-29950D01*
X25400Y-28400D02*
X25400Y-27150D01*
X25262Y-28538D02*
X25400Y-28400D01*
X25300Y-27050D02*
X25300Y-27050D01*
X24950Y-27050D02*
X25300Y-27050D01*
X25400Y-27150D02*
X25300Y-27050D01*
X24850Y-28538D02*
X25262Y-28538D01*
X24625Y-26725D02*
X24950Y-27050D01*
X24475Y-26400D02*
X24625Y-26725D01*
X27900Y-27700D02*
X28150Y-27450D01*
X25750Y-30950D02*
X25400Y-30950D01*
X25150Y-31200D02*
X24800Y-31200D01*
X25400Y-30950D02*
X25150Y-31200D01*
X27900Y-28050D02*
X27900Y-27700D01*
X30425Y-30975D02*
X30400Y-31000D01*
X31000Y-30975D02*
X30425Y-30975D01*
G54D10*
G36*
X33425Y-31425D02*
X33401Y-31425D01*
X33401Y-27805D01*
X33401Y-27595D01*
X33400Y-27385D01*
X33400Y-26656D01*
X33400Y-25656D01*
X33383Y-25569D01*
X33349Y-25488D01*
X33300Y-25414D01*
X33238Y-25352D01*
X33165Y-25302D01*
X33084Y-25268D01*
X32997Y-25250D01*
X32909Y-25250D01*
X32822Y-25266D01*
X32741Y-25299D01*
X32667Y-25348D01*
X32604Y-25409D01*
X32554Y-25482D01*
X32519Y-25563D01*
X32501Y-25649D01*
X32499Y-25738D01*
X32515Y-25825D01*
X32548Y-25907D01*
X32596Y-25981D01*
X32657Y-26044D01*
X32729Y-26095D01*
X32810Y-26130D01*
X32896Y-26149D01*
X32985Y-26151D01*
X33071Y-26136D01*
X33154Y-26104D01*
X33228Y-26056D01*
X33292Y-25996D01*
X33343Y-25923D01*
X33379Y-25843D01*
X33399Y-25757D01*
X33400Y-25656D01*
X33400Y-26656D01*
X33383Y-26569D01*
X33349Y-26488D01*
X33300Y-26414D01*
X33238Y-26352D01*
X33165Y-26302D01*
X33084Y-26268D01*
X32997Y-26250D01*
X32909Y-26250D01*
X32822Y-26266D01*
X32741Y-26299D01*
X32667Y-26348D01*
X32604Y-26409D01*
X32554Y-26482D01*
X32519Y-26563D01*
X32501Y-26649D01*
X32499Y-26738D01*
X32515Y-26825D01*
X32527Y-26854D01*
X32400Y-26981D01*
X32400Y-26656D01*
X32400Y-25656D01*
X32383Y-25569D01*
X32349Y-25488D01*
X32300Y-25414D01*
X32238Y-25352D01*
X32165Y-25302D01*
X32084Y-25268D01*
X31997Y-25250D01*
X31909Y-25250D01*
X31822Y-25266D01*
X31741Y-25299D01*
X31667Y-25348D01*
X31604Y-25409D01*
X31554Y-25482D01*
X31519Y-25563D01*
X31501Y-25649D01*
X31499Y-25738D01*
X31503Y-25760D01*
X31149Y-25760D01*
X31149Y-25710D01*
X31143Y-25681D01*
X31132Y-25654D01*
X31116Y-25630D01*
X31095Y-25609D01*
X31071Y-25593D01*
X31044Y-25582D01*
X31015Y-25576D01*
X30986Y-25576D01*
X30785Y-25576D01*
X30756Y-25582D01*
X30729Y-25593D01*
X30705Y-25609D01*
X30684Y-25630D01*
X30668Y-25654D01*
X30657Y-25681D01*
X30651Y-25710D01*
X30651Y-25739D01*
X30651Y-26190D01*
X30657Y-26219D01*
X30668Y-26246D01*
X30684Y-26270D01*
X30705Y-26291D01*
X30729Y-26307D01*
X30756Y-26318D01*
X30785Y-26324D01*
X30814Y-26324D01*
X31015Y-26324D01*
X31044Y-26318D01*
X31071Y-26307D01*
X31095Y-26291D01*
X31116Y-26270D01*
X31132Y-26246D01*
X31143Y-26219D01*
X31149Y-26190D01*
X31149Y-26161D01*
X31149Y-26140D01*
X31698Y-26140D01*
X31700Y-26140D01*
X31706Y-26139D01*
X31735Y-26137D01*
X31737Y-26136D01*
X31771Y-26127D01*
X31772Y-26126D01*
X31784Y-26119D01*
X31785Y-26119D01*
X31810Y-26130D01*
X31896Y-26149D01*
X31985Y-26151D01*
X32071Y-26136D01*
X32154Y-26104D01*
X32228Y-26056D01*
X32292Y-25996D01*
X32343Y-25923D01*
X32379Y-25843D01*
X32399Y-25757D01*
X32400Y-25656D01*
X32400Y-26656D01*
X32383Y-26569D01*
X32349Y-26488D01*
X32300Y-26414D01*
X32238Y-26352D01*
X32165Y-26302D01*
X32084Y-26268D01*
X31997Y-26250D01*
X31909Y-26250D01*
X31822Y-26266D01*
X31741Y-26299D01*
X31667Y-26348D01*
X31604Y-26409D01*
X31554Y-26482D01*
X31541Y-26510D01*
X30728Y-26510D01*
X30590Y-26371D01*
X30590Y-26294D01*
X30595Y-26291D01*
X30616Y-26270D01*
X30632Y-26246D01*
X30643Y-26219D01*
X30649Y-26190D01*
X30649Y-26161D01*
X30649Y-25710D01*
X30643Y-25681D01*
X30632Y-25654D01*
X30616Y-25630D01*
X30595Y-25609D01*
X30571Y-25593D01*
X30544Y-25582D01*
X30515Y-25576D01*
X30486Y-25576D01*
X30285Y-25576D01*
X30256Y-25582D01*
X30229Y-25593D01*
X30205Y-25609D01*
X30184Y-25630D01*
X30168Y-25654D01*
X30157Y-25681D01*
X30151Y-25710D01*
X30151Y-25739D01*
X30151Y-26190D01*
X30157Y-26219D01*
X30168Y-26246D01*
X30184Y-26270D01*
X30205Y-26291D01*
X30210Y-26294D01*
X30210Y-26448D01*
X30210Y-26450D01*
X30210Y-26456D01*
X30213Y-26485D01*
X30223Y-26521D01*
X30224Y-26522D01*
X30240Y-26553D01*
X30242Y-26555D01*
X30249Y-26565D01*
X30264Y-26582D01*
X30265Y-26584D01*
X30266Y-26584D01*
X30270Y-26588D01*
X30513Y-26832D01*
X30514Y-26833D01*
X30515Y-26834D01*
X30520Y-26837D01*
X30543Y-26857D01*
X30544Y-26857D01*
X30575Y-26875D01*
X30576Y-26875D01*
X30610Y-26886D01*
X30612Y-26886D01*
X30647Y-26890D01*
X30649Y-26890D01*
X30650Y-26890D01*
X31541Y-26890D01*
X31548Y-26907D01*
X31596Y-26981D01*
X31657Y-27044D01*
X31729Y-27095D01*
X31810Y-27130D01*
X31896Y-27149D01*
X31985Y-27151D01*
X32071Y-27136D01*
X32154Y-27104D01*
X32228Y-27056D01*
X32292Y-26996D01*
X32343Y-26923D01*
X32379Y-26843D01*
X32399Y-26757D01*
X32400Y-26656D01*
X32400Y-26981D01*
X32321Y-27060D01*
X32317Y-27064D01*
X32293Y-27093D01*
X32275Y-27125D01*
X32264Y-27160D01*
X32260Y-27197D01*
X32260Y-27199D01*
X32260Y-27200D01*
X32260Y-27374D01*
X32238Y-27352D01*
X32165Y-27302D01*
X32084Y-27268D01*
X31997Y-27250D01*
X31909Y-27250D01*
X31822Y-27266D01*
X31741Y-27299D01*
X31667Y-27348D01*
X31604Y-27409D01*
X31554Y-27482D01*
X31519Y-27563D01*
X31501Y-27649D01*
X31499Y-27738D01*
X31515Y-27825D01*
X31548Y-27907D01*
X31596Y-27981D01*
X31657Y-28044D01*
X31729Y-28095D01*
X31763Y-28110D01*
X31528Y-28110D01*
X31339Y-27921D01*
X31336Y-27917D01*
X31334Y-27916D01*
X31307Y-27893D01*
X31305Y-27892D01*
X31275Y-27875D01*
X31240Y-27864D01*
X31203Y-27860D01*
X31201Y-27860D01*
X31200Y-27860D01*
X31149Y-27860D01*
X31149Y-27810D01*
X31143Y-27781D01*
X31132Y-27754D01*
X31116Y-27730D01*
X31095Y-27709D01*
X31071Y-27693D01*
X31044Y-27682D01*
X31015Y-27676D01*
X30986Y-27676D01*
X30785Y-27676D01*
X30756Y-27682D01*
X30729Y-27693D01*
X30705Y-27709D01*
X30684Y-27730D01*
X30668Y-27754D01*
X30657Y-27781D01*
X30651Y-27810D01*
X30651Y-27839D01*
X30651Y-28290D01*
X30657Y-28319D01*
X30668Y-28346D01*
X30684Y-28370D01*
X30705Y-28391D01*
X30729Y-28407D01*
X30756Y-28418D01*
X30785Y-28424D01*
X30814Y-28424D01*
X31015Y-28424D01*
X31044Y-28418D01*
X31071Y-28407D01*
X31095Y-28391D01*
X31116Y-28370D01*
X31132Y-28346D01*
X31143Y-28319D01*
X31149Y-28290D01*
X31149Y-28267D01*
X31313Y-28432D01*
X31314Y-28433D01*
X31315Y-28434D01*
X31320Y-28437D01*
X31343Y-28457D01*
X31344Y-28457D01*
X31375Y-28475D01*
X31376Y-28475D01*
X31410Y-28486D01*
X31412Y-28486D01*
X31447Y-28490D01*
X31449Y-28490D01*
X31450Y-28490D01*
X32098Y-28490D01*
X32100Y-28490D01*
X32106Y-28489D01*
X32135Y-28487D01*
X32137Y-28486D01*
X32171Y-28477D01*
X32172Y-28476D01*
X32203Y-28460D01*
X32205Y-28458D01*
X32215Y-28450D01*
X32232Y-28436D01*
X32234Y-28435D01*
X32234Y-28434D01*
X32238Y-28429D01*
X32553Y-28115D01*
X32554Y-28116D01*
X32579Y-28133D01*
X32606Y-28144D01*
X32635Y-28150D01*
X32664Y-28150D01*
X32845Y-28151D01*
X32882Y-28114D01*
X32882Y-27818D01*
X32882Y-27768D01*
X32882Y-27632D01*
X32882Y-27582D01*
X32882Y-27286D01*
X32845Y-27249D01*
X32668Y-27249D01*
X32794Y-27123D01*
X32810Y-27130D01*
X32896Y-27149D01*
X32985Y-27151D01*
X33071Y-27136D01*
X33154Y-27104D01*
X33228Y-27056D01*
X33292Y-26996D01*
X33343Y-26923D01*
X33379Y-26843D01*
X33399Y-26757D01*
X33400Y-26656D01*
X33400Y-27385D01*
X33394Y-27356D01*
X33383Y-27329D01*
X33367Y-27304D01*
X33346Y-27284D01*
X33321Y-27267D01*
X33294Y-27256D01*
X33265Y-27250D01*
X33236Y-27250D01*
X33055Y-27249D01*
X33018Y-27286D01*
X33018Y-27632D01*
X33364Y-27632D01*
X33401Y-27595D01*
X33401Y-27805D01*
X33364Y-27768D01*
X33018Y-27768D01*
X33018Y-28114D01*
X33055Y-28151D01*
X33236Y-28150D01*
X33265Y-28150D01*
X33294Y-28144D01*
X33321Y-28133D01*
X33346Y-28116D01*
X33367Y-28096D01*
X33383Y-28071D01*
X33394Y-28044D01*
X33400Y-28015D01*
X33401Y-27805D01*
X33401Y-31425D01*
X32401Y-31425D01*
X32401Y-31055D01*
X32401Y-30845D01*
X32400Y-30635D01*
X32400Y-29906D01*
X32400Y-28906D01*
X32383Y-28819D01*
X32349Y-28738D01*
X32300Y-28664D01*
X32238Y-28602D01*
X32165Y-28552D01*
X32084Y-28518D01*
X31997Y-28500D01*
X31909Y-28500D01*
X31822Y-28516D01*
X31741Y-28549D01*
X31667Y-28598D01*
X31604Y-28659D01*
X31554Y-28732D01*
X31519Y-28813D01*
X31501Y-28899D01*
X31499Y-28988D01*
X31515Y-29075D01*
X31548Y-29157D01*
X31596Y-29231D01*
X31657Y-29294D01*
X31729Y-29345D01*
X31810Y-29380D01*
X31896Y-29399D01*
X31985Y-29401D01*
X32071Y-29386D01*
X32154Y-29354D01*
X32228Y-29306D01*
X32292Y-29246D01*
X32343Y-29173D01*
X32379Y-29093D01*
X32399Y-29007D01*
X32400Y-28906D01*
X32400Y-29906D01*
X32383Y-29819D01*
X32349Y-29738D01*
X32300Y-29664D01*
X32238Y-29602D01*
X32165Y-29552D01*
X32084Y-29518D01*
X31997Y-29500D01*
X31909Y-29500D01*
X31822Y-29516D01*
X31815Y-29518D01*
X30634Y-28338D01*
X30643Y-28319D01*
X30649Y-28290D01*
X30649Y-28261D01*
X30649Y-27810D01*
X30643Y-27781D01*
X30632Y-27754D01*
X30616Y-27730D01*
X30595Y-27709D01*
X30571Y-27693D01*
X30544Y-27682D01*
X30515Y-27676D01*
X30486Y-27676D01*
X30285Y-27676D01*
X30256Y-27682D01*
X30229Y-27693D01*
X30205Y-27709D01*
X30184Y-27730D01*
X30168Y-27754D01*
X30157Y-27781D01*
X30151Y-27810D01*
X30151Y-27839D01*
X30151Y-28290D01*
X30157Y-28319D01*
X30168Y-28346D01*
X30184Y-28370D01*
X30190Y-28376D01*
X30190Y-28398D01*
X30190Y-28400D01*
X30194Y-28441D01*
X30201Y-28466D01*
X30205Y-28478D01*
X30205Y-28479D01*
X30206Y-28480D01*
X30224Y-28514D01*
X30225Y-28516D01*
X30239Y-28534D01*
X30249Y-28546D01*
X30251Y-28548D01*
X30252Y-28548D01*
X30256Y-28552D01*
X31091Y-29388D01*
X31034Y-29376D01*
X30970Y-29376D01*
X30908Y-29388D01*
X30849Y-29412D01*
X30796Y-29446D01*
X30750Y-29491D01*
X30715Y-29543D01*
X30690Y-29602D01*
X30676Y-29664D01*
X30676Y-29727D01*
X30687Y-29790D01*
X30711Y-29849D01*
X30744Y-29901D01*
X30710Y-29901D01*
X30681Y-29907D01*
X30654Y-29918D01*
X30630Y-29934D01*
X30609Y-29955D01*
X30593Y-29979D01*
X30582Y-30006D01*
X30576Y-30035D01*
X30576Y-30064D01*
X30576Y-30415D01*
X30582Y-30444D01*
X30593Y-30471D01*
X30609Y-30495D01*
X30630Y-30516D01*
X30654Y-30532D01*
X30681Y-30543D01*
X30710Y-30549D01*
X30739Y-30549D01*
X31290Y-30549D01*
X31319Y-30543D01*
X31346Y-30532D01*
X31370Y-30516D01*
X31391Y-30495D01*
X31407Y-30471D01*
X31418Y-30444D01*
X31424Y-30415D01*
X31424Y-30386D01*
X31424Y-30035D01*
X31418Y-30006D01*
X31407Y-29979D01*
X31391Y-29955D01*
X31370Y-29934D01*
X31346Y-29918D01*
X31319Y-29907D01*
X31290Y-29901D01*
X31261Y-29901D01*
X31255Y-29901D01*
X31283Y-29861D01*
X31309Y-29803D01*
X31323Y-29741D01*
X31324Y-29668D01*
X31312Y-29609D01*
X31518Y-29815D01*
X31501Y-29899D01*
X31499Y-29988D01*
X31515Y-30075D01*
X31548Y-30157D01*
X31596Y-30231D01*
X31657Y-30294D01*
X31729Y-30345D01*
X31810Y-30380D01*
X31896Y-30399D01*
X31985Y-30401D01*
X32071Y-30386D01*
X32154Y-30354D01*
X32228Y-30306D01*
X32292Y-30246D01*
X32343Y-30173D01*
X32379Y-30093D01*
X32399Y-30007D01*
X32400Y-29906D01*
X32400Y-30635D01*
X32394Y-30606D01*
X32383Y-30579D01*
X32367Y-30554D01*
X32346Y-30534D01*
X32321Y-30517D01*
X32294Y-30506D01*
X32265Y-30500D01*
X32236Y-30500D01*
X32055Y-30499D01*
X32018Y-30536D01*
X32018Y-30882D01*
X32364Y-30882D01*
X32401Y-30845D01*
X32401Y-31055D01*
X32364Y-31018D01*
X32018Y-31018D01*
X32018Y-31364D01*
X32055Y-31401D01*
X32236Y-31400D01*
X32265Y-31400D01*
X32294Y-31394D01*
X32321Y-31383D01*
X32346Y-31366D01*
X32367Y-31346D01*
X32383Y-31321D01*
X32394Y-31294D01*
X32400Y-31265D01*
X32401Y-31055D01*
X32401Y-31425D01*
X31882Y-31425D01*
X31882Y-31364D01*
X31882Y-31018D01*
X31882Y-30882D01*
X31882Y-30536D01*
X31845Y-30499D01*
X31664Y-30500D01*
X31635Y-30500D01*
X31606Y-30506D01*
X31579Y-30517D01*
X31554Y-30534D01*
X31533Y-30554D01*
X31517Y-30579D01*
X31506Y-30606D01*
X31500Y-30635D01*
X31499Y-30845D01*
X31536Y-30882D01*
X31882Y-30882D01*
X31882Y-31018D01*
X31536Y-31018D01*
X31499Y-31055D01*
X31500Y-31265D01*
X31506Y-31294D01*
X31517Y-31321D01*
X31533Y-31346D01*
X31554Y-31366D01*
X31579Y-31383D01*
X31606Y-31394D01*
X31635Y-31400D01*
X31664Y-31400D01*
X31845Y-31401D01*
X31882Y-31364D01*
X31882Y-31425D01*
X31424Y-31425D01*
X31424Y-31165D01*
X31424Y-31136D01*
X31424Y-30785D01*
X31418Y-30756D01*
X31407Y-30729D01*
X31391Y-30705D01*
X31370Y-30684D01*
X31346Y-30668D01*
X31319Y-30657D01*
X31290Y-30651D01*
X31261Y-30651D01*
X30710Y-30651D01*
X30681Y-30657D01*
X30654Y-30668D01*
X30630Y-30684D01*
X30609Y-30705D01*
X30593Y-30729D01*
X30589Y-30737D01*
X30555Y-30713D01*
X30496Y-30689D01*
X30434Y-30676D01*
X30370Y-30676D01*
X30308Y-30688D01*
X30296Y-30692D01*
X30316Y-30671D01*
X30333Y-30646D01*
X30344Y-30619D01*
X30350Y-30590D01*
X30350Y-30561D01*
X30351Y-30405D01*
X30351Y-30195D01*
X30350Y-30039D01*
X30350Y-30010D01*
X30344Y-29981D01*
X30333Y-29954D01*
X30316Y-29929D01*
X30296Y-29908D01*
X30271Y-29892D01*
X30244Y-29881D01*
X30215Y-29875D01*
X30130Y-29874D01*
X30093Y-29911D01*
X30093Y-30232D01*
X30314Y-30232D01*
X30351Y-30195D01*
X30351Y-30405D01*
X30314Y-30368D01*
X30093Y-30368D01*
X30093Y-30689D01*
X30130Y-30726D01*
X30215Y-30725D01*
X30235Y-30720D01*
X30196Y-30746D01*
X30150Y-30791D01*
X30115Y-30843D01*
X30090Y-30902D01*
X30076Y-30964D01*
X30076Y-31027D01*
X30087Y-31090D01*
X30111Y-31149D01*
X30145Y-31202D01*
X30189Y-31248D01*
X30241Y-31284D01*
X30300Y-31310D01*
X30362Y-31323D01*
X30425Y-31325D01*
X30488Y-31314D01*
X30547Y-31291D01*
X30601Y-31256D01*
X30610Y-31246D01*
X30630Y-31266D01*
X30654Y-31282D01*
X30681Y-31293D01*
X30710Y-31299D01*
X30739Y-31299D01*
X31290Y-31299D01*
X31319Y-31293D01*
X31346Y-31282D01*
X31370Y-31266D01*
X31391Y-31245D01*
X31407Y-31221D01*
X31418Y-31194D01*
X31424Y-31165D01*
X31424Y-31425D01*
X29957Y-31425D01*
X29957Y-30689D01*
X29957Y-30368D01*
X29957Y-30232D01*
X29957Y-29911D01*
X29920Y-29874D01*
X29835Y-29875D01*
X29806Y-29881D01*
X29779Y-29892D01*
X29754Y-29908D01*
X29734Y-29929D01*
X29717Y-29954D01*
X29706Y-29981D01*
X29700Y-30010D01*
X29700Y-30039D01*
X29699Y-30195D01*
X29736Y-30232D01*
X29957Y-30232D01*
X29957Y-30368D01*
X29736Y-30368D01*
X29699Y-30405D01*
X29700Y-30561D01*
X29700Y-30590D01*
X29706Y-30619D01*
X29717Y-30646D01*
X29734Y-30671D01*
X29754Y-30692D01*
X29779Y-30708D01*
X29806Y-30719D01*
X29835Y-30725D01*
X29920Y-30726D01*
X29957Y-30689D01*
X29957Y-31425D01*
X28251Y-31425D01*
X28251Y-30405D01*
X28251Y-30195D01*
X28250Y-30039D01*
X28250Y-30010D01*
X28244Y-29981D01*
X28233Y-29954D01*
X28216Y-29929D01*
X28196Y-29908D01*
X28171Y-29892D01*
X28144Y-29881D01*
X28115Y-29875D01*
X28030Y-29874D01*
X27993Y-29911D01*
X27993Y-30232D01*
X28214Y-30232D01*
X28251Y-30195D01*
X28251Y-30405D01*
X28214Y-30368D01*
X27993Y-30368D01*
X27993Y-30689D01*
X28030Y-30726D01*
X28115Y-30725D01*
X28144Y-30719D01*
X28171Y-30708D01*
X28196Y-30692D01*
X28216Y-30671D01*
X28233Y-30646D01*
X28244Y-30619D01*
X28250Y-30590D01*
X28250Y-30561D01*
X28251Y-30405D01*
X28251Y-31425D01*
X27857Y-31425D01*
X27857Y-30689D01*
X27857Y-30368D01*
X27857Y-30232D01*
X27857Y-29911D01*
X27820Y-29874D01*
X27735Y-29875D01*
X27706Y-29881D01*
X27679Y-29892D01*
X27654Y-29908D01*
X27634Y-29929D01*
X27617Y-29954D01*
X27606Y-29981D01*
X27600Y-30010D01*
X27600Y-30039D01*
X27599Y-30195D01*
X27636Y-30232D01*
X27857Y-30232D01*
X27857Y-30368D01*
X27636Y-30368D01*
X27599Y-30405D01*
X27600Y-30561D01*
X27600Y-30590D01*
X27606Y-30619D01*
X27617Y-30646D01*
X27634Y-30671D01*
X27654Y-30692D01*
X27679Y-30708D01*
X27706Y-30719D01*
X27735Y-30725D01*
X27820Y-30726D01*
X27857Y-30689D01*
X27857Y-31425D01*
X27480Y-31425D01*
X27483Y-31421D01*
X27494Y-31394D01*
X27500Y-31365D01*
X27500Y-31336D01*
X27501Y-31055D01*
X27501Y-30845D01*
X27500Y-30564D01*
X27500Y-30535D01*
X27494Y-30506D01*
X27483Y-30479D01*
X27466Y-30454D01*
X27446Y-30433D01*
X27421Y-30417D01*
X27394Y-30406D01*
X27365Y-30400D01*
X27155Y-30399D01*
X27150Y-30404D01*
X27150Y-30146D01*
X27150Y-29954D01*
X27149Y-29917D01*
X27143Y-29888D01*
X27132Y-29861D01*
X27116Y-29836D01*
X27095Y-29816D01*
X27070Y-29799D01*
X27043Y-29788D01*
X27014Y-29782D01*
X26985Y-29782D01*
X26947Y-29781D01*
X26910Y-29818D01*
X26910Y-29991D01*
X27113Y-29991D01*
X27150Y-29954D01*
X27150Y-30146D01*
X27113Y-30109D01*
X26910Y-30109D01*
X26910Y-30282D01*
X26947Y-30319D01*
X26985Y-30318D01*
X27014Y-30318D01*
X27043Y-30312D01*
X27070Y-30301D01*
X27095Y-30284D01*
X27116Y-30264D01*
X27132Y-30239D01*
X27143Y-30212D01*
X27149Y-30183D01*
X27150Y-30146D01*
X27150Y-30404D01*
X27118Y-30436D01*
X27118Y-30882D01*
X27464Y-30882D01*
X27501Y-30845D01*
X27501Y-31055D01*
X27464Y-31018D01*
X27168Y-31018D01*
X27118Y-31018D01*
X26982Y-31018D01*
X26982Y-30882D01*
X26982Y-30436D01*
X26945Y-30399D01*
X26774Y-30399D01*
X26774Y-30282D01*
X26774Y-30109D01*
X26774Y-29991D01*
X26774Y-29818D01*
X26737Y-29781D01*
X26699Y-29782D01*
X26670Y-29782D01*
X26641Y-29788D01*
X26614Y-29799D01*
X26589Y-29816D01*
X26568Y-29836D01*
X26552Y-29861D01*
X26541Y-29888D01*
X26535Y-29917D01*
X26534Y-29954D01*
X26571Y-29991D01*
X26774Y-29991D01*
X26774Y-30109D01*
X26571Y-30109D01*
X26534Y-30146D01*
X26535Y-30183D01*
X26541Y-30212D01*
X26552Y-30239D01*
X26568Y-30264D01*
X26589Y-30284D01*
X26614Y-30301D01*
X26641Y-30312D01*
X26670Y-30318D01*
X26699Y-30318D01*
X26737Y-30319D01*
X26774Y-30282D01*
X26774Y-30399D01*
X26735Y-30400D01*
X26706Y-30406D01*
X26679Y-30417D01*
X26654Y-30433D01*
X26634Y-30454D01*
X26617Y-30479D01*
X26606Y-30506D01*
X26600Y-30535D01*
X26600Y-30564D01*
X26599Y-30845D01*
X26636Y-30882D01*
X26982Y-30882D01*
X26982Y-31018D01*
X26932Y-31018D01*
X26636Y-31018D01*
X26599Y-31055D01*
X26600Y-31336D01*
X26600Y-31365D01*
X26606Y-31394D01*
X26617Y-31421D01*
X26619Y-31425D01*
X26179Y-31425D01*
X26182Y-31421D01*
X26193Y-31394D01*
X26199Y-31365D01*
X26199Y-31336D01*
X26199Y-30535D01*
X26193Y-30506D01*
X26182Y-30479D01*
X26166Y-30455D01*
X26145Y-30434D01*
X26121Y-30418D01*
X26094Y-30407D01*
X26065Y-30401D01*
X26036Y-30401D01*
X25435Y-30401D01*
X25406Y-30407D01*
X25379Y-30418D01*
X25355Y-30434D01*
X25334Y-30455D01*
X25318Y-30479D01*
X25307Y-30506D01*
X25301Y-30535D01*
X25301Y-30564D01*
X25301Y-30766D01*
X25286Y-30773D01*
X25289Y-30767D01*
X25295Y-30738D01*
X25296Y-30415D01*
X25296Y-30205D01*
X25295Y-29882D01*
X25289Y-29853D01*
X25278Y-29826D01*
X25262Y-29801D01*
X25241Y-29781D01*
X25216Y-29764D01*
X25205Y-29759D01*
X25211Y-29756D01*
X25232Y-29736D01*
X25248Y-29711D01*
X25259Y-29684D01*
X25265Y-29655D01*
X25266Y-29638D01*
X25229Y-29601D01*
X24918Y-29601D01*
X24918Y-29754D01*
X24932Y-29768D01*
X24918Y-29783D01*
X24918Y-30242D01*
X25259Y-30242D01*
X25296Y-30205D01*
X25296Y-30415D01*
X25259Y-30378D01*
X24918Y-30378D01*
X24918Y-30837D01*
X24955Y-30874D01*
X25131Y-30873D01*
X25160Y-30873D01*
X25185Y-30867D01*
X25063Y-30990D01*
X25048Y-30990D01*
X25007Y-30949D01*
X24955Y-30913D01*
X24896Y-30889D01*
X24834Y-30876D01*
X24782Y-30876D01*
X24782Y-30837D01*
X24782Y-30378D01*
X24782Y-30242D01*
X24782Y-29783D01*
X24767Y-29768D01*
X24782Y-29754D01*
X24782Y-29601D01*
X24471Y-29601D01*
X24434Y-29638D01*
X24435Y-29655D01*
X24441Y-29684D01*
X24452Y-29711D01*
X24468Y-29736D01*
X24489Y-29756D01*
X24494Y-29759D01*
X24484Y-29764D01*
X24459Y-29781D01*
X24438Y-29801D01*
X24422Y-29826D01*
X24411Y-29853D01*
X24405Y-29882D01*
X24404Y-30205D01*
X24441Y-30242D01*
X24782Y-30242D01*
X24782Y-30378D01*
X24441Y-30378D01*
X24404Y-30415D01*
X24405Y-30738D01*
X24411Y-30767D01*
X24422Y-30794D01*
X24438Y-30819D01*
X24459Y-30839D01*
X24484Y-30856D01*
X24511Y-30867D01*
X24540Y-30873D01*
X24569Y-30873D01*
X24745Y-30874D01*
X24782Y-30837D01*
X24782Y-30876D01*
X24770Y-30876D01*
X24708Y-30888D01*
X24649Y-30912D01*
X24596Y-30946D01*
X24550Y-30991D01*
X24515Y-31043D01*
X24490Y-31102D01*
X24476Y-31164D01*
X24476Y-31227D01*
X24487Y-31290D01*
X24511Y-31349D01*
X24545Y-31402D01*
X24567Y-31425D01*
X24332Y-31425D01*
X24332Y-30651D01*
X24332Y-30441D01*
X24331Y-30059D01*
X24325Y-30030D01*
X24314Y-30003D01*
X24298Y-29978D01*
X24284Y-29965D01*
X24298Y-29953D01*
X24314Y-29928D01*
X24325Y-29901D01*
X24331Y-29872D01*
X24332Y-29608D01*
X24332Y-29398D01*
X24331Y-29134D01*
X24325Y-29105D01*
X24314Y-29078D01*
X24298Y-29053D01*
X24294Y-29050D01*
X24298Y-29047D01*
X24314Y-29022D01*
X24325Y-28995D01*
X24331Y-28966D01*
X24332Y-28702D01*
X24332Y-28492D01*
X24331Y-28228D01*
X24325Y-28199D01*
X24314Y-28172D01*
X24298Y-28147D01*
X24284Y-28134D01*
X24298Y-28122D01*
X24314Y-28097D01*
X24325Y-28070D01*
X24331Y-28041D01*
X24332Y-27659D01*
X24332Y-27449D01*
X24331Y-27067D01*
X24325Y-27038D01*
X24314Y-27011D01*
X24298Y-26986D01*
X24277Y-26966D01*
X24252Y-26949D01*
X24225Y-26938D01*
X24196Y-26932D01*
X24167Y-26932D01*
X24126Y-26931D01*
X24126Y-26680D01*
X24126Y-26470D01*
X24125Y-26385D01*
X24119Y-26356D01*
X24108Y-26329D01*
X24092Y-26304D01*
X24071Y-26284D01*
X24046Y-26267D01*
X24019Y-26256D01*
X23990Y-26250D01*
X23961Y-26250D01*
X23805Y-26249D01*
X23768Y-26286D01*
X23768Y-26507D01*
X24089Y-26507D01*
X24126Y-26470D01*
X24126Y-26680D01*
X24089Y-26643D01*
X23768Y-26643D01*
X23768Y-26864D01*
X23805Y-26901D01*
X23961Y-26900D01*
X23990Y-26900D01*
X24019Y-26894D01*
X24046Y-26883D01*
X24071Y-26866D01*
X24092Y-26846D01*
X24108Y-26821D01*
X24119Y-26794D01*
X24125Y-26765D01*
X24126Y-26680D01*
X24126Y-26931D01*
X23912Y-26931D01*
X23875Y-26968D01*
X23875Y-27486D01*
X24295Y-27486D01*
X24332Y-27449D01*
X24332Y-27659D01*
X24295Y-27622D01*
X23875Y-27622D01*
X23875Y-28129D01*
X23875Y-28140D01*
X23875Y-28529D01*
X24295Y-28529D01*
X24332Y-28492D01*
X24332Y-28702D01*
X24295Y-28665D01*
X23875Y-28665D01*
X23875Y-29035D01*
X23875Y-29065D01*
X23875Y-29435D01*
X24295Y-29435D01*
X24332Y-29398D01*
X24332Y-29608D01*
X24295Y-29571D01*
X23875Y-29571D01*
X23875Y-29960D01*
X23875Y-29971D01*
X23875Y-30478D01*
X24295Y-30478D01*
X24332Y-30441D01*
X24332Y-30651D01*
X24295Y-30614D01*
X23875Y-30614D01*
X23875Y-31132D01*
X23912Y-31169D01*
X24167Y-31168D01*
X24196Y-31168D01*
X24225Y-31162D01*
X24252Y-31151D01*
X24277Y-31134D01*
X24298Y-31114D01*
X24314Y-31089D01*
X24325Y-31062D01*
X24331Y-31033D01*
X24332Y-30651D01*
X24332Y-31425D01*
X23375Y-31425D01*
X23375Y-31156D01*
X23389Y-31162D01*
X23418Y-31168D01*
X23447Y-31168D01*
X23702Y-31169D01*
X23739Y-31132D01*
X23739Y-30664D01*
X23739Y-30614D01*
X23739Y-30478D01*
X23739Y-30428D01*
X23739Y-29971D01*
X23739Y-29960D01*
X23739Y-29621D01*
X23739Y-29571D01*
X23739Y-29435D01*
X23739Y-29385D01*
X23739Y-29065D01*
X23739Y-29035D01*
X23739Y-28715D01*
X23739Y-28665D01*
X23739Y-28529D01*
X23739Y-28479D01*
X23739Y-28140D01*
X23739Y-28129D01*
X23739Y-27672D01*
X23739Y-27622D01*
X23739Y-27486D01*
X23739Y-27436D01*
X23739Y-26968D01*
X23702Y-26931D01*
X23447Y-26932D01*
X23418Y-26932D01*
X23389Y-26938D01*
X23375Y-26943D01*
X23375Y-26891D01*
X23381Y-26894D01*
X23410Y-26900D01*
X23439Y-26900D01*
X23595Y-26901D01*
X23632Y-26864D01*
X23632Y-26693D01*
X23632Y-26643D01*
X23632Y-26507D01*
X23632Y-26457D01*
X23632Y-26286D01*
X23595Y-26249D01*
X23439Y-26250D01*
X23410Y-26250D01*
X23381Y-26256D01*
X23375Y-26258D01*
X23375Y-26140D01*
X23381Y-26143D01*
X23410Y-26149D01*
X23439Y-26149D01*
X23990Y-26149D01*
X24019Y-26143D01*
X24046Y-26132D01*
X24070Y-26116D01*
X24091Y-26095D01*
X24107Y-26071D01*
X24118Y-26044D01*
X24124Y-26015D01*
X24124Y-25987D01*
X24124Y-25986D01*
X24128Y-25985D01*
X24130Y-25983D01*
X24140Y-25975D01*
X24157Y-25961D01*
X24159Y-25960D01*
X24159Y-25959D01*
X24163Y-25954D01*
X24169Y-25948D01*
X24184Y-25970D01*
X24205Y-25991D01*
X24218Y-26000D01*
X24205Y-26009D01*
X24184Y-26030D01*
X24168Y-26054D01*
X24157Y-26081D01*
X24151Y-26110D01*
X24151Y-26139D01*
X24151Y-26690D01*
X24157Y-26719D01*
X24168Y-26746D01*
X24184Y-26770D01*
X24205Y-26791D01*
X24229Y-26807D01*
X24256Y-26818D01*
X24285Y-26824D01*
X24314Y-26824D01*
X24441Y-26824D01*
X24441Y-26825D01*
X24449Y-26839D01*
X24451Y-26842D01*
X24455Y-26848D01*
X24462Y-26856D01*
X24474Y-26871D01*
X24477Y-26873D01*
X24482Y-26878D01*
X24799Y-27196D01*
X24800Y-27197D01*
X24801Y-27198D01*
X24807Y-27203D01*
X24831Y-27223D01*
X24833Y-27224D01*
X24836Y-27226D01*
X24745Y-27226D01*
X24732Y-27226D01*
X24569Y-27227D01*
X24540Y-27227D01*
X24511Y-27233D01*
X24484Y-27244D01*
X24459Y-27261D01*
X24438Y-27281D01*
X24422Y-27306D01*
X24411Y-27333D01*
X24405Y-27362D01*
X24404Y-27685D01*
X24441Y-27722D01*
X24732Y-27722D01*
X24782Y-27722D01*
X24918Y-27722D01*
X24918Y-27858D01*
X24782Y-27858D01*
X24732Y-27858D01*
X24441Y-27858D01*
X24404Y-27895D01*
X24405Y-28218D01*
X24411Y-28247D01*
X24422Y-28274D01*
X24438Y-28299D01*
X24459Y-28319D01*
X24484Y-28336D01*
X24495Y-28340D01*
X24490Y-28344D01*
X24469Y-28365D01*
X24453Y-28389D01*
X24442Y-28416D01*
X24436Y-28445D01*
X24436Y-28474D01*
X24436Y-28631D01*
X24442Y-28660D01*
X24444Y-28666D01*
X24442Y-28672D01*
X24436Y-28701D01*
X24436Y-28730D01*
X24436Y-28887D01*
X24442Y-28916D01*
X24444Y-28922D01*
X24442Y-28928D01*
X24436Y-28957D01*
X24436Y-28986D01*
X24436Y-29143D01*
X24442Y-29172D01*
X24444Y-29178D01*
X24442Y-29184D01*
X24436Y-29213D01*
X24436Y-29242D01*
X24436Y-29399D01*
X24442Y-29428D01*
X24443Y-29432D01*
X24441Y-29440D01*
X24435Y-29469D01*
X24434Y-29486D01*
X24471Y-29523D01*
X24531Y-29523D01*
X24541Y-29527D01*
X24570Y-29533D01*
X24599Y-29533D01*
X25130Y-29533D01*
X25159Y-29527D01*
X25168Y-29523D01*
X25229Y-29523D01*
X25266Y-29486D01*
X25265Y-29469D01*
X25259Y-29440D01*
X25256Y-29432D01*
X25258Y-29428D01*
X25264Y-29399D01*
X25264Y-29370D01*
X25264Y-29282D01*
X25413Y-29432D01*
X25414Y-29433D01*
X25415Y-29434D01*
X25420Y-29437D01*
X25443Y-29457D01*
X25444Y-29457D01*
X25475Y-29475D01*
X25476Y-29475D01*
X25510Y-29486D01*
X25512Y-29486D01*
X25547Y-29490D01*
X25549Y-29490D01*
X25550Y-29490D01*
X25551Y-29490D01*
X25551Y-29590D01*
X25557Y-29619D01*
X25568Y-29646D01*
X25584Y-29670D01*
X25605Y-29691D01*
X25629Y-29707D01*
X25656Y-29718D01*
X25685Y-29724D01*
X25685Y-29783D01*
X25657Y-29789D01*
X25630Y-29800D01*
X25606Y-29816D01*
X25585Y-29837D01*
X25569Y-29861D01*
X25558Y-29888D01*
X25552Y-29917D01*
X25552Y-29946D01*
X25552Y-30183D01*
X25558Y-30212D01*
X25569Y-30239D01*
X25585Y-30263D01*
X25606Y-30284D01*
X25630Y-30300D01*
X25657Y-30311D01*
X25686Y-30317D01*
X25715Y-30317D01*
X26030Y-30317D01*
X26059Y-30311D01*
X26086Y-30300D01*
X26110Y-30284D01*
X26131Y-30263D01*
X26147Y-30239D01*
X26158Y-30212D01*
X26164Y-30183D01*
X26164Y-30154D01*
X26164Y-29917D01*
X26158Y-29888D01*
X26147Y-29861D01*
X26131Y-29837D01*
X26110Y-29816D01*
X26086Y-29800D01*
X26065Y-29791D01*
X26065Y-29724D01*
X26094Y-29718D01*
X26121Y-29707D01*
X26145Y-29691D01*
X26166Y-29670D01*
X26182Y-29646D01*
X26193Y-29619D01*
X26199Y-29590D01*
X26199Y-29561D01*
X26199Y-29010D01*
X26193Y-28981D01*
X26182Y-28954D01*
X26166Y-28930D01*
X26145Y-28909D01*
X26131Y-28900D01*
X26145Y-28891D01*
X26166Y-28870D01*
X26182Y-28846D01*
X26193Y-28819D01*
X26199Y-28790D01*
X26199Y-28761D01*
X26199Y-28210D01*
X26193Y-28181D01*
X26182Y-28154D01*
X26166Y-28130D01*
X26145Y-28109D01*
X26121Y-28093D01*
X26094Y-28082D01*
X26065Y-28076D01*
X26048Y-28076D01*
X26048Y-28063D01*
X26059Y-28061D01*
X26086Y-28050D01*
X26110Y-28034D01*
X26131Y-28013D01*
X26147Y-27989D01*
X26158Y-27962D01*
X26164Y-27933D01*
X26164Y-27904D01*
X26164Y-27667D01*
X26158Y-27638D01*
X26147Y-27611D01*
X26131Y-27587D01*
X26110Y-27566D01*
X26086Y-27550D01*
X26059Y-27539D01*
X26048Y-27536D01*
X26048Y-27327D01*
X26059Y-27303D01*
X26073Y-27241D01*
X26074Y-27168D01*
X26062Y-27106D01*
X26037Y-27047D01*
X26002Y-26994D01*
X25957Y-26949D01*
X25905Y-26913D01*
X25846Y-26889D01*
X25784Y-26876D01*
X25720Y-26876D01*
X25658Y-26888D01*
X25599Y-26912D01*
X25594Y-26914D01*
X25587Y-26897D01*
X25552Y-26844D01*
X25507Y-26799D01*
X25495Y-26791D01*
X25495Y-26790D01*
X25516Y-26770D01*
X25532Y-26746D01*
X25543Y-26719D01*
X25549Y-26690D01*
X25549Y-26661D01*
X25549Y-26590D01*
X25897Y-26590D01*
X25900Y-26590D01*
X26048Y-26590D01*
X26050Y-26590D01*
X26056Y-26589D01*
X26085Y-26587D01*
X26087Y-26586D01*
X26100Y-26582D01*
X26100Y-26585D01*
X26099Y-26795D01*
X26136Y-26832D01*
X26482Y-26832D01*
X26482Y-26486D01*
X26445Y-26449D01*
X26268Y-26449D01*
X26394Y-26323D01*
X26410Y-26330D01*
X26496Y-26349D01*
X26585Y-26351D01*
X26671Y-26336D01*
X26754Y-26304D01*
X26828Y-26256D01*
X26892Y-26196D01*
X26943Y-26123D01*
X26979Y-26043D01*
X26999Y-25957D01*
X27000Y-25856D01*
X26983Y-25769D01*
X26975Y-25750D01*
X27028Y-25697D01*
X27652Y-25697D01*
X27650Y-25710D01*
X27650Y-25739D01*
X27649Y-25845D01*
X27686Y-25882D01*
X27782Y-25882D01*
X27850Y-25882D01*
X27950Y-25882D01*
X27968Y-25882D01*
X27968Y-26018D01*
X27950Y-26018D01*
X27950Y-26289D01*
X27987Y-26326D01*
X28015Y-26325D01*
X28044Y-26319D01*
X28071Y-26308D01*
X28096Y-26292D01*
X28116Y-26271D01*
X28133Y-26246D01*
X28144Y-26219D01*
X28150Y-26190D01*
X28150Y-26161D01*
X28150Y-26068D01*
X28151Y-26068D01*
X28151Y-26190D01*
X28157Y-26219D01*
X28168Y-26246D01*
X28184Y-26270D01*
X28205Y-26291D01*
X28210Y-26294D01*
X28210Y-26671D01*
X27922Y-26959D01*
X27920Y-26961D01*
X27917Y-26964D01*
X27916Y-26965D01*
X27915Y-26966D01*
X27850Y-27031D01*
X27850Y-26289D01*
X27850Y-26018D01*
X27686Y-26018D01*
X27649Y-26055D01*
X27650Y-26161D01*
X27650Y-26190D01*
X27656Y-26219D01*
X27667Y-26246D01*
X27684Y-26271D01*
X27704Y-26292D01*
X27729Y-26308D01*
X27756Y-26319D01*
X27785Y-26325D01*
X27813Y-26326D01*
X27850Y-26289D01*
X27850Y-27031D01*
X27540Y-27341D01*
X27540Y-27163D01*
X27551Y-27156D01*
X27597Y-27113D01*
X27633Y-27061D01*
X27659Y-27003D01*
X27673Y-26941D01*
X27674Y-26868D01*
X27662Y-26806D01*
X27637Y-26747D01*
X27602Y-26694D01*
X27557Y-26649D01*
X27505Y-26613D01*
X27446Y-26589D01*
X27384Y-26576D01*
X27320Y-26576D01*
X27258Y-26588D01*
X27199Y-26612D01*
X27146Y-26646D01*
X27100Y-26691D01*
X27065Y-26743D01*
X27040Y-26802D01*
X27026Y-26864D01*
X27026Y-26927D01*
X27037Y-26990D01*
X27061Y-27049D01*
X27095Y-27102D01*
X27139Y-27148D01*
X27160Y-27162D01*
X27160Y-28221D01*
X27150Y-28231D01*
X27150Y-27896D01*
X27150Y-27704D01*
X27149Y-27667D01*
X27143Y-27638D01*
X27132Y-27611D01*
X27116Y-27586D01*
X27095Y-27566D01*
X27070Y-27549D01*
X27043Y-27538D01*
X27014Y-27532D01*
X27001Y-27532D01*
X27001Y-27005D01*
X27001Y-26795D01*
X27000Y-26585D01*
X26994Y-26556D01*
X26983Y-26529D01*
X26967Y-26504D01*
X26946Y-26484D01*
X26921Y-26467D01*
X26894Y-26456D01*
X26865Y-26450D01*
X26836Y-26450D01*
X26655Y-26449D01*
X26618Y-26486D01*
X26618Y-26832D01*
X26964Y-26832D01*
X27001Y-26795D01*
X27001Y-27005D01*
X26964Y-26968D01*
X26618Y-26968D01*
X26618Y-27314D01*
X26655Y-27351D01*
X26836Y-27350D01*
X26865Y-27350D01*
X26894Y-27344D01*
X26921Y-27333D01*
X26946Y-27316D01*
X26967Y-27296D01*
X26983Y-27271D01*
X26994Y-27244D01*
X27000Y-27215D01*
X27001Y-27005D01*
X27001Y-27532D01*
X26985Y-27532D01*
X26947Y-27531D01*
X26910Y-27568D01*
X26910Y-27741D01*
X27113Y-27741D01*
X27150Y-27704D01*
X27150Y-27896D01*
X27113Y-27859D01*
X26910Y-27859D01*
X26910Y-28032D01*
X26947Y-28069D01*
X26985Y-28068D01*
X27014Y-28068D01*
X27043Y-28062D01*
X27070Y-28051D01*
X27095Y-28034D01*
X27116Y-28014D01*
X27132Y-27989D01*
X27143Y-27962D01*
X27149Y-27933D01*
X27150Y-27896D01*
X27150Y-28231D01*
X27071Y-28310D01*
X26949Y-28310D01*
X26949Y-28210D01*
X26943Y-28181D01*
X26932Y-28154D01*
X26916Y-28130D01*
X26895Y-28109D01*
X26871Y-28093D01*
X26844Y-28082D01*
X26815Y-28076D01*
X26786Y-28076D01*
X26774Y-28076D01*
X26774Y-28032D01*
X26774Y-27859D01*
X26774Y-27741D01*
X26774Y-27568D01*
X26737Y-27531D01*
X26699Y-27532D01*
X26670Y-27532D01*
X26641Y-27538D01*
X26614Y-27549D01*
X26589Y-27566D01*
X26568Y-27586D01*
X26552Y-27611D01*
X26541Y-27638D01*
X26535Y-27667D01*
X26534Y-27704D01*
X26571Y-27741D01*
X26774Y-27741D01*
X26774Y-27859D01*
X26571Y-27859D01*
X26534Y-27896D01*
X26535Y-27933D01*
X26541Y-27962D01*
X26552Y-27989D01*
X26568Y-28014D01*
X26589Y-28034D01*
X26614Y-28051D01*
X26641Y-28062D01*
X26670Y-28068D01*
X26699Y-28068D01*
X26737Y-28069D01*
X26774Y-28032D01*
X26774Y-28076D01*
X26482Y-28076D01*
X26482Y-27314D01*
X26482Y-26968D01*
X26136Y-26968D01*
X26099Y-27005D01*
X26100Y-27215D01*
X26106Y-27244D01*
X26117Y-27271D01*
X26133Y-27296D01*
X26154Y-27316D01*
X26179Y-27333D01*
X26206Y-27344D01*
X26235Y-27350D01*
X26264Y-27350D01*
X26445Y-27351D01*
X26482Y-27314D01*
X26482Y-28076D01*
X26435Y-28076D01*
X26406Y-28082D01*
X26379Y-28093D01*
X26355Y-28109D01*
X26334Y-28130D01*
X26318Y-28154D01*
X26307Y-28181D01*
X26301Y-28210D01*
X26301Y-28239D01*
X26301Y-28790D01*
X26307Y-28819D01*
X26318Y-28846D01*
X26334Y-28870D01*
X26355Y-28891D01*
X26368Y-28900D01*
X26355Y-28909D01*
X26334Y-28930D01*
X26318Y-28954D01*
X26307Y-28981D01*
X26301Y-29010D01*
X26301Y-29039D01*
X26301Y-29590D01*
X26307Y-29619D01*
X26318Y-29646D01*
X26334Y-29670D01*
X26355Y-29691D01*
X26379Y-29707D01*
X26406Y-29718D01*
X26435Y-29724D01*
X26464Y-29724D01*
X26815Y-29724D01*
X26844Y-29718D01*
X26871Y-29707D01*
X26895Y-29691D01*
X26916Y-29670D01*
X26932Y-29646D01*
X26943Y-29619D01*
X26949Y-29590D01*
X26949Y-29561D01*
X26949Y-29462D01*
X26949Y-29461D01*
X26953Y-29460D01*
X26955Y-29458D01*
X26965Y-29450D01*
X26982Y-29436D01*
X26984Y-29435D01*
X26984Y-29434D01*
X26988Y-29429D01*
X27688Y-28730D01*
X27688Y-28751D01*
X27688Y-29578D01*
X27694Y-29607D01*
X27705Y-29634D01*
X27721Y-29658D01*
X27742Y-29679D01*
X27766Y-29695D01*
X27793Y-29706D01*
X27822Y-29712D01*
X27851Y-29712D01*
X28193Y-29712D01*
X28397Y-29916D01*
X28384Y-29930D01*
X28368Y-29954D01*
X28357Y-29981D01*
X28351Y-30010D01*
X28351Y-30039D01*
X28351Y-30590D01*
X28357Y-30619D01*
X28368Y-30646D01*
X28384Y-30670D01*
X28405Y-30691D01*
X28429Y-30707D01*
X28456Y-30718D01*
X28485Y-30724D01*
X28514Y-30724D01*
X28865Y-30724D01*
X28894Y-30718D01*
X28921Y-30707D01*
X28945Y-30691D01*
X28966Y-30670D01*
X28975Y-30656D01*
X28984Y-30670D01*
X29005Y-30691D01*
X29029Y-30707D01*
X29056Y-30718D01*
X29085Y-30724D01*
X29114Y-30724D01*
X29465Y-30724D01*
X29494Y-30718D01*
X29521Y-30707D01*
X29545Y-30691D01*
X29566Y-30670D01*
X29582Y-30646D01*
X29593Y-30619D01*
X29599Y-30590D01*
X29599Y-30561D01*
X29599Y-30010D01*
X29593Y-29981D01*
X29582Y-29955D01*
X29582Y-29954D01*
X29592Y-29925D01*
X29806Y-29712D01*
X30178Y-29712D01*
X30207Y-29706D01*
X30234Y-29695D01*
X30258Y-29679D01*
X30279Y-29658D01*
X30295Y-29634D01*
X30306Y-29607D01*
X30312Y-29578D01*
X30312Y-29549D01*
X30312Y-28722D01*
X30306Y-28693D01*
X30295Y-28666D01*
X30279Y-28642D01*
X30258Y-28621D01*
X30234Y-28605D01*
X30207Y-28594D01*
X30178Y-28588D01*
X30149Y-28588D01*
X29456Y-28588D01*
X29292Y-28424D01*
X29314Y-28424D01*
X29515Y-28424D01*
X29544Y-28418D01*
X29571Y-28407D01*
X29595Y-28391D01*
X29616Y-28370D01*
X29632Y-28346D01*
X29643Y-28319D01*
X29649Y-28290D01*
X29649Y-28261D01*
X29649Y-27810D01*
X29643Y-27781D01*
X29632Y-27754D01*
X29616Y-27730D01*
X29595Y-27709D01*
X29601Y-27706D01*
X29647Y-27663D01*
X29683Y-27611D01*
X29709Y-27553D01*
X29710Y-27548D01*
X29710Y-27705D01*
X29705Y-27709D01*
X29684Y-27730D01*
X29668Y-27754D01*
X29657Y-27781D01*
X29651Y-27810D01*
X29651Y-27839D01*
X29651Y-28290D01*
X29657Y-28319D01*
X29668Y-28346D01*
X29684Y-28370D01*
X29705Y-28391D01*
X29729Y-28407D01*
X29756Y-28418D01*
X29785Y-28424D01*
X29814Y-28424D01*
X30015Y-28424D01*
X30044Y-28418D01*
X30071Y-28407D01*
X30095Y-28391D01*
X30116Y-28370D01*
X30132Y-28346D01*
X30143Y-28319D01*
X30149Y-28290D01*
X30149Y-28261D01*
X30149Y-27810D01*
X30143Y-27781D01*
X30132Y-27754D01*
X30116Y-27730D01*
X30095Y-27709D01*
X30090Y-27705D01*
X30090Y-27402D01*
X30090Y-27400D01*
X30086Y-27364D01*
X30086Y-27363D01*
X30083Y-27354D01*
X30077Y-27329D01*
X30076Y-27328D01*
X30060Y-27297D01*
X30058Y-27295D01*
X30050Y-27285D01*
X30036Y-27268D01*
X30035Y-27266D01*
X30034Y-27265D01*
X29739Y-26971D01*
X29736Y-26967D01*
X29734Y-26966D01*
X29707Y-26943D01*
X29705Y-26942D01*
X29675Y-26925D01*
X29640Y-26914D01*
X29603Y-26910D01*
X29601Y-26910D01*
X29600Y-26910D01*
X28508Y-26910D01*
X28532Y-26886D01*
X28533Y-26886D01*
X28533Y-26885D01*
X28534Y-26885D01*
X28537Y-26880D01*
X28557Y-26857D01*
X28557Y-26856D01*
X28575Y-26825D01*
X28575Y-26824D01*
X28586Y-26790D01*
X28590Y-26753D01*
X28590Y-26751D01*
X28590Y-26750D01*
X28590Y-26647D01*
X28611Y-26699D01*
X28645Y-26752D01*
X28689Y-26798D01*
X28741Y-26834D01*
X28800Y-26860D01*
X28862Y-26873D01*
X28925Y-26875D01*
X28988Y-26864D01*
X29047Y-26841D01*
X29101Y-26806D01*
X29147Y-26763D01*
X29183Y-26711D01*
X29209Y-26653D01*
X29223Y-26591D01*
X29224Y-26518D01*
X29212Y-26456D01*
X29187Y-26397D01*
X29152Y-26344D01*
X29107Y-26299D01*
X29095Y-26291D01*
X29095Y-26290D01*
X29116Y-26270D01*
X29132Y-26246D01*
X29143Y-26219D01*
X29149Y-26190D01*
X29149Y-26161D01*
X29149Y-25717D01*
X29151Y-25719D01*
X29151Y-25739D01*
X29151Y-26190D01*
X29157Y-26219D01*
X29168Y-26246D01*
X29184Y-26270D01*
X29205Y-26291D01*
X29229Y-26307D01*
X29256Y-26318D01*
X29285Y-26324D01*
X29314Y-26324D01*
X29515Y-26324D01*
X29544Y-26318D01*
X29571Y-26307D01*
X29595Y-26291D01*
X29616Y-26270D01*
X29632Y-26246D01*
X29643Y-26219D01*
X29649Y-26190D01*
X29649Y-26161D01*
X29649Y-25710D01*
X29643Y-25681D01*
X29632Y-25654D01*
X29616Y-25630D01*
X29595Y-25609D01*
X29571Y-25593D01*
X29549Y-25584D01*
X29536Y-25567D01*
X29535Y-25566D01*
X29534Y-25565D01*
X29483Y-25515D01*
X29646Y-25515D01*
X29710Y-25578D01*
X29710Y-25605D01*
X29705Y-25609D01*
X29684Y-25630D01*
X29668Y-25654D01*
X29657Y-25681D01*
X29651Y-25710D01*
X29651Y-25739D01*
X29651Y-26190D01*
X29657Y-26219D01*
X29668Y-26246D01*
X29684Y-26270D01*
X29705Y-26291D01*
X29729Y-26307D01*
X29756Y-26318D01*
X29785Y-26324D01*
X29814Y-26324D01*
X30015Y-26324D01*
X30044Y-26318D01*
X30071Y-26307D01*
X30095Y-26291D01*
X30116Y-26270D01*
X30132Y-26246D01*
X30143Y-26219D01*
X30149Y-26190D01*
X30149Y-26161D01*
X30149Y-25710D01*
X30143Y-25681D01*
X30132Y-25654D01*
X30116Y-25630D01*
X30095Y-25609D01*
X30090Y-25605D01*
X30090Y-25502D01*
X30090Y-25500D01*
X30086Y-25464D01*
X30086Y-25463D01*
X30076Y-25429D01*
X30076Y-25428D01*
X30066Y-25411D01*
X30059Y-25396D01*
X30058Y-25395D01*
X30036Y-25367D01*
X30035Y-25366D01*
X30034Y-25365D01*
X29893Y-25225D01*
X33425Y-25225D01*
X33425Y-31425D01*
X33425Y-31425D01*
G37*
G54D26*
X33425Y-31425D02*
X33401Y-31425D01*
X33401Y-27805D01*
X33401Y-27595D01*
X33400Y-27385D01*
X33400Y-26656D01*
X33400Y-25656D01*
X33383Y-25569D01*
X33349Y-25488D01*
X33300Y-25414D01*
X33238Y-25352D01*
X33165Y-25302D01*
X33084Y-25268D01*
X32997Y-25250D01*
X32909Y-25250D01*
X32822Y-25266D01*
X32741Y-25299D01*
X32667Y-25348D01*
X32604Y-25409D01*
X32554Y-25482D01*
X32519Y-25563D01*
X32501Y-25649D01*
X32499Y-25738D01*
X32515Y-25825D01*
X32548Y-25907D01*
X32596Y-25981D01*
X32657Y-26044D01*
X32729Y-26095D01*
X32810Y-26130D01*
X32896Y-26149D01*
X32985Y-26151D01*
X33071Y-26136D01*
X33154Y-26104D01*
X33228Y-26056D01*
X33292Y-25996D01*
X33343Y-25923D01*
X33379Y-25843D01*
X33399Y-25757D01*
X33400Y-25656D01*
X33400Y-26656D01*
X33383Y-26569D01*
X33349Y-26488D01*
X33300Y-26414D01*
X33238Y-26352D01*
X33165Y-26302D01*
X33084Y-26268D01*
X32997Y-26250D01*
X32909Y-26250D01*
X32822Y-26266D01*
X32741Y-26299D01*
X32667Y-26348D01*
X32604Y-26409D01*
X32554Y-26482D01*
X32519Y-26563D01*
X32501Y-26649D01*
X32499Y-26738D01*
X32515Y-26825D01*
X32527Y-26854D01*
X32400Y-26981D01*
X32400Y-26656D01*
X32400Y-25656D01*
X32383Y-25569D01*
X32349Y-25488D01*
X32300Y-25414D01*
X32238Y-25352D01*
X32165Y-25302D01*
X32084Y-25268D01*
X31997Y-25250D01*
X31909Y-25250D01*
X31822Y-25266D01*
X31741Y-25299D01*
X31667Y-25348D01*
X31604Y-25409D01*
X31554Y-25482D01*
X31519Y-25563D01*
X31501Y-25649D01*
X31499Y-25738D01*
X31503Y-25760D01*
X31149Y-25760D01*
X31149Y-25710D01*
X31143Y-25681D01*
X31132Y-25654D01*
X31116Y-25630D01*
X31095Y-25609D01*
X31071Y-25593D01*
X31044Y-25582D01*
X31015Y-25576D01*
X30986Y-25576D01*
X30785Y-25576D01*
X30756Y-25582D01*
X30729Y-25593D01*
X30705Y-25609D01*
X30684Y-25630D01*
X30668Y-25654D01*
X30657Y-25681D01*
X30651Y-25710D01*
X30651Y-25739D01*
X30651Y-26190D01*
X30657Y-26219D01*
X30668Y-26246D01*
X30684Y-26270D01*
X30705Y-26291D01*
X30729Y-26307D01*
X30756Y-26318D01*
X30785Y-26324D01*
X30814Y-26324D01*
X31015Y-26324D01*
X31044Y-26318D01*
X31071Y-26307D01*
X31095Y-26291D01*
X31116Y-26270D01*
X31132Y-26246D01*
X31143Y-26219D01*
X31149Y-26190D01*
X31149Y-26161D01*
X31149Y-26140D01*
X31698Y-26140D01*
X31700Y-26140D01*
X31706Y-26139D01*
X31735Y-26137D01*
X31737Y-26136D01*
X31771Y-26127D01*
X31772Y-26126D01*
X31784Y-26119D01*
X31785Y-26119D01*
X31810Y-26130D01*
X31896Y-26149D01*
X31985Y-26151D01*
X32071Y-26136D01*
X32154Y-26104D01*
X32228Y-26056D01*
X32292Y-25996D01*
X32343Y-25923D01*
X32379Y-25843D01*
X32399Y-25757D01*
X32400Y-25656D01*
X32400Y-26656D01*
X32383Y-26569D01*
X32349Y-26488D01*
X32300Y-26414D01*
X32238Y-26352D01*
X32165Y-26302D01*
X32084Y-26268D01*
X31997Y-26250D01*
X31909Y-26250D01*
X31822Y-26266D01*
X31741Y-26299D01*
X31667Y-26348D01*
X31604Y-26409D01*
X31554Y-26482D01*
X31541Y-26510D01*
X30728Y-26510D01*
X30590Y-26371D01*
X30590Y-26294D01*
X30595Y-26291D01*
X30616Y-26270D01*
X30632Y-26246D01*
X30643Y-26219D01*
X30649Y-26190D01*
X30649Y-26161D01*
X30649Y-25710D01*
X30643Y-25681D01*
X30632Y-25654D01*
X30616Y-25630D01*
X30595Y-25609D01*
X30571Y-25593D01*
X30544Y-25582D01*
X30515Y-25576D01*
X30486Y-25576D01*
X30285Y-25576D01*
X30256Y-25582D01*
X30229Y-25593D01*
X30205Y-25609D01*
X30184Y-25630D01*
X30168Y-25654D01*
X30157Y-25681D01*
X30151Y-25710D01*
X30151Y-25739D01*
X30151Y-26190D01*
X30157Y-26219D01*
X30168Y-26246D01*
X30184Y-26270D01*
X30205Y-26291D01*
X30210Y-26294D01*
X30210Y-26448D01*
X30210Y-26450D01*
X30210Y-26456D01*
X30213Y-26485D01*
X30223Y-26521D01*
X30224Y-26522D01*
X30240Y-26553D01*
X30242Y-26555D01*
X30249Y-26565D01*
X30264Y-26582D01*
X30265Y-26584D01*
X30266Y-26584D01*
X30270Y-26588D01*
X30513Y-26832D01*
X30514Y-26833D01*
X30515Y-26834D01*
X30520Y-26837D01*
X30543Y-26857D01*
X30544Y-26857D01*
X30575Y-26875D01*
X30576Y-26875D01*
X30610Y-26886D01*
X30612Y-26886D01*
X30647Y-26890D01*
X30649Y-26890D01*
X30650Y-26890D01*
X31541Y-26890D01*
X31548Y-26907D01*
X31596Y-26981D01*
X31657Y-27044D01*
X31729Y-27095D01*
X31810Y-27130D01*
X31896Y-27149D01*
X31985Y-27151D01*
X32071Y-27136D01*
X32154Y-27104D01*
X32228Y-27056D01*
X32292Y-26996D01*
X32343Y-26923D01*
X32379Y-26843D01*
X32399Y-26757D01*
X32400Y-26656D01*
X32400Y-26981D01*
X32321Y-27060D01*
X32317Y-27064D01*
X32293Y-27093D01*
X32275Y-27125D01*
X32264Y-27160D01*
X32260Y-27197D01*
X32260Y-27199D01*
X32260Y-27200D01*
X32260Y-27374D01*
X32238Y-27352D01*
X32165Y-27302D01*
X32084Y-27268D01*
X31997Y-27250D01*
X31909Y-27250D01*
X31822Y-27266D01*
X31741Y-27299D01*
X31667Y-27348D01*
X31604Y-27409D01*
X31554Y-27482D01*
X31519Y-27563D01*
X31501Y-27649D01*
X31499Y-27738D01*
X31515Y-27825D01*
X31548Y-27907D01*
X31596Y-27981D01*
X31657Y-28044D01*
X31729Y-28095D01*
X31763Y-28110D01*
X31528Y-28110D01*
X31339Y-27921D01*
X31336Y-27917D01*
X31334Y-27916D01*
X31307Y-27893D01*
X31305Y-27892D01*
X31275Y-27875D01*
X31240Y-27864D01*
X31203Y-27860D01*
X31201Y-27860D01*
X31200Y-27860D01*
X31149Y-27860D01*
X31149Y-27810D01*
X31143Y-27781D01*
X31132Y-27754D01*
X31116Y-27730D01*
X31095Y-27709D01*
X31071Y-27693D01*
X31044Y-27682D01*
X31015Y-27676D01*
X30986Y-27676D01*
X30785Y-27676D01*
X30756Y-27682D01*
X30729Y-27693D01*
X30705Y-27709D01*
X30684Y-27730D01*
X30668Y-27754D01*
X30657Y-27781D01*
X30651Y-27810D01*
X30651Y-27839D01*
X30651Y-28290D01*
X30657Y-28319D01*
X30668Y-28346D01*
X30684Y-28370D01*
X30705Y-28391D01*
X30729Y-28407D01*
X30756Y-28418D01*
X30785Y-28424D01*
X30814Y-28424D01*
X31015Y-28424D01*
X31044Y-28418D01*
X31071Y-28407D01*
X31095Y-28391D01*
X31116Y-28370D01*
X31132Y-28346D01*
X31143Y-28319D01*
X31149Y-28290D01*
X31149Y-28267D01*
X31313Y-28432D01*
X31314Y-28433D01*
X31315Y-28434D01*
X31320Y-28437D01*
X31343Y-28457D01*
X31344Y-28457D01*
X31375Y-28475D01*
X31376Y-28475D01*
X31410Y-28486D01*
X31412Y-28486D01*
X31447Y-28490D01*
X31449Y-28490D01*
X31450Y-28490D01*
X32098Y-28490D01*
X32100Y-28490D01*
X32106Y-28489D01*
X32135Y-28487D01*
X32137Y-28486D01*
X32171Y-28477D01*
X32172Y-28476D01*
X32203Y-28460D01*
X32205Y-28458D01*
X32215Y-28450D01*
X32232Y-28436D01*
X32234Y-28435D01*
X32234Y-28434D01*
X32238Y-28429D01*
X32553Y-28115D01*
X32554Y-28116D01*
X32579Y-28133D01*
X32606Y-28144D01*
X32635Y-28150D01*
X32664Y-28150D01*
X32845Y-28151D01*
X32882Y-28114D01*
X32882Y-27818D01*
X32882Y-27768D01*
X32882Y-27632D01*
X32882Y-27582D01*
X32882Y-27286D01*
X32845Y-27249D01*
X32668Y-27249D01*
X32794Y-27123D01*
X32810Y-27130D01*
X32896Y-27149D01*
X32985Y-27151D01*
X33071Y-27136D01*
X33154Y-27104D01*
X33228Y-27056D01*
X33292Y-26996D01*
X33343Y-26923D01*
X33379Y-26843D01*
X33399Y-26757D01*
X33400Y-26656D01*
X33400Y-27385D01*
X33394Y-27356D01*
X33383Y-27329D01*
X33367Y-27304D01*
X33346Y-27284D01*
X33321Y-27267D01*
X33294Y-27256D01*
X33265Y-27250D01*
X33236Y-27250D01*
X33055Y-27249D01*
X33018Y-27286D01*
X33018Y-27632D01*
X33364Y-27632D01*
X33401Y-27595D01*
X33401Y-27805D01*
X33364Y-27768D01*
X33018Y-27768D01*
X33018Y-28114D01*
X33055Y-28151D01*
X33236Y-28150D01*
X33265Y-28150D01*
X33294Y-28144D01*
X33321Y-28133D01*
X33346Y-28116D01*
X33367Y-28096D01*
X33383Y-28071D01*
X33394Y-28044D01*
X33400Y-28015D01*
X33401Y-27805D01*
X33401Y-31425D01*
X32401Y-31425D01*
X32401Y-31055D01*
X32401Y-30845D01*
X32400Y-30635D01*
X32400Y-29906D01*
X32400Y-28906D01*
X32383Y-28819D01*
X32349Y-28738D01*
X32300Y-28664D01*
X32238Y-28602D01*
X32165Y-28552D01*
X32084Y-28518D01*
X31997Y-28500D01*
X31909Y-28500D01*
X31822Y-28516D01*
X31741Y-28549D01*
X31667Y-28598D01*
X31604Y-28659D01*
X31554Y-28732D01*
X31519Y-28813D01*
X31501Y-28899D01*
X31499Y-28988D01*
X31515Y-29075D01*
X31548Y-29157D01*
X31596Y-29231D01*
X31657Y-29294D01*
X31729Y-29345D01*
X31810Y-29380D01*
X31896Y-29399D01*
X31985Y-29401D01*
X32071Y-29386D01*
X32154Y-29354D01*
X32228Y-29306D01*
X32292Y-29246D01*
X32343Y-29173D01*
X32379Y-29093D01*
X32399Y-29007D01*
X32400Y-28906D01*
X32400Y-29906D01*
X32383Y-29819D01*
X32349Y-29738D01*
X32300Y-29664D01*
X32238Y-29602D01*
X32165Y-29552D01*
X32084Y-29518D01*
X31997Y-29500D01*
X31909Y-29500D01*
X31822Y-29516D01*
X31815Y-29518D01*
X30634Y-28338D01*
X30643Y-28319D01*
X30649Y-28290D01*
X30649Y-28261D01*
X30649Y-27810D01*
X30643Y-27781D01*
X30632Y-27754D01*
X30616Y-27730D01*
X30595Y-27709D01*
X30571Y-27693D01*
X30544Y-27682D01*
X30515Y-27676D01*
X30486Y-27676D01*
X30285Y-27676D01*
X30256Y-27682D01*
X30229Y-27693D01*
X30205Y-27709D01*
X30184Y-27730D01*
X30168Y-27754D01*
X30157Y-27781D01*
X30151Y-27810D01*
X30151Y-27839D01*
X30151Y-28290D01*
X30157Y-28319D01*
X30168Y-28346D01*
X30184Y-28370D01*
X30190Y-28376D01*
X30190Y-28398D01*
X30190Y-28400D01*
X30194Y-28441D01*
X30201Y-28466D01*
X30205Y-28478D01*
X30205Y-28479D01*
X30206Y-28480D01*
X30224Y-28514D01*
X30225Y-28516D01*
X30239Y-28534D01*
X30249Y-28546D01*
X30251Y-28548D01*
X30252Y-28548D01*
X30256Y-28552D01*
X31091Y-29388D01*
X31034Y-29376D01*
X30970Y-29376D01*
X30908Y-29388D01*
X30849Y-29412D01*
X30796Y-29446D01*
X30750Y-29491D01*
X30715Y-29543D01*
X30690Y-29602D01*
X30676Y-29664D01*
X30676Y-29727D01*
X30687Y-29790D01*
X30711Y-29849D01*
X30744Y-29901D01*
X30710Y-29901D01*
X30681Y-29907D01*
X30654Y-29918D01*
X30630Y-29934D01*
X30609Y-29955D01*
X30593Y-29979D01*
X30582Y-30006D01*
X30576Y-30035D01*
X30576Y-30064D01*
X30576Y-30415D01*
X30582Y-30444D01*
X30593Y-30471D01*
X30609Y-30495D01*
X30630Y-30516D01*
X30654Y-30532D01*
X30681Y-30543D01*
X30710Y-30549D01*
X30739Y-30549D01*
X31290Y-30549D01*
X31319Y-30543D01*
X31346Y-30532D01*
X31370Y-30516D01*
X31391Y-30495D01*
X31407Y-30471D01*
X31418Y-30444D01*
X31424Y-30415D01*
X31424Y-30386D01*
X31424Y-30035D01*
X31418Y-30006D01*
X31407Y-29979D01*
X31391Y-29955D01*
X31370Y-29934D01*
X31346Y-29918D01*
X31319Y-29907D01*
X31290Y-29901D01*
X31261Y-29901D01*
X31255Y-29901D01*
X31283Y-29861D01*
X31309Y-29803D01*
X31323Y-29741D01*
X31324Y-29668D01*
X31312Y-29609D01*
X31518Y-29815D01*
X31501Y-29899D01*
X31499Y-29988D01*
X31515Y-30075D01*
X31548Y-30157D01*
X31596Y-30231D01*
X31657Y-30294D01*
X31729Y-30345D01*
X31810Y-30380D01*
X31896Y-30399D01*
X31985Y-30401D01*
X32071Y-30386D01*
X32154Y-30354D01*
X32228Y-30306D01*
X32292Y-30246D01*
X32343Y-30173D01*
X32379Y-30093D01*
X32399Y-30007D01*
X32400Y-29906D01*
X32400Y-30635D01*
X32394Y-30606D01*
X32383Y-30579D01*
X32367Y-30554D01*
X32346Y-30534D01*
X32321Y-30517D01*
X32294Y-30506D01*
X32265Y-30500D01*
X32236Y-30500D01*
X32055Y-30499D01*
X32018Y-30536D01*
X32018Y-30882D01*
X32364Y-30882D01*
X32401Y-30845D01*
X32401Y-31055D01*
X32364Y-31018D01*
X32018Y-31018D01*
X32018Y-31364D01*
X32055Y-31401D01*
X32236Y-31400D01*
X32265Y-31400D01*
X32294Y-31394D01*
X32321Y-31383D01*
X32346Y-31366D01*
X32367Y-31346D01*
X32383Y-31321D01*
X32394Y-31294D01*
X32400Y-31265D01*
X32401Y-31055D01*
X32401Y-31425D01*
X31882Y-31425D01*
X31882Y-31364D01*
X31882Y-31018D01*
X31882Y-30882D01*
X31882Y-30536D01*
X31845Y-30499D01*
X31664Y-30500D01*
X31635Y-30500D01*
X31606Y-30506D01*
X31579Y-30517D01*
X31554Y-30534D01*
X31533Y-30554D01*
X31517Y-30579D01*
X31506Y-30606D01*
X31500Y-30635D01*
X31499Y-30845D01*
X31536Y-30882D01*
X31882Y-30882D01*
X31882Y-31018D01*
X31536Y-31018D01*
X31499Y-31055D01*
X31500Y-31265D01*
X31506Y-31294D01*
X31517Y-31321D01*
X31533Y-31346D01*
X31554Y-31366D01*
X31579Y-31383D01*
X31606Y-31394D01*
X31635Y-31400D01*
X31664Y-31400D01*
X31845Y-31401D01*
X31882Y-31364D01*
X31882Y-31425D01*
X31424Y-31425D01*
X31424Y-31165D01*
X31424Y-31136D01*
X31424Y-30785D01*
X31418Y-30756D01*
X31407Y-30729D01*
X31391Y-30705D01*
X31370Y-30684D01*
X31346Y-30668D01*
X31319Y-30657D01*
X31290Y-30651D01*
X31261Y-30651D01*
X30710Y-30651D01*
X30681Y-30657D01*
X30654Y-30668D01*
X30630Y-30684D01*
X30609Y-30705D01*
X30593Y-30729D01*
X30589Y-30737D01*
X30555Y-30713D01*
X30496Y-30689D01*
X30434Y-30676D01*
X30370Y-30676D01*
X30308Y-30688D01*
X30296Y-30692D01*
X30316Y-30671D01*
X30333Y-30646D01*
X30344Y-30619D01*
X30350Y-30590D01*
X30350Y-30561D01*
X30351Y-30405D01*
X30351Y-30195D01*
X30350Y-30039D01*
X30350Y-30010D01*
X30344Y-29981D01*
X30333Y-29954D01*
X30316Y-29929D01*
X30296Y-29908D01*
X30271Y-29892D01*
X30244Y-29881D01*
X30215Y-29875D01*
X30130Y-29874D01*
X30093Y-29911D01*
X30093Y-30232D01*
X30314Y-30232D01*
X30351Y-30195D01*
X30351Y-30405D01*
X30314Y-30368D01*
X30093Y-30368D01*
X30093Y-30689D01*
X30130Y-30726D01*
X30215Y-30725D01*
X30235Y-30720D01*
X30196Y-30746D01*
X30150Y-30791D01*
X30115Y-30843D01*
X30090Y-30902D01*
X30076Y-30964D01*
X30076Y-31027D01*
X30087Y-31090D01*
X30111Y-31149D01*
X30145Y-31202D01*
X30189Y-31248D01*
X30241Y-31284D01*
X30300Y-31310D01*
X30362Y-31323D01*
X30425Y-31325D01*
X30488Y-31314D01*
X30547Y-31291D01*
X30601Y-31256D01*
X30610Y-31246D01*
X30630Y-31266D01*
X30654Y-31282D01*
X30681Y-31293D01*
X30710Y-31299D01*
X30739Y-31299D01*
X31290Y-31299D01*
X31319Y-31293D01*
X31346Y-31282D01*
X31370Y-31266D01*
X31391Y-31245D01*
X31407Y-31221D01*
X31418Y-31194D01*
X31424Y-31165D01*
X31424Y-31425D01*
X29957Y-31425D01*
X29957Y-30689D01*
X29957Y-30368D01*
X29957Y-30232D01*
X29957Y-29911D01*
X29920Y-29874D01*
X29835Y-29875D01*
X29806Y-29881D01*
X29779Y-29892D01*
X29754Y-29908D01*
X29734Y-29929D01*
X29717Y-29954D01*
X29706Y-29981D01*
X29700Y-30010D01*
X29700Y-30039D01*
X29699Y-30195D01*
X29736Y-30232D01*
X29957Y-30232D01*
X29957Y-30368D01*
X29736Y-30368D01*
X29699Y-30405D01*
X29700Y-30561D01*
X29700Y-30590D01*
X29706Y-30619D01*
X29717Y-30646D01*
X29734Y-30671D01*
X29754Y-30692D01*
X29779Y-30708D01*
X29806Y-30719D01*
X29835Y-30725D01*
X29920Y-30726D01*
X29957Y-30689D01*
X29957Y-31425D01*
X28251Y-31425D01*
X28251Y-30405D01*
X28251Y-30195D01*
X28250Y-30039D01*
X28250Y-30010D01*
X28244Y-29981D01*
X28233Y-29954D01*
X28216Y-29929D01*
X28196Y-29908D01*
X28171Y-29892D01*
X28144Y-29881D01*
X28115Y-29875D01*
X28030Y-29874D01*
X27993Y-29911D01*
X27993Y-30232D01*
X28214Y-30232D01*
X28251Y-30195D01*
X28251Y-30405D01*
X28214Y-30368D01*
X27993Y-30368D01*
X27993Y-30689D01*
X28030Y-30726D01*
X28115Y-30725D01*
X28144Y-30719D01*
X28171Y-30708D01*
X28196Y-30692D01*
X28216Y-30671D01*
X28233Y-30646D01*
X28244Y-30619D01*
X28250Y-30590D01*
X28250Y-30561D01*
X28251Y-30405D01*
X28251Y-31425D01*
X27857Y-31425D01*
X27857Y-30689D01*
X27857Y-30368D01*
X27857Y-30232D01*
X27857Y-29911D01*
X27820Y-29874D01*
X27735Y-29875D01*
X27706Y-29881D01*
X27679Y-29892D01*
X27654Y-29908D01*
X27634Y-29929D01*
X27617Y-29954D01*
X27606Y-29981D01*
X27600Y-30010D01*
X27600Y-30039D01*
X27599Y-30195D01*
X27636Y-30232D01*
X27857Y-30232D01*
X27857Y-30368D01*
X27636Y-30368D01*
X27599Y-30405D01*
X27600Y-30561D01*
X27600Y-30590D01*
X27606Y-30619D01*
X27617Y-30646D01*
X27634Y-30671D01*
X27654Y-30692D01*
X27679Y-30708D01*
X27706Y-30719D01*
X27735Y-30725D01*
X27820Y-30726D01*
X27857Y-30689D01*
X27857Y-31425D01*
X27480Y-31425D01*
X27483Y-31421D01*
X27494Y-31394D01*
X27500Y-31365D01*
X27500Y-31336D01*
X27501Y-31055D01*
X27501Y-30845D01*
X27500Y-30564D01*
X27500Y-30535D01*
X27494Y-30506D01*
X27483Y-30479D01*
X27466Y-30454D01*
X27446Y-30433D01*
X27421Y-30417D01*
X27394Y-30406D01*
X27365Y-30400D01*
X27155Y-30399D01*
X27150Y-30404D01*
X27150Y-30146D01*
X27150Y-29954D01*
X27149Y-29917D01*
X27143Y-29888D01*
X27132Y-29861D01*
X27116Y-29836D01*
X27095Y-29816D01*
X27070Y-29799D01*
X27043Y-29788D01*
X27014Y-29782D01*
X26985Y-29782D01*
X26947Y-29781D01*
X26910Y-29818D01*
X26910Y-29991D01*
X27113Y-29991D01*
X27150Y-29954D01*
X27150Y-30146D01*
X27113Y-30109D01*
X26910Y-30109D01*
X26910Y-30282D01*
X26947Y-30319D01*
X26985Y-30318D01*
X27014Y-30318D01*
X27043Y-30312D01*
X27070Y-30301D01*
X27095Y-30284D01*
X27116Y-30264D01*
X27132Y-30239D01*
X27143Y-30212D01*
X27149Y-30183D01*
X27150Y-30146D01*
X27150Y-30404D01*
X27118Y-30436D01*
X27118Y-30882D01*
X27464Y-30882D01*
X27501Y-30845D01*
X27501Y-31055D01*
X27464Y-31018D01*
X27168Y-31018D01*
X27118Y-31018D01*
X26982Y-31018D01*
X26982Y-30882D01*
X26982Y-30436D01*
X26945Y-30399D01*
X26774Y-30399D01*
X26774Y-30282D01*
X26774Y-30109D01*
X26774Y-29991D01*
X26774Y-29818D01*
X26737Y-29781D01*
X26699Y-29782D01*
X26670Y-29782D01*
X26641Y-29788D01*
X26614Y-29799D01*
X26589Y-29816D01*
X26568Y-29836D01*
X26552Y-29861D01*
X26541Y-29888D01*
X26535Y-29917D01*
X26534Y-29954D01*
X26571Y-29991D01*
X26774Y-29991D01*
X26774Y-30109D01*
X26571Y-30109D01*
X26534Y-30146D01*
X26535Y-30183D01*
X26541Y-30212D01*
X26552Y-30239D01*
X26568Y-30264D01*
X26589Y-30284D01*
X26614Y-30301D01*
X26641Y-30312D01*
X26670Y-30318D01*
X26699Y-30318D01*
X26737Y-30319D01*
X26774Y-30282D01*
X26774Y-30399D01*
X26735Y-30400D01*
X26706Y-30406D01*
X26679Y-30417D01*
X26654Y-30433D01*
X26634Y-30454D01*
X26617Y-30479D01*
X26606Y-30506D01*
X26600Y-30535D01*
X26600Y-30564D01*
X26599Y-30845D01*
X26636Y-30882D01*
X26982Y-30882D01*
X26982Y-31018D01*
X26932Y-31018D01*
X26636Y-31018D01*
X26599Y-31055D01*
X26600Y-31336D01*
X26600Y-31365D01*
X26606Y-31394D01*
X26617Y-31421D01*
X26619Y-31425D01*
X26179Y-31425D01*
X26182Y-31421D01*
X26193Y-31394D01*
X26199Y-31365D01*
X26199Y-31336D01*
X26199Y-30535D01*
X26193Y-30506D01*
X26182Y-30479D01*
X26166Y-30455D01*
X26145Y-30434D01*
X26121Y-30418D01*
X26094Y-30407D01*
X26065Y-30401D01*
X26036Y-30401D01*
X25435Y-30401D01*
X25406Y-30407D01*
X25379Y-30418D01*
X25355Y-30434D01*
X25334Y-30455D01*
X25318Y-30479D01*
X25307Y-30506D01*
X25301Y-30535D01*
X25301Y-30564D01*
X25301Y-30766D01*
X25286Y-30773D01*
X25289Y-30767D01*
X25295Y-30738D01*
X25296Y-30415D01*
X25296Y-30205D01*
X25295Y-29882D01*
X25289Y-29853D01*
X25278Y-29826D01*
X25262Y-29801D01*
X25241Y-29781D01*
X25216Y-29764D01*
X25205Y-29759D01*
X25211Y-29756D01*
X25232Y-29736D01*
X25248Y-29711D01*
X25259Y-29684D01*
X25265Y-29655D01*
X25266Y-29638D01*
X25229Y-29601D01*
X24918Y-29601D01*
X24918Y-29754D01*
X24932Y-29768D01*
X24918Y-29783D01*
X24918Y-30242D01*
X25259Y-30242D01*
X25296Y-30205D01*
X25296Y-30415D01*
X25259Y-30378D01*
X24918Y-30378D01*
X24918Y-30837D01*
X24955Y-30874D01*
X25131Y-30873D01*
X25160Y-30873D01*
X25185Y-30867D01*
X25063Y-30990D01*
X25048Y-30990D01*
X25007Y-30949D01*
X24955Y-30913D01*
X24896Y-30889D01*
X24834Y-30876D01*
X24782Y-30876D01*
X24782Y-30837D01*
X24782Y-30378D01*
X24782Y-30242D01*
X24782Y-29783D01*
X24767Y-29768D01*
X24782Y-29754D01*
X24782Y-29601D01*
X24471Y-29601D01*
X24434Y-29638D01*
X24435Y-29655D01*
X24441Y-29684D01*
X24452Y-29711D01*
X24468Y-29736D01*
X24489Y-29756D01*
X24494Y-29759D01*
X24484Y-29764D01*
X24459Y-29781D01*
X24438Y-29801D01*
X24422Y-29826D01*
X24411Y-29853D01*
X24405Y-29882D01*
X24404Y-30205D01*
X24441Y-30242D01*
X24782Y-30242D01*
X24782Y-30378D01*
X24441Y-30378D01*
X24404Y-30415D01*
X24405Y-30738D01*
X24411Y-30767D01*
X24422Y-30794D01*
X24438Y-30819D01*
X24459Y-30839D01*
X24484Y-30856D01*
X24511Y-30867D01*
X24540Y-30873D01*
X24569Y-30873D01*
X24745Y-30874D01*
X24782Y-30837D01*
X24782Y-30876D01*
X24770Y-30876D01*
X24708Y-30888D01*
X24649Y-30912D01*
X24596Y-30946D01*
X24550Y-30991D01*
X24515Y-31043D01*
X24490Y-31102D01*
X24476Y-31164D01*
X24476Y-31227D01*
X24487Y-31290D01*
X24511Y-31349D01*
X24545Y-31402D01*
X24567Y-31425D01*
X24332Y-31425D01*
X24332Y-30651D01*
X24332Y-30441D01*
X24331Y-30059D01*
X24325Y-30030D01*
X24314Y-30003D01*
X24298Y-29978D01*
X24284Y-29965D01*
X24298Y-29953D01*
X24314Y-29928D01*
X24325Y-29901D01*
X24331Y-29872D01*
X24332Y-29608D01*
X24332Y-29398D01*
X24331Y-29134D01*
X24325Y-29105D01*
X24314Y-29078D01*
X24298Y-29053D01*
X24294Y-29050D01*
X24298Y-29047D01*
X24314Y-29022D01*
X24325Y-28995D01*
X24331Y-28966D01*
X24332Y-28702D01*
X24332Y-28492D01*
X24331Y-28228D01*
X24325Y-28199D01*
X24314Y-28172D01*
X24298Y-28147D01*
X24284Y-28134D01*
X24298Y-28122D01*
X24314Y-28097D01*
X24325Y-28070D01*
X24331Y-28041D01*
X24332Y-27659D01*
X24332Y-27449D01*
X24331Y-27067D01*
X24325Y-27038D01*
X24314Y-27011D01*
X24298Y-26986D01*
X24277Y-26966D01*
X24252Y-26949D01*
X24225Y-26938D01*
X24196Y-26932D01*
X24167Y-26932D01*
X24126Y-26931D01*
X24126Y-26680D01*
X24126Y-26470D01*
X24125Y-26385D01*
X24119Y-26356D01*
X24108Y-26329D01*
X24092Y-26304D01*
X24071Y-26284D01*
X24046Y-26267D01*
X24019Y-26256D01*
X23990Y-26250D01*
X23961Y-26250D01*
X23805Y-26249D01*
X23768Y-26286D01*
X23768Y-26507D01*
X24089Y-26507D01*
X24126Y-26470D01*
X24126Y-26680D01*
X24089Y-26643D01*
X23768Y-26643D01*
X23768Y-26864D01*
X23805Y-26901D01*
X23961Y-26900D01*
X23990Y-26900D01*
X24019Y-26894D01*
X24046Y-26883D01*
X24071Y-26866D01*
X24092Y-26846D01*
X24108Y-26821D01*
X24119Y-26794D01*
X24125Y-26765D01*
X24126Y-26680D01*
X24126Y-26931D01*
X23912Y-26931D01*
X23875Y-26968D01*
X23875Y-27486D01*
X24295Y-27486D01*
X24332Y-27449D01*
X24332Y-27659D01*
X24295Y-27622D01*
X23875Y-27622D01*
X23875Y-28129D01*
X23875Y-28140D01*
X23875Y-28529D01*
X24295Y-28529D01*
X24332Y-28492D01*
X24332Y-28702D01*
X24295Y-28665D01*
X23875Y-28665D01*
X23875Y-29035D01*
X23875Y-29065D01*
X23875Y-29435D01*
X24295Y-29435D01*
X24332Y-29398D01*
X24332Y-29608D01*
X24295Y-29571D01*
X23875Y-29571D01*
X23875Y-29960D01*
X23875Y-29971D01*
X23875Y-30478D01*
X24295Y-30478D01*
X24332Y-30441D01*
X24332Y-30651D01*
X24295Y-30614D01*
X23875Y-30614D01*
X23875Y-31132D01*
X23912Y-31169D01*
X24167Y-31168D01*
X24196Y-31168D01*
X24225Y-31162D01*
X24252Y-31151D01*
X24277Y-31134D01*
X24298Y-31114D01*
X24314Y-31089D01*
X24325Y-31062D01*
X24331Y-31033D01*
X24332Y-30651D01*
X24332Y-31425D01*
X23375Y-31425D01*
X23375Y-31156D01*
X23389Y-31162D01*
X23418Y-31168D01*
X23447Y-31168D01*
X23702Y-31169D01*
X23739Y-31132D01*
X23739Y-30664D01*
X23739Y-30614D01*
X23739Y-30478D01*
X23739Y-30428D01*
X23739Y-29971D01*
X23739Y-29960D01*
X23739Y-29621D01*
X23739Y-29571D01*
X23739Y-29435D01*
X23739Y-29385D01*
X23739Y-29065D01*
X23739Y-29035D01*
X23739Y-28715D01*
X23739Y-28665D01*
X23739Y-28529D01*
X23739Y-28479D01*
X23739Y-28140D01*
X23739Y-28129D01*
X23739Y-27672D01*
X23739Y-27622D01*
X23739Y-27486D01*
X23739Y-27436D01*
X23739Y-26968D01*
X23702Y-26931D01*
X23447Y-26932D01*
X23418Y-26932D01*
X23389Y-26938D01*
X23375Y-26943D01*
X23375Y-26891D01*
X23381Y-26894D01*
X23410Y-26900D01*
X23439Y-26900D01*
X23595Y-26901D01*
X23632Y-26864D01*
X23632Y-26693D01*
X23632Y-26643D01*
X23632Y-26507D01*
X23632Y-26457D01*
X23632Y-26286D01*
X23595Y-26249D01*
X23439Y-26250D01*
X23410Y-26250D01*
X23381Y-26256D01*
X23375Y-26258D01*
X23375Y-26140D01*
X23381Y-26143D01*
X23410Y-26149D01*
X23439Y-26149D01*
X23990Y-26149D01*
X24019Y-26143D01*
X24046Y-26132D01*
X24070Y-26116D01*
X24091Y-26095D01*
X24107Y-26071D01*
X24118Y-26044D01*
X24124Y-26015D01*
X24124Y-25987D01*
X24124Y-25986D01*
X24128Y-25985D01*
X24130Y-25983D01*
X24140Y-25975D01*
X24157Y-25961D01*
X24159Y-25960D01*
X24159Y-25959D01*
X24163Y-25954D01*
X24169Y-25948D01*
X24184Y-25970D01*
X24205Y-25991D01*
X24218Y-26000D01*
X24205Y-26009D01*
X24184Y-26030D01*
X24168Y-26054D01*
X24157Y-26081D01*
X24151Y-26110D01*
X24151Y-26139D01*
X24151Y-26690D01*
X24157Y-26719D01*
X24168Y-26746D01*
X24184Y-26770D01*
X24205Y-26791D01*
X24229Y-26807D01*
X24256Y-26818D01*
X24285Y-26824D01*
X24314Y-26824D01*
X24441Y-26824D01*
X24441Y-26825D01*
X24449Y-26839D01*
X24451Y-26842D01*
X24455Y-26848D01*
X24462Y-26856D01*
X24474Y-26871D01*
X24477Y-26873D01*
X24482Y-26878D01*
X24799Y-27196D01*
X24800Y-27197D01*
X24801Y-27198D01*
X24807Y-27203D01*
X24831Y-27223D01*
X24833Y-27224D01*
X24836Y-27226D01*
X24745Y-27226D01*
X24732Y-27226D01*
X24569Y-27227D01*
X24540Y-27227D01*
X24511Y-27233D01*
X24484Y-27244D01*
X24459Y-27261D01*
X24438Y-27281D01*
X24422Y-27306D01*
X24411Y-27333D01*
X24405Y-27362D01*
X24404Y-27685D01*
X24441Y-27722D01*
X24732Y-27722D01*
X24782Y-27722D01*
X24918Y-27722D01*
X24918Y-27858D01*
X24782Y-27858D01*
X24732Y-27858D01*
X24441Y-27858D01*
X24404Y-27895D01*
X24405Y-28218D01*
X24411Y-28247D01*
X24422Y-28274D01*
X24438Y-28299D01*
X24459Y-28319D01*
X24484Y-28336D01*
X24495Y-28340D01*
X24490Y-28344D01*
X24469Y-28365D01*
X24453Y-28389D01*
X24442Y-28416D01*
X24436Y-28445D01*
X24436Y-28474D01*
X24436Y-28631D01*
X24442Y-28660D01*
X24444Y-28666D01*
X24442Y-28672D01*
X24436Y-28701D01*
X24436Y-28730D01*
X24436Y-28887D01*
X24442Y-28916D01*
X24444Y-28922D01*
X24442Y-28928D01*
X24436Y-28957D01*
X24436Y-28986D01*
X24436Y-29143D01*
X24442Y-29172D01*
X24444Y-29178D01*
X24442Y-29184D01*
X24436Y-29213D01*
X24436Y-29242D01*
X24436Y-29399D01*
X24442Y-29428D01*
X24443Y-29432D01*
X24441Y-29440D01*
X24435Y-29469D01*
X24434Y-29486D01*
X24471Y-29523D01*
X24531Y-29523D01*
X24541Y-29527D01*
X24570Y-29533D01*
X24599Y-29533D01*
X25130Y-29533D01*
X25159Y-29527D01*
X25168Y-29523D01*
X25229Y-29523D01*
X25266Y-29486D01*
X25265Y-29469D01*
X25259Y-29440D01*
X25256Y-29432D01*
X25258Y-29428D01*
X25264Y-29399D01*
X25264Y-29370D01*
X25264Y-29282D01*
X25413Y-29432D01*
X25414Y-29433D01*
X25415Y-29434D01*
X25420Y-29437D01*
X25443Y-29457D01*
X25444Y-29457D01*
X25475Y-29475D01*
X25476Y-29475D01*
X25510Y-29486D01*
X25512Y-29486D01*
X25547Y-29490D01*
X25549Y-29490D01*
X25550Y-29490D01*
X25551Y-29490D01*
X25551Y-29590D01*
X25557Y-29619D01*
X25568Y-29646D01*
X25584Y-29670D01*
X25605Y-29691D01*
X25629Y-29707D01*
X25656Y-29718D01*
X25685Y-29724D01*
X25685Y-29783D01*
X25657Y-29789D01*
X25630Y-29800D01*
X25606Y-29816D01*
X25585Y-29837D01*
X25569Y-29861D01*
X25558Y-29888D01*
X25552Y-29917D01*
X25552Y-29946D01*
X25552Y-30183D01*
X25558Y-30212D01*
X25569Y-30239D01*
X25585Y-30263D01*
X25606Y-30284D01*
X25630Y-30300D01*
X25657Y-30311D01*
X25686Y-30317D01*
X25715Y-30317D01*
X26030Y-30317D01*
X26059Y-30311D01*
X26086Y-30300D01*
X26110Y-30284D01*
X26131Y-30263D01*
X26147Y-30239D01*
X26158Y-30212D01*
X26164Y-30183D01*
X26164Y-30154D01*
X26164Y-29917D01*
X26158Y-29888D01*
X26147Y-29861D01*
X26131Y-29837D01*
X26110Y-29816D01*
X26086Y-29800D01*
X26065Y-29791D01*
X26065Y-29724D01*
X26094Y-29718D01*
X26121Y-29707D01*
X26145Y-29691D01*
X26166Y-29670D01*
X26182Y-29646D01*
X26193Y-29619D01*
X26199Y-29590D01*
X26199Y-29561D01*
X26199Y-29010D01*
X26193Y-28981D01*
X26182Y-28954D01*
X26166Y-28930D01*
X26145Y-28909D01*
X26131Y-28900D01*
X26145Y-28891D01*
X26166Y-28870D01*
X26182Y-28846D01*
X26193Y-28819D01*
X26199Y-28790D01*
X26199Y-28761D01*
X26199Y-28210D01*
X26193Y-28181D01*
X26182Y-28154D01*
X26166Y-28130D01*
X26145Y-28109D01*
X26121Y-28093D01*
X26094Y-28082D01*
X26065Y-28076D01*
X26048Y-28076D01*
X26048Y-28063D01*
X26059Y-28061D01*
X26086Y-28050D01*
X26110Y-28034D01*
X26131Y-28013D01*
X26147Y-27989D01*
X26158Y-27962D01*
X26164Y-27933D01*
X26164Y-27904D01*
X26164Y-27667D01*
X26158Y-27638D01*
X26147Y-27611D01*
X26131Y-27587D01*
X26110Y-27566D01*
X26086Y-27550D01*
X26059Y-27539D01*
X26048Y-27536D01*
X26048Y-27327D01*
X26059Y-27303D01*
X26073Y-27241D01*
X26074Y-27168D01*
X26062Y-27106D01*
X26037Y-27047D01*
X26002Y-26994D01*
X25957Y-26949D01*
X25905Y-26913D01*
X25846Y-26889D01*
X25784Y-26876D01*
X25720Y-26876D01*
X25658Y-26888D01*
X25599Y-26912D01*
X25594Y-26914D01*
X25587Y-26897D01*
X25552Y-26844D01*
X25507Y-26799D01*
X25495Y-26791D01*
X25495Y-26790D01*
X25516Y-26770D01*
X25532Y-26746D01*
X25543Y-26719D01*
X25549Y-26690D01*
X25549Y-26661D01*
X25549Y-26590D01*
X25897Y-26590D01*
X25900Y-26590D01*
X26048Y-26590D01*
X26050Y-26590D01*
X26056Y-26589D01*
X26085Y-26587D01*
X26087Y-26586D01*
X26100Y-26582D01*
X26100Y-26585D01*
X26099Y-26795D01*
X26136Y-26832D01*
X26482Y-26832D01*
X26482Y-26486D01*
X26445Y-26449D01*
X26268Y-26449D01*
X26394Y-26323D01*
X26410Y-26330D01*
X26496Y-26349D01*
X26585Y-26351D01*
X26671Y-26336D01*
X26754Y-26304D01*
X26828Y-26256D01*
X26892Y-26196D01*
X26943Y-26123D01*
X26979Y-26043D01*
X26999Y-25957D01*
X27000Y-25856D01*
X26983Y-25769D01*
X26975Y-25750D01*
X27028Y-25697D01*
X27652Y-25697D01*
X27650Y-25710D01*
X27650Y-25739D01*
X27649Y-25845D01*
X27686Y-25882D01*
X27782Y-25882D01*
X27850Y-25882D01*
X27950Y-25882D01*
X27968Y-25882D01*
X27968Y-26018D01*
X27950Y-26018D01*
X27950Y-26289D01*
X27987Y-26326D01*
X28015Y-26325D01*
X28044Y-26319D01*
X28071Y-26308D01*
X28096Y-26292D01*
X28116Y-26271D01*
X28133Y-26246D01*
X28144Y-26219D01*
X28150Y-26190D01*
X28150Y-26161D01*
X28150Y-26068D01*
X28151Y-26068D01*
X28151Y-26190D01*
X28157Y-26219D01*
X28168Y-26246D01*
X28184Y-26270D01*
X28205Y-26291D01*
X28210Y-26294D01*
X28210Y-26671D01*
X27922Y-26959D01*
X27920Y-26961D01*
X27917Y-26964D01*
X27916Y-26965D01*
X27915Y-26966D01*
X27850Y-27031D01*
X27850Y-26289D01*
X27850Y-26018D01*
X27686Y-26018D01*
X27649Y-26055D01*
X27650Y-26161D01*
X27650Y-26190D01*
X27656Y-26219D01*
X27667Y-26246D01*
X27684Y-26271D01*
X27704Y-26292D01*
X27729Y-26308D01*
X27756Y-26319D01*
X27785Y-26325D01*
X27813Y-26326D01*
X27850Y-26289D01*
X27850Y-27031D01*
X27540Y-27341D01*
X27540Y-27163D01*
X27551Y-27156D01*
X27597Y-27113D01*
X27633Y-27061D01*
X27659Y-27003D01*
X27673Y-26941D01*
X27674Y-26868D01*
X27662Y-26806D01*
X27637Y-26747D01*
X27602Y-26694D01*
X27557Y-26649D01*
X27505Y-26613D01*
X27446Y-26589D01*
X27384Y-26576D01*
X27320Y-26576D01*
X27258Y-26588D01*
X27199Y-26612D01*
X27146Y-26646D01*
X27100Y-26691D01*
X27065Y-26743D01*
X27040Y-26802D01*
X27026Y-26864D01*
X27026Y-26927D01*
X27037Y-26990D01*
X27061Y-27049D01*
X27095Y-27102D01*
X27139Y-27148D01*
X27160Y-27162D01*
X27160Y-28221D01*
X27150Y-28231D01*
X27150Y-27896D01*
X27150Y-27704D01*
X27149Y-27667D01*
X27143Y-27638D01*
X27132Y-27611D01*
X27116Y-27586D01*
X27095Y-27566D01*
X27070Y-27549D01*
X27043Y-27538D01*
X27014Y-27532D01*
X27001Y-27532D01*
X27001Y-27005D01*
X27001Y-26795D01*
X27000Y-26585D01*
X26994Y-26556D01*
X26983Y-26529D01*
X26967Y-26504D01*
X26946Y-26484D01*
X26921Y-26467D01*
X26894Y-26456D01*
X26865Y-26450D01*
X26836Y-26450D01*
X26655Y-26449D01*
X26618Y-26486D01*
X26618Y-26832D01*
X26964Y-26832D01*
X27001Y-26795D01*
X27001Y-27005D01*
X26964Y-26968D01*
X26618Y-26968D01*
X26618Y-27314D01*
X26655Y-27351D01*
X26836Y-27350D01*
X26865Y-27350D01*
X26894Y-27344D01*
X26921Y-27333D01*
X26946Y-27316D01*
X26967Y-27296D01*
X26983Y-27271D01*
X26994Y-27244D01*
X27000Y-27215D01*
X27001Y-27005D01*
X27001Y-27532D01*
X26985Y-27532D01*
X26947Y-27531D01*
X26910Y-27568D01*
X26910Y-27741D01*
X27113Y-27741D01*
X27150Y-27704D01*
X27150Y-27896D01*
X27113Y-27859D01*
X26910Y-27859D01*
X26910Y-28032D01*
X26947Y-28069D01*
X26985Y-28068D01*
X27014Y-28068D01*
X27043Y-28062D01*
X27070Y-28051D01*
X27095Y-28034D01*
X27116Y-28014D01*
X27132Y-27989D01*
X27143Y-27962D01*
X27149Y-27933D01*
X27150Y-27896D01*
X27150Y-28231D01*
X27071Y-28310D01*
X26949Y-28310D01*
X26949Y-28210D01*
X26943Y-28181D01*
X26932Y-28154D01*
X26916Y-28130D01*
X26895Y-28109D01*
X26871Y-28093D01*
X26844Y-28082D01*
X26815Y-28076D01*
X26786Y-28076D01*
X26774Y-28076D01*
X26774Y-28032D01*
X26774Y-27859D01*
X26774Y-27741D01*
X26774Y-27568D01*
X26737Y-27531D01*
X26699Y-27532D01*
X26670Y-27532D01*
X26641Y-27538D01*
X26614Y-27549D01*
X26589Y-27566D01*
X26568Y-27586D01*
X26552Y-27611D01*
X26541Y-27638D01*
X26535Y-27667D01*
X26534Y-27704D01*
X26571Y-27741D01*
X26774Y-27741D01*
X26774Y-27859D01*
X26571Y-27859D01*
X26534Y-27896D01*
X26535Y-27933D01*
X26541Y-27962D01*
X26552Y-27989D01*
X26568Y-28014D01*
X26589Y-28034D01*
X26614Y-28051D01*
X26641Y-28062D01*
X26670Y-28068D01*
X26699Y-28068D01*
X26737Y-28069D01*
X26774Y-28032D01*
X26774Y-28076D01*
X26482Y-28076D01*
X26482Y-27314D01*
X26482Y-26968D01*
X26136Y-26968D01*
X26099Y-27005D01*
X26100Y-27215D01*
X26106Y-27244D01*
X26117Y-27271D01*
X26133Y-27296D01*
X26154Y-27316D01*
X26179Y-27333D01*
X26206Y-27344D01*
X26235Y-27350D01*
X26264Y-27350D01*
X26445Y-27351D01*
X26482Y-27314D01*
X26482Y-28076D01*
X26435Y-28076D01*
X26406Y-28082D01*
X26379Y-28093D01*
X26355Y-28109D01*
X26334Y-28130D01*
X26318Y-28154D01*
X26307Y-28181D01*
X26301Y-28210D01*
X26301Y-28239D01*
X26301Y-28790D01*
X26307Y-28819D01*
X26318Y-28846D01*
X26334Y-28870D01*
X26355Y-28891D01*
X26368Y-28900D01*
X26355Y-28909D01*
X26334Y-28930D01*
X26318Y-28954D01*
X26307Y-28981D01*
X26301Y-29010D01*
X26301Y-29039D01*
X26301Y-29590D01*
X26307Y-29619D01*
X26318Y-29646D01*
X26334Y-29670D01*
X26355Y-29691D01*
X26379Y-29707D01*
X26406Y-29718D01*
X26435Y-29724D01*
X26464Y-29724D01*
X26815Y-29724D01*
X26844Y-29718D01*
X26871Y-29707D01*
X26895Y-29691D01*
X26916Y-29670D01*
X26932Y-29646D01*
X26943Y-29619D01*
X26949Y-29590D01*
X26949Y-29561D01*
X26949Y-29462D01*
X26949Y-29461D01*
X26953Y-29460D01*
X26955Y-29458D01*
X26965Y-29450D01*
X26982Y-29436D01*
X26984Y-29435D01*
X26984Y-29434D01*
X26988Y-29429D01*
X27688Y-28730D01*
X27688Y-28751D01*
X27688Y-29578D01*
X27694Y-29607D01*
X27705Y-29634D01*
X27721Y-29658D01*
X27742Y-29679D01*
X27766Y-29695D01*
X27793Y-29706D01*
X27822Y-29712D01*
X27851Y-29712D01*
X28193Y-29712D01*
X28397Y-29916D01*
X28384Y-29930D01*
X28368Y-29954D01*
X28357Y-29981D01*
X28351Y-30010D01*
X28351Y-30039D01*
X28351Y-30590D01*
X28357Y-30619D01*
X28368Y-30646D01*
X28384Y-30670D01*
X28405Y-30691D01*
X28429Y-30707D01*
X28456Y-30718D01*
X28485Y-30724D01*
X28514Y-30724D01*
X28865Y-30724D01*
X28894Y-30718D01*
X28921Y-30707D01*
X28945Y-30691D01*
X28966Y-30670D01*
X28975Y-30656D01*
X28984Y-30670D01*
X29005Y-30691D01*
X29029Y-30707D01*
X29056Y-30718D01*
X29085Y-30724D01*
X29114Y-30724D01*
X29465Y-30724D01*
X29494Y-30718D01*
X29521Y-30707D01*
X29545Y-30691D01*
X29566Y-30670D01*
X29582Y-30646D01*
X29593Y-30619D01*
X29599Y-30590D01*
X29599Y-30561D01*
X29599Y-30010D01*
X29593Y-29981D01*
X29582Y-29955D01*
X29582Y-29954D01*
X29592Y-29925D01*
X29806Y-29712D01*
X30178Y-29712D01*
X30207Y-29706D01*
X30234Y-29695D01*
X30258Y-29679D01*
X30279Y-29658D01*
X30295Y-29634D01*
X30306Y-29607D01*
X30312Y-29578D01*
X30312Y-29549D01*
X30312Y-28722D01*
X30306Y-28693D01*
X30295Y-28666D01*
X30279Y-28642D01*
X30258Y-28621D01*
X30234Y-28605D01*
X30207Y-28594D01*
X30178Y-28588D01*
X30149Y-28588D01*
X29456Y-28588D01*
X29292Y-28424D01*
X29314Y-28424D01*
X29515Y-28424D01*
X29544Y-28418D01*
X29571Y-28407D01*
X29595Y-28391D01*
X29616Y-28370D01*
X29632Y-28346D01*
X29643Y-28319D01*
X29649Y-28290D01*
X29649Y-28261D01*
X29649Y-27810D01*
X29643Y-27781D01*
X29632Y-27754D01*
X29616Y-27730D01*
X29595Y-27709D01*
X29601Y-27706D01*
X29647Y-27663D01*
X29683Y-27611D01*
X29709Y-27553D01*
X29710Y-27548D01*
X29710Y-27705D01*
X29705Y-27709D01*
X29684Y-27730D01*
X29668Y-27754D01*
X29657Y-27781D01*
X29651Y-27810D01*
X29651Y-27839D01*
X29651Y-28290D01*
X29657Y-28319D01*
X29668Y-28346D01*
X29684Y-28370D01*
X29705Y-28391D01*
X29729Y-28407D01*
X29756Y-28418D01*
X29785Y-28424D01*
X29814Y-28424D01*
X30015Y-28424D01*
X30044Y-28418D01*
X30071Y-28407D01*
X30095Y-28391D01*
X30116Y-28370D01*
X30132Y-28346D01*
X30143Y-28319D01*
X30149Y-28290D01*
X30149Y-28261D01*
X30149Y-27810D01*
X30143Y-27781D01*
X30132Y-27754D01*
X30116Y-27730D01*
X30095Y-27709D01*
X30090Y-27705D01*
X30090Y-27402D01*
X30090Y-27400D01*
X30086Y-27364D01*
X30086Y-27363D01*
X30083Y-27354D01*
X30077Y-27329D01*
X30076Y-27328D01*
X30060Y-27297D01*
X30058Y-27295D01*
X30050Y-27285D01*
X30036Y-27268D01*
X30035Y-27266D01*
X30034Y-27265D01*
X29739Y-26971D01*
X29736Y-26967D01*
X29734Y-26966D01*
X29707Y-26943D01*
X29705Y-26942D01*
X29675Y-26925D01*
X29640Y-26914D01*
X29603Y-26910D01*
X29601Y-26910D01*
X29600Y-26910D01*
X28508Y-26910D01*
X28532Y-26886D01*
X28533Y-26886D01*
X28533Y-26885D01*
X28534Y-26885D01*
X28537Y-26880D01*
X28557Y-26857D01*
X28557Y-26856D01*
X28575Y-26825D01*
X28575Y-26824D01*
X28586Y-26790D01*
X28590Y-26753D01*
X28590Y-26751D01*
X28590Y-26750D01*
X28590Y-26647D01*
X28611Y-26699D01*
X28645Y-26752D01*
X28689Y-26798D01*
X28741Y-26834D01*
X28800Y-26860D01*
X28862Y-26873D01*
X28925Y-26875D01*
X28988Y-26864D01*
X29047Y-26841D01*
X29101Y-26806D01*
X29147Y-26763D01*
X29183Y-26711D01*
X29209Y-26653D01*
X29223Y-26591D01*
X29224Y-26518D01*
X29212Y-26456D01*
X29187Y-26397D01*
X29152Y-26344D01*
X29107Y-26299D01*
X29095Y-26291D01*
X29095Y-26290D01*
X29116Y-26270D01*
X29132Y-26246D01*
X29143Y-26219D01*
X29149Y-26190D01*
X29149Y-26161D01*
X29149Y-25717D01*
X29151Y-25719D01*
X29151Y-25739D01*
X29151Y-26190D01*
X29157Y-26219D01*
X29168Y-26246D01*
X29184Y-26270D01*
X29205Y-26291D01*
X29229Y-26307D01*
X29256Y-26318D01*
X29285Y-26324D01*
X29314Y-26324D01*
X29515Y-26324D01*
X29544Y-26318D01*
X29571Y-26307D01*
X29595Y-26291D01*
X29616Y-26270D01*
X29632Y-26246D01*
X29643Y-26219D01*
X29649Y-26190D01*
X29649Y-26161D01*
X29649Y-25710D01*
X29643Y-25681D01*
X29632Y-25654D01*
X29616Y-25630D01*
X29595Y-25609D01*
X29571Y-25593D01*
X29549Y-25584D01*
X29536Y-25567D01*
X29535Y-25566D01*
X29534Y-25565D01*
X29483Y-25515D01*
X29646Y-25515D01*
X29710Y-25578D01*
X29710Y-25605D01*
X29705Y-25609D01*
X29684Y-25630D01*
X29668Y-25654D01*
X29657Y-25681D01*
X29651Y-25710D01*
X29651Y-25739D01*
X29651Y-26190D01*
X29657Y-26219D01*
X29668Y-26246D01*
X29684Y-26270D01*
X29705Y-26291D01*
X29729Y-26307D01*
X29756Y-26318D01*
X29785Y-26324D01*
X29814Y-26324D01*
X30015Y-26324D01*
X30044Y-26318D01*
X30071Y-26307D01*
X30095Y-26291D01*
X30116Y-26270D01*
X30132Y-26246D01*
X30143Y-26219D01*
X30149Y-26190D01*
X30149Y-26161D01*
X30149Y-25710D01*
X30143Y-25681D01*
X30132Y-25654D01*
X30116Y-25630D01*
X30095Y-25609D01*
X30090Y-25605D01*
X30090Y-25502D01*
X30090Y-25500D01*
X30086Y-25464D01*
X30086Y-25463D01*
X30076Y-25429D01*
X30076Y-25428D01*
X30066Y-25411D01*
X30059Y-25396D01*
X30058Y-25395D01*
X30036Y-25367D01*
X30035Y-25366D01*
X30034Y-25365D01*
X29893Y-25225D01*
X33425Y-25225D01*
X33425Y-31425D01*
M02*
