G04 (created by PCBNEW-RS274X (2012-apr-16-27)-stable) date Sun 19 Jan 2014 08:01:09 PM CET*
G01*
G70*
G90*
%MOIN*%
G04 Gerber Fmt 3.4, Leading zero omitted, Abs format*
%FSLAX34Y34*%
G04 APERTURE LIST*
%ADD10C,0.006000*%
%ADD11C,0.007900*%
G04 APERTURE END LIST*
G54D10*
G54D11*
X30568Y-29004D02*
X30506Y-29025D01*
X30403Y-29025D01*
X30361Y-29004D01*
X30341Y-28984D01*
X30320Y-28942D01*
X30320Y-28901D01*
X30341Y-28860D01*
X30361Y-28839D01*
X30403Y-28819D01*
X30485Y-28798D01*
X30526Y-28777D01*
X30547Y-28757D01*
X30568Y-28715D01*
X30568Y-28674D01*
X30547Y-28633D01*
X30526Y-28612D01*
X30485Y-28592D01*
X30382Y-28592D01*
X30320Y-28612D01*
X30073Y-29025D02*
X30114Y-29004D01*
X30135Y-28963D01*
X30135Y-28592D01*
X29908Y-29025D02*
X29908Y-28736D01*
X29908Y-28592D02*
X29929Y-28612D01*
X29908Y-28633D01*
X29887Y-28612D01*
X29908Y-28592D01*
X29908Y-28633D01*
X29702Y-29025D02*
X29702Y-28736D01*
X29702Y-28777D02*
X29681Y-28757D01*
X29640Y-28736D01*
X29578Y-28736D01*
X29537Y-28757D01*
X29516Y-28798D01*
X29516Y-29025D01*
X29516Y-28798D02*
X29496Y-28757D01*
X29454Y-28736D01*
X29393Y-28736D01*
X29351Y-28757D01*
X29331Y-28798D01*
X29331Y-29025D01*
X28733Y-29025D02*
X28774Y-29004D01*
X28795Y-28963D01*
X28795Y-28592D01*
X28568Y-29025D02*
X28568Y-28736D01*
X28568Y-28592D02*
X28589Y-28612D01*
X28568Y-28633D01*
X28547Y-28612D01*
X28568Y-28592D01*
X28568Y-28633D01*
X28176Y-28736D02*
X28176Y-29087D01*
X28197Y-29128D01*
X28218Y-29148D01*
X28259Y-29169D01*
X28321Y-29169D01*
X28362Y-29148D01*
X28176Y-29004D02*
X28218Y-29025D01*
X28300Y-29025D01*
X28341Y-29004D01*
X28362Y-28984D01*
X28383Y-28942D01*
X28383Y-28819D01*
X28362Y-28777D01*
X28341Y-28757D01*
X28300Y-28736D01*
X28218Y-28736D01*
X28176Y-28757D01*
X27970Y-29025D02*
X27970Y-28592D01*
X27784Y-29025D02*
X27784Y-28798D01*
X27805Y-28757D01*
X27846Y-28736D01*
X27908Y-28736D01*
X27949Y-28757D01*
X27970Y-28777D01*
X27640Y-28736D02*
X27475Y-28736D01*
X27578Y-28592D02*
X27578Y-28963D01*
X27557Y-29004D01*
X27516Y-29025D01*
X27475Y-29025D01*
X26815Y-29004D02*
X26857Y-29025D01*
X26939Y-29025D01*
X26980Y-29004D01*
X27001Y-28984D01*
X27022Y-28942D01*
X27022Y-28819D01*
X27001Y-28777D01*
X26980Y-28757D01*
X26939Y-28736D01*
X26857Y-28736D01*
X26815Y-28757D01*
X26568Y-29025D02*
X26609Y-29004D01*
X26630Y-28984D01*
X26651Y-28942D01*
X26651Y-28819D01*
X26630Y-28777D01*
X26609Y-28757D01*
X26568Y-28736D01*
X26506Y-28736D01*
X26465Y-28757D01*
X26444Y-28777D01*
X26424Y-28819D01*
X26424Y-28942D01*
X26444Y-28984D01*
X26465Y-29004D01*
X26506Y-29025D01*
X26568Y-29025D01*
X26238Y-28736D02*
X26238Y-29025D01*
X26238Y-28777D02*
X26217Y-28757D01*
X26176Y-28736D01*
X26114Y-28736D01*
X26073Y-28757D01*
X26052Y-28798D01*
X26052Y-29025D01*
X25908Y-28736D02*
X25743Y-28736D01*
X25846Y-28592D02*
X25846Y-28963D01*
X25825Y-29004D01*
X25784Y-29025D01*
X25743Y-29025D01*
X25599Y-29025D02*
X25599Y-28736D01*
X25599Y-28819D02*
X25578Y-28777D01*
X25558Y-28757D01*
X25516Y-28736D01*
X25475Y-28736D01*
X25269Y-29025D02*
X25310Y-29004D01*
X25331Y-28984D01*
X25352Y-28942D01*
X25352Y-28819D01*
X25331Y-28777D01*
X25310Y-28757D01*
X25269Y-28736D01*
X25207Y-28736D01*
X25166Y-28757D01*
X25145Y-28777D01*
X25125Y-28819D01*
X25125Y-28942D01*
X25145Y-28984D01*
X25166Y-29004D01*
X25207Y-29025D01*
X25269Y-29025D01*
X24877Y-29025D02*
X24918Y-29004D01*
X24939Y-28963D01*
X24939Y-28592D01*
X24650Y-29025D02*
X24691Y-29004D01*
X24712Y-28963D01*
X24712Y-28592D01*
X24320Y-29004D02*
X24361Y-29025D01*
X24444Y-29025D01*
X24485Y-29004D01*
X24506Y-28963D01*
X24506Y-28798D01*
X24485Y-28757D01*
X24444Y-28736D01*
X24361Y-28736D01*
X24320Y-28757D01*
X24299Y-28798D01*
X24299Y-28839D01*
X24506Y-28880D01*
X24114Y-29025D02*
X24114Y-28736D01*
X24114Y-28819D02*
X24093Y-28777D01*
X24073Y-28757D01*
X24031Y-28736D01*
X23990Y-28736D01*
X30393Y-29710D02*
X30393Y-29277D01*
X30207Y-29710D02*
X30207Y-29483D01*
X30228Y-29442D01*
X30269Y-29421D01*
X30331Y-29421D01*
X30372Y-29442D01*
X30393Y-29462D01*
X30063Y-29421D02*
X29898Y-29421D01*
X30001Y-29277D02*
X30001Y-29648D01*
X29980Y-29689D01*
X29939Y-29710D01*
X29898Y-29710D01*
X29816Y-29421D02*
X29651Y-29421D01*
X29754Y-29277D02*
X29754Y-29648D01*
X29733Y-29689D01*
X29692Y-29710D01*
X29651Y-29710D01*
X29507Y-29421D02*
X29507Y-29854D01*
X29507Y-29442D02*
X29466Y-29421D01*
X29383Y-29421D01*
X29342Y-29442D01*
X29321Y-29462D01*
X29301Y-29504D01*
X29301Y-29627D01*
X29321Y-29669D01*
X29342Y-29689D01*
X29383Y-29710D01*
X29466Y-29710D01*
X29507Y-29689D01*
X29115Y-29669D02*
X29094Y-29689D01*
X29115Y-29710D01*
X29136Y-29689D01*
X29115Y-29669D01*
X29115Y-29710D01*
X29115Y-29442D02*
X29094Y-29462D01*
X29115Y-29483D01*
X29136Y-29462D01*
X29115Y-29442D01*
X29115Y-29483D01*
X28600Y-29256D02*
X28971Y-29813D01*
X28146Y-29256D02*
X28517Y-29813D01*
X28001Y-29710D02*
X28001Y-29421D01*
X28001Y-29462D02*
X27980Y-29442D01*
X27939Y-29421D01*
X27877Y-29421D01*
X27836Y-29442D01*
X27815Y-29483D01*
X27815Y-29710D01*
X27815Y-29483D02*
X27795Y-29442D01*
X27753Y-29421D01*
X27692Y-29421D01*
X27650Y-29442D01*
X27630Y-29483D01*
X27630Y-29710D01*
X27238Y-29710D02*
X27238Y-29483D01*
X27259Y-29442D01*
X27300Y-29421D01*
X27383Y-29421D01*
X27424Y-29442D01*
X27238Y-29689D02*
X27280Y-29710D01*
X27383Y-29710D01*
X27424Y-29689D01*
X27445Y-29648D01*
X27445Y-29607D01*
X27424Y-29565D01*
X27383Y-29545D01*
X27280Y-29545D01*
X27238Y-29524D01*
X27032Y-29710D02*
X27032Y-29277D01*
X26991Y-29545D02*
X26867Y-29710D01*
X26867Y-29421D02*
X27032Y-29586D01*
X26516Y-29689D02*
X26557Y-29710D01*
X26640Y-29710D01*
X26681Y-29689D01*
X26702Y-29648D01*
X26702Y-29483D01*
X26681Y-29442D01*
X26640Y-29421D01*
X26557Y-29421D01*
X26516Y-29442D01*
X26495Y-29483D01*
X26495Y-29524D01*
X26702Y-29565D01*
X26310Y-29669D02*
X26289Y-29689D01*
X26310Y-29710D01*
X26331Y-29689D01*
X26310Y-29669D01*
X26310Y-29710D01*
X26166Y-29421D02*
X26001Y-29421D01*
X26104Y-29277D02*
X26104Y-29648D01*
X26083Y-29689D01*
X26042Y-29710D01*
X26001Y-29710D01*
X25857Y-29710D02*
X25857Y-29421D01*
X25857Y-29462D02*
X25836Y-29442D01*
X25795Y-29421D01*
X25733Y-29421D01*
X25692Y-29442D01*
X25671Y-29483D01*
X25671Y-29710D01*
X25671Y-29483D02*
X25651Y-29442D01*
X25609Y-29421D01*
X25548Y-29421D01*
X25506Y-29442D01*
X25486Y-29483D01*
X25486Y-29710D01*
X25321Y-29710D02*
X25094Y-29421D01*
X25321Y-29421D02*
X25094Y-29710D01*
X24929Y-29669D02*
X24908Y-29689D01*
X24929Y-29710D01*
X24950Y-29689D01*
X24929Y-29669D01*
X24929Y-29710D01*
X24744Y-29689D02*
X24702Y-29710D01*
X24620Y-29710D01*
X24579Y-29689D01*
X24558Y-29648D01*
X24558Y-29627D01*
X24579Y-29586D01*
X24620Y-29565D01*
X24682Y-29565D01*
X24723Y-29545D01*
X24744Y-29504D01*
X24744Y-29483D01*
X24723Y-29442D01*
X24682Y-29421D01*
X24620Y-29421D01*
X24579Y-29442D01*
X24207Y-29689D02*
X24248Y-29710D01*
X24331Y-29710D01*
X24372Y-29689D01*
X24393Y-29648D01*
X24393Y-29483D01*
X24372Y-29442D01*
X24331Y-29421D01*
X24248Y-29421D01*
X24207Y-29442D01*
X24186Y-29483D01*
X24186Y-29524D01*
X24393Y-29565D01*
M02*
