G04 (created by PCBNEW-RS274X (2012-apr-16-27)-stable) date Sun 19 Jan 2014 08:01:09 PM CET*
G01*
G70*
G90*
%MOIN*%
G04 Gerber Fmt 3.4, Leading zero omitted, Abs format*
%FSLAX34Y34*%
G04 APERTURE LIST*
%ADD10C,0.006000*%
%ADD11C,0.005000*%
%ADD12C,0.008000*%
%ADD13C,0.007000*%
G04 APERTURE END LIST*
G54D10*
X28731Y-31312D02*
X28597Y-31121D01*
X28502Y-31312D02*
X28502Y-30912D01*
X28655Y-30912D01*
X28693Y-30931D01*
X28712Y-30950D01*
X28731Y-30988D01*
X28731Y-31045D01*
X28712Y-31083D01*
X28693Y-31102D01*
X28655Y-31121D01*
X28502Y-31121D01*
X29055Y-31293D02*
X29017Y-31312D01*
X28940Y-31312D01*
X28902Y-31293D01*
X28883Y-31255D01*
X28883Y-31102D01*
X28902Y-31064D01*
X28940Y-31045D01*
X29017Y-31045D01*
X29055Y-31064D01*
X29074Y-31102D01*
X29074Y-31140D01*
X28883Y-31179D01*
X29207Y-31045D02*
X29302Y-31312D01*
X29398Y-31045D01*
X29550Y-31274D02*
X29569Y-31293D01*
X29550Y-31312D01*
X29531Y-31293D01*
X29550Y-31274D01*
X29550Y-31312D01*
X30026Y-31198D02*
X30217Y-31198D01*
X29988Y-31312D02*
X30121Y-30912D01*
X30255Y-31312D01*
X32960Y-31110D02*
X32960Y-30805D01*
X33112Y-30957D02*
X32807Y-30957D01*
X33112Y-30005D02*
X32712Y-30005D01*
X32712Y-29910D01*
X32731Y-29852D01*
X32769Y-29814D01*
X32807Y-29795D01*
X32883Y-29776D01*
X32940Y-29776D01*
X33017Y-29795D01*
X33055Y-29814D01*
X33093Y-29852D01*
X33112Y-29910D01*
X33112Y-30005D01*
X32960Y-28995D02*
X32960Y-28690D01*
G54D11*
X25400Y-30500D02*
X25300Y-30500D01*
X25300Y-30500D02*
X25300Y-31400D01*
X25300Y-31400D02*
X25400Y-31400D01*
X25400Y-30500D02*
X25400Y-31400D01*
X25400Y-31400D02*
X26050Y-31400D01*
X26750Y-30500D02*
X27400Y-30500D01*
X27400Y-30500D02*
X27400Y-31400D01*
X27400Y-31400D02*
X26750Y-31400D01*
X26050Y-30500D02*
X25400Y-30500D01*
G54D10*
X32450Y-31450D02*
X31450Y-31450D01*
X31450Y-31450D02*
X31450Y-28450D01*
X31450Y-28450D02*
X32450Y-28450D01*
X32450Y-28450D02*
X32450Y-31450D01*
X31450Y-30450D02*
X32450Y-30450D01*
G54D12*
X26665Y-28036D02*
X27137Y-28036D01*
X27137Y-28036D02*
X27137Y-27918D01*
X27098Y-27564D02*
X27098Y-27997D01*
X26665Y-27564D02*
X27137Y-27564D01*
X26665Y-27997D02*
X27137Y-27997D01*
X27137Y-27997D02*
X27137Y-27564D01*
X26665Y-27643D02*
X27059Y-27643D01*
X27059Y-27643D02*
X27059Y-27957D01*
X27059Y-27957D02*
X26665Y-27957D01*
X26665Y-27524D02*
X26665Y-28076D01*
X26665Y-28076D02*
X26035Y-28076D01*
X26035Y-28076D02*
X26035Y-27524D01*
X26035Y-27524D02*
X26665Y-27524D01*
X26665Y-30286D02*
X27137Y-30286D01*
X27137Y-30286D02*
X27137Y-30168D01*
X27098Y-29814D02*
X27098Y-30247D01*
X26665Y-29814D02*
X27137Y-29814D01*
X26665Y-30247D02*
X27137Y-30247D01*
X27137Y-30247D02*
X27137Y-29814D01*
X26665Y-29893D02*
X27059Y-29893D01*
X27059Y-29893D02*
X27059Y-30207D01*
X27059Y-30207D02*
X26665Y-30207D01*
X26665Y-29774D02*
X26665Y-30326D01*
X26665Y-30326D02*
X26035Y-30326D01*
X26035Y-30326D02*
X26035Y-29774D01*
X26035Y-29774D02*
X26665Y-29774D01*
X27500Y-26250D02*
X31300Y-26250D01*
X31300Y-26250D02*
X31300Y-27750D01*
X31300Y-27750D02*
X27500Y-27750D01*
X27500Y-27750D02*
X27500Y-26250D01*
X27500Y-26750D02*
X27800Y-26750D01*
X27800Y-26750D02*
X27800Y-27150D01*
X27800Y-27150D02*
X27500Y-27150D01*
G54D11*
X23400Y-26000D02*
X23400Y-25600D01*
X23400Y-25600D02*
X24000Y-25600D01*
X24000Y-25600D02*
X24000Y-26000D01*
X24000Y-26400D02*
X24000Y-26800D01*
X24000Y-26800D02*
X23400Y-26800D01*
X23400Y-26800D02*
X23400Y-26400D01*
X25050Y-26100D02*
X25450Y-26100D01*
X25450Y-26100D02*
X25450Y-26700D01*
X25450Y-26700D02*
X25050Y-26700D01*
X24650Y-26700D02*
X24250Y-26700D01*
X24250Y-26700D02*
X24250Y-26100D01*
X24250Y-26100D02*
X24650Y-26100D01*
X25050Y-25300D02*
X25450Y-25300D01*
X25450Y-25300D02*
X25450Y-25900D01*
X25450Y-25900D02*
X25050Y-25900D01*
X24650Y-25900D02*
X24250Y-25900D01*
X24250Y-25900D02*
X24250Y-25300D01*
X24250Y-25300D02*
X24650Y-25300D01*
G54D12*
X31450Y-28200D02*
X31450Y-25200D01*
X33450Y-25200D02*
X33450Y-28200D01*
X33450Y-28200D02*
X31450Y-28200D01*
X31450Y-25200D02*
X33450Y-25200D01*
G54D10*
X26050Y-25300D02*
X27050Y-25300D01*
X27050Y-25300D02*
X27050Y-27300D01*
X27050Y-27300D02*
X26050Y-27300D01*
X26050Y-27300D02*
X26050Y-25300D01*
G54D11*
X29450Y-30600D02*
X29050Y-30600D01*
X29050Y-30600D02*
X29050Y-30000D01*
X29050Y-30000D02*
X29450Y-30000D01*
X29850Y-30000D02*
X30250Y-30000D01*
X30250Y-30000D02*
X30250Y-30600D01*
X30250Y-30600D02*
X29850Y-30600D01*
X28500Y-30000D02*
X28900Y-30000D01*
X28900Y-30000D02*
X28900Y-30600D01*
X28900Y-30600D02*
X28500Y-30600D01*
X28100Y-30600D02*
X27700Y-30600D01*
X27700Y-30600D02*
X27700Y-30000D01*
X27700Y-30000D02*
X28100Y-30000D01*
X26450Y-29000D02*
X26850Y-29000D01*
X26850Y-29000D02*
X26850Y-29600D01*
X26850Y-29600D02*
X26450Y-29600D01*
X26050Y-29600D02*
X25650Y-29600D01*
X25650Y-29600D02*
X25650Y-29000D01*
X25650Y-29000D02*
X26050Y-29000D01*
X26450Y-28200D02*
X26850Y-28200D01*
X26850Y-28200D02*
X26850Y-28800D01*
X26850Y-28800D02*
X26450Y-28800D01*
X26050Y-28800D02*
X25650Y-28800D01*
X25650Y-28800D02*
X25650Y-28200D01*
X25650Y-28200D02*
X26050Y-28200D01*
G54D13*
X25007Y-29877D02*
X25007Y-29680D01*
X25007Y-28223D02*
X25007Y-28420D01*
X24220Y-27554D02*
X24535Y-27554D01*
X24220Y-30546D02*
X24535Y-30546D01*
X23236Y-27554D02*
X23236Y-30546D01*
X23236Y-30546D02*
X23393Y-30546D01*
X23236Y-27554D02*
X23393Y-27554D01*
G54D12*
X29100Y-29150D02*
X29500Y-29150D01*
X28900Y-29150D02*
X28500Y-29150D01*
X29100Y-29550D02*
X29100Y-28750D01*
X28900Y-29550D02*
X28900Y-28750D01*
X30000Y-29800D02*
X30000Y-29675D01*
X28000Y-29800D02*
X28000Y-29675D01*
X28000Y-28500D02*
X28000Y-28625D01*
X30000Y-28500D02*
X30000Y-28625D01*
X30000Y-28500D02*
X28000Y-28500D01*
X30000Y-29800D02*
X28000Y-29800D01*
G54D10*
X27724Y-31290D02*
X27736Y-31301D01*
X27747Y-31335D01*
X27747Y-31358D01*
X27736Y-31393D01*
X27713Y-31415D01*
X27690Y-31427D01*
X27644Y-31438D01*
X27610Y-31438D01*
X27564Y-31427D01*
X27541Y-31415D01*
X27519Y-31393D01*
X27507Y-31358D01*
X27507Y-31335D01*
X27519Y-31301D01*
X27530Y-31290D01*
X27747Y-31061D02*
X27747Y-31198D01*
X27747Y-31130D02*
X27507Y-31130D01*
X27541Y-31153D01*
X27564Y-31175D01*
X27576Y-31198D01*
X31347Y-28827D02*
X31107Y-28827D01*
X31347Y-28690D02*
X31210Y-28793D01*
X31107Y-28690D02*
X31244Y-28827D01*
X31130Y-28598D02*
X31119Y-28587D01*
X31107Y-28564D01*
X31107Y-28507D01*
X31119Y-28484D01*
X31130Y-28473D01*
X31153Y-28461D01*
X31176Y-28461D01*
X31210Y-28473D01*
X31347Y-28610D01*
X31347Y-28461D01*
X25547Y-27977D02*
X25307Y-27977D01*
X25307Y-27920D01*
X25319Y-27885D01*
X25341Y-27863D01*
X25364Y-27851D01*
X25410Y-27840D01*
X25444Y-27840D01*
X25490Y-27851D01*
X25513Y-27863D01*
X25536Y-27885D01*
X25547Y-27920D01*
X25547Y-27977D01*
X25547Y-27611D02*
X25547Y-27748D01*
X25547Y-27680D02*
X25307Y-27680D01*
X25341Y-27703D01*
X25364Y-27725D01*
X25376Y-27748D01*
X25597Y-30227D02*
X25357Y-30227D01*
X25357Y-30170D01*
X25369Y-30135D01*
X25391Y-30113D01*
X25414Y-30101D01*
X25460Y-30090D01*
X25494Y-30090D01*
X25540Y-30101D01*
X25563Y-30113D01*
X25586Y-30135D01*
X25597Y-30170D01*
X25597Y-30227D01*
X25380Y-29998D02*
X25369Y-29987D01*
X25357Y-29964D01*
X25357Y-29907D01*
X25369Y-29884D01*
X25380Y-29873D01*
X25403Y-29861D01*
X25426Y-29861D01*
X25460Y-29873D01*
X25597Y-30010D01*
X25597Y-29861D01*
X27267Y-25907D02*
X27267Y-26101D01*
X27279Y-26124D01*
X27290Y-26136D01*
X27313Y-26147D01*
X27359Y-26147D01*
X27381Y-26136D01*
X27393Y-26124D01*
X27404Y-26101D01*
X27404Y-25907D01*
X27644Y-26147D02*
X27507Y-26147D01*
X27575Y-26147D02*
X27575Y-25907D01*
X27552Y-25941D01*
X27530Y-25964D01*
X27507Y-25976D01*
X23523Y-25497D02*
X23523Y-25257D01*
X23580Y-25257D01*
X23615Y-25269D01*
X23637Y-25291D01*
X23649Y-25314D01*
X23660Y-25360D01*
X23660Y-25394D01*
X23649Y-25440D01*
X23637Y-25463D01*
X23615Y-25486D01*
X23580Y-25497D01*
X23523Y-25497D01*
X23740Y-25257D02*
X23889Y-25257D01*
X23809Y-25349D01*
X23843Y-25349D01*
X23866Y-25360D01*
X23877Y-25371D01*
X23889Y-25394D01*
X23889Y-25451D01*
X23877Y-25474D01*
X23866Y-25486D01*
X23843Y-25497D01*
X23775Y-25497D01*
X23752Y-25486D01*
X23740Y-25474D01*
X25847Y-26440D02*
X25733Y-26520D01*
X25847Y-26577D02*
X25607Y-26577D01*
X25607Y-26485D01*
X25619Y-26463D01*
X25630Y-26451D01*
X25653Y-26440D01*
X25687Y-26440D01*
X25710Y-26451D01*
X25721Y-26463D01*
X25733Y-26485D01*
X25733Y-26577D01*
X25607Y-26360D02*
X25607Y-26211D01*
X25699Y-26291D01*
X25699Y-26257D01*
X25710Y-26234D01*
X25721Y-26223D01*
X25744Y-26211D01*
X25801Y-26211D01*
X25824Y-26223D01*
X25836Y-26234D01*
X25847Y-26257D01*
X25847Y-26325D01*
X25836Y-26348D01*
X25824Y-26360D01*
X25847Y-25640D02*
X25733Y-25720D01*
X25847Y-25777D02*
X25607Y-25777D01*
X25607Y-25685D01*
X25619Y-25663D01*
X25630Y-25651D01*
X25653Y-25640D01*
X25687Y-25640D01*
X25710Y-25651D01*
X25721Y-25663D01*
X25733Y-25685D01*
X25733Y-25777D01*
X25687Y-25434D02*
X25847Y-25434D01*
X25596Y-25491D02*
X25767Y-25548D01*
X25767Y-25400D01*
X30973Y-25447D02*
X30973Y-25207D01*
X31110Y-25447D02*
X31007Y-25310D01*
X31110Y-25207D02*
X30973Y-25344D01*
X31190Y-25207D02*
X31339Y-25207D01*
X31259Y-25299D01*
X31293Y-25299D01*
X31316Y-25310D01*
X31327Y-25321D01*
X31339Y-25344D01*
X31339Y-25401D01*
X31327Y-25424D01*
X31316Y-25436D01*
X31293Y-25447D01*
X31225Y-25447D01*
X31202Y-25436D01*
X31190Y-25424D01*
X27173Y-25547D02*
X27173Y-25307D01*
X27265Y-25307D01*
X27287Y-25319D01*
X27299Y-25330D01*
X27310Y-25353D01*
X27310Y-25387D01*
X27299Y-25410D01*
X27287Y-25421D01*
X27265Y-25433D01*
X27173Y-25433D01*
X27539Y-25547D02*
X27402Y-25547D01*
X27470Y-25547D02*
X27470Y-25307D01*
X27447Y-25341D01*
X27425Y-25364D01*
X27402Y-25376D01*
X30574Y-30240D02*
X30586Y-30251D01*
X30597Y-30285D01*
X30597Y-30308D01*
X30586Y-30343D01*
X30563Y-30365D01*
X30540Y-30377D01*
X30494Y-30388D01*
X30460Y-30388D01*
X30414Y-30377D01*
X30391Y-30365D01*
X30369Y-30343D01*
X30357Y-30308D01*
X30357Y-30285D01*
X30369Y-30251D01*
X30380Y-30240D01*
X30380Y-30148D02*
X30369Y-30137D01*
X30357Y-30114D01*
X30357Y-30057D01*
X30369Y-30034D01*
X30380Y-30023D01*
X30403Y-30011D01*
X30426Y-30011D01*
X30460Y-30023D01*
X30597Y-30160D01*
X30597Y-30011D01*
X27574Y-30190D02*
X27586Y-30201D01*
X27597Y-30235D01*
X27597Y-30258D01*
X27586Y-30293D01*
X27563Y-30315D01*
X27540Y-30327D01*
X27494Y-30338D01*
X27460Y-30338D01*
X27414Y-30327D01*
X27391Y-30315D01*
X27369Y-30293D01*
X27357Y-30258D01*
X27357Y-30235D01*
X27369Y-30201D01*
X27380Y-30190D01*
X27357Y-30110D02*
X27357Y-29961D01*
X27449Y-30041D01*
X27449Y-30007D01*
X27460Y-29984D01*
X27471Y-29973D01*
X27494Y-29961D01*
X27551Y-29961D01*
X27574Y-29973D01*
X27586Y-29984D01*
X27597Y-30007D01*
X27597Y-30075D01*
X27586Y-30098D01*
X27574Y-30110D01*
X27247Y-29340D02*
X27133Y-29420D01*
X27247Y-29477D02*
X27007Y-29477D01*
X27007Y-29385D01*
X27019Y-29363D01*
X27030Y-29351D01*
X27053Y-29340D01*
X27087Y-29340D01*
X27110Y-29351D01*
X27121Y-29363D01*
X27133Y-29385D01*
X27133Y-29477D01*
X27247Y-29111D02*
X27247Y-29248D01*
X27247Y-29180D02*
X27007Y-29180D01*
X27041Y-29203D01*
X27064Y-29225D01*
X27076Y-29248D01*
X27247Y-28540D02*
X27133Y-28620D01*
X27247Y-28677D02*
X27007Y-28677D01*
X27007Y-28585D01*
X27019Y-28563D01*
X27030Y-28551D01*
X27053Y-28540D01*
X27087Y-28540D01*
X27110Y-28551D01*
X27121Y-28563D01*
X27133Y-28585D01*
X27133Y-28677D01*
X27030Y-28448D02*
X27019Y-28437D01*
X27007Y-28414D01*
X27007Y-28357D01*
X27019Y-28334D01*
X27030Y-28323D01*
X27053Y-28311D01*
X27076Y-28311D01*
X27110Y-28323D01*
X27247Y-28460D01*
X27247Y-28311D01*
X23623Y-31447D02*
X23623Y-31207D01*
X23760Y-31447D02*
X23657Y-31310D01*
X23760Y-31207D02*
X23623Y-31344D01*
X23989Y-31447D02*
X23852Y-31447D01*
X23920Y-31447D02*
X23920Y-31207D01*
X23897Y-31241D01*
X23875Y-31264D01*
X23852Y-31276D01*
X30307Y-29545D02*
X30547Y-29385D01*
X30307Y-29385D02*
X30547Y-29545D01*
X30547Y-29167D02*
X30547Y-29304D01*
X30547Y-29236D02*
X30307Y-29236D01*
X30341Y-29259D01*
X30364Y-29281D01*
X30376Y-29304D01*
M02*
