G04 (created by PCBNEW-RS274X (2012-apr-16-27)-stable) date Tue 14 Jan 2014 09:47:31 PM CET*
G01*
G70*
G90*
%MOIN*%
G04 Gerber Fmt 3.4, Leading zero omitted, Abs format*
%FSLAX34Y34*%
G04 APERTURE LIST*
%ADD10C,0.006000*%
%ADD11R,0.080000X0.060000*%
%ADD12R,0.055000X0.035000*%
%ADD13R,0.035000X0.055000*%
%ADD14R,0.090600X0.090600*%
%ADD15R,0.053100X0.015700*%
%ADD16R,0.059100X0.082700*%
%ADD17R,0.074800X0.094500*%
%ADD18R,0.074800X0.070900*%
%ADD19R,0.031000X0.011000*%
%ADD20R,0.011000X0.031000*%
%ADD21R,0.078700X0.055100*%
%ADD22R,0.059100X0.035400*%
G04 APERTURE END LIST*
G54D10*
G54D11*
X38000Y-24600D03*
X38000Y-25900D03*
G54D12*
X43250Y-25625D03*
X43250Y-24875D03*
X39250Y-25625D03*
X39250Y-24875D03*
G54D13*
X38375Y-23750D03*
X37625Y-23750D03*
X38325Y-22500D03*
X37575Y-22500D03*
G54D12*
X39050Y-20825D03*
X39050Y-21575D03*
G54D14*
X42234Y-25250D03*
X40266Y-25250D03*
G54D15*
X36500Y-24250D03*
X36500Y-23994D03*
X36500Y-24506D03*
X36500Y-23738D03*
X36500Y-24762D03*
G54D16*
X36500Y-22990D03*
X36500Y-25510D03*
G54D17*
X35457Y-22754D03*
X35457Y-25746D03*
G54D18*
X35457Y-23797D03*
X35457Y-24703D03*
G54D19*
X39875Y-21765D03*
G54D20*
X40265Y-24125D03*
G54D10*
G36*
X42470Y-23680D02*
X42780Y-23680D01*
X42780Y-23790D01*
X42470Y-23790D01*
X42470Y-23680D01*
X42470Y-23680D01*
G37*
G54D20*
X42235Y-21375D03*
G54D19*
X39875Y-21962D03*
G54D20*
X40462Y-24125D03*
G54D10*
G36*
X42470Y-23483D02*
X42780Y-23483D01*
X42780Y-23593D01*
X42470Y-23593D01*
X42470Y-23483D01*
X42470Y-23483D01*
G37*
G54D20*
X42038Y-21375D03*
G54D19*
X39875Y-22159D03*
G54D20*
X40659Y-24125D03*
G54D10*
G36*
X42470Y-23286D02*
X42780Y-23286D01*
X42780Y-23396D01*
X42470Y-23396D01*
X42470Y-23286D01*
X42470Y-23286D01*
G37*
G54D20*
X41841Y-21375D03*
G54D19*
X39875Y-22356D03*
G54D20*
X40856Y-24125D03*
G54D10*
G36*
X42470Y-23089D02*
X42780Y-23089D01*
X42780Y-23199D01*
X42470Y-23199D01*
X42470Y-23089D01*
X42470Y-23089D01*
G37*
G54D20*
X41644Y-21375D03*
G54D19*
X39875Y-22553D03*
G54D20*
X41053Y-24125D03*
G54D10*
G36*
X42470Y-22892D02*
X42780Y-22892D01*
X42780Y-23002D01*
X42470Y-23002D01*
X42470Y-22892D01*
X42470Y-22892D01*
G37*
G54D20*
X41447Y-21375D03*
G54D19*
X39875Y-22750D03*
G54D20*
X41250Y-24125D03*
G54D10*
G36*
X42470Y-22695D02*
X42780Y-22695D01*
X42780Y-22805D01*
X42470Y-22805D01*
X42470Y-22695D01*
X42470Y-22695D01*
G37*
G54D20*
X41250Y-21375D03*
G54D19*
X39875Y-22947D03*
G54D20*
X41447Y-24125D03*
G54D10*
G36*
X42470Y-22498D02*
X42780Y-22498D01*
X42780Y-22608D01*
X42470Y-22608D01*
X42470Y-22498D01*
X42470Y-22498D01*
G37*
G54D20*
X41053Y-21375D03*
G54D19*
X39875Y-23144D03*
G54D20*
X41644Y-24125D03*
G54D10*
G36*
X42470Y-22301D02*
X42780Y-22301D01*
X42780Y-22411D01*
X42470Y-22411D01*
X42470Y-22301D01*
X42470Y-22301D01*
G37*
G54D20*
X40856Y-21375D03*
G54D19*
X39875Y-23341D03*
G54D20*
X41841Y-24125D03*
G54D10*
G36*
X42470Y-22104D02*
X42780Y-22104D01*
X42780Y-22214D01*
X42470Y-22214D01*
X42470Y-22104D01*
X42470Y-22104D01*
G37*
G54D20*
X40659Y-21375D03*
G54D19*
X39875Y-23538D03*
G54D20*
X42038Y-24125D03*
G54D10*
G36*
X42470Y-21907D02*
X42780Y-21907D01*
X42780Y-22017D01*
X42470Y-22017D01*
X42470Y-21907D01*
X42470Y-21907D01*
G37*
G54D20*
X40462Y-21375D03*
G54D19*
X39875Y-23735D03*
G54D20*
X42235Y-24125D03*
G54D10*
G36*
X42470Y-21710D02*
X42780Y-21710D01*
X42780Y-21820D01*
X42470Y-21820D01*
X42470Y-21710D01*
X42470Y-21710D01*
G37*
G54D20*
X40265Y-21375D03*
G54D13*
X41525Y-20700D03*
X42275Y-20700D03*
G54D21*
X37950Y-19800D03*
X37950Y-21400D03*
X35950Y-19800D03*
X35950Y-21400D03*
G54D22*
X45970Y-23400D03*
X45970Y-22100D03*
X44030Y-23400D03*
X44030Y-22100D03*
X55970Y-23400D03*
X55970Y-22100D03*
X54030Y-23400D03*
X54030Y-22100D03*
X65970Y-23400D03*
X65970Y-22100D03*
X64030Y-23400D03*
X64030Y-22100D03*
X75970Y-23400D03*
X75970Y-22100D03*
X74030Y-23400D03*
X74030Y-22100D03*
M02*
