G04 (created by PCBNEW-RS274X (2012-apr-16-27)-stable) date Tue 14 Jan 2014 09:47:31 PM CET*
G01*
G70*
G90*
%MOIN*%
G04 Gerber Fmt 3.4, Leading zero omitted, Abs format*
%FSLAX34Y34*%
G04 APERTURE LIST*
%ADD10C,0.006000*%
%ADD11C,0.015000*%
%ADD12C,0.005000*%
%ADD13C,0.010000*%
%ADD14C,0.007000*%
%ADD15C,0.008000*%
%ADD16C,0.004500*%
%ADD17C,0.005500*%
%ADD18C,0.012000*%
G04 APERTURE END LIST*
G54D10*
G54D11*
X35000Y-19250D02*
X35000Y-26250D01*
G54D12*
X38450Y-24250D02*
X38450Y-24150D01*
X38450Y-24150D02*
X37550Y-24150D01*
X37550Y-24150D02*
X37550Y-24250D01*
X38450Y-24250D02*
X37550Y-24250D01*
X37550Y-24250D02*
X37550Y-24900D01*
X38450Y-25600D02*
X38450Y-26250D01*
X38450Y-26250D02*
X37550Y-26250D01*
X37550Y-26250D02*
X37550Y-25600D01*
X38450Y-24900D02*
X38450Y-24250D01*
X43600Y-25900D02*
X43599Y-25909D01*
X43596Y-25919D01*
X43591Y-25927D01*
X43585Y-25935D01*
X43577Y-25941D01*
X43569Y-25946D01*
X43560Y-25948D01*
X43550Y-25949D01*
X43541Y-25949D01*
X43532Y-25946D01*
X43523Y-25941D01*
X43516Y-25935D01*
X43509Y-25928D01*
X43505Y-25919D01*
X43502Y-25910D01*
X43501Y-25900D01*
X43501Y-25891D01*
X43504Y-25882D01*
X43508Y-25873D01*
X43515Y-25866D01*
X43522Y-25859D01*
X43530Y-25855D01*
X43540Y-25852D01*
X43549Y-25851D01*
X43558Y-25851D01*
X43568Y-25854D01*
X43576Y-25858D01*
X43584Y-25864D01*
X43590Y-25872D01*
X43595Y-25880D01*
X43598Y-25889D01*
X43599Y-25899D01*
X43600Y-25900D01*
X43550Y-25450D02*
X43550Y-25850D01*
X43550Y-25850D02*
X42950Y-25850D01*
X42950Y-25850D02*
X42950Y-25450D01*
X42950Y-25050D02*
X42950Y-24650D01*
X42950Y-24650D02*
X43550Y-24650D01*
X43550Y-24650D02*
X43550Y-25050D01*
X39600Y-25900D02*
X39599Y-25909D01*
X39596Y-25919D01*
X39591Y-25927D01*
X39585Y-25935D01*
X39577Y-25941D01*
X39569Y-25946D01*
X39560Y-25948D01*
X39550Y-25949D01*
X39541Y-25949D01*
X39532Y-25946D01*
X39523Y-25941D01*
X39516Y-25935D01*
X39509Y-25928D01*
X39505Y-25919D01*
X39502Y-25910D01*
X39501Y-25900D01*
X39501Y-25891D01*
X39504Y-25882D01*
X39508Y-25873D01*
X39515Y-25866D01*
X39522Y-25859D01*
X39530Y-25855D01*
X39540Y-25852D01*
X39549Y-25851D01*
X39558Y-25851D01*
X39568Y-25854D01*
X39576Y-25858D01*
X39584Y-25864D01*
X39590Y-25872D01*
X39595Y-25880D01*
X39598Y-25889D01*
X39599Y-25899D01*
X39600Y-25900D01*
X39550Y-25450D02*
X39550Y-25850D01*
X39550Y-25850D02*
X38950Y-25850D01*
X38950Y-25850D02*
X38950Y-25450D01*
X38950Y-25050D02*
X38950Y-24650D01*
X38950Y-24650D02*
X39550Y-24650D01*
X39550Y-24650D02*
X39550Y-25050D01*
X38700Y-23450D02*
X38699Y-23459D01*
X38696Y-23469D01*
X38691Y-23477D01*
X38685Y-23485D01*
X38677Y-23491D01*
X38669Y-23496D01*
X38660Y-23498D01*
X38650Y-23499D01*
X38641Y-23499D01*
X38632Y-23496D01*
X38623Y-23491D01*
X38616Y-23485D01*
X38609Y-23478D01*
X38605Y-23469D01*
X38602Y-23460D01*
X38601Y-23450D01*
X38601Y-23441D01*
X38604Y-23432D01*
X38608Y-23423D01*
X38615Y-23416D01*
X38622Y-23409D01*
X38630Y-23405D01*
X38640Y-23402D01*
X38649Y-23401D01*
X38658Y-23401D01*
X38668Y-23404D01*
X38676Y-23408D01*
X38684Y-23414D01*
X38690Y-23422D01*
X38695Y-23430D01*
X38698Y-23439D01*
X38699Y-23449D01*
X38700Y-23450D01*
X38200Y-23450D02*
X38600Y-23450D01*
X38600Y-23450D02*
X38600Y-24050D01*
X38600Y-24050D02*
X38200Y-24050D01*
X37800Y-24050D02*
X37400Y-24050D01*
X37400Y-24050D02*
X37400Y-23450D01*
X37400Y-23450D02*
X37800Y-23450D01*
X38650Y-22200D02*
X38649Y-22209D01*
X38646Y-22219D01*
X38641Y-22227D01*
X38635Y-22235D01*
X38627Y-22241D01*
X38619Y-22246D01*
X38610Y-22248D01*
X38600Y-22249D01*
X38591Y-22249D01*
X38582Y-22246D01*
X38573Y-22241D01*
X38566Y-22235D01*
X38559Y-22228D01*
X38555Y-22219D01*
X38552Y-22210D01*
X38551Y-22200D01*
X38551Y-22191D01*
X38554Y-22182D01*
X38558Y-22173D01*
X38565Y-22166D01*
X38572Y-22159D01*
X38580Y-22155D01*
X38590Y-22152D01*
X38599Y-22151D01*
X38608Y-22151D01*
X38618Y-22154D01*
X38626Y-22158D01*
X38634Y-22164D01*
X38640Y-22172D01*
X38645Y-22180D01*
X38648Y-22189D01*
X38649Y-22199D01*
X38650Y-22200D01*
X38150Y-22200D02*
X38550Y-22200D01*
X38550Y-22200D02*
X38550Y-22800D01*
X38550Y-22800D02*
X38150Y-22800D01*
X37750Y-22800D02*
X37350Y-22800D01*
X37350Y-22800D02*
X37350Y-22200D01*
X37350Y-22200D02*
X37750Y-22200D01*
X38800Y-20550D02*
X38799Y-20559D01*
X38796Y-20569D01*
X38791Y-20577D01*
X38785Y-20585D01*
X38777Y-20591D01*
X38769Y-20596D01*
X38760Y-20598D01*
X38750Y-20599D01*
X38741Y-20599D01*
X38732Y-20596D01*
X38723Y-20591D01*
X38716Y-20585D01*
X38709Y-20578D01*
X38705Y-20569D01*
X38702Y-20560D01*
X38701Y-20550D01*
X38701Y-20541D01*
X38704Y-20532D01*
X38708Y-20523D01*
X38715Y-20516D01*
X38722Y-20509D01*
X38730Y-20505D01*
X38740Y-20502D01*
X38749Y-20501D01*
X38758Y-20501D01*
X38768Y-20504D01*
X38776Y-20508D01*
X38784Y-20514D01*
X38790Y-20522D01*
X38795Y-20530D01*
X38798Y-20539D01*
X38799Y-20549D01*
X38800Y-20550D01*
X38750Y-21000D02*
X38750Y-20600D01*
X38750Y-20600D02*
X39350Y-20600D01*
X39350Y-20600D02*
X39350Y-21000D01*
X39350Y-21400D02*
X39350Y-21800D01*
X39350Y-21800D02*
X38750Y-21800D01*
X38750Y-21800D02*
X38750Y-21400D01*
G54D13*
X78000Y-20750D02*
X78000Y-24750D01*
X77000Y-20750D02*
X77000Y-24750D01*
X77000Y-24750D02*
X78000Y-24750D01*
X78000Y-20750D02*
X77000Y-20750D01*
G54D14*
X42431Y-24581D02*
X42431Y-24738D01*
X40069Y-24581D02*
X42431Y-24581D01*
X40069Y-24581D02*
X40069Y-24738D01*
X40069Y-25919D02*
X40069Y-25762D01*
X42431Y-25919D02*
X40069Y-25919D01*
X42431Y-25919D02*
X42431Y-25762D01*
X36657Y-25077D02*
X36657Y-24880D01*
X36657Y-23423D02*
X36657Y-23620D01*
X35870Y-22754D02*
X36185Y-22754D01*
X35870Y-25746D02*
X36185Y-25746D01*
X34886Y-22754D02*
X34886Y-25746D01*
X34886Y-25746D02*
X35043Y-25746D01*
X34886Y-22754D02*
X35043Y-22754D01*
X40020Y-21490D02*
X40018Y-21503D01*
X40014Y-21516D01*
X40008Y-21528D01*
X39999Y-21539D01*
X39989Y-21548D01*
X39977Y-21554D01*
X39964Y-21558D01*
X39950Y-21559D01*
X39937Y-21558D01*
X39924Y-21554D01*
X39912Y-21548D01*
X39902Y-21540D01*
X39893Y-21529D01*
X39886Y-21517D01*
X39882Y-21504D01*
X39881Y-21490D01*
X39882Y-21478D01*
X39885Y-21465D01*
X39892Y-21453D01*
X39900Y-21442D01*
X39911Y-21433D01*
X39922Y-21426D01*
X39935Y-21422D01*
X39949Y-21421D01*
X39962Y-21422D01*
X39975Y-21425D01*
X39987Y-21431D01*
X39998Y-21440D01*
X40007Y-21450D01*
X40013Y-21462D01*
X40018Y-21475D01*
X40019Y-21489D01*
X40020Y-21490D01*
X39872Y-21687D02*
X40167Y-21372D01*
X40167Y-24128D02*
X39872Y-24128D01*
X39872Y-24128D02*
X39872Y-23813D01*
X42628Y-23813D02*
X42628Y-24128D01*
X42628Y-24128D02*
X42313Y-24128D01*
X42628Y-21372D02*
X42628Y-21667D01*
X42313Y-21372D02*
X42628Y-21372D01*
G54D12*
X41300Y-21000D02*
X41299Y-21009D01*
X41296Y-21019D01*
X41291Y-21027D01*
X41285Y-21035D01*
X41277Y-21041D01*
X41269Y-21046D01*
X41260Y-21048D01*
X41250Y-21049D01*
X41241Y-21049D01*
X41232Y-21046D01*
X41223Y-21041D01*
X41216Y-21035D01*
X41209Y-21028D01*
X41205Y-21019D01*
X41202Y-21010D01*
X41201Y-21000D01*
X41201Y-20991D01*
X41204Y-20982D01*
X41208Y-20973D01*
X41215Y-20966D01*
X41222Y-20959D01*
X41230Y-20955D01*
X41240Y-20952D01*
X41249Y-20951D01*
X41258Y-20951D01*
X41268Y-20954D01*
X41276Y-20958D01*
X41284Y-20964D01*
X41290Y-20972D01*
X41295Y-20980D01*
X41298Y-20989D01*
X41299Y-20999D01*
X41300Y-21000D01*
X41700Y-21000D02*
X41300Y-21000D01*
X41300Y-21000D02*
X41300Y-20400D01*
X41300Y-20400D02*
X41700Y-20400D01*
X42100Y-20400D02*
X42500Y-20400D01*
X42500Y-20400D02*
X42500Y-21000D01*
X42500Y-21000D02*
X42100Y-21000D01*
G54D14*
X36068Y-21776D02*
X35676Y-21776D01*
X38224Y-21776D02*
X37832Y-21776D01*
X35676Y-19424D02*
X36068Y-19424D01*
X38224Y-19424D02*
X37832Y-19424D01*
X35676Y-20110D02*
X35676Y-21090D01*
X38224Y-21090D02*
X38224Y-20110D01*
G54D15*
X37406Y-20600D02*
X37397Y-20688D01*
X37371Y-20773D01*
X37329Y-20852D01*
X37273Y-20921D01*
X37204Y-20978D01*
X37126Y-21020D01*
X37041Y-21046D01*
X36953Y-21055D01*
X36865Y-21047D01*
X36780Y-21022D01*
X36701Y-20981D01*
X36631Y-20925D01*
X36574Y-20857D01*
X36531Y-20779D01*
X36504Y-20694D01*
X36495Y-20606D01*
X36502Y-20518D01*
X36527Y-20433D01*
X36567Y-20353D01*
X36622Y-20284D01*
X36690Y-20226D01*
X36768Y-20183D01*
X36853Y-20155D01*
X36941Y-20145D01*
X37029Y-20151D01*
X37114Y-20175D01*
X37194Y-20215D01*
X37264Y-20270D01*
X37322Y-20338D01*
X37366Y-20415D01*
X37394Y-20499D01*
X37405Y-20588D01*
X37406Y-20600D01*
G54D12*
X37200Y-25343D02*
X37186Y-25357D01*
X37143Y-25371D01*
X37114Y-25371D01*
X37071Y-25357D01*
X37043Y-25329D01*
X37028Y-25300D01*
X37014Y-25243D01*
X37014Y-25200D01*
X37028Y-25143D01*
X37043Y-25114D01*
X37071Y-25086D01*
X37114Y-25071D01*
X37143Y-25071D01*
X37186Y-25086D01*
X37200Y-25100D01*
X37486Y-25371D02*
X37314Y-25371D01*
X37400Y-25371D02*
X37400Y-25071D01*
X37371Y-25114D01*
X37343Y-25143D01*
X37314Y-25157D01*
X43208Y-24477D02*
X43196Y-24489D01*
X43161Y-24501D01*
X43137Y-24501D01*
X43101Y-24489D01*
X43077Y-24465D01*
X43066Y-24442D01*
X43054Y-24394D01*
X43054Y-24358D01*
X43066Y-24311D01*
X43077Y-24287D01*
X43101Y-24263D01*
X43137Y-24251D01*
X43161Y-24251D01*
X43196Y-24263D01*
X43208Y-24275D01*
X43304Y-24275D02*
X43316Y-24263D01*
X43339Y-24251D01*
X43399Y-24251D01*
X43423Y-24263D01*
X43435Y-24275D01*
X43446Y-24299D01*
X43446Y-24323D01*
X43435Y-24358D01*
X43292Y-24501D01*
X43446Y-24501D01*
X39208Y-24477D02*
X39196Y-24489D01*
X39161Y-24501D01*
X39137Y-24501D01*
X39101Y-24489D01*
X39077Y-24465D01*
X39066Y-24442D01*
X39054Y-24394D01*
X39054Y-24358D01*
X39066Y-24311D01*
X39077Y-24287D01*
X39101Y-24263D01*
X39137Y-24251D01*
X39161Y-24251D01*
X39196Y-24263D01*
X39208Y-24275D01*
X39292Y-24251D02*
X39446Y-24251D01*
X39363Y-24346D01*
X39399Y-24346D01*
X39423Y-24358D01*
X39435Y-24370D01*
X39446Y-24394D01*
X39446Y-24454D01*
X39435Y-24477D01*
X39423Y-24489D01*
X39399Y-24501D01*
X39327Y-24501D01*
X39304Y-24489D01*
X39292Y-24477D01*
X38908Y-23851D02*
X38825Y-23732D01*
X38766Y-23851D02*
X38766Y-23601D01*
X38861Y-23601D01*
X38885Y-23613D01*
X38896Y-23625D01*
X38908Y-23649D01*
X38908Y-23685D01*
X38896Y-23708D01*
X38885Y-23720D01*
X38861Y-23732D01*
X38766Y-23732D01*
X39146Y-23851D02*
X39004Y-23851D01*
X39075Y-23851D02*
X39075Y-23601D01*
X39051Y-23637D01*
X39027Y-23661D01*
X39004Y-23673D01*
X38858Y-22601D02*
X38775Y-22482D01*
X38716Y-22601D02*
X38716Y-22351D01*
X38811Y-22351D01*
X38835Y-22363D01*
X38846Y-22375D01*
X38858Y-22399D01*
X38858Y-22435D01*
X38846Y-22458D01*
X38835Y-22470D01*
X38811Y-22482D01*
X38716Y-22482D01*
X38954Y-22375D02*
X38966Y-22363D01*
X38989Y-22351D01*
X39049Y-22351D01*
X39073Y-22363D01*
X39085Y-22375D01*
X39096Y-22399D01*
X39096Y-22423D01*
X39085Y-22458D01*
X38942Y-22601D01*
X39096Y-22601D01*
X39008Y-20401D02*
X38925Y-20282D01*
X38866Y-20401D02*
X38866Y-20151D01*
X38961Y-20151D01*
X38985Y-20163D01*
X38996Y-20175D01*
X39008Y-20199D01*
X39008Y-20235D01*
X38996Y-20258D01*
X38985Y-20270D01*
X38961Y-20282D01*
X38866Y-20282D01*
X39092Y-20151D02*
X39246Y-20151D01*
X39163Y-20246D01*
X39199Y-20246D01*
X39223Y-20258D01*
X39235Y-20270D01*
X39246Y-20294D01*
X39246Y-20354D01*
X39235Y-20377D01*
X39223Y-20389D01*
X39199Y-20401D01*
X39127Y-20401D01*
X39104Y-20389D01*
X39092Y-20377D01*
G54D15*
X77662Y-20495D02*
X77262Y-20495D01*
X77262Y-20342D01*
X77281Y-20304D01*
X77300Y-20285D01*
X77338Y-20266D01*
X77395Y-20266D01*
X77433Y-20285D01*
X77452Y-20304D01*
X77471Y-20342D01*
X77471Y-20495D01*
X77662Y-19885D02*
X77662Y-20114D01*
X77662Y-20000D02*
X77262Y-20000D01*
X77319Y-20038D01*
X77357Y-20076D01*
X77376Y-20114D01*
G54D14*
X41404Y-28737D02*
X41390Y-28750D01*
X41350Y-28763D01*
X41324Y-28763D01*
X41284Y-28750D01*
X41257Y-28723D01*
X41244Y-28697D01*
X41230Y-28643D01*
X41230Y-28603D01*
X41244Y-28550D01*
X41257Y-28523D01*
X41284Y-28497D01*
X41324Y-28483D01*
X41350Y-28483D01*
X41390Y-28497D01*
X41404Y-28510D01*
X41684Y-28763D02*
X41590Y-28630D01*
X41524Y-28763D02*
X41524Y-28483D01*
X41630Y-28483D01*
X41657Y-28497D01*
X41670Y-28510D01*
X41684Y-28537D01*
X41684Y-28577D01*
X41670Y-28603D01*
X41657Y-28617D01*
X41630Y-28630D01*
X41524Y-28630D01*
X41857Y-28630D02*
X41857Y-28763D01*
X41764Y-28483D02*
X41857Y-28630D01*
X41950Y-28483D01*
X42030Y-28750D02*
X42070Y-28763D01*
X42137Y-28763D01*
X42164Y-28750D01*
X42177Y-28737D01*
X42190Y-28710D01*
X42190Y-28683D01*
X42177Y-28657D01*
X42164Y-28643D01*
X42137Y-28630D01*
X42084Y-28617D01*
X42057Y-28603D01*
X42044Y-28590D01*
X42030Y-28563D01*
X42030Y-28537D01*
X42044Y-28510D01*
X42057Y-28497D01*
X42084Y-28483D01*
X42150Y-28483D01*
X42190Y-28497D01*
X42271Y-28483D02*
X42431Y-28483D01*
X42351Y-28763D02*
X42351Y-28483D01*
X42510Y-28683D02*
X42644Y-28683D01*
X42484Y-28763D02*
X42577Y-28483D01*
X42670Y-28763D01*
X42897Y-28763D02*
X42764Y-28763D01*
X42764Y-28483D01*
G54D10*
X36617Y-22157D02*
X36617Y-22351D01*
X36629Y-22374D01*
X36640Y-22386D01*
X36663Y-22397D01*
X36709Y-22397D01*
X36731Y-22386D01*
X36743Y-22374D01*
X36754Y-22351D01*
X36754Y-22157D01*
X36994Y-22397D02*
X36857Y-22397D01*
X36925Y-22397D02*
X36925Y-22157D01*
X36902Y-22191D01*
X36880Y-22214D01*
X36857Y-22226D01*
X34247Y-24072D02*
X34007Y-24072D01*
X34179Y-23992D01*
X34007Y-23912D01*
X34247Y-23912D01*
X34247Y-23798D02*
X34007Y-23798D01*
X34224Y-23547D02*
X34236Y-23558D01*
X34247Y-23592D01*
X34247Y-23615D01*
X34236Y-23650D01*
X34213Y-23672D01*
X34190Y-23684D01*
X34144Y-23695D01*
X34110Y-23695D01*
X34064Y-23684D01*
X34041Y-23672D01*
X34019Y-23650D01*
X34007Y-23615D01*
X34007Y-23592D01*
X34019Y-23558D01*
X34030Y-23547D01*
X34247Y-23307D02*
X34133Y-23387D01*
X34247Y-23444D02*
X34007Y-23444D01*
X34007Y-23352D01*
X34019Y-23330D01*
X34030Y-23318D01*
X34053Y-23307D01*
X34087Y-23307D01*
X34110Y-23318D01*
X34121Y-23330D01*
X34133Y-23352D01*
X34133Y-23444D01*
X34007Y-23158D02*
X34007Y-23112D01*
X34019Y-23090D01*
X34041Y-23067D01*
X34087Y-23055D01*
X34167Y-23055D01*
X34213Y-23067D01*
X34236Y-23090D01*
X34247Y-23112D01*
X34247Y-23158D01*
X34236Y-23181D01*
X34213Y-23204D01*
X34167Y-23215D01*
X34087Y-23215D01*
X34041Y-23204D01*
X34019Y-23181D01*
X34007Y-23158D01*
X34156Y-22953D02*
X34156Y-22770D01*
X34121Y-22576D02*
X34133Y-22542D01*
X34144Y-22530D01*
X34167Y-22519D01*
X34201Y-22519D01*
X34224Y-22530D01*
X34236Y-22542D01*
X34247Y-22564D01*
X34247Y-22656D01*
X34007Y-22656D01*
X34007Y-22576D01*
X34019Y-22553D01*
X34030Y-22542D01*
X34053Y-22530D01*
X34076Y-22530D01*
X34099Y-22542D01*
X34110Y-22553D01*
X34121Y-22576D01*
X34121Y-22656D01*
X34270Y-22473D02*
X34270Y-22290D01*
X34007Y-22233D02*
X34201Y-22233D01*
X34224Y-22221D01*
X34236Y-22210D01*
X34247Y-22187D01*
X34247Y-22141D01*
X34236Y-22119D01*
X34224Y-22107D01*
X34201Y-22096D01*
X34007Y-22096D01*
X34236Y-21993D02*
X34247Y-21959D01*
X34247Y-21902D01*
X34236Y-21879D01*
X34224Y-21868D01*
X34201Y-21856D01*
X34179Y-21856D01*
X34156Y-21868D01*
X34144Y-21879D01*
X34133Y-21902D01*
X34121Y-21948D01*
X34110Y-21970D01*
X34099Y-21982D01*
X34076Y-21993D01*
X34053Y-21993D01*
X34030Y-21982D01*
X34019Y-21970D01*
X34007Y-21948D01*
X34007Y-21890D01*
X34019Y-21856D01*
X34121Y-21673D02*
X34133Y-21639D01*
X34144Y-21627D01*
X34167Y-21616D01*
X34201Y-21616D01*
X34224Y-21627D01*
X34236Y-21639D01*
X34247Y-21661D01*
X34247Y-21753D01*
X34007Y-21753D01*
X34007Y-21673D01*
X34019Y-21650D01*
X34030Y-21639D01*
X34053Y-21627D01*
X34076Y-21627D01*
X34099Y-21639D01*
X34110Y-21650D01*
X34121Y-21673D01*
X34121Y-21753D01*
G54D16*
X41075Y-21997D02*
X41075Y-21757D01*
X41264Y-21974D02*
X41255Y-21986D01*
X41229Y-21997D01*
X41212Y-21997D01*
X41187Y-21986D01*
X41169Y-21963D01*
X41161Y-21940D01*
X41152Y-21894D01*
X41152Y-21860D01*
X41161Y-21814D01*
X41169Y-21791D01*
X41187Y-21769D01*
X41212Y-21757D01*
X41229Y-21757D01*
X41255Y-21769D01*
X41264Y-21780D01*
X41435Y-21997D02*
X41332Y-21997D01*
X41384Y-21997D02*
X41384Y-21757D01*
X41367Y-21791D01*
X41349Y-21814D01*
X41332Y-21826D01*
G54D12*
X41858Y-20201D02*
X41775Y-20082D01*
X41716Y-20201D02*
X41716Y-19951D01*
X41811Y-19951D01*
X41835Y-19963D01*
X41846Y-19975D01*
X41858Y-19999D01*
X41858Y-20035D01*
X41846Y-20058D01*
X41835Y-20070D01*
X41811Y-20082D01*
X41716Y-20082D01*
X42073Y-20035D02*
X42073Y-20201D01*
X42013Y-19939D02*
X41954Y-20118D01*
X42108Y-20118D01*
G54D17*
X32983Y-20743D02*
X33014Y-20755D01*
X33067Y-20755D01*
X33088Y-20743D01*
X33098Y-20730D01*
X33109Y-20706D01*
X33109Y-20681D01*
X33098Y-20656D01*
X33088Y-20644D01*
X33067Y-20631D01*
X33025Y-20619D01*
X33004Y-20607D01*
X32993Y-20594D01*
X32983Y-20570D01*
X32983Y-20545D01*
X32993Y-20520D01*
X33004Y-20508D01*
X33025Y-20495D01*
X33077Y-20495D01*
X33109Y-20508D01*
X33182Y-20495D02*
X33235Y-20755D01*
X33277Y-20570D01*
X33319Y-20755D01*
X33371Y-20495D01*
X33402Y-20780D02*
X33570Y-20780D01*
X33622Y-20755D02*
X33622Y-20495D01*
X33706Y-20495D01*
X33727Y-20508D01*
X33738Y-20520D01*
X33748Y-20545D01*
X33748Y-20582D01*
X33738Y-20607D01*
X33727Y-20619D01*
X33706Y-20631D01*
X33622Y-20631D01*
X33842Y-20495D02*
X33842Y-20706D01*
X33853Y-20730D01*
X33863Y-20743D01*
X33884Y-20755D01*
X33926Y-20755D01*
X33947Y-20743D01*
X33958Y-20730D01*
X33968Y-20706D01*
X33968Y-20495D01*
X34062Y-20743D02*
X34093Y-20755D01*
X34146Y-20755D01*
X34167Y-20743D01*
X34177Y-20730D01*
X34188Y-20706D01*
X34188Y-20681D01*
X34177Y-20656D01*
X34167Y-20644D01*
X34146Y-20631D01*
X34104Y-20619D01*
X34083Y-20607D01*
X34072Y-20594D01*
X34062Y-20570D01*
X34062Y-20545D01*
X34072Y-20520D01*
X34083Y-20508D01*
X34104Y-20495D01*
X34156Y-20495D01*
X34188Y-20508D01*
X34282Y-20755D02*
X34282Y-20495D01*
X34282Y-20619D02*
X34408Y-20619D01*
X34408Y-20755D02*
X34408Y-20495D01*
G54D18*
X44829Y-29543D02*
X44543Y-29543D01*
X44543Y-28943D01*
X45029Y-29229D02*
X45229Y-29229D01*
X45315Y-29543D02*
X45029Y-29543D01*
X45029Y-28943D01*
X45315Y-28943D01*
X45572Y-29543D02*
X45572Y-28943D01*
X45715Y-28943D01*
X45800Y-28971D01*
X45858Y-29029D01*
X45886Y-29086D01*
X45915Y-29200D01*
X45915Y-29286D01*
X45886Y-29400D01*
X45858Y-29457D01*
X45800Y-29514D01*
X45715Y-29543D01*
X45572Y-29543D01*
X46486Y-29543D02*
X46143Y-29543D01*
X46315Y-29543D02*
X46315Y-28943D01*
X46258Y-29029D01*
X46200Y-29086D01*
X46143Y-29114D01*
X38873Y-18643D02*
X38873Y-18043D01*
X39073Y-18471D01*
X39273Y-18043D01*
X39273Y-18643D01*
X39530Y-18471D02*
X39816Y-18471D01*
X39473Y-18643D02*
X39673Y-18043D01*
X39873Y-18643D01*
X40073Y-18643D02*
X40073Y-18043D01*
X40216Y-18043D01*
X40301Y-18071D01*
X40359Y-18129D01*
X40387Y-18186D01*
X40416Y-18300D01*
X40416Y-18386D01*
X40387Y-18500D01*
X40359Y-18557D01*
X40301Y-18614D01*
X40216Y-18643D01*
X40073Y-18643D01*
X40616Y-18043D02*
X40759Y-18643D01*
X40873Y-18214D01*
X40987Y-18643D01*
X41130Y-18043D01*
X41216Y-18700D02*
X41673Y-18700D01*
X41673Y-18700D02*
X42130Y-18700D01*
X42216Y-18043D02*
X42359Y-18643D01*
X42473Y-18214D01*
X42587Y-18643D01*
X42730Y-18043D01*
X42930Y-18614D02*
X43016Y-18643D01*
X43159Y-18643D01*
X43216Y-18614D01*
X43245Y-18586D01*
X43273Y-18529D01*
X43273Y-18471D01*
X43245Y-18414D01*
X43216Y-18386D01*
X43159Y-18357D01*
X43045Y-18329D01*
X42987Y-18300D01*
X42959Y-18271D01*
X42930Y-18214D01*
X42930Y-18157D01*
X42959Y-18100D01*
X42987Y-18071D01*
X43045Y-18043D01*
X43187Y-18043D01*
X43273Y-18071D01*
X43501Y-18100D02*
X43530Y-18071D01*
X43587Y-18043D01*
X43730Y-18043D01*
X43787Y-18071D01*
X43816Y-18100D01*
X43844Y-18157D01*
X43844Y-18214D01*
X43816Y-18300D01*
X43473Y-18643D01*
X43844Y-18643D01*
X44187Y-18300D02*
X44129Y-18271D01*
X44101Y-18243D01*
X44072Y-18186D01*
X44072Y-18157D01*
X44101Y-18100D01*
X44129Y-18071D01*
X44187Y-18043D01*
X44301Y-18043D01*
X44358Y-18071D01*
X44387Y-18100D01*
X44415Y-18157D01*
X44415Y-18186D01*
X44387Y-18243D01*
X44358Y-18271D01*
X44301Y-18300D01*
X44187Y-18300D01*
X44129Y-18329D01*
X44101Y-18357D01*
X44072Y-18414D01*
X44072Y-18529D01*
X44101Y-18586D01*
X44129Y-18614D01*
X44187Y-18643D01*
X44301Y-18643D01*
X44358Y-18614D01*
X44387Y-18586D01*
X44415Y-18529D01*
X44415Y-18414D01*
X44387Y-18357D01*
X44358Y-18329D01*
X44301Y-18300D01*
X44986Y-18643D02*
X44643Y-18643D01*
X44815Y-18643D02*
X44815Y-18043D01*
X44758Y-18129D01*
X44700Y-18186D01*
X44643Y-18214D01*
X45214Y-18100D02*
X45243Y-18071D01*
X45300Y-18043D01*
X45443Y-18043D01*
X45500Y-18071D01*
X45529Y-18100D01*
X45557Y-18157D01*
X45557Y-18214D01*
X45529Y-18300D01*
X45186Y-18643D01*
X45557Y-18643D01*
X46014Y-18329D02*
X46100Y-18357D01*
X46128Y-18386D01*
X46157Y-18443D01*
X46157Y-18529D01*
X46128Y-18586D01*
X46100Y-18614D01*
X46042Y-18643D01*
X45814Y-18643D01*
X45814Y-18043D01*
X46014Y-18043D01*
X46071Y-18071D01*
X46100Y-18100D01*
X46128Y-18157D01*
X46128Y-18214D01*
X46100Y-18271D01*
X46071Y-18300D01*
X46014Y-18329D01*
X45814Y-18329D01*
X54229Y-29243D02*
X53943Y-29243D01*
X53943Y-28643D01*
X54429Y-28929D02*
X54629Y-28929D01*
X54715Y-29243D02*
X54429Y-29243D01*
X54429Y-28643D01*
X54715Y-28643D01*
X54972Y-29243D02*
X54972Y-28643D01*
X55115Y-28643D01*
X55200Y-28671D01*
X55258Y-28729D01*
X55286Y-28786D01*
X55315Y-28900D01*
X55315Y-28986D01*
X55286Y-29100D01*
X55258Y-29157D01*
X55200Y-29214D01*
X55115Y-29243D01*
X54972Y-29243D01*
X55543Y-28700D02*
X55572Y-28671D01*
X55629Y-28643D01*
X55772Y-28643D01*
X55829Y-28671D01*
X55858Y-28700D01*
X55886Y-28757D01*
X55886Y-28814D01*
X55858Y-28900D01*
X55515Y-29243D01*
X55886Y-29243D01*
X51023Y-30393D02*
X51023Y-29793D01*
X51223Y-30221D01*
X51423Y-29793D01*
X51423Y-30393D01*
X51680Y-30221D02*
X51966Y-30221D01*
X51623Y-30393D02*
X51823Y-29793D01*
X52023Y-30393D01*
X52223Y-30393D02*
X52223Y-29793D01*
X52366Y-29793D01*
X52451Y-29821D01*
X52509Y-29879D01*
X52537Y-29936D01*
X52566Y-30050D01*
X52566Y-30136D01*
X52537Y-30250D01*
X52509Y-30307D01*
X52451Y-30364D01*
X52366Y-30393D01*
X52223Y-30393D01*
X52766Y-29793D02*
X52909Y-30393D01*
X53023Y-29964D01*
X53137Y-30393D01*
X53280Y-29793D01*
X53366Y-30450D02*
X53823Y-30450D01*
X53823Y-30450D02*
X54280Y-30450D01*
X54366Y-29793D02*
X54509Y-30393D01*
X54623Y-29964D01*
X54737Y-30393D01*
X54880Y-29793D01*
X55080Y-30364D02*
X55166Y-30393D01*
X55309Y-30393D01*
X55366Y-30364D01*
X55395Y-30336D01*
X55423Y-30279D01*
X55423Y-30221D01*
X55395Y-30164D01*
X55366Y-30136D01*
X55309Y-30107D01*
X55195Y-30079D01*
X55137Y-30050D01*
X55109Y-30021D01*
X55080Y-29964D01*
X55080Y-29907D01*
X55109Y-29850D01*
X55137Y-29821D01*
X55195Y-29793D01*
X55337Y-29793D01*
X55423Y-29821D01*
X55651Y-29850D02*
X55680Y-29821D01*
X55737Y-29793D01*
X55880Y-29793D01*
X55937Y-29821D01*
X55966Y-29850D01*
X55994Y-29907D01*
X55994Y-29964D01*
X55966Y-30050D01*
X55623Y-30393D01*
X55994Y-30393D01*
X56337Y-30050D02*
X56279Y-30021D01*
X56251Y-29993D01*
X56222Y-29936D01*
X56222Y-29907D01*
X56251Y-29850D01*
X56279Y-29821D01*
X56337Y-29793D01*
X56451Y-29793D01*
X56508Y-29821D01*
X56537Y-29850D01*
X56565Y-29907D01*
X56565Y-29936D01*
X56537Y-29993D01*
X56508Y-30021D01*
X56451Y-30050D01*
X56337Y-30050D01*
X56279Y-30079D01*
X56251Y-30107D01*
X56222Y-30164D01*
X56222Y-30279D01*
X56251Y-30336D01*
X56279Y-30364D01*
X56337Y-30393D01*
X56451Y-30393D01*
X56508Y-30364D01*
X56537Y-30336D01*
X56565Y-30279D01*
X56565Y-30164D01*
X56537Y-30107D01*
X56508Y-30079D01*
X56451Y-30050D01*
X57136Y-30393D02*
X56793Y-30393D01*
X56965Y-30393D02*
X56965Y-29793D01*
X56908Y-29879D01*
X56850Y-29936D01*
X56793Y-29964D01*
X57364Y-29850D02*
X57393Y-29821D01*
X57450Y-29793D01*
X57593Y-29793D01*
X57650Y-29821D01*
X57679Y-29850D01*
X57707Y-29907D01*
X57707Y-29964D01*
X57679Y-30050D01*
X57336Y-30393D01*
X57707Y-30393D01*
X58164Y-30079D02*
X58250Y-30107D01*
X58278Y-30136D01*
X58307Y-30193D01*
X58307Y-30279D01*
X58278Y-30336D01*
X58250Y-30364D01*
X58192Y-30393D01*
X57964Y-30393D01*
X57964Y-29793D01*
X58164Y-29793D01*
X58221Y-29821D01*
X58250Y-29850D01*
X58278Y-29907D01*
X58278Y-29964D01*
X58250Y-30021D01*
X58221Y-30050D01*
X58164Y-30079D01*
X57964Y-30079D01*
X66129Y-17643D02*
X65843Y-17643D01*
X65843Y-17043D01*
X66329Y-17329D02*
X66529Y-17329D01*
X66615Y-17643D02*
X66329Y-17643D01*
X66329Y-17043D01*
X66615Y-17043D01*
X66872Y-17643D02*
X66872Y-17043D01*
X67015Y-17043D01*
X67100Y-17071D01*
X67158Y-17129D01*
X67186Y-17186D01*
X67215Y-17300D01*
X67215Y-17386D01*
X67186Y-17500D01*
X67158Y-17557D01*
X67100Y-17614D01*
X67015Y-17643D01*
X66872Y-17643D01*
X67415Y-17043D02*
X67786Y-17043D01*
X67586Y-17271D01*
X67672Y-17271D01*
X67729Y-17300D01*
X67758Y-17329D01*
X67786Y-17386D01*
X67786Y-17529D01*
X67758Y-17586D01*
X67729Y-17614D01*
X67672Y-17643D01*
X67500Y-17643D01*
X67443Y-17614D01*
X67415Y-17586D01*
X61723Y-17343D02*
X61723Y-16743D01*
X61923Y-17171D01*
X62123Y-16743D01*
X62123Y-17343D01*
X62380Y-17171D02*
X62666Y-17171D01*
X62323Y-17343D02*
X62523Y-16743D01*
X62723Y-17343D01*
X62923Y-17343D02*
X62923Y-16743D01*
X63066Y-16743D01*
X63151Y-16771D01*
X63209Y-16829D01*
X63237Y-16886D01*
X63266Y-17000D01*
X63266Y-17086D01*
X63237Y-17200D01*
X63209Y-17257D01*
X63151Y-17314D01*
X63066Y-17343D01*
X62923Y-17343D01*
X63466Y-16743D02*
X63609Y-17343D01*
X63723Y-16914D01*
X63837Y-17343D01*
X63980Y-16743D01*
X64066Y-17400D02*
X64523Y-17400D01*
X64523Y-17400D02*
X64980Y-17400D01*
X65066Y-16743D02*
X65209Y-17343D01*
X65323Y-16914D01*
X65437Y-17343D01*
X65580Y-16743D01*
X65780Y-17314D02*
X65866Y-17343D01*
X66009Y-17343D01*
X66066Y-17314D01*
X66095Y-17286D01*
X66123Y-17229D01*
X66123Y-17171D01*
X66095Y-17114D01*
X66066Y-17086D01*
X66009Y-17057D01*
X65895Y-17029D01*
X65837Y-17000D01*
X65809Y-16971D01*
X65780Y-16914D01*
X65780Y-16857D01*
X65809Y-16800D01*
X65837Y-16771D01*
X65895Y-16743D01*
X66037Y-16743D01*
X66123Y-16771D01*
X66351Y-16800D02*
X66380Y-16771D01*
X66437Y-16743D01*
X66580Y-16743D01*
X66637Y-16771D01*
X66666Y-16800D01*
X66694Y-16857D01*
X66694Y-16914D01*
X66666Y-17000D01*
X66323Y-17343D01*
X66694Y-17343D01*
X67037Y-17000D02*
X66979Y-16971D01*
X66951Y-16943D01*
X66922Y-16886D01*
X66922Y-16857D01*
X66951Y-16800D01*
X66979Y-16771D01*
X67037Y-16743D01*
X67151Y-16743D01*
X67208Y-16771D01*
X67237Y-16800D01*
X67265Y-16857D01*
X67265Y-16886D01*
X67237Y-16943D01*
X67208Y-16971D01*
X67151Y-17000D01*
X67037Y-17000D01*
X66979Y-17029D01*
X66951Y-17057D01*
X66922Y-17114D01*
X66922Y-17229D01*
X66951Y-17286D01*
X66979Y-17314D01*
X67037Y-17343D01*
X67151Y-17343D01*
X67208Y-17314D01*
X67237Y-17286D01*
X67265Y-17229D01*
X67265Y-17114D01*
X67237Y-17057D01*
X67208Y-17029D01*
X67151Y-17000D01*
X67836Y-17343D02*
X67493Y-17343D01*
X67665Y-17343D02*
X67665Y-16743D01*
X67608Y-16829D01*
X67550Y-16886D01*
X67493Y-16914D01*
X68064Y-16800D02*
X68093Y-16771D01*
X68150Y-16743D01*
X68293Y-16743D01*
X68350Y-16771D01*
X68379Y-16800D01*
X68407Y-16857D01*
X68407Y-16914D01*
X68379Y-17000D01*
X68036Y-17343D01*
X68407Y-17343D01*
X68864Y-17029D02*
X68950Y-17057D01*
X68978Y-17086D01*
X69007Y-17143D01*
X69007Y-17229D01*
X68978Y-17286D01*
X68950Y-17314D01*
X68892Y-17343D01*
X68664Y-17343D01*
X68664Y-16743D01*
X68864Y-16743D01*
X68921Y-16771D01*
X68950Y-16800D01*
X68978Y-16857D01*
X68978Y-16914D01*
X68950Y-16971D01*
X68921Y-17000D01*
X68864Y-17029D01*
X68664Y-17029D01*
X72879Y-16293D02*
X72593Y-16293D01*
X72593Y-15693D01*
X73079Y-15979D02*
X73279Y-15979D01*
X73365Y-16293D02*
X73079Y-16293D01*
X73079Y-15693D01*
X73365Y-15693D01*
X73622Y-16293D02*
X73622Y-15693D01*
X73765Y-15693D01*
X73850Y-15721D01*
X73908Y-15779D01*
X73936Y-15836D01*
X73965Y-15950D01*
X73965Y-16036D01*
X73936Y-16150D01*
X73908Y-16207D01*
X73850Y-16264D01*
X73765Y-16293D01*
X73622Y-16293D01*
X74479Y-15893D02*
X74479Y-16293D01*
X74336Y-15664D02*
X74193Y-16093D01*
X74565Y-16093D01*
X70573Y-17193D02*
X70573Y-16593D01*
X70773Y-17021D01*
X70973Y-16593D01*
X70973Y-17193D01*
X71230Y-17021D02*
X71516Y-17021D01*
X71173Y-17193D02*
X71373Y-16593D01*
X71573Y-17193D01*
X71773Y-17193D02*
X71773Y-16593D01*
X71916Y-16593D01*
X72001Y-16621D01*
X72059Y-16679D01*
X72087Y-16736D01*
X72116Y-16850D01*
X72116Y-16936D01*
X72087Y-17050D01*
X72059Y-17107D01*
X72001Y-17164D01*
X71916Y-17193D01*
X71773Y-17193D01*
X72316Y-16593D02*
X72459Y-17193D01*
X72573Y-16764D01*
X72687Y-17193D01*
X72830Y-16593D01*
X72916Y-17250D02*
X73373Y-17250D01*
X73373Y-17250D02*
X73830Y-17250D01*
X73916Y-16593D02*
X74059Y-17193D01*
X74173Y-16764D01*
X74287Y-17193D01*
X74430Y-16593D01*
X74630Y-17164D02*
X74716Y-17193D01*
X74859Y-17193D01*
X74916Y-17164D01*
X74945Y-17136D01*
X74973Y-17079D01*
X74973Y-17021D01*
X74945Y-16964D01*
X74916Y-16936D01*
X74859Y-16907D01*
X74745Y-16879D01*
X74687Y-16850D01*
X74659Y-16821D01*
X74630Y-16764D01*
X74630Y-16707D01*
X74659Y-16650D01*
X74687Y-16621D01*
X74745Y-16593D01*
X74887Y-16593D01*
X74973Y-16621D01*
X75201Y-16650D02*
X75230Y-16621D01*
X75287Y-16593D01*
X75430Y-16593D01*
X75487Y-16621D01*
X75516Y-16650D01*
X75544Y-16707D01*
X75544Y-16764D01*
X75516Y-16850D01*
X75173Y-17193D01*
X75544Y-17193D01*
X75887Y-16850D02*
X75829Y-16821D01*
X75801Y-16793D01*
X75772Y-16736D01*
X75772Y-16707D01*
X75801Y-16650D01*
X75829Y-16621D01*
X75887Y-16593D01*
X76001Y-16593D01*
X76058Y-16621D01*
X76087Y-16650D01*
X76115Y-16707D01*
X76115Y-16736D01*
X76087Y-16793D01*
X76058Y-16821D01*
X76001Y-16850D01*
X75887Y-16850D01*
X75829Y-16879D01*
X75801Y-16907D01*
X75772Y-16964D01*
X75772Y-17079D01*
X75801Y-17136D01*
X75829Y-17164D01*
X75887Y-17193D01*
X76001Y-17193D01*
X76058Y-17164D01*
X76087Y-17136D01*
X76115Y-17079D01*
X76115Y-16964D01*
X76087Y-16907D01*
X76058Y-16879D01*
X76001Y-16850D01*
X76686Y-17193D02*
X76343Y-17193D01*
X76515Y-17193D02*
X76515Y-16593D01*
X76458Y-16679D01*
X76400Y-16736D01*
X76343Y-16764D01*
X76914Y-16650D02*
X76943Y-16621D01*
X77000Y-16593D01*
X77143Y-16593D01*
X77200Y-16621D01*
X77229Y-16650D01*
X77257Y-16707D01*
X77257Y-16764D01*
X77229Y-16850D01*
X76886Y-17193D01*
X77257Y-17193D01*
X77714Y-16879D02*
X77800Y-16907D01*
X77828Y-16936D01*
X77857Y-16993D01*
X77857Y-17079D01*
X77828Y-17136D01*
X77800Y-17164D01*
X77742Y-17193D01*
X77514Y-17193D01*
X77514Y-16593D01*
X77714Y-16593D01*
X77771Y-16621D01*
X77800Y-16650D01*
X77828Y-16707D01*
X77828Y-16764D01*
X77800Y-16821D01*
X77771Y-16850D01*
X77714Y-16879D01*
X77514Y-16879D01*
M02*
