G04 (created by PCBNEW-RS274X (2012-apr-16-27)-stable) date Sun 05 Jan 2014 01:48:33 PM CET*
G01*
G70*
G90*
%MOIN*%
G04 Gerber Fmt 3.4, Leading zero omitted, Abs format*
%FSLAX34Y34*%
G04 APERTURE LIST*
%ADD10C,0.006000*%
%ADD11C,0.015000*%
%ADD12C,0.005000*%
%ADD13C,0.010000*%
%ADD14C,0.007000*%
%ADD15C,0.008000*%
%ADD16C,0.004500*%
%ADD17C,0.005500*%
G04 APERTURE END LIST*
G54D10*
G54D11*
X35000Y-19250D02*
X35000Y-26250D01*
G54D12*
X38450Y-24250D02*
X38450Y-24150D01*
X38450Y-24150D02*
X37550Y-24150D01*
X37550Y-24150D02*
X37550Y-24250D01*
X38450Y-24250D02*
X37550Y-24250D01*
X37550Y-24250D02*
X37550Y-24900D01*
X38450Y-25600D02*
X38450Y-26250D01*
X38450Y-26250D02*
X37550Y-26250D01*
X37550Y-26250D02*
X37550Y-25600D01*
X38450Y-24900D02*
X38450Y-24250D01*
X43600Y-25900D02*
X43599Y-25909D01*
X43596Y-25919D01*
X43591Y-25927D01*
X43585Y-25935D01*
X43577Y-25941D01*
X43569Y-25946D01*
X43560Y-25948D01*
X43550Y-25949D01*
X43541Y-25949D01*
X43532Y-25946D01*
X43523Y-25941D01*
X43516Y-25935D01*
X43509Y-25928D01*
X43505Y-25919D01*
X43502Y-25910D01*
X43501Y-25900D01*
X43501Y-25891D01*
X43504Y-25882D01*
X43508Y-25873D01*
X43515Y-25866D01*
X43522Y-25859D01*
X43530Y-25855D01*
X43540Y-25852D01*
X43549Y-25851D01*
X43558Y-25851D01*
X43568Y-25854D01*
X43576Y-25858D01*
X43584Y-25864D01*
X43590Y-25872D01*
X43595Y-25880D01*
X43598Y-25889D01*
X43599Y-25899D01*
X43600Y-25900D01*
X43550Y-25450D02*
X43550Y-25850D01*
X43550Y-25850D02*
X42950Y-25850D01*
X42950Y-25850D02*
X42950Y-25450D01*
X42950Y-25050D02*
X42950Y-24650D01*
X42950Y-24650D02*
X43550Y-24650D01*
X43550Y-24650D02*
X43550Y-25050D01*
X39600Y-25900D02*
X39599Y-25909D01*
X39596Y-25919D01*
X39591Y-25927D01*
X39585Y-25935D01*
X39577Y-25941D01*
X39569Y-25946D01*
X39560Y-25948D01*
X39550Y-25949D01*
X39541Y-25949D01*
X39532Y-25946D01*
X39523Y-25941D01*
X39516Y-25935D01*
X39509Y-25928D01*
X39505Y-25919D01*
X39502Y-25910D01*
X39501Y-25900D01*
X39501Y-25891D01*
X39504Y-25882D01*
X39508Y-25873D01*
X39515Y-25866D01*
X39522Y-25859D01*
X39530Y-25855D01*
X39540Y-25852D01*
X39549Y-25851D01*
X39558Y-25851D01*
X39568Y-25854D01*
X39576Y-25858D01*
X39584Y-25864D01*
X39590Y-25872D01*
X39595Y-25880D01*
X39598Y-25889D01*
X39599Y-25899D01*
X39600Y-25900D01*
X39550Y-25450D02*
X39550Y-25850D01*
X39550Y-25850D02*
X38950Y-25850D01*
X38950Y-25850D02*
X38950Y-25450D01*
X38950Y-25050D02*
X38950Y-24650D01*
X38950Y-24650D02*
X39550Y-24650D01*
X39550Y-24650D02*
X39550Y-25050D01*
X38700Y-23450D02*
X38699Y-23459D01*
X38696Y-23469D01*
X38691Y-23477D01*
X38685Y-23485D01*
X38677Y-23491D01*
X38669Y-23496D01*
X38660Y-23498D01*
X38650Y-23499D01*
X38641Y-23499D01*
X38632Y-23496D01*
X38623Y-23491D01*
X38616Y-23485D01*
X38609Y-23478D01*
X38605Y-23469D01*
X38602Y-23460D01*
X38601Y-23450D01*
X38601Y-23441D01*
X38604Y-23432D01*
X38608Y-23423D01*
X38615Y-23416D01*
X38622Y-23409D01*
X38630Y-23405D01*
X38640Y-23402D01*
X38649Y-23401D01*
X38658Y-23401D01*
X38668Y-23404D01*
X38676Y-23408D01*
X38684Y-23414D01*
X38690Y-23422D01*
X38695Y-23430D01*
X38698Y-23439D01*
X38699Y-23449D01*
X38700Y-23450D01*
X38200Y-23450D02*
X38600Y-23450D01*
X38600Y-23450D02*
X38600Y-24050D01*
X38600Y-24050D02*
X38200Y-24050D01*
X37800Y-24050D02*
X37400Y-24050D01*
X37400Y-24050D02*
X37400Y-23450D01*
X37400Y-23450D02*
X37800Y-23450D01*
X38650Y-22200D02*
X38649Y-22209D01*
X38646Y-22219D01*
X38641Y-22227D01*
X38635Y-22235D01*
X38627Y-22241D01*
X38619Y-22246D01*
X38610Y-22248D01*
X38600Y-22249D01*
X38591Y-22249D01*
X38582Y-22246D01*
X38573Y-22241D01*
X38566Y-22235D01*
X38559Y-22228D01*
X38555Y-22219D01*
X38552Y-22210D01*
X38551Y-22200D01*
X38551Y-22191D01*
X38554Y-22182D01*
X38558Y-22173D01*
X38565Y-22166D01*
X38572Y-22159D01*
X38580Y-22155D01*
X38590Y-22152D01*
X38599Y-22151D01*
X38608Y-22151D01*
X38618Y-22154D01*
X38626Y-22158D01*
X38634Y-22164D01*
X38640Y-22172D01*
X38645Y-22180D01*
X38648Y-22189D01*
X38649Y-22199D01*
X38650Y-22200D01*
X38150Y-22200D02*
X38550Y-22200D01*
X38550Y-22200D02*
X38550Y-22800D01*
X38550Y-22800D02*
X38150Y-22800D01*
X37750Y-22800D02*
X37350Y-22800D01*
X37350Y-22800D02*
X37350Y-22200D01*
X37350Y-22200D02*
X37750Y-22200D01*
X38800Y-20550D02*
X38799Y-20559D01*
X38796Y-20569D01*
X38791Y-20577D01*
X38785Y-20585D01*
X38777Y-20591D01*
X38769Y-20596D01*
X38760Y-20598D01*
X38750Y-20599D01*
X38741Y-20599D01*
X38732Y-20596D01*
X38723Y-20591D01*
X38716Y-20585D01*
X38709Y-20578D01*
X38705Y-20569D01*
X38702Y-20560D01*
X38701Y-20550D01*
X38701Y-20541D01*
X38704Y-20532D01*
X38708Y-20523D01*
X38715Y-20516D01*
X38722Y-20509D01*
X38730Y-20505D01*
X38740Y-20502D01*
X38749Y-20501D01*
X38758Y-20501D01*
X38768Y-20504D01*
X38776Y-20508D01*
X38784Y-20514D01*
X38790Y-20522D01*
X38795Y-20530D01*
X38798Y-20539D01*
X38799Y-20549D01*
X38800Y-20550D01*
X38750Y-21000D02*
X38750Y-20600D01*
X38750Y-20600D02*
X39350Y-20600D01*
X39350Y-20600D02*
X39350Y-21000D01*
X39350Y-21400D02*
X39350Y-21800D01*
X39350Y-21800D02*
X38750Y-21800D01*
X38750Y-21800D02*
X38750Y-21400D01*
G54D13*
X78000Y-20750D02*
X78000Y-24750D01*
X77000Y-20750D02*
X77000Y-24750D01*
X77000Y-24750D02*
X78000Y-24750D01*
X78000Y-20750D02*
X77000Y-20750D01*
G54D14*
X42431Y-24581D02*
X42431Y-24738D01*
X40069Y-24581D02*
X42431Y-24581D01*
X40069Y-24581D02*
X40069Y-24738D01*
X40069Y-25919D02*
X40069Y-25762D01*
X42431Y-25919D02*
X40069Y-25919D01*
X42431Y-25919D02*
X42431Y-25762D01*
X36657Y-25077D02*
X36657Y-24880D01*
X36657Y-23423D02*
X36657Y-23620D01*
X35870Y-22754D02*
X36185Y-22754D01*
X35870Y-25746D02*
X36185Y-25746D01*
X34886Y-22754D02*
X34886Y-25746D01*
X34886Y-25746D02*
X35043Y-25746D01*
X34886Y-22754D02*
X35043Y-22754D01*
X40020Y-21490D02*
X40018Y-21503D01*
X40014Y-21516D01*
X40008Y-21528D01*
X39999Y-21539D01*
X39989Y-21548D01*
X39977Y-21554D01*
X39964Y-21558D01*
X39950Y-21559D01*
X39937Y-21558D01*
X39924Y-21554D01*
X39912Y-21548D01*
X39902Y-21540D01*
X39893Y-21529D01*
X39886Y-21517D01*
X39882Y-21504D01*
X39881Y-21490D01*
X39882Y-21478D01*
X39885Y-21465D01*
X39892Y-21453D01*
X39900Y-21442D01*
X39911Y-21433D01*
X39922Y-21426D01*
X39935Y-21422D01*
X39949Y-21421D01*
X39962Y-21422D01*
X39975Y-21425D01*
X39987Y-21431D01*
X39998Y-21440D01*
X40007Y-21450D01*
X40013Y-21462D01*
X40018Y-21475D01*
X40019Y-21489D01*
X40020Y-21490D01*
X39872Y-21687D02*
X40167Y-21372D01*
X40167Y-24128D02*
X39872Y-24128D01*
X39872Y-24128D02*
X39872Y-23813D01*
X42628Y-23813D02*
X42628Y-24128D01*
X42628Y-24128D02*
X42313Y-24128D01*
X42628Y-21372D02*
X42628Y-21667D01*
X42313Y-21372D02*
X42628Y-21372D01*
G54D12*
X41300Y-21000D02*
X41299Y-21009D01*
X41296Y-21019D01*
X41291Y-21027D01*
X41285Y-21035D01*
X41277Y-21041D01*
X41269Y-21046D01*
X41260Y-21048D01*
X41250Y-21049D01*
X41241Y-21049D01*
X41232Y-21046D01*
X41223Y-21041D01*
X41216Y-21035D01*
X41209Y-21028D01*
X41205Y-21019D01*
X41202Y-21010D01*
X41201Y-21000D01*
X41201Y-20991D01*
X41204Y-20982D01*
X41208Y-20973D01*
X41215Y-20966D01*
X41222Y-20959D01*
X41230Y-20955D01*
X41240Y-20952D01*
X41249Y-20951D01*
X41258Y-20951D01*
X41268Y-20954D01*
X41276Y-20958D01*
X41284Y-20964D01*
X41290Y-20972D01*
X41295Y-20980D01*
X41298Y-20989D01*
X41299Y-20999D01*
X41300Y-21000D01*
X41700Y-21000D02*
X41300Y-21000D01*
X41300Y-21000D02*
X41300Y-20400D01*
X41300Y-20400D02*
X41700Y-20400D01*
X42100Y-20400D02*
X42500Y-20400D01*
X42500Y-20400D02*
X42500Y-21000D01*
X42500Y-21000D02*
X42100Y-21000D01*
G54D11*
X43946Y-23970D02*
X43942Y-24002D01*
X43933Y-24033D01*
X43918Y-24061D01*
X43897Y-24086D01*
X43872Y-24107D01*
X43844Y-24123D01*
X43813Y-24132D01*
X43781Y-24135D01*
X43749Y-24133D01*
X43718Y-24123D01*
X43690Y-24108D01*
X43664Y-24088D01*
X43644Y-24063D01*
X43628Y-24035D01*
X43618Y-24004D01*
X43615Y-23972D01*
X43617Y-23941D01*
X43626Y-23909D01*
X43641Y-23881D01*
X43661Y-23855D01*
X43686Y-23834D01*
X43714Y-23818D01*
X43745Y-23808D01*
X43777Y-23805D01*
X43808Y-23807D01*
X43840Y-23816D01*
X43868Y-23830D01*
X43894Y-23850D01*
X43915Y-23875D01*
X43931Y-23903D01*
X43941Y-23934D01*
X43945Y-23966D01*
X43946Y-23970D01*
G54D15*
X43976Y-22947D02*
X43976Y-22553D01*
X44016Y-22553D02*
X43898Y-22553D01*
X43898Y-22553D02*
X43898Y-22947D01*
X43898Y-22947D02*
X44016Y-22947D01*
X45984Y-23734D02*
X45866Y-23734D01*
X45984Y-21766D02*
X45866Y-21766D01*
X44016Y-21766D02*
X44134Y-21766D01*
X44016Y-21766D02*
X44016Y-23734D01*
X44016Y-23734D02*
X44134Y-23734D01*
X45984Y-21766D02*
X45984Y-23734D01*
G54D11*
X53946Y-23970D02*
X53942Y-24002D01*
X53933Y-24033D01*
X53918Y-24061D01*
X53897Y-24086D01*
X53872Y-24107D01*
X53844Y-24123D01*
X53813Y-24132D01*
X53781Y-24135D01*
X53749Y-24133D01*
X53718Y-24123D01*
X53690Y-24108D01*
X53664Y-24088D01*
X53644Y-24063D01*
X53628Y-24035D01*
X53618Y-24004D01*
X53615Y-23972D01*
X53617Y-23941D01*
X53626Y-23909D01*
X53641Y-23881D01*
X53661Y-23855D01*
X53686Y-23834D01*
X53714Y-23818D01*
X53745Y-23808D01*
X53777Y-23805D01*
X53808Y-23807D01*
X53840Y-23816D01*
X53868Y-23830D01*
X53894Y-23850D01*
X53915Y-23875D01*
X53931Y-23903D01*
X53941Y-23934D01*
X53945Y-23966D01*
X53946Y-23970D01*
G54D15*
X53976Y-22947D02*
X53976Y-22553D01*
X54016Y-22553D02*
X53898Y-22553D01*
X53898Y-22553D02*
X53898Y-22947D01*
X53898Y-22947D02*
X54016Y-22947D01*
X55984Y-23734D02*
X55866Y-23734D01*
X55984Y-21766D02*
X55866Y-21766D01*
X54016Y-21766D02*
X54134Y-21766D01*
X54016Y-21766D02*
X54016Y-23734D01*
X54016Y-23734D02*
X54134Y-23734D01*
X55984Y-21766D02*
X55984Y-23734D01*
G54D11*
X63946Y-23970D02*
X63942Y-24002D01*
X63933Y-24033D01*
X63918Y-24061D01*
X63897Y-24086D01*
X63872Y-24107D01*
X63844Y-24123D01*
X63813Y-24132D01*
X63781Y-24135D01*
X63749Y-24133D01*
X63718Y-24123D01*
X63690Y-24108D01*
X63664Y-24088D01*
X63644Y-24063D01*
X63628Y-24035D01*
X63618Y-24004D01*
X63615Y-23972D01*
X63617Y-23941D01*
X63626Y-23909D01*
X63641Y-23881D01*
X63661Y-23855D01*
X63686Y-23834D01*
X63714Y-23818D01*
X63745Y-23808D01*
X63777Y-23805D01*
X63808Y-23807D01*
X63840Y-23816D01*
X63868Y-23830D01*
X63894Y-23850D01*
X63915Y-23875D01*
X63931Y-23903D01*
X63941Y-23934D01*
X63945Y-23966D01*
X63946Y-23970D01*
G54D15*
X63976Y-22947D02*
X63976Y-22553D01*
X64016Y-22553D02*
X63898Y-22553D01*
X63898Y-22553D02*
X63898Y-22947D01*
X63898Y-22947D02*
X64016Y-22947D01*
X65984Y-23734D02*
X65866Y-23734D01*
X65984Y-21766D02*
X65866Y-21766D01*
X64016Y-21766D02*
X64134Y-21766D01*
X64016Y-21766D02*
X64016Y-23734D01*
X64016Y-23734D02*
X64134Y-23734D01*
X65984Y-21766D02*
X65984Y-23734D01*
G54D11*
X73946Y-23970D02*
X73942Y-24002D01*
X73933Y-24033D01*
X73918Y-24061D01*
X73897Y-24086D01*
X73872Y-24107D01*
X73844Y-24123D01*
X73813Y-24132D01*
X73781Y-24135D01*
X73749Y-24133D01*
X73718Y-24123D01*
X73690Y-24108D01*
X73664Y-24088D01*
X73644Y-24063D01*
X73628Y-24035D01*
X73618Y-24004D01*
X73615Y-23972D01*
X73617Y-23941D01*
X73626Y-23909D01*
X73641Y-23881D01*
X73661Y-23855D01*
X73686Y-23834D01*
X73714Y-23818D01*
X73745Y-23808D01*
X73777Y-23805D01*
X73808Y-23807D01*
X73840Y-23816D01*
X73868Y-23830D01*
X73894Y-23850D01*
X73915Y-23875D01*
X73931Y-23903D01*
X73941Y-23934D01*
X73945Y-23966D01*
X73946Y-23970D01*
G54D15*
X73976Y-22947D02*
X73976Y-22553D01*
X74016Y-22553D02*
X73898Y-22553D01*
X73898Y-22553D02*
X73898Y-22947D01*
X73898Y-22947D02*
X74016Y-22947D01*
X75984Y-23734D02*
X75866Y-23734D01*
X75984Y-21766D02*
X75866Y-21766D01*
X74016Y-21766D02*
X74134Y-21766D01*
X74016Y-21766D02*
X74016Y-23734D01*
X74016Y-23734D02*
X74134Y-23734D01*
X75984Y-21766D02*
X75984Y-23734D01*
G54D14*
X36068Y-21776D02*
X35676Y-21776D01*
X38224Y-21776D02*
X37832Y-21776D01*
X35676Y-19424D02*
X36068Y-19424D01*
X38224Y-19424D02*
X37832Y-19424D01*
X35676Y-20110D02*
X35676Y-21090D01*
X38224Y-21090D02*
X38224Y-20110D01*
G54D15*
X37406Y-20600D02*
X37397Y-20688D01*
X37371Y-20773D01*
X37329Y-20852D01*
X37273Y-20921D01*
X37204Y-20978D01*
X37126Y-21020D01*
X37041Y-21046D01*
X36953Y-21055D01*
X36865Y-21047D01*
X36780Y-21022D01*
X36701Y-20981D01*
X36631Y-20925D01*
X36574Y-20857D01*
X36531Y-20779D01*
X36504Y-20694D01*
X36495Y-20606D01*
X36502Y-20518D01*
X36527Y-20433D01*
X36567Y-20353D01*
X36622Y-20284D01*
X36690Y-20226D01*
X36768Y-20183D01*
X36853Y-20155D01*
X36941Y-20145D01*
X37029Y-20151D01*
X37114Y-20175D01*
X37194Y-20215D01*
X37264Y-20270D01*
X37322Y-20338D01*
X37366Y-20415D01*
X37394Y-20499D01*
X37405Y-20588D01*
X37406Y-20600D01*
G54D12*
X38093Y-25300D02*
X38107Y-25314D01*
X38121Y-25357D01*
X38121Y-25386D01*
X38107Y-25429D01*
X38079Y-25457D01*
X38050Y-25472D01*
X37993Y-25486D01*
X37950Y-25486D01*
X37893Y-25472D01*
X37864Y-25457D01*
X37836Y-25429D01*
X37821Y-25386D01*
X37821Y-25357D01*
X37836Y-25314D01*
X37850Y-25300D01*
X38121Y-25014D02*
X38121Y-25186D01*
X38121Y-25100D02*
X37821Y-25100D01*
X37864Y-25129D01*
X37893Y-25157D01*
X37907Y-25186D01*
X43327Y-25292D02*
X43339Y-25304D01*
X43351Y-25339D01*
X43351Y-25363D01*
X43339Y-25399D01*
X43315Y-25423D01*
X43292Y-25434D01*
X43244Y-25446D01*
X43208Y-25446D01*
X43161Y-25434D01*
X43137Y-25423D01*
X43113Y-25399D01*
X43101Y-25363D01*
X43101Y-25339D01*
X43113Y-25304D01*
X43125Y-25292D01*
X43125Y-25196D02*
X43113Y-25184D01*
X43101Y-25161D01*
X43101Y-25101D01*
X43113Y-25077D01*
X43125Y-25065D01*
X43149Y-25054D01*
X43173Y-25054D01*
X43208Y-25065D01*
X43351Y-25208D01*
X43351Y-25054D01*
X39327Y-25292D02*
X39339Y-25304D01*
X39351Y-25339D01*
X39351Y-25363D01*
X39339Y-25399D01*
X39315Y-25423D01*
X39292Y-25434D01*
X39244Y-25446D01*
X39208Y-25446D01*
X39161Y-25434D01*
X39137Y-25423D01*
X39113Y-25399D01*
X39101Y-25363D01*
X39101Y-25339D01*
X39113Y-25304D01*
X39125Y-25292D01*
X39101Y-25208D02*
X39101Y-25054D01*
X39196Y-25137D01*
X39196Y-25101D01*
X39208Y-25077D01*
X39220Y-25065D01*
X39244Y-25054D01*
X39304Y-25054D01*
X39327Y-25065D01*
X39339Y-25077D01*
X39351Y-25101D01*
X39351Y-25173D01*
X39339Y-25196D01*
X39327Y-25208D01*
X37958Y-23851D02*
X37875Y-23732D01*
X37816Y-23851D02*
X37816Y-23601D01*
X37911Y-23601D01*
X37935Y-23613D01*
X37946Y-23625D01*
X37958Y-23649D01*
X37958Y-23685D01*
X37946Y-23708D01*
X37935Y-23720D01*
X37911Y-23732D01*
X37816Y-23732D01*
X38196Y-23851D02*
X38054Y-23851D01*
X38125Y-23851D02*
X38125Y-23601D01*
X38101Y-23637D01*
X38077Y-23661D01*
X38054Y-23673D01*
X37908Y-22601D02*
X37825Y-22482D01*
X37766Y-22601D02*
X37766Y-22351D01*
X37861Y-22351D01*
X37885Y-22363D01*
X37896Y-22375D01*
X37908Y-22399D01*
X37908Y-22435D01*
X37896Y-22458D01*
X37885Y-22470D01*
X37861Y-22482D01*
X37766Y-22482D01*
X38004Y-22375D02*
X38016Y-22363D01*
X38039Y-22351D01*
X38099Y-22351D01*
X38123Y-22363D01*
X38135Y-22375D01*
X38146Y-22399D01*
X38146Y-22423D01*
X38135Y-22458D01*
X37992Y-22601D01*
X38146Y-22601D01*
X39151Y-21242D02*
X39032Y-21325D01*
X39151Y-21384D02*
X38901Y-21384D01*
X38901Y-21289D01*
X38913Y-21265D01*
X38925Y-21254D01*
X38949Y-21242D01*
X38985Y-21242D01*
X39008Y-21254D01*
X39020Y-21265D01*
X39032Y-21289D01*
X39032Y-21384D01*
X38901Y-21158D02*
X38901Y-21004D01*
X38996Y-21087D01*
X38996Y-21051D01*
X39008Y-21027D01*
X39020Y-21015D01*
X39044Y-21004D01*
X39104Y-21004D01*
X39127Y-21015D01*
X39139Y-21027D01*
X39151Y-21051D01*
X39151Y-21123D01*
X39139Y-21146D01*
X39127Y-21158D01*
G54D15*
X76662Y-23045D02*
X76262Y-23045D01*
X76262Y-22892D01*
X76281Y-22854D01*
X76300Y-22835D01*
X76338Y-22816D01*
X76395Y-22816D01*
X76433Y-22835D01*
X76452Y-22854D01*
X76471Y-22892D01*
X76471Y-23045D01*
X76662Y-22435D02*
X76662Y-22664D01*
X76662Y-22550D02*
X76262Y-22550D01*
X76319Y-22588D01*
X76357Y-22626D01*
X76376Y-22664D01*
G54D14*
X40604Y-25337D02*
X40590Y-25350D01*
X40550Y-25363D01*
X40524Y-25363D01*
X40484Y-25350D01*
X40457Y-25323D01*
X40444Y-25297D01*
X40430Y-25243D01*
X40430Y-25203D01*
X40444Y-25150D01*
X40457Y-25123D01*
X40484Y-25097D01*
X40524Y-25083D01*
X40550Y-25083D01*
X40590Y-25097D01*
X40604Y-25110D01*
X40884Y-25363D02*
X40790Y-25230D01*
X40724Y-25363D02*
X40724Y-25083D01*
X40830Y-25083D01*
X40857Y-25097D01*
X40870Y-25110D01*
X40884Y-25137D01*
X40884Y-25177D01*
X40870Y-25203D01*
X40857Y-25217D01*
X40830Y-25230D01*
X40724Y-25230D01*
X41057Y-25230D02*
X41057Y-25363D01*
X40964Y-25083D02*
X41057Y-25230D01*
X41150Y-25083D01*
X41230Y-25350D02*
X41270Y-25363D01*
X41337Y-25363D01*
X41364Y-25350D01*
X41377Y-25337D01*
X41390Y-25310D01*
X41390Y-25283D01*
X41377Y-25257D01*
X41364Y-25243D01*
X41337Y-25230D01*
X41284Y-25217D01*
X41257Y-25203D01*
X41244Y-25190D01*
X41230Y-25163D01*
X41230Y-25137D01*
X41244Y-25110D01*
X41257Y-25097D01*
X41284Y-25083D01*
X41350Y-25083D01*
X41390Y-25097D01*
X41471Y-25083D02*
X41631Y-25083D01*
X41551Y-25363D02*
X41551Y-25083D01*
X41710Y-25283D02*
X41844Y-25283D01*
X41684Y-25363D02*
X41777Y-25083D01*
X41870Y-25363D01*
X42097Y-25363D02*
X41964Y-25363D01*
X41964Y-25083D01*
G54D10*
X36908Y-24433D02*
X37102Y-24433D01*
X37125Y-24421D01*
X37137Y-24410D01*
X37148Y-24387D01*
X37148Y-24341D01*
X37137Y-24319D01*
X37125Y-24307D01*
X37102Y-24296D01*
X36908Y-24296D01*
X37148Y-24056D02*
X37148Y-24193D01*
X37148Y-24125D02*
X36908Y-24125D01*
X36942Y-24148D01*
X36965Y-24170D01*
X36977Y-24193D01*
X37542Y-25472D02*
X37302Y-25472D01*
X37474Y-25392D01*
X37302Y-25312D01*
X37542Y-25312D01*
X37542Y-25198D02*
X37302Y-25198D01*
X37519Y-24947D02*
X37531Y-24958D01*
X37542Y-24992D01*
X37542Y-25015D01*
X37531Y-25050D01*
X37508Y-25072D01*
X37485Y-25084D01*
X37439Y-25095D01*
X37405Y-25095D01*
X37359Y-25084D01*
X37336Y-25072D01*
X37314Y-25050D01*
X37302Y-25015D01*
X37302Y-24992D01*
X37314Y-24958D01*
X37325Y-24947D01*
X37542Y-24707D02*
X37428Y-24787D01*
X37542Y-24844D02*
X37302Y-24844D01*
X37302Y-24752D01*
X37314Y-24730D01*
X37325Y-24718D01*
X37348Y-24707D01*
X37382Y-24707D01*
X37405Y-24718D01*
X37416Y-24730D01*
X37428Y-24752D01*
X37428Y-24844D01*
X37302Y-24558D02*
X37302Y-24512D01*
X37314Y-24490D01*
X37336Y-24467D01*
X37382Y-24455D01*
X37462Y-24455D01*
X37508Y-24467D01*
X37531Y-24490D01*
X37542Y-24512D01*
X37542Y-24558D01*
X37531Y-24581D01*
X37508Y-24604D01*
X37462Y-24615D01*
X37382Y-24615D01*
X37336Y-24604D01*
X37314Y-24581D01*
X37302Y-24558D01*
X37451Y-24353D02*
X37451Y-24170D01*
X37416Y-23976D02*
X37428Y-23942D01*
X37439Y-23930D01*
X37462Y-23919D01*
X37496Y-23919D01*
X37519Y-23930D01*
X37531Y-23942D01*
X37542Y-23964D01*
X37542Y-24056D01*
X37302Y-24056D01*
X37302Y-23976D01*
X37314Y-23953D01*
X37325Y-23942D01*
X37348Y-23930D01*
X37371Y-23930D01*
X37394Y-23942D01*
X37405Y-23953D01*
X37416Y-23976D01*
X37416Y-24056D01*
X37565Y-23873D02*
X37565Y-23690D01*
X37302Y-23633D02*
X37496Y-23633D01*
X37519Y-23621D01*
X37531Y-23610D01*
X37542Y-23587D01*
X37542Y-23541D01*
X37531Y-23519D01*
X37519Y-23507D01*
X37496Y-23496D01*
X37302Y-23496D01*
X37531Y-23393D02*
X37542Y-23359D01*
X37542Y-23302D01*
X37531Y-23279D01*
X37519Y-23268D01*
X37496Y-23256D01*
X37474Y-23256D01*
X37451Y-23268D01*
X37439Y-23279D01*
X37428Y-23302D01*
X37416Y-23348D01*
X37405Y-23370D01*
X37394Y-23382D01*
X37371Y-23393D01*
X37348Y-23393D01*
X37325Y-23382D01*
X37314Y-23370D01*
X37302Y-23348D01*
X37302Y-23290D01*
X37314Y-23256D01*
X37416Y-23073D02*
X37428Y-23039D01*
X37439Y-23027D01*
X37462Y-23016D01*
X37496Y-23016D01*
X37519Y-23027D01*
X37531Y-23039D01*
X37542Y-23061D01*
X37542Y-23153D01*
X37302Y-23153D01*
X37302Y-23073D01*
X37314Y-23050D01*
X37325Y-23039D01*
X37348Y-23027D01*
X37371Y-23027D01*
X37394Y-23039D01*
X37405Y-23050D01*
X37416Y-23073D01*
X37416Y-23153D01*
G54D16*
X41075Y-21997D02*
X41075Y-21757D01*
X41264Y-21974D02*
X41255Y-21986D01*
X41229Y-21997D01*
X41212Y-21997D01*
X41187Y-21986D01*
X41169Y-21963D01*
X41161Y-21940D01*
X41152Y-21894D01*
X41152Y-21860D01*
X41161Y-21814D01*
X41169Y-21791D01*
X41187Y-21769D01*
X41212Y-21757D01*
X41229Y-21757D01*
X41255Y-21769D01*
X41264Y-21780D01*
X41435Y-21997D02*
X41332Y-21997D01*
X41384Y-21997D02*
X41384Y-21757D01*
X41367Y-21791D01*
X41349Y-21814D01*
X41332Y-21826D01*
G54D12*
X41858Y-20801D02*
X41775Y-20682D01*
X41716Y-20801D02*
X41716Y-20551D01*
X41811Y-20551D01*
X41835Y-20563D01*
X41846Y-20575D01*
X41858Y-20599D01*
X41858Y-20635D01*
X41846Y-20658D01*
X41835Y-20670D01*
X41811Y-20682D01*
X41716Y-20682D01*
X42073Y-20635D02*
X42073Y-20801D01*
X42013Y-20539D02*
X41954Y-20718D01*
X42108Y-20718D01*
G54D15*
X44642Y-22604D02*
X44489Y-22604D01*
X44489Y-22284D01*
X44748Y-22436D02*
X44855Y-22436D01*
X44901Y-22604D02*
X44748Y-22604D01*
X44748Y-22284D01*
X44901Y-22284D01*
X45038Y-22604D02*
X45038Y-22284D01*
X45114Y-22284D01*
X45160Y-22299D01*
X45191Y-22329D01*
X45206Y-22360D01*
X45221Y-22421D01*
X45221Y-22466D01*
X45206Y-22527D01*
X45191Y-22558D01*
X45160Y-22588D01*
X45114Y-22604D01*
X45038Y-22604D01*
X45526Y-22604D02*
X45343Y-22604D01*
X45434Y-22604D02*
X45434Y-22284D01*
X45404Y-22329D01*
X45373Y-22360D01*
X45343Y-22375D01*
X43064Y-23156D02*
X43064Y-22836D01*
X43171Y-23064D01*
X43278Y-22836D01*
X43278Y-23156D01*
X43415Y-23064D02*
X43567Y-23064D01*
X43384Y-23156D02*
X43491Y-22836D01*
X43598Y-23156D01*
X43704Y-23156D02*
X43704Y-22836D01*
X43780Y-22836D01*
X43826Y-22851D01*
X43857Y-22881D01*
X43872Y-22912D01*
X43887Y-22973D01*
X43887Y-23018D01*
X43872Y-23079D01*
X43857Y-23110D01*
X43826Y-23140D01*
X43780Y-23156D01*
X43704Y-23156D01*
X43994Y-22836D02*
X44070Y-23156D01*
X44131Y-22927D01*
X44192Y-23156D01*
X44268Y-22836D01*
X44314Y-23186D02*
X44558Y-23186D01*
X44558Y-23186D02*
X44802Y-23186D01*
X44848Y-22836D02*
X44924Y-23156D01*
X44985Y-22927D01*
X45046Y-23156D01*
X45122Y-22836D01*
X45229Y-23140D02*
X45275Y-23156D01*
X45351Y-23156D01*
X45381Y-23140D01*
X45397Y-23125D01*
X45412Y-23095D01*
X45412Y-23064D01*
X45397Y-23034D01*
X45381Y-23018D01*
X45351Y-23003D01*
X45290Y-22988D01*
X45259Y-22973D01*
X45244Y-22957D01*
X45229Y-22927D01*
X45229Y-22896D01*
X45244Y-22866D01*
X45259Y-22851D01*
X45290Y-22836D01*
X45366Y-22836D01*
X45412Y-22851D01*
X45534Y-22866D02*
X45549Y-22851D01*
X45580Y-22836D01*
X45656Y-22836D01*
X45686Y-22851D01*
X45702Y-22866D01*
X45717Y-22896D01*
X45717Y-22927D01*
X45702Y-22973D01*
X45519Y-23156D01*
X45717Y-23156D01*
X45900Y-22973D02*
X45869Y-22957D01*
X45854Y-22942D01*
X45839Y-22912D01*
X45839Y-22896D01*
X45854Y-22866D01*
X45869Y-22851D01*
X45900Y-22836D01*
X45961Y-22836D01*
X45991Y-22851D01*
X46007Y-22866D01*
X46022Y-22896D01*
X46022Y-22912D01*
X46007Y-22942D01*
X45991Y-22957D01*
X45961Y-22973D01*
X45900Y-22973D01*
X45869Y-22988D01*
X45854Y-23003D01*
X45839Y-23034D01*
X45839Y-23095D01*
X45854Y-23125D01*
X45869Y-23140D01*
X45900Y-23156D01*
X45961Y-23156D01*
X45991Y-23140D01*
X46007Y-23125D01*
X46022Y-23095D01*
X46022Y-23034D01*
X46007Y-23003D01*
X45991Y-22988D01*
X45961Y-22973D01*
X46327Y-23156D02*
X46144Y-23156D01*
X46235Y-23156D02*
X46235Y-22836D01*
X46205Y-22881D01*
X46174Y-22912D01*
X46144Y-22927D01*
X46449Y-22866D02*
X46464Y-22851D01*
X46495Y-22836D01*
X46571Y-22836D01*
X46601Y-22851D01*
X46617Y-22866D01*
X46632Y-22896D01*
X46632Y-22927D01*
X46617Y-22973D01*
X46434Y-23156D01*
X46632Y-23156D01*
X46876Y-22988D02*
X46922Y-23003D01*
X46937Y-23018D01*
X46952Y-23049D01*
X46952Y-23095D01*
X46937Y-23125D01*
X46922Y-23140D01*
X46891Y-23156D01*
X46769Y-23156D01*
X46769Y-22836D01*
X46876Y-22836D01*
X46906Y-22851D01*
X46922Y-22866D01*
X46937Y-22896D01*
X46937Y-22927D01*
X46922Y-22957D01*
X46906Y-22973D01*
X46876Y-22988D01*
X46769Y-22988D01*
X54642Y-22604D02*
X54489Y-22604D01*
X54489Y-22284D01*
X54748Y-22436D02*
X54855Y-22436D01*
X54901Y-22604D02*
X54748Y-22604D01*
X54748Y-22284D01*
X54901Y-22284D01*
X55038Y-22604D02*
X55038Y-22284D01*
X55114Y-22284D01*
X55160Y-22299D01*
X55191Y-22329D01*
X55206Y-22360D01*
X55221Y-22421D01*
X55221Y-22466D01*
X55206Y-22527D01*
X55191Y-22558D01*
X55160Y-22588D01*
X55114Y-22604D01*
X55038Y-22604D01*
X55343Y-22314D02*
X55358Y-22299D01*
X55389Y-22284D01*
X55465Y-22284D01*
X55495Y-22299D01*
X55511Y-22314D01*
X55526Y-22344D01*
X55526Y-22375D01*
X55511Y-22421D01*
X55328Y-22604D01*
X55526Y-22604D01*
X53064Y-23156D02*
X53064Y-22836D01*
X53171Y-23064D01*
X53278Y-22836D01*
X53278Y-23156D01*
X53415Y-23064D02*
X53567Y-23064D01*
X53384Y-23156D02*
X53491Y-22836D01*
X53598Y-23156D01*
X53704Y-23156D02*
X53704Y-22836D01*
X53780Y-22836D01*
X53826Y-22851D01*
X53857Y-22881D01*
X53872Y-22912D01*
X53887Y-22973D01*
X53887Y-23018D01*
X53872Y-23079D01*
X53857Y-23110D01*
X53826Y-23140D01*
X53780Y-23156D01*
X53704Y-23156D01*
X53994Y-22836D02*
X54070Y-23156D01*
X54131Y-22927D01*
X54192Y-23156D01*
X54268Y-22836D01*
X54314Y-23186D02*
X54558Y-23186D01*
X54558Y-23186D02*
X54802Y-23186D01*
X54848Y-22836D02*
X54924Y-23156D01*
X54985Y-22927D01*
X55046Y-23156D01*
X55122Y-22836D01*
X55229Y-23140D02*
X55275Y-23156D01*
X55351Y-23156D01*
X55381Y-23140D01*
X55397Y-23125D01*
X55412Y-23095D01*
X55412Y-23064D01*
X55397Y-23034D01*
X55381Y-23018D01*
X55351Y-23003D01*
X55290Y-22988D01*
X55259Y-22973D01*
X55244Y-22957D01*
X55229Y-22927D01*
X55229Y-22896D01*
X55244Y-22866D01*
X55259Y-22851D01*
X55290Y-22836D01*
X55366Y-22836D01*
X55412Y-22851D01*
X55534Y-22866D02*
X55549Y-22851D01*
X55580Y-22836D01*
X55656Y-22836D01*
X55686Y-22851D01*
X55702Y-22866D01*
X55717Y-22896D01*
X55717Y-22927D01*
X55702Y-22973D01*
X55519Y-23156D01*
X55717Y-23156D01*
X55900Y-22973D02*
X55869Y-22957D01*
X55854Y-22942D01*
X55839Y-22912D01*
X55839Y-22896D01*
X55854Y-22866D01*
X55869Y-22851D01*
X55900Y-22836D01*
X55961Y-22836D01*
X55991Y-22851D01*
X56007Y-22866D01*
X56022Y-22896D01*
X56022Y-22912D01*
X56007Y-22942D01*
X55991Y-22957D01*
X55961Y-22973D01*
X55900Y-22973D01*
X55869Y-22988D01*
X55854Y-23003D01*
X55839Y-23034D01*
X55839Y-23095D01*
X55854Y-23125D01*
X55869Y-23140D01*
X55900Y-23156D01*
X55961Y-23156D01*
X55991Y-23140D01*
X56007Y-23125D01*
X56022Y-23095D01*
X56022Y-23034D01*
X56007Y-23003D01*
X55991Y-22988D01*
X55961Y-22973D01*
X56327Y-23156D02*
X56144Y-23156D01*
X56235Y-23156D02*
X56235Y-22836D01*
X56205Y-22881D01*
X56174Y-22912D01*
X56144Y-22927D01*
X56449Y-22866D02*
X56464Y-22851D01*
X56495Y-22836D01*
X56571Y-22836D01*
X56601Y-22851D01*
X56617Y-22866D01*
X56632Y-22896D01*
X56632Y-22927D01*
X56617Y-22973D01*
X56434Y-23156D01*
X56632Y-23156D01*
X56876Y-22988D02*
X56922Y-23003D01*
X56937Y-23018D01*
X56952Y-23049D01*
X56952Y-23095D01*
X56937Y-23125D01*
X56922Y-23140D01*
X56891Y-23156D01*
X56769Y-23156D01*
X56769Y-22836D01*
X56876Y-22836D01*
X56906Y-22851D01*
X56922Y-22866D01*
X56937Y-22896D01*
X56937Y-22927D01*
X56922Y-22957D01*
X56906Y-22973D01*
X56876Y-22988D01*
X56769Y-22988D01*
X64642Y-22604D02*
X64489Y-22604D01*
X64489Y-22284D01*
X64748Y-22436D02*
X64855Y-22436D01*
X64901Y-22604D02*
X64748Y-22604D01*
X64748Y-22284D01*
X64901Y-22284D01*
X65038Y-22604D02*
X65038Y-22284D01*
X65114Y-22284D01*
X65160Y-22299D01*
X65191Y-22329D01*
X65206Y-22360D01*
X65221Y-22421D01*
X65221Y-22466D01*
X65206Y-22527D01*
X65191Y-22558D01*
X65160Y-22588D01*
X65114Y-22604D01*
X65038Y-22604D01*
X65328Y-22284D02*
X65526Y-22284D01*
X65419Y-22405D01*
X65465Y-22405D01*
X65495Y-22421D01*
X65511Y-22436D01*
X65526Y-22466D01*
X65526Y-22543D01*
X65511Y-22573D01*
X65495Y-22588D01*
X65465Y-22604D01*
X65373Y-22604D01*
X65343Y-22588D01*
X65328Y-22573D01*
X63064Y-23156D02*
X63064Y-22836D01*
X63171Y-23064D01*
X63278Y-22836D01*
X63278Y-23156D01*
X63415Y-23064D02*
X63567Y-23064D01*
X63384Y-23156D02*
X63491Y-22836D01*
X63598Y-23156D01*
X63704Y-23156D02*
X63704Y-22836D01*
X63780Y-22836D01*
X63826Y-22851D01*
X63857Y-22881D01*
X63872Y-22912D01*
X63887Y-22973D01*
X63887Y-23018D01*
X63872Y-23079D01*
X63857Y-23110D01*
X63826Y-23140D01*
X63780Y-23156D01*
X63704Y-23156D01*
X63994Y-22836D02*
X64070Y-23156D01*
X64131Y-22927D01*
X64192Y-23156D01*
X64268Y-22836D01*
X64314Y-23186D02*
X64558Y-23186D01*
X64558Y-23186D02*
X64802Y-23186D01*
X64848Y-22836D02*
X64924Y-23156D01*
X64985Y-22927D01*
X65046Y-23156D01*
X65122Y-22836D01*
X65229Y-23140D02*
X65275Y-23156D01*
X65351Y-23156D01*
X65381Y-23140D01*
X65397Y-23125D01*
X65412Y-23095D01*
X65412Y-23064D01*
X65397Y-23034D01*
X65381Y-23018D01*
X65351Y-23003D01*
X65290Y-22988D01*
X65259Y-22973D01*
X65244Y-22957D01*
X65229Y-22927D01*
X65229Y-22896D01*
X65244Y-22866D01*
X65259Y-22851D01*
X65290Y-22836D01*
X65366Y-22836D01*
X65412Y-22851D01*
X65534Y-22866D02*
X65549Y-22851D01*
X65580Y-22836D01*
X65656Y-22836D01*
X65686Y-22851D01*
X65702Y-22866D01*
X65717Y-22896D01*
X65717Y-22927D01*
X65702Y-22973D01*
X65519Y-23156D01*
X65717Y-23156D01*
X65900Y-22973D02*
X65869Y-22957D01*
X65854Y-22942D01*
X65839Y-22912D01*
X65839Y-22896D01*
X65854Y-22866D01*
X65869Y-22851D01*
X65900Y-22836D01*
X65961Y-22836D01*
X65991Y-22851D01*
X66007Y-22866D01*
X66022Y-22896D01*
X66022Y-22912D01*
X66007Y-22942D01*
X65991Y-22957D01*
X65961Y-22973D01*
X65900Y-22973D01*
X65869Y-22988D01*
X65854Y-23003D01*
X65839Y-23034D01*
X65839Y-23095D01*
X65854Y-23125D01*
X65869Y-23140D01*
X65900Y-23156D01*
X65961Y-23156D01*
X65991Y-23140D01*
X66007Y-23125D01*
X66022Y-23095D01*
X66022Y-23034D01*
X66007Y-23003D01*
X65991Y-22988D01*
X65961Y-22973D01*
X66327Y-23156D02*
X66144Y-23156D01*
X66235Y-23156D02*
X66235Y-22836D01*
X66205Y-22881D01*
X66174Y-22912D01*
X66144Y-22927D01*
X66449Y-22866D02*
X66464Y-22851D01*
X66495Y-22836D01*
X66571Y-22836D01*
X66601Y-22851D01*
X66617Y-22866D01*
X66632Y-22896D01*
X66632Y-22927D01*
X66617Y-22973D01*
X66434Y-23156D01*
X66632Y-23156D01*
X66876Y-22988D02*
X66922Y-23003D01*
X66937Y-23018D01*
X66952Y-23049D01*
X66952Y-23095D01*
X66937Y-23125D01*
X66922Y-23140D01*
X66891Y-23156D01*
X66769Y-23156D01*
X66769Y-22836D01*
X66876Y-22836D01*
X66906Y-22851D01*
X66922Y-22866D01*
X66937Y-22896D01*
X66937Y-22927D01*
X66922Y-22957D01*
X66906Y-22973D01*
X66876Y-22988D01*
X66769Y-22988D01*
X74642Y-22604D02*
X74489Y-22604D01*
X74489Y-22284D01*
X74748Y-22436D02*
X74855Y-22436D01*
X74901Y-22604D02*
X74748Y-22604D01*
X74748Y-22284D01*
X74901Y-22284D01*
X75038Y-22604D02*
X75038Y-22284D01*
X75114Y-22284D01*
X75160Y-22299D01*
X75191Y-22329D01*
X75206Y-22360D01*
X75221Y-22421D01*
X75221Y-22466D01*
X75206Y-22527D01*
X75191Y-22558D01*
X75160Y-22588D01*
X75114Y-22604D01*
X75038Y-22604D01*
X75495Y-22390D02*
X75495Y-22604D01*
X75419Y-22268D02*
X75343Y-22497D01*
X75541Y-22497D01*
X73064Y-23156D02*
X73064Y-22836D01*
X73171Y-23064D01*
X73278Y-22836D01*
X73278Y-23156D01*
X73415Y-23064D02*
X73567Y-23064D01*
X73384Y-23156D02*
X73491Y-22836D01*
X73598Y-23156D01*
X73704Y-23156D02*
X73704Y-22836D01*
X73780Y-22836D01*
X73826Y-22851D01*
X73857Y-22881D01*
X73872Y-22912D01*
X73887Y-22973D01*
X73887Y-23018D01*
X73872Y-23079D01*
X73857Y-23110D01*
X73826Y-23140D01*
X73780Y-23156D01*
X73704Y-23156D01*
X73994Y-22836D02*
X74070Y-23156D01*
X74131Y-22927D01*
X74192Y-23156D01*
X74268Y-22836D01*
X74314Y-23186D02*
X74558Y-23186D01*
X74558Y-23186D02*
X74802Y-23186D01*
X74848Y-22836D02*
X74924Y-23156D01*
X74985Y-22927D01*
X75046Y-23156D01*
X75122Y-22836D01*
X75229Y-23140D02*
X75275Y-23156D01*
X75351Y-23156D01*
X75381Y-23140D01*
X75397Y-23125D01*
X75412Y-23095D01*
X75412Y-23064D01*
X75397Y-23034D01*
X75381Y-23018D01*
X75351Y-23003D01*
X75290Y-22988D01*
X75259Y-22973D01*
X75244Y-22957D01*
X75229Y-22927D01*
X75229Y-22896D01*
X75244Y-22866D01*
X75259Y-22851D01*
X75290Y-22836D01*
X75366Y-22836D01*
X75412Y-22851D01*
X75534Y-22866D02*
X75549Y-22851D01*
X75580Y-22836D01*
X75656Y-22836D01*
X75686Y-22851D01*
X75702Y-22866D01*
X75717Y-22896D01*
X75717Y-22927D01*
X75702Y-22973D01*
X75519Y-23156D01*
X75717Y-23156D01*
X75900Y-22973D02*
X75869Y-22957D01*
X75854Y-22942D01*
X75839Y-22912D01*
X75839Y-22896D01*
X75854Y-22866D01*
X75869Y-22851D01*
X75900Y-22836D01*
X75961Y-22836D01*
X75991Y-22851D01*
X76007Y-22866D01*
X76022Y-22896D01*
X76022Y-22912D01*
X76007Y-22942D01*
X75991Y-22957D01*
X75961Y-22973D01*
X75900Y-22973D01*
X75869Y-22988D01*
X75854Y-23003D01*
X75839Y-23034D01*
X75839Y-23095D01*
X75854Y-23125D01*
X75869Y-23140D01*
X75900Y-23156D01*
X75961Y-23156D01*
X75991Y-23140D01*
X76007Y-23125D01*
X76022Y-23095D01*
X76022Y-23034D01*
X76007Y-23003D01*
X75991Y-22988D01*
X75961Y-22973D01*
X76327Y-23156D02*
X76144Y-23156D01*
X76235Y-23156D02*
X76235Y-22836D01*
X76205Y-22881D01*
X76174Y-22912D01*
X76144Y-22927D01*
X76449Y-22866D02*
X76464Y-22851D01*
X76495Y-22836D01*
X76571Y-22836D01*
X76601Y-22851D01*
X76617Y-22866D01*
X76632Y-22896D01*
X76632Y-22927D01*
X76617Y-22973D01*
X76434Y-23156D01*
X76632Y-23156D01*
X76876Y-22988D02*
X76922Y-23003D01*
X76937Y-23018D01*
X76952Y-23049D01*
X76952Y-23095D01*
X76937Y-23125D01*
X76922Y-23140D01*
X76891Y-23156D01*
X76769Y-23156D01*
X76769Y-22836D01*
X76876Y-22836D01*
X76906Y-22851D01*
X76922Y-22866D01*
X76937Y-22896D01*
X76937Y-22927D01*
X76922Y-22957D01*
X76906Y-22973D01*
X76876Y-22988D01*
X76769Y-22988D01*
G54D17*
X36233Y-21967D02*
X36264Y-21979D01*
X36317Y-21979D01*
X36338Y-21967D01*
X36348Y-21954D01*
X36359Y-21930D01*
X36359Y-21905D01*
X36348Y-21880D01*
X36338Y-21868D01*
X36317Y-21855D01*
X36275Y-21843D01*
X36254Y-21831D01*
X36243Y-21818D01*
X36233Y-21794D01*
X36233Y-21769D01*
X36243Y-21744D01*
X36254Y-21732D01*
X36275Y-21719D01*
X36327Y-21719D01*
X36359Y-21732D01*
X36432Y-21719D02*
X36485Y-21979D01*
X36527Y-21794D01*
X36569Y-21979D01*
X36621Y-21719D01*
X36652Y-22004D02*
X36820Y-22004D01*
X36872Y-21979D02*
X36872Y-21719D01*
X36956Y-21719D01*
X36977Y-21732D01*
X36988Y-21744D01*
X36998Y-21769D01*
X36998Y-21806D01*
X36988Y-21831D01*
X36977Y-21843D01*
X36956Y-21855D01*
X36872Y-21855D01*
X37092Y-21719D02*
X37092Y-21930D01*
X37103Y-21954D01*
X37113Y-21967D01*
X37134Y-21979D01*
X37176Y-21979D01*
X37197Y-21967D01*
X37208Y-21954D01*
X37218Y-21930D01*
X37218Y-21719D01*
X37312Y-21967D02*
X37343Y-21979D01*
X37396Y-21979D01*
X37417Y-21967D01*
X37427Y-21954D01*
X37438Y-21930D01*
X37438Y-21905D01*
X37427Y-21880D01*
X37417Y-21868D01*
X37396Y-21855D01*
X37354Y-21843D01*
X37333Y-21831D01*
X37322Y-21818D01*
X37312Y-21794D01*
X37312Y-21769D01*
X37322Y-21744D01*
X37333Y-21732D01*
X37354Y-21719D01*
X37406Y-21719D01*
X37438Y-21732D01*
X37532Y-21979D02*
X37532Y-21719D01*
X37532Y-21843D02*
X37658Y-21843D01*
X37658Y-21979D02*
X37658Y-21719D01*
M02*
