G04 (created by PCBNEW-RS274X (2012-apr-16-27)-stable) date Sun 05 Jan 2014 01:48:33 PM CET*
G01*
G70*
G90*
%MOIN*%
G04 Gerber Fmt 3.4, Leading zero omitted, Abs format*
%FSLAX34Y34*%
G04 APERTURE LIST*
%ADD10C,0.006000*%
%ADD11R,0.080000X0.060000*%
%ADD12R,0.055000X0.035000*%
%ADD13R,0.035000X0.055000*%
%ADD14R,0.060000X0.060000*%
%ADD15C,0.060000*%
%ADD16R,0.090600X0.090600*%
%ADD17R,0.053100X0.015700*%
%ADD18R,0.059100X0.082700*%
%ADD19R,0.074800X0.094500*%
%ADD20R,0.074800X0.070900*%
%ADD21R,0.031000X0.011000*%
%ADD22R,0.011000X0.031000*%
%ADD23R,0.050000X0.050000*%
%ADD24R,0.030000X0.180000*%
%ADD25R,0.078700X0.055100*%
%ADD26C,0.035000*%
%ADD27C,0.008000*%
%ADD28C,0.012000*%
%ADD29C,0.005000*%
G04 APERTURE END LIST*
G54D10*
G54D11*
X38000Y-24600D03*
X38000Y-25900D03*
G54D12*
X43250Y-25625D03*
X43250Y-24875D03*
X39250Y-25625D03*
X39250Y-24875D03*
G54D13*
X38375Y-23750D03*
X37625Y-23750D03*
X38325Y-22500D03*
X37575Y-22500D03*
G54D12*
X39050Y-20825D03*
X39050Y-21575D03*
G54D14*
X77500Y-24250D03*
G54D15*
X77500Y-23250D03*
X77500Y-22250D03*
X77500Y-21250D03*
G54D16*
X42234Y-25250D03*
X40266Y-25250D03*
G54D17*
X36500Y-24250D03*
X36500Y-23994D03*
X36500Y-24506D03*
X36500Y-23738D03*
X36500Y-24762D03*
G54D18*
X36500Y-22990D03*
X36500Y-25510D03*
G54D19*
X35457Y-22754D03*
X35457Y-25746D03*
G54D20*
X35457Y-23797D03*
X35457Y-24703D03*
G54D21*
X39875Y-21765D03*
G54D22*
X40265Y-24125D03*
G54D10*
G36*
X42470Y-23680D02*
X42780Y-23680D01*
X42780Y-23790D01*
X42470Y-23790D01*
X42470Y-23680D01*
X42470Y-23680D01*
G37*
G54D22*
X42235Y-21375D03*
G54D21*
X39875Y-21962D03*
G54D22*
X40462Y-24125D03*
G54D10*
G36*
X42470Y-23483D02*
X42780Y-23483D01*
X42780Y-23593D01*
X42470Y-23593D01*
X42470Y-23483D01*
X42470Y-23483D01*
G37*
G54D22*
X42038Y-21375D03*
G54D21*
X39875Y-22159D03*
G54D22*
X40659Y-24125D03*
G54D10*
G36*
X42470Y-23286D02*
X42780Y-23286D01*
X42780Y-23396D01*
X42470Y-23396D01*
X42470Y-23286D01*
X42470Y-23286D01*
G37*
G54D22*
X41841Y-21375D03*
G54D21*
X39875Y-22356D03*
G54D22*
X40856Y-24125D03*
G54D10*
G36*
X42470Y-23089D02*
X42780Y-23089D01*
X42780Y-23199D01*
X42470Y-23199D01*
X42470Y-23089D01*
X42470Y-23089D01*
G37*
G54D22*
X41644Y-21375D03*
G54D21*
X39875Y-22553D03*
G54D22*
X41053Y-24125D03*
G54D10*
G36*
X42470Y-22892D02*
X42780Y-22892D01*
X42780Y-23002D01*
X42470Y-23002D01*
X42470Y-22892D01*
X42470Y-22892D01*
G37*
G54D22*
X41447Y-21375D03*
G54D21*
X39875Y-22750D03*
G54D22*
X41250Y-24125D03*
G54D10*
G36*
X42470Y-22695D02*
X42780Y-22695D01*
X42780Y-22805D01*
X42470Y-22805D01*
X42470Y-22695D01*
X42470Y-22695D01*
G37*
G54D22*
X41250Y-21375D03*
G54D21*
X39875Y-22947D03*
G54D22*
X41447Y-24125D03*
G54D10*
G36*
X42470Y-22498D02*
X42780Y-22498D01*
X42780Y-22608D01*
X42470Y-22608D01*
X42470Y-22498D01*
X42470Y-22498D01*
G37*
G54D22*
X41053Y-21375D03*
G54D21*
X39875Y-23144D03*
G54D22*
X41644Y-24125D03*
G54D10*
G36*
X42470Y-22301D02*
X42780Y-22301D01*
X42780Y-22411D01*
X42470Y-22411D01*
X42470Y-22301D01*
X42470Y-22301D01*
G37*
G54D22*
X40856Y-21375D03*
G54D21*
X39875Y-23341D03*
G54D22*
X41841Y-24125D03*
G54D10*
G36*
X42470Y-22104D02*
X42780Y-22104D01*
X42780Y-22214D01*
X42470Y-22214D01*
X42470Y-22104D01*
X42470Y-22104D01*
G37*
G54D22*
X40659Y-21375D03*
G54D21*
X39875Y-23538D03*
G54D22*
X42038Y-24125D03*
G54D10*
G36*
X42470Y-21907D02*
X42780Y-21907D01*
X42780Y-22017D01*
X42470Y-22017D01*
X42470Y-21907D01*
X42470Y-21907D01*
G37*
G54D22*
X40462Y-21375D03*
G54D21*
X39875Y-23735D03*
G54D22*
X42235Y-24125D03*
G54D10*
G36*
X42470Y-21710D02*
X42780Y-21710D01*
X42780Y-21820D01*
X42470Y-21820D01*
X42470Y-21710D01*
X42470Y-21710D01*
G37*
G54D22*
X40265Y-21375D03*
G54D23*
X41000Y-22500D03*
X41500Y-22500D03*
X41000Y-23000D03*
X41500Y-23000D03*
G54D13*
X41525Y-20700D03*
X42275Y-20700D03*
G54D24*
X44200Y-21650D03*
X45800Y-21650D03*
X44200Y-23850D03*
X45800Y-23850D03*
X54200Y-21650D03*
X55800Y-21650D03*
X54200Y-23850D03*
X55800Y-23850D03*
X64200Y-21650D03*
X65800Y-21650D03*
X64200Y-23850D03*
X65800Y-23850D03*
X74200Y-21650D03*
X75800Y-21650D03*
X74200Y-23850D03*
X75800Y-23850D03*
G54D25*
X37950Y-19800D03*
X37950Y-21400D03*
X35950Y-19800D03*
X35950Y-21400D03*
G54D26*
X44800Y-25650D03*
X41450Y-21900D03*
X75000Y-23850D03*
X42100Y-23600D03*
X36250Y-22100D03*
X40400Y-23600D03*
X40400Y-22000D03*
X45000Y-23850D03*
X55000Y-23850D03*
X65000Y-23850D03*
X42100Y-22000D03*
G54D27*
X42625Y-24125D02*
X42750Y-24250D01*
X42985Y-23735D02*
X43000Y-23750D01*
X42625Y-23735D02*
X42625Y-24125D01*
X40856Y-24125D02*
X40856Y-24394D01*
X40856Y-24394D02*
X40750Y-24500D01*
X42625Y-23735D02*
X42985Y-23735D01*
X40856Y-23644D02*
X41000Y-23500D01*
X40856Y-24125D02*
X40856Y-23644D01*
X40675Y-20825D02*
X39050Y-20825D01*
X40856Y-21006D02*
X40675Y-20825D01*
X40856Y-21375D02*
X40856Y-21006D01*
X35950Y-19800D02*
X37950Y-19800D01*
X39050Y-20250D02*
X38600Y-19800D01*
X38600Y-19800D02*
X37950Y-19800D01*
X39050Y-20825D02*
X39050Y-20250D01*
X40266Y-25250D02*
X39891Y-24875D01*
X41053Y-24125D02*
X41053Y-24947D01*
X39891Y-24875D02*
X39250Y-24875D01*
X41053Y-24947D02*
X40750Y-25250D01*
X40750Y-25250D02*
X40266Y-25250D01*
X39600Y-22750D02*
X39875Y-22750D01*
X38000Y-24600D02*
X38450Y-24600D01*
X39350Y-23700D02*
X39350Y-23000D01*
X39350Y-23000D02*
X39600Y-22750D01*
X38450Y-24600D02*
X39350Y-23700D01*
X76750Y-23250D02*
X77500Y-23250D01*
X75800Y-23850D02*
X76150Y-23850D01*
X76150Y-23850D02*
X76750Y-23250D01*
X41500Y-25250D02*
X42234Y-25250D01*
X41250Y-24125D02*
X41250Y-25000D01*
X42609Y-24875D02*
X43250Y-24875D01*
X42234Y-25250D02*
X42609Y-24875D01*
X41250Y-25000D02*
X41500Y-25250D01*
X42625Y-23341D02*
X43209Y-23341D01*
X43400Y-21900D02*
X43650Y-21650D01*
X43650Y-21650D02*
X44200Y-21650D01*
X43209Y-23341D02*
X43400Y-23150D01*
X43400Y-23150D02*
X43400Y-21900D01*
X37400Y-23750D02*
X37625Y-23750D01*
X36500Y-24250D02*
X36900Y-24250D01*
X36900Y-24250D02*
X37400Y-23750D01*
X36500Y-23994D02*
X36856Y-23994D01*
X36856Y-23994D02*
X37150Y-23700D01*
X37150Y-23700D02*
X37150Y-22700D01*
X37150Y-22700D02*
X37350Y-22500D01*
X37350Y-22500D02*
X37575Y-22500D01*
X58800Y-23850D02*
X61000Y-21650D01*
X61000Y-21650D02*
X64200Y-21650D01*
X55800Y-23850D02*
X58800Y-23850D01*
X70950Y-21650D02*
X74200Y-21650D01*
X68750Y-23850D02*
X70950Y-21650D01*
X65800Y-23850D02*
X68750Y-23850D01*
X38600Y-23750D02*
X38375Y-23750D01*
X38800Y-23050D02*
X39250Y-22600D01*
X39462Y-22400D02*
X39450Y-22400D01*
X39606Y-22356D02*
X39506Y-22356D01*
X39606Y-22356D02*
X39600Y-22350D01*
X39506Y-22356D02*
X39462Y-22400D01*
X39606Y-22356D02*
X39875Y-22356D01*
X39450Y-22400D02*
X39250Y-22600D01*
X38600Y-23750D02*
X38800Y-23550D01*
X38800Y-23550D02*
X38800Y-23050D01*
X39391Y-22159D02*
X39050Y-22500D01*
X39050Y-22500D02*
X38325Y-22500D01*
X39875Y-22159D02*
X39391Y-22159D01*
X45800Y-23850D02*
X48350Y-23850D01*
X50550Y-21650D02*
X54200Y-21650D01*
X48350Y-23850D02*
X50550Y-21650D01*
X44800Y-25650D02*
X44950Y-25500D01*
X41150Y-21750D02*
X41300Y-21750D01*
X41300Y-21750D02*
X41450Y-21900D01*
X77900Y-25500D02*
X78700Y-24700D01*
X78700Y-24700D02*
X78700Y-23450D01*
X41053Y-21375D02*
X41053Y-21653D01*
X41053Y-20897D02*
X41250Y-20700D01*
X41250Y-20700D02*
X41525Y-20700D01*
X41053Y-21375D02*
X41053Y-20897D01*
X78700Y-23450D02*
X77500Y-22250D01*
X41053Y-21653D02*
X41150Y-21750D01*
X44950Y-25500D02*
X77900Y-25500D01*
G54D28*
X40400Y-23600D02*
X40400Y-23100D01*
X39162Y-21962D02*
X39050Y-21850D01*
X64200Y-23850D02*
X65000Y-23850D01*
X39050Y-21850D02*
X39050Y-21575D01*
X42235Y-21375D02*
X42235Y-20740D01*
X42235Y-20740D02*
X42275Y-20700D01*
X42235Y-21375D02*
X42235Y-21915D01*
X74200Y-23850D02*
X75000Y-23850D01*
X40659Y-23859D02*
X40400Y-23600D01*
X36000Y-22350D02*
X36250Y-22100D01*
X40247Y-22947D02*
X39875Y-22947D01*
X40265Y-21815D02*
X40400Y-22000D01*
X40247Y-22947D02*
X40400Y-23100D01*
X44200Y-23850D02*
X45000Y-23850D01*
X40388Y-21962D02*
X40400Y-22000D01*
X36500Y-23738D02*
X36138Y-23738D01*
X36000Y-23600D02*
X36000Y-22350D01*
X42235Y-21915D02*
X42100Y-22000D01*
X54200Y-23850D02*
X55000Y-23850D01*
X42625Y-23538D02*
X42062Y-23538D01*
X42062Y-23538D02*
X42100Y-23600D01*
X40659Y-24125D02*
X40659Y-23859D01*
X36138Y-23738D02*
X36000Y-23600D01*
X39875Y-21962D02*
X39162Y-21962D01*
X40265Y-21815D02*
X40265Y-21375D01*
X39875Y-21962D02*
X40388Y-21962D01*
G54D10*
G36*
X79800Y-26300D02*
X78865Y-26300D01*
X78865Y-24700D01*
X78865Y-23450D01*
X78852Y-23387D01*
X78817Y-23333D01*
X77893Y-22409D01*
X77925Y-22335D01*
X77925Y-22166D01*
X77919Y-22151D01*
X77919Y-21325D01*
X77915Y-21159D01*
X77858Y-21021D01*
X77796Y-20990D01*
X77760Y-21025D01*
X77760Y-20954D01*
X77729Y-20892D01*
X77575Y-20831D01*
X77409Y-20835D01*
X77271Y-20892D01*
X77240Y-20954D01*
X77500Y-21215D01*
X77760Y-20954D01*
X77760Y-21025D01*
X77535Y-21250D01*
X77796Y-21510D01*
X77858Y-21479D01*
X77919Y-21325D01*
X77919Y-22151D01*
X77861Y-22010D01*
X77760Y-21909D01*
X77760Y-21546D01*
X77500Y-21285D01*
X77465Y-21320D01*
X77465Y-21250D01*
X77204Y-20990D01*
X77142Y-21021D01*
X77081Y-21175D01*
X77085Y-21341D01*
X77142Y-21479D01*
X77204Y-21510D01*
X77465Y-21250D01*
X77465Y-21320D01*
X77240Y-21546D01*
X77271Y-21608D01*
X77425Y-21669D01*
X77591Y-21665D01*
X77729Y-21608D01*
X77760Y-21546D01*
X77760Y-21909D01*
X77741Y-21890D01*
X77585Y-21825D01*
X77416Y-21825D01*
X77260Y-21889D01*
X77140Y-22009D01*
X77075Y-22165D01*
X77075Y-22334D01*
X77139Y-22490D01*
X77259Y-22610D01*
X77415Y-22675D01*
X77584Y-22675D01*
X77659Y-22643D01*
X78535Y-23519D01*
X78535Y-24631D01*
X77925Y-25241D01*
X77925Y-24575D01*
X77925Y-24525D01*
X77925Y-23925D01*
X77925Y-23335D01*
X77925Y-23166D01*
X77861Y-23010D01*
X77741Y-22890D01*
X77585Y-22825D01*
X77416Y-22825D01*
X77260Y-22889D01*
X77140Y-23009D01*
X77108Y-23085D01*
X76750Y-23085D01*
X76687Y-23098D01*
X76633Y-23133D01*
X76631Y-23135D01*
X76081Y-23685D01*
X76075Y-23685D01*
X76075Y-22925D01*
X76075Y-22575D01*
X76075Y-22525D01*
X76075Y-21706D01*
X76075Y-21594D01*
X76075Y-20775D01*
X76075Y-20725D01*
X76056Y-20679D01*
X76021Y-20644D01*
X75975Y-20625D01*
X75856Y-20625D01*
X75825Y-20656D01*
X75825Y-21625D01*
X76044Y-21625D01*
X76075Y-21594D01*
X76075Y-21706D01*
X76044Y-21675D01*
X75825Y-21675D01*
X75825Y-22644D01*
X75856Y-22675D01*
X75975Y-22675D01*
X76021Y-22656D01*
X76056Y-22621D01*
X76075Y-22575D01*
X76075Y-22925D01*
X76056Y-22879D01*
X76021Y-22844D01*
X75975Y-22825D01*
X75925Y-22825D01*
X75775Y-22825D01*
X75775Y-22644D01*
X75775Y-21675D01*
X75775Y-21625D01*
X75775Y-20656D01*
X75744Y-20625D01*
X75625Y-20625D01*
X75579Y-20644D01*
X75544Y-20679D01*
X75525Y-20725D01*
X75525Y-20775D01*
X75525Y-21594D01*
X75556Y-21625D01*
X75775Y-21625D01*
X75775Y-21675D01*
X75556Y-21675D01*
X75525Y-21706D01*
X75525Y-22525D01*
X75525Y-22575D01*
X75544Y-22621D01*
X75579Y-22656D01*
X75625Y-22675D01*
X75744Y-22675D01*
X75775Y-22644D01*
X75775Y-22825D01*
X75625Y-22825D01*
X75579Y-22844D01*
X75544Y-22879D01*
X75525Y-22925D01*
X75525Y-22975D01*
X75525Y-24775D01*
X75544Y-24821D01*
X75579Y-24856D01*
X75625Y-24875D01*
X75675Y-24875D01*
X75975Y-24875D01*
X76021Y-24856D01*
X76056Y-24821D01*
X76075Y-24775D01*
X76075Y-24725D01*
X76075Y-24015D01*
X76150Y-24015D01*
X76213Y-24002D01*
X76267Y-23967D01*
X76818Y-23415D01*
X77108Y-23415D01*
X77139Y-23490D01*
X77259Y-23610D01*
X77415Y-23675D01*
X77584Y-23675D01*
X77740Y-23611D01*
X77860Y-23491D01*
X77925Y-23335D01*
X77925Y-23925D01*
X77906Y-23879D01*
X77871Y-23844D01*
X77825Y-23825D01*
X77775Y-23825D01*
X77175Y-23825D01*
X77129Y-23844D01*
X77094Y-23879D01*
X77075Y-23925D01*
X77075Y-23975D01*
X77075Y-24575D01*
X77094Y-24621D01*
X77129Y-24656D01*
X77175Y-24675D01*
X77225Y-24675D01*
X77825Y-24675D01*
X77871Y-24656D01*
X77906Y-24621D01*
X77925Y-24575D01*
X77925Y-25241D01*
X77831Y-25335D01*
X75299Y-25335D01*
X75299Y-23910D01*
X75299Y-23791D01*
X75254Y-23681D01*
X75170Y-23597D01*
X75060Y-23551D01*
X74941Y-23551D01*
X74831Y-23596D01*
X74762Y-23665D01*
X74475Y-23665D01*
X74475Y-22925D01*
X74475Y-22575D01*
X74475Y-22525D01*
X74475Y-20725D01*
X74456Y-20679D01*
X74421Y-20644D01*
X74375Y-20625D01*
X74325Y-20625D01*
X74025Y-20625D01*
X73979Y-20644D01*
X73944Y-20679D01*
X73925Y-20725D01*
X73925Y-20775D01*
X73925Y-21485D01*
X70950Y-21485D01*
X70887Y-21498D01*
X70833Y-21533D01*
X70831Y-21535D01*
X68681Y-23685D01*
X66075Y-23685D01*
X66075Y-22925D01*
X66075Y-22575D01*
X66075Y-22525D01*
X66075Y-21706D01*
X66075Y-21594D01*
X66075Y-20775D01*
X66075Y-20725D01*
X66056Y-20679D01*
X66021Y-20644D01*
X65975Y-20625D01*
X65856Y-20625D01*
X65825Y-20656D01*
X65825Y-21625D01*
X66044Y-21625D01*
X66075Y-21594D01*
X66075Y-21706D01*
X66044Y-21675D01*
X65825Y-21675D01*
X65825Y-22644D01*
X65856Y-22675D01*
X65975Y-22675D01*
X66021Y-22656D01*
X66056Y-22621D01*
X66075Y-22575D01*
X66075Y-22925D01*
X66056Y-22879D01*
X66021Y-22844D01*
X65975Y-22825D01*
X65925Y-22825D01*
X65775Y-22825D01*
X65775Y-22644D01*
X65775Y-21675D01*
X65775Y-21625D01*
X65775Y-20656D01*
X65744Y-20625D01*
X65625Y-20625D01*
X65579Y-20644D01*
X65544Y-20679D01*
X65525Y-20725D01*
X65525Y-20775D01*
X65525Y-21594D01*
X65556Y-21625D01*
X65775Y-21625D01*
X65775Y-21675D01*
X65556Y-21675D01*
X65525Y-21706D01*
X65525Y-22525D01*
X65525Y-22575D01*
X65544Y-22621D01*
X65579Y-22656D01*
X65625Y-22675D01*
X65744Y-22675D01*
X65775Y-22644D01*
X65775Y-22825D01*
X65625Y-22825D01*
X65579Y-22844D01*
X65544Y-22879D01*
X65525Y-22925D01*
X65525Y-22975D01*
X65525Y-24775D01*
X65544Y-24821D01*
X65579Y-24856D01*
X65625Y-24875D01*
X65675Y-24875D01*
X65975Y-24875D01*
X66021Y-24856D01*
X66056Y-24821D01*
X66075Y-24775D01*
X66075Y-24725D01*
X66075Y-24015D01*
X68750Y-24015D01*
X68813Y-24002D01*
X68867Y-23967D01*
X71018Y-21815D01*
X73925Y-21815D01*
X73925Y-22575D01*
X73944Y-22621D01*
X73979Y-22656D01*
X74025Y-22675D01*
X74075Y-22675D01*
X74375Y-22675D01*
X74421Y-22656D01*
X74456Y-22621D01*
X74475Y-22575D01*
X74475Y-22925D01*
X74456Y-22879D01*
X74421Y-22844D01*
X74375Y-22825D01*
X74325Y-22825D01*
X74025Y-22825D01*
X73979Y-22844D01*
X73944Y-22879D01*
X73925Y-22925D01*
X73925Y-22975D01*
X73925Y-24775D01*
X73944Y-24821D01*
X73979Y-24856D01*
X74025Y-24875D01*
X74075Y-24875D01*
X74375Y-24875D01*
X74421Y-24856D01*
X74456Y-24821D01*
X74475Y-24775D01*
X74475Y-24725D01*
X74475Y-24035D01*
X74762Y-24035D01*
X74830Y-24103D01*
X74940Y-24149D01*
X75059Y-24149D01*
X75169Y-24104D01*
X75253Y-24020D01*
X75299Y-23910D01*
X75299Y-25335D01*
X65299Y-25335D01*
X65299Y-23910D01*
X65299Y-23791D01*
X65254Y-23681D01*
X65170Y-23597D01*
X65060Y-23551D01*
X64941Y-23551D01*
X64831Y-23596D01*
X64762Y-23665D01*
X64475Y-23665D01*
X64475Y-22925D01*
X64475Y-22575D01*
X64475Y-22525D01*
X64475Y-20725D01*
X64456Y-20679D01*
X64421Y-20644D01*
X64375Y-20625D01*
X64325Y-20625D01*
X64025Y-20625D01*
X63979Y-20644D01*
X63944Y-20679D01*
X63925Y-20725D01*
X63925Y-20775D01*
X63925Y-21485D01*
X61000Y-21485D01*
X60937Y-21498D01*
X60883Y-21533D01*
X60881Y-21535D01*
X58731Y-23685D01*
X56075Y-23685D01*
X56075Y-22925D01*
X56075Y-22575D01*
X56075Y-22525D01*
X56075Y-21706D01*
X56075Y-21594D01*
X56075Y-20775D01*
X56075Y-20725D01*
X56056Y-20679D01*
X56021Y-20644D01*
X55975Y-20625D01*
X55856Y-20625D01*
X55825Y-20656D01*
X55825Y-21625D01*
X56044Y-21625D01*
X56075Y-21594D01*
X56075Y-21706D01*
X56044Y-21675D01*
X55825Y-21675D01*
X55825Y-22644D01*
X55856Y-22675D01*
X55975Y-22675D01*
X56021Y-22656D01*
X56056Y-22621D01*
X56075Y-22575D01*
X56075Y-22925D01*
X56056Y-22879D01*
X56021Y-22844D01*
X55975Y-22825D01*
X55925Y-22825D01*
X55775Y-22825D01*
X55775Y-22644D01*
X55775Y-21675D01*
X55775Y-21625D01*
X55775Y-20656D01*
X55744Y-20625D01*
X55625Y-20625D01*
X55579Y-20644D01*
X55544Y-20679D01*
X55525Y-20725D01*
X55525Y-20775D01*
X55525Y-21594D01*
X55556Y-21625D01*
X55775Y-21625D01*
X55775Y-21675D01*
X55556Y-21675D01*
X55525Y-21706D01*
X55525Y-22525D01*
X55525Y-22575D01*
X55544Y-22621D01*
X55579Y-22656D01*
X55625Y-22675D01*
X55744Y-22675D01*
X55775Y-22644D01*
X55775Y-22825D01*
X55625Y-22825D01*
X55579Y-22844D01*
X55544Y-22879D01*
X55525Y-22925D01*
X55525Y-22975D01*
X55525Y-24775D01*
X55544Y-24821D01*
X55579Y-24856D01*
X55625Y-24875D01*
X55675Y-24875D01*
X55975Y-24875D01*
X56021Y-24856D01*
X56056Y-24821D01*
X56075Y-24775D01*
X56075Y-24725D01*
X56075Y-24015D01*
X58800Y-24015D01*
X58863Y-24002D01*
X58917Y-23967D01*
X61068Y-21815D01*
X63925Y-21815D01*
X63925Y-22575D01*
X63944Y-22621D01*
X63979Y-22656D01*
X64025Y-22675D01*
X64075Y-22675D01*
X64375Y-22675D01*
X64421Y-22656D01*
X64456Y-22621D01*
X64475Y-22575D01*
X64475Y-22925D01*
X64456Y-22879D01*
X64421Y-22844D01*
X64375Y-22825D01*
X64325Y-22825D01*
X64025Y-22825D01*
X63979Y-22844D01*
X63944Y-22879D01*
X63925Y-22925D01*
X63925Y-22975D01*
X63925Y-24775D01*
X63944Y-24821D01*
X63979Y-24856D01*
X64025Y-24875D01*
X64075Y-24875D01*
X64375Y-24875D01*
X64421Y-24856D01*
X64456Y-24821D01*
X64475Y-24775D01*
X64475Y-24725D01*
X64475Y-24035D01*
X64762Y-24035D01*
X64830Y-24103D01*
X64940Y-24149D01*
X65059Y-24149D01*
X65169Y-24104D01*
X65253Y-24020D01*
X65299Y-23910D01*
X65299Y-25335D01*
X55299Y-25335D01*
X55299Y-23910D01*
X55299Y-23791D01*
X55254Y-23681D01*
X55170Y-23597D01*
X55060Y-23551D01*
X54941Y-23551D01*
X54831Y-23596D01*
X54762Y-23665D01*
X54475Y-23665D01*
X54475Y-22925D01*
X54475Y-22575D01*
X54475Y-22525D01*
X54475Y-20725D01*
X54456Y-20679D01*
X54421Y-20644D01*
X54375Y-20625D01*
X54325Y-20625D01*
X54025Y-20625D01*
X53979Y-20644D01*
X53944Y-20679D01*
X53925Y-20725D01*
X53925Y-20775D01*
X53925Y-21485D01*
X50550Y-21485D01*
X50487Y-21498D01*
X50433Y-21533D01*
X50431Y-21535D01*
X48281Y-23685D01*
X46075Y-23685D01*
X46075Y-22925D01*
X46075Y-22575D01*
X46075Y-22525D01*
X46075Y-21706D01*
X46075Y-21594D01*
X46075Y-20775D01*
X46075Y-20725D01*
X46056Y-20679D01*
X46021Y-20644D01*
X45975Y-20625D01*
X45856Y-20625D01*
X45825Y-20656D01*
X45825Y-21625D01*
X46044Y-21625D01*
X46075Y-21594D01*
X46075Y-21706D01*
X46044Y-21675D01*
X45825Y-21675D01*
X45825Y-22644D01*
X45856Y-22675D01*
X45975Y-22675D01*
X46021Y-22656D01*
X46056Y-22621D01*
X46075Y-22575D01*
X46075Y-22925D01*
X46056Y-22879D01*
X46021Y-22844D01*
X45975Y-22825D01*
X45925Y-22825D01*
X45775Y-22825D01*
X45775Y-22644D01*
X45775Y-21675D01*
X45775Y-21625D01*
X45775Y-20656D01*
X45744Y-20625D01*
X45625Y-20625D01*
X45579Y-20644D01*
X45544Y-20679D01*
X45525Y-20725D01*
X45525Y-20775D01*
X45525Y-21594D01*
X45556Y-21625D01*
X45775Y-21625D01*
X45775Y-21675D01*
X45556Y-21675D01*
X45525Y-21706D01*
X45525Y-22525D01*
X45525Y-22575D01*
X45544Y-22621D01*
X45579Y-22656D01*
X45625Y-22675D01*
X45744Y-22675D01*
X45775Y-22644D01*
X45775Y-22825D01*
X45625Y-22825D01*
X45579Y-22844D01*
X45544Y-22879D01*
X45525Y-22925D01*
X45525Y-22975D01*
X45525Y-24775D01*
X45544Y-24821D01*
X45579Y-24856D01*
X45625Y-24875D01*
X45675Y-24875D01*
X45975Y-24875D01*
X46021Y-24856D01*
X46056Y-24821D01*
X46075Y-24775D01*
X46075Y-24725D01*
X46075Y-24015D01*
X48350Y-24015D01*
X48413Y-24002D01*
X48467Y-23967D01*
X50618Y-21815D01*
X53925Y-21815D01*
X53925Y-22575D01*
X53944Y-22621D01*
X53979Y-22656D01*
X54025Y-22675D01*
X54075Y-22675D01*
X54375Y-22675D01*
X54421Y-22656D01*
X54456Y-22621D01*
X54475Y-22575D01*
X54475Y-22925D01*
X54456Y-22879D01*
X54421Y-22844D01*
X54375Y-22825D01*
X54325Y-22825D01*
X54025Y-22825D01*
X53979Y-22844D01*
X53944Y-22879D01*
X53925Y-22925D01*
X53925Y-22975D01*
X53925Y-24775D01*
X53944Y-24821D01*
X53979Y-24856D01*
X54025Y-24875D01*
X54075Y-24875D01*
X54375Y-24875D01*
X54421Y-24856D01*
X54456Y-24821D01*
X54475Y-24775D01*
X54475Y-24725D01*
X54475Y-24035D01*
X54762Y-24035D01*
X54830Y-24103D01*
X54940Y-24149D01*
X55059Y-24149D01*
X55169Y-24104D01*
X55253Y-24020D01*
X55299Y-23910D01*
X55299Y-25335D01*
X45299Y-25335D01*
X45299Y-23910D01*
X45299Y-23791D01*
X45254Y-23681D01*
X45170Y-23597D01*
X45060Y-23551D01*
X44941Y-23551D01*
X44831Y-23596D01*
X44762Y-23665D01*
X44475Y-23665D01*
X44475Y-22925D01*
X44475Y-22575D01*
X44475Y-22525D01*
X44475Y-20725D01*
X44456Y-20679D01*
X44421Y-20644D01*
X44375Y-20625D01*
X44325Y-20625D01*
X44025Y-20625D01*
X43979Y-20644D01*
X43944Y-20679D01*
X43925Y-20725D01*
X43925Y-20775D01*
X43925Y-21485D01*
X43650Y-21485D01*
X43587Y-21498D01*
X43533Y-21533D01*
X43531Y-21535D01*
X43283Y-21783D01*
X43248Y-21837D01*
X43235Y-21900D01*
X43235Y-23081D01*
X43140Y-23176D01*
X42905Y-23176D01*
X42905Y-23174D01*
X42905Y-23064D01*
X42897Y-23045D01*
X42905Y-23027D01*
X42905Y-22977D01*
X42905Y-22867D01*
X42897Y-22848D01*
X42905Y-22830D01*
X42905Y-22780D01*
X42905Y-22670D01*
X42897Y-22651D01*
X42905Y-22633D01*
X42905Y-22583D01*
X42905Y-22473D01*
X42897Y-22454D01*
X42905Y-22436D01*
X42905Y-22386D01*
X42905Y-22276D01*
X42897Y-22257D01*
X42905Y-22239D01*
X42905Y-22189D01*
X42905Y-22079D01*
X42897Y-22060D01*
X42905Y-22042D01*
X42905Y-21992D01*
X42905Y-21882D01*
X42897Y-21863D01*
X42905Y-21845D01*
X42905Y-21795D01*
X42905Y-21685D01*
X42886Y-21639D01*
X42851Y-21604D01*
X42805Y-21585D01*
X42755Y-21585D01*
X42445Y-21585D01*
X42420Y-21595D01*
X42420Y-21375D01*
X42420Y-21100D01*
X42475Y-21100D01*
X42521Y-21081D01*
X42556Y-21046D01*
X42575Y-21000D01*
X42575Y-20950D01*
X42575Y-20400D01*
X42556Y-20354D01*
X42521Y-20319D01*
X42475Y-20300D01*
X42425Y-20300D01*
X42075Y-20300D01*
X42029Y-20319D01*
X41994Y-20354D01*
X41975Y-20400D01*
X41975Y-20450D01*
X41975Y-21000D01*
X41994Y-21046D01*
X42029Y-21081D01*
X42050Y-21089D01*
X42050Y-21375D01*
X42050Y-21701D01*
X42041Y-21701D01*
X41931Y-21746D01*
X41847Y-21830D01*
X41801Y-21940D01*
X41801Y-22059D01*
X41846Y-22169D01*
X41821Y-22144D01*
X41775Y-22125D01*
X41648Y-22125D01*
X41703Y-22070D01*
X41749Y-21960D01*
X41749Y-21841D01*
X41704Y-21731D01*
X41628Y-21655D01*
X41724Y-21655D01*
X41742Y-21647D01*
X41761Y-21655D01*
X41811Y-21655D01*
X41921Y-21655D01*
X41939Y-21647D01*
X41958Y-21655D01*
X41982Y-21655D01*
X42013Y-21624D01*
X42013Y-21574D01*
X42021Y-21555D01*
X42021Y-21505D01*
X42021Y-21195D01*
X42013Y-21175D01*
X42013Y-21126D01*
X41982Y-21095D01*
X41958Y-21095D01*
X41939Y-21102D01*
X41921Y-21095D01*
X41871Y-21095D01*
X41761Y-21095D01*
X41742Y-21102D01*
X41730Y-21097D01*
X41771Y-21081D01*
X41806Y-21046D01*
X41825Y-21000D01*
X41825Y-20950D01*
X41825Y-20400D01*
X41806Y-20354D01*
X41771Y-20319D01*
X41725Y-20300D01*
X41675Y-20300D01*
X41325Y-20300D01*
X41279Y-20319D01*
X41244Y-20354D01*
X41225Y-20400D01*
X41225Y-20450D01*
X41225Y-20540D01*
X41187Y-20548D01*
X41133Y-20583D01*
X41131Y-20585D01*
X40936Y-20780D01*
X40907Y-20824D01*
X40792Y-20708D01*
X40738Y-20673D01*
X40675Y-20660D01*
X39450Y-20660D01*
X39450Y-20625D01*
X39431Y-20579D01*
X39396Y-20544D01*
X39350Y-20525D01*
X39300Y-20525D01*
X39215Y-20525D01*
X39215Y-20250D01*
X39202Y-20187D01*
X39167Y-20133D01*
X39164Y-20131D01*
X38717Y-19683D01*
X38663Y-19648D01*
X38600Y-19635D01*
X38468Y-19635D01*
X38468Y-19500D01*
X38449Y-19454D01*
X38414Y-19419D01*
X38368Y-19400D01*
X38318Y-19400D01*
X37532Y-19400D01*
X37486Y-19419D01*
X37451Y-19454D01*
X37432Y-19500D01*
X37432Y-19550D01*
X37432Y-19635D01*
X36468Y-19635D01*
X36468Y-19500D01*
X36449Y-19454D01*
X36414Y-19419D01*
X36368Y-19400D01*
X36318Y-19400D01*
X35532Y-19400D01*
X35486Y-19419D01*
X35451Y-19454D01*
X35432Y-19500D01*
X35432Y-19550D01*
X35432Y-20100D01*
X35451Y-20146D01*
X35486Y-20181D01*
X35532Y-20200D01*
X35582Y-20200D01*
X36368Y-20200D01*
X36414Y-20181D01*
X36449Y-20146D01*
X36468Y-20100D01*
X36468Y-20050D01*
X36468Y-19965D01*
X37432Y-19965D01*
X37432Y-20100D01*
X37451Y-20146D01*
X37486Y-20181D01*
X37532Y-20200D01*
X37582Y-20200D01*
X38368Y-20200D01*
X38414Y-20181D01*
X38449Y-20146D01*
X38468Y-20100D01*
X38468Y-20050D01*
X38468Y-19965D01*
X38531Y-19965D01*
X38885Y-20318D01*
X38885Y-20525D01*
X38750Y-20525D01*
X38704Y-20544D01*
X38669Y-20579D01*
X38650Y-20625D01*
X38650Y-20675D01*
X38650Y-21025D01*
X38669Y-21071D01*
X38704Y-21106D01*
X38750Y-21125D01*
X38800Y-21125D01*
X39350Y-21125D01*
X39396Y-21106D01*
X39431Y-21071D01*
X39450Y-21025D01*
X39450Y-20990D01*
X40606Y-20990D01*
X40691Y-21074D01*
X40691Y-21095D01*
X40689Y-21095D01*
X40579Y-21095D01*
X40560Y-21102D01*
X40542Y-21095D01*
X40518Y-21095D01*
X40487Y-21126D01*
X40487Y-21175D01*
X40479Y-21195D01*
X40479Y-21245D01*
X40479Y-21555D01*
X40487Y-21574D01*
X40487Y-21624D01*
X40518Y-21655D01*
X40542Y-21655D01*
X40560Y-21647D01*
X40579Y-21655D01*
X40629Y-21655D01*
X40739Y-21655D01*
X40757Y-21647D01*
X40776Y-21655D01*
X40826Y-21655D01*
X40888Y-21655D01*
X40901Y-21716D01*
X40936Y-21770D01*
X41033Y-21867D01*
X41087Y-21902D01*
X41150Y-21915D01*
X41151Y-21915D01*
X41151Y-21959D01*
X41196Y-22069D01*
X41252Y-22125D01*
X41225Y-22125D01*
X41056Y-22125D01*
X41025Y-22156D01*
X41025Y-22475D01*
X41156Y-22475D01*
X41344Y-22475D01*
X41450Y-22475D01*
X41475Y-22475D01*
X41525Y-22475D01*
X41550Y-22475D01*
X41844Y-22475D01*
X41875Y-22444D01*
X41875Y-22275D01*
X41875Y-22225D01*
X41856Y-22179D01*
X41930Y-22253D01*
X42040Y-22299D01*
X42159Y-22299D01*
X42269Y-22254D01*
X42345Y-22178D01*
X42345Y-22239D01*
X42352Y-22257D01*
X42345Y-22276D01*
X42345Y-22326D01*
X42345Y-22436D01*
X42352Y-22454D01*
X42345Y-22473D01*
X42345Y-22523D01*
X42345Y-22633D01*
X42352Y-22651D01*
X42345Y-22670D01*
X42345Y-22720D01*
X42345Y-22830D01*
X42352Y-22848D01*
X42345Y-22867D01*
X42345Y-22917D01*
X42345Y-23027D01*
X42352Y-23045D01*
X42345Y-23064D01*
X42345Y-23114D01*
X42345Y-23224D01*
X42352Y-23242D01*
X42345Y-23261D01*
X42345Y-23311D01*
X42345Y-23353D01*
X42276Y-23353D01*
X42270Y-23347D01*
X42160Y-23301D01*
X42041Y-23301D01*
X41931Y-23346D01*
X41875Y-23402D01*
X41875Y-23275D01*
X41875Y-23225D01*
X41875Y-23056D01*
X41875Y-22944D01*
X41875Y-22775D01*
X41875Y-22725D01*
X41875Y-22556D01*
X41844Y-22525D01*
X41525Y-22525D01*
X41525Y-22656D01*
X41525Y-22844D01*
X41525Y-22975D01*
X41844Y-22975D01*
X41875Y-22944D01*
X41875Y-23056D01*
X41844Y-23025D01*
X41525Y-23025D01*
X41525Y-23344D01*
X41556Y-23375D01*
X41775Y-23375D01*
X41821Y-23356D01*
X41856Y-23321D01*
X41875Y-23275D01*
X41875Y-23402D01*
X41847Y-23430D01*
X41801Y-23540D01*
X41801Y-23659D01*
X41846Y-23769D01*
X41922Y-23845D01*
X41921Y-23845D01*
X41871Y-23845D01*
X41761Y-23845D01*
X41742Y-23852D01*
X41724Y-23845D01*
X41674Y-23845D01*
X41564Y-23845D01*
X41545Y-23852D01*
X41527Y-23845D01*
X41477Y-23845D01*
X41475Y-23845D01*
X41475Y-23344D01*
X41475Y-23025D01*
X41475Y-22975D01*
X41475Y-22844D01*
X41475Y-22656D01*
X41475Y-22525D01*
X41344Y-22525D01*
X41156Y-22525D01*
X41025Y-22525D01*
X41025Y-22656D01*
X41025Y-22844D01*
X41025Y-22975D01*
X41156Y-22975D01*
X41344Y-22975D01*
X41475Y-22975D01*
X41475Y-23025D01*
X41344Y-23025D01*
X41156Y-23025D01*
X41025Y-23025D01*
X41025Y-23344D01*
X41056Y-23375D01*
X41225Y-23375D01*
X41275Y-23375D01*
X41444Y-23375D01*
X41475Y-23344D01*
X41475Y-23845D01*
X41367Y-23845D01*
X41348Y-23852D01*
X41330Y-23845D01*
X41280Y-23845D01*
X41170Y-23845D01*
X41151Y-23852D01*
X41133Y-23845D01*
X41083Y-23845D01*
X40975Y-23845D01*
X40975Y-23344D01*
X40975Y-23025D01*
X40975Y-22975D01*
X40975Y-22844D01*
X40975Y-22656D01*
X40975Y-22525D01*
X40975Y-22475D01*
X40975Y-22156D01*
X40944Y-22125D01*
X40725Y-22125D01*
X40679Y-22144D01*
X40653Y-22170D01*
X40699Y-22060D01*
X40699Y-21941D01*
X40654Y-21831D01*
X40570Y-21747D01*
X40460Y-21701D01*
X40450Y-21701D01*
X40450Y-21375D01*
X40445Y-21349D01*
X40445Y-21195D01*
X40437Y-21175D01*
X40437Y-21126D01*
X40406Y-21095D01*
X40382Y-21095D01*
X40363Y-21102D01*
X40345Y-21095D01*
X40295Y-21095D01*
X40185Y-21095D01*
X40139Y-21114D01*
X40104Y-21149D01*
X40085Y-21195D01*
X40085Y-21245D01*
X40085Y-21349D01*
X40080Y-21375D01*
X40080Y-21595D01*
X40055Y-21585D01*
X40005Y-21585D01*
X39695Y-21585D01*
X39649Y-21604D01*
X39614Y-21639D01*
X39595Y-21685D01*
X39595Y-21735D01*
X39595Y-21777D01*
X39449Y-21777D01*
X39450Y-21775D01*
X39450Y-21725D01*
X39450Y-21375D01*
X39431Y-21329D01*
X39396Y-21294D01*
X39350Y-21275D01*
X39300Y-21275D01*
X38750Y-21275D01*
X38704Y-21294D01*
X38669Y-21329D01*
X38650Y-21375D01*
X38650Y-21425D01*
X38650Y-21775D01*
X38669Y-21821D01*
X38704Y-21856D01*
X38750Y-21875D01*
X38800Y-21875D01*
X38869Y-21875D01*
X38879Y-21921D01*
X38919Y-21981D01*
X39031Y-22093D01*
X39091Y-22133D01*
X39162Y-22147D01*
X39169Y-22147D01*
X38981Y-22335D01*
X38625Y-22335D01*
X38625Y-22200D01*
X38606Y-22154D01*
X38571Y-22119D01*
X38525Y-22100D01*
X38475Y-22100D01*
X38468Y-22100D01*
X38468Y-21700D01*
X38468Y-21650D01*
X38468Y-21456D01*
X38468Y-21344D01*
X38468Y-21150D01*
X38468Y-21100D01*
X38449Y-21054D01*
X38414Y-21019D01*
X38368Y-21000D01*
X38006Y-21000D01*
X37975Y-21031D01*
X37975Y-21375D01*
X38437Y-21375D01*
X38468Y-21344D01*
X38468Y-21456D01*
X38437Y-21425D01*
X37975Y-21425D01*
X37975Y-21769D01*
X38006Y-21800D01*
X38368Y-21800D01*
X38414Y-21781D01*
X38449Y-21746D01*
X38468Y-21700D01*
X38468Y-22100D01*
X38125Y-22100D01*
X38079Y-22119D01*
X38044Y-22154D01*
X38025Y-22200D01*
X38025Y-22250D01*
X38025Y-22800D01*
X38044Y-22846D01*
X38079Y-22881D01*
X38125Y-22900D01*
X38175Y-22900D01*
X38525Y-22900D01*
X38571Y-22881D01*
X38606Y-22846D01*
X38625Y-22800D01*
X38625Y-22750D01*
X38625Y-22665D01*
X38951Y-22665D01*
X38683Y-22933D01*
X38648Y-22987D01*
X38635Y-23050D01*
X38635Y-23383D01*
X38621Y-23369D01*
X38575Y-23350D01*
X38525Y-23350D01*
X38175Y-23350D01*
X38129Y-23369D01*
X38094Y-23404D01*
X38075Y-23450D01*
X38075Y-23500D01*
X38075Y-24050D01*
X38094Y-24096D01*
X38129Y-24131D01*
X38175Y-24150D01*
X38225Y-24150D01*
X38575Y-24150D01*
X38621Y-24131D01*
X38656Y-24096D01*
X38675Y-24050D01*
X38675Y-24000D01*
X38675Y-23894D01*
X38717Y-23867D01*
X38914Y-23668D01*
X38916Y-23667D01*
X38917Y-23667D01*
X38951Y-23614D01*
X38952Y-23613D01*
X38962Y-23564D01*
X38965Y-23551D01*
X38964Y-23550D01*
X38965Y-23550D01*
X38965Y-23118D01*
X39364Y-22718D01*
X39366Y-22717D01*
X39367Y-22717D01*
X39542Y-22540D01*
X39572Y-22521D01*
X39606Y-22521D01*
X39619Y-22521D01*
X39626Y-22528D01*
X39675Y-22528D01*
X39695Y-22536D01*
X39745Y-22536D01*
X40055Y-22536D01*
X40074Y-22528D01*
X40124Y-22528D01*
X40155Y-22497D01*
X40155Y-22473D01*
X40147Y-22454D01*
X40155Y-22436D01*
X40155Y-22386D01*
X40155Y-22276D01*
X40147Y-22257D01*
X40155Y-22239D01*
X40155Y-22189D01*
X40155Y-22178D01*
X40230Y-22253D01*
X40340Y-22299D01*
X40459Y-22299D01*
X40569Y-22254D01*
X40644Y-22179D01*
X40625Y-22225D01*
X40625Y-22275D01*
X40625Y-22444D01*
X40656Y-22475D01*
X40975Y-22475D01*
X40975Y-22525D01*
X40656Y-22525D01*
X40625Y-22556D01*
X40625Y-22725D01*
X40625Y-22775D01*
X40625Y-22944D01*
X40656Y-22975D01*
X40975Y-22975D01*
X40975Y-23025D01*
X40656Y-23025D01*
X40625Y-23056D01*
X40625Y-23225D01*
X40625Y-23275D01*
X40644Y-23321D01*
X40679Y-23356D01*
X40725Y-23375D01*
X40944Y-23375D01*
X40975Y-23344D01*
X40975Y-23845D01*
X40973Y-23845D01*
X40954Y-23852D01*
X40936Y-23845D01*
X40912Y-23845D01*
X40881Y-23876D01*
X40881Y-23925D01*
X40873Y-23945D01*
X40873Y-23995D01*
X40873Y-24305D01*
X40881Y-24324D01*
X40881Y-24374D01*
X40888Y-24381D01*
X40888Y-24878D01*
X40844Y-24922D01*
X40844Y-24772D01*
X40844Y-24125D01*
X40844Y-23859D01*
X40830Y-23788D01*
X40790Y-23728D01*
X40699Y-23637D01*
X40699Y-23541D01*
X40654Y-23431D01*
X40585Y-23362D01*
X40585Y-23100D01*
X40571Y-23029D01*
X40531Y-22969D01*
X40378Y-22816D01*
X40318Y-22776D01*
X40247Y-22762D01*
X40155Y-22762D01*
X40155Y-22670D01*
X40147Y-22651D01*
X40155Y-22633D01*
X40155Y-22609D01*
X40124Y-22578D01*
X40074Y-22578D01*
X40055Y-22570D01*
X40005Y-22570D01*
X39695Y-22570D01*
X39675Y-22578D01*
X39626Y-22578D01*
X39619Y-22585D01*
X39600Y-22585D01*
X39537Y-22598D01*
X39483Y-22633D01*
X39481Y-22635D01*
X39233Y-22883D01*
X39198Y-22937D01*
X39185Y-23000D01*
X39185Y-23631D01*
X38525Y-24291D01*
X38525Y-24275D01*
X38506Y-24229D01*
X38471Y-24194D01*
X38425Y-24175D01*
X38375Y-24175D01*
X37925Y-24175D01*
X37925Y-24050D01*
X37925Y-24000D01*
X37925Y-23450D01*
X37925Y-21769D01*
X37925Y-21425D01*
X37925Y-21375D01*
X37925Y-21031D01*
X37894Y-21000D01*
X37532Y-21000D01*
X37486Y-21019D01*
X37451Y-21054D01*
X37432Y-21100D01*
X37432Y-21150D01*
X37432Y-21344D01*
X37463Y-21375D01*
X37925Y-21375D01*
X37925Y-21425D01*
X37463Y-21425D01*
X37432Y-21456D01*
X37432Y-21650D01*
X37432Y-21700D01*
X37451Y-21746D01*
X37486Y-21781D01*
X37532Y-21800D01*
X37894Y-21800D01*
X37925Y-21769D01*
X37925Y-23450D01*
X37906Y-23404D01*
X37871Y-23369D01*
X37825Y-23350D01*
X37775Y-23350D01*
X37425Y-23350D01*
X37379Y-23369D01*
X37344Y-23404D01*
X37325Y-23450D01*
X37325Y-23500D01*
X37325Y-23605D01*
X37315Y-23612D01*
X37315Y-22867D01*
X37329Y-22881D01*
X37375Y-22900D01*
X37425Y-22900D01*
X37775Y-22900D01*
X37821Y-22881D01*
X37856Y-22846D01*
X37875Y-22800D01*
X37875Y-22750D01*
X37875Y-22200D01*
X37856Y-22154D01*
X37821Y-22119D01*
X37775Y-22100D01*
X37725Y-22100D01*
X37375Y-22100D01*
X37329Y-22119D01*
X37294Y-22154D01*
X37275Y-22200D01*
X37275Y-22250D01*
X37275Y-22355D01*
X37233Y-22383D01*
X37231Y-22385D01*
X37033Y-22583D01*
X36998Y-22637D01*
X36985Y-22700D01*
X36985Y-23631D01*
X36920Y-23696D01*
X36920Y-23428D01*
X36920Y-23046D01*
X36920Y-22934D01*
X36920Y-22552D01*
X36901Y-22506D01*
X36866Y-22471D01*
X36820Y-22452D01*
X36770Y-22452D01*
X36556Y-22452D01*
X36525Y-22483D01*
X36525Y-22965D01*
X36889Y-22965D01*
X36920Y-22934D01*
X36920Y-23046D01*
X36889Y-23015D01*
X36525Y-23015D01*
X36525Y-23497D01*
X36556Y-23528D01*
X36770Y-23528D01*
X36820Y-23528D01*
X36866Y-23509D01*
X36901Y-23474D01*
X36920Y-23428D01*
X36920Y-23696D01*
X36890Y-23726D01*
X36890Y-23635D01*
X36871Y-23589D01*
X36836Y-23554D01*
X36790Y-23535D01*
X36740Y-23535D01*
X36210Y-23535D01*
X36200Y-23538D01*
X36190Y-23528D01*
X36230Y-23528D01*
X36444Y-23528D01*
X36475Y-23497D01*
X36475Y-23040D01*
X36475Y-23015D01*
X36475Y-22965D01*
X36475Y-22940D01*
X36475Y-22483D01*
X36444Y-22452D01*
X36230Y-22452D01*
X36185Y-22452D01*
X36185Y-22426D01*
X36212Y-22399D01*
X36309Y-22399D01*
X36419Y-22354D01*
X36503Y-22270D01*
X36549Y-22160D01*
X36549Y-22041D01*
X36504Y-21931D01*
X36468Y-21895D01*
X36468Y-21700D01*
X36468Y-21650D01*
X36468Y-21456D01*
X36468Y-21344D01*
X36468Y-21150D01*
X36468Y-21100D01*
X36449Y-21054D01*
X36414Y-21019D01*
X36368Y-21000D01*
X36006Y-21000D01*
X35975Y-21031D01*
X35975Y-21375D01*
X36437Y-21375D01*
X36468Y-21344D01*
X36468Y-21456D01*
X36437Y-21425D01*
X35975Y-21425D01*
X35975Y-21769D01*
X36006Y-21800D01*
X36368Y-21800D01*
X36414Y-21781D01*
X36449Y-21746D01*
X36468Y-21700D01*
X36468Y-21895D01*
X36420Y-21847D01*
X36310Y-21801D01*
X36191Y-21801D01*
X36081Y-21846D01*
X35997Y-21930D01*
X35951Y-22040D01*
X35951Y-22137D01*
X35925Y-22163D01*
X35925Y-21769D01*
X35925Y-21425D01*
X35925Y-21375D01*
X35925Y-21031D01*
X35894Y-21000D01*
X35532Y-21000D01*
X35486Y-21019D01*
X35451Y-21054D01*
X35432Y-21100D01*
X35432Y-21150D01*
X35432Y-21344D01*
X35463Y-21375D01*
X35925Y-21375D01*
X35925Y-21425D01*
X35463Y-21425D01*
X35432Y-21456D01*
X35432Y-21650D01*
X35432Y-21700D01*
X35451Y-21746D01*
X35486Y-21781D01*
X35532Y-21800D01*
X35894Y-21800D01*
X35925Y-21769D01*
X35925Y-22163D01*
X35907Y-22181D01*
X35902Y-22176D01*
X35856Y-22157D01*
X35806Y-22157D01*
X35513Y-22157D01*
X35482Y-22188D01*
X35482Y-22704D01*
X35482Y-22729D01*
X35482Y-22779D01*
X35482Y-22804D01*
X35482Y-23320D01*
X35496Y-23334D01*
X35482Y-23349D01*
X35482Y-23747D01*
X35482Y-23772D01*
X35482Y-23822D01*
X35482Y-23847D01*
X35482Y-24245D01*
X35487Y-24250D01*
X35482Y-24255D01*
X35482Y-24678D01*
X35925Y-24678D01*
X35956Y-24647D01*
X35956Y-24324D01*
X35937Y-24278D01*
X35909Y-24250D01*
X35937Y-24222D01*
X35956Y-24176D01*
X35956Y-23853D01*
X35950Y-23847D01*
X35956Y-23847D01*
X35956Y-23818D01*
X36007Y-23869D01*
X36067Y-23909D01*
X36110Y-23917D01*
X36110Y-23941D01*
X36110Y-24097D01*
X36120Y-24122D01*
X36110Y-24147D01*
X36110Y-24197D01*
X36110Y-24353D01*
X36120Y-24378D01*
X36110Y-24403D01*
X36110Y-24453D01*
X36110Y-24609D01*
X36120Y-24634D01*
X36110Y-24659D01*
X36110Y-24709D01*
X36110Y-24865D01*
X36129Y-24911D01*
X36164Y-24946D01*
X36210Y-24965D01*
X36260Y-24965D01*
X36790Y-24965D01*
X36836Y-24946D01*
X36871Y-24911D01*
X36890Y-24865D01*
X36890Y-24815D01*
X36890Y-24659D01*
X36879Y-24634D01*
X36890Y-24609D01*
X36890Y-24559D01*
X36890Y-24415D01*
X36900Y-24415D01*
X36963Y-24402D01*
X37017Y-24367D01*
X37327Y-24056D01*
X37344Y-24096D01*
X37379Y-24131D01*
X37425Y-24150D01*
X37475Y-24150D01*
X37825Y-24150D01*
X37871Y-24131D01*
X37906Y-24096D01*
X37925Y-24050D01*
X37925Y-24175D01*
X37575Y-24175D01*
X37529Y-24194D01*
X37494Y-24229D01*
X37475Y-24275D01*
X37475Y-24325D01*
X37475Y-24925D01*
X37494Y-24971D01*
X37529Y-25006D01*
X37575Y-25025D01*
X37625Y-25025D01*
X38425Y-25025D01*
X38471Y-25006D01*
X38506Y-24971D01*
X38525Y-24925D01*
X38525Y-24875D01*
X38525Y-24744D01*
X38567Y-24717D01*
X39464Y-23818D01*
X39466Y-23817D01*
X39467Y-23817D01*
X39501Y-23763D01*
X39502Y-23763D01*
X39512Y-23711D01*
X39515Y-23701D01*
X39514Y-23700D01*
X39515Y-23700D01*
X39515Y-23068D01*
X39595Y-22988D01*
X39595Y-23027D01*
X39602Y-23045D01*
X39595Y-23064D01*
X39595Y-23114D01*
X39595Y-23224D01*
X39602Y-23242D01*
X39595Y-23261D01*
X39595Y-23311D01*
X39595Y-23421D01*
X39602Y-23439D01*
X39595Y-23458D01*
X39595Y-23508D01*
X39595Y-23618D01*
X39602Y-23636D01*
X39595Y-23655D01*
X39595Y-23705D01*
X39595Y-23815D01*
X39614Y-23861D01*
X39649Y-23896D01*
X39695Y-23915D01*
X39745Y-23915D01*
X40055Y-23915D01*
X40101Y-23896D01*
X40136Y-23861D01*
X40155Y-23815D01*
X40155Y-23778D01*
X40222Y-23845D01*
X40185Y-23845D01*
X40139Y-23864D01*
X40104Y-23899D01*
X40085Y-23945D01*
X40085Y-23995D01*
X40085Y-24305D01*
X40104Y-24351D01*
X40139Y-24386D01*
X40185Y-24405D01*
X40235Y-24405D01*
X40345Y-24405D01*
X40363Y-24397D01*
X40382Y-24405D01*
X40432Y-24405D01*
X40542Y-24405D01*
X40560Y-24397D01*
X40579Y-24405D01*
X40629Y-24405D01*
X40739Y-24405D01*
X40757Y-24397D01*
X40776Y-24405D01*
X40800Y-24405D01*
X40831Y-24374D01*
X40831Y-24324D01*
X40839Y-24305D01*
X40839Y-24255D01*
X40839Y-24150D01*
X40844Y-24125D01*
X40844Y-24772D01*
X40825Y-24726D01*
X40790Y-24691D01*
X40744Y-24672D01*
X40694Y-24672D01*
X39788Y-24672D01*
X39742Y-24691D01*
X39723Y-24710D01*
X39650Y-24710D01*
X39650Y-24675D01*
X39631Y-24629D01*
X39596Y-24594D01*
X39550Y-24575D01*
X39500Y-24575D01*
X38950Y-24575D01*
X38904Y-24594D01*
X38869Y-24629D01*
X38850Y-24675D01*
X38850Y-24725D01*
X38850Y-25075D01*
X38869Y-25121D01*
X38904Y-25156D01*
X38950Y-25175D01*
X39000Y-25175D01*
X39550Y-25175D01*
X39596Y-25156D01*
X39631Y-25121D01*
X39650Y-25075D01*
X39650Y-25040D01*
X39688Y-25040D01*
X39688Y-25728D01*
X39707Y-25774D01*
X39742Y-25809D01*
X39788Y-25828D01*
X39838Y-25828D01*
X40744Y-25828D01*
X40790Y-25809D01*
X40825Y-25774D01*
X40844Y-25728D01*
X40844Y-25678D01*
X40844Y-25381D01*
X40867Y-25367D01*
X41126Y-25106D01*
X41133Y-25117D01*
X41381Y-25364D01*
X41383Y-25367D01*
X41437Y-25402D01*
X41500Y-25415D01*
X41656Y-25415D01*
X41656Y-25728D01*
X41675Y-25774D01*
X41710Y-25809D01*
X41756Y-25828D01*
X41806Y-25828D01*
X42712Y-25828D01*
X42758Y-25809D01*
X42793Y-25774D01*
X42812Y-25728D01*
X42812Y-25678D01*
X42812Y-25040D01*
X42850Y-25040D01*
X42850Y-25075D01*
X42869Y-25121D01*
X42904Y-25156D01*
X42950Y-25175D01*
X43000Y-25175D01*
X43550Y-25175D01*
X43596Y-25156D01*
X43631Y-25121D01*
X43650Y-25075D01*
X43650Y-25025D01*
X43650Y-24675D01*
X43631Y-24629D01*
X43596Y-24594D01*
X43550Y-24575D01*
X43500Y-24575D01*
X42950Y-24575D01*
X42905Y-24593D01*
X42905Y-23815D01*
X42905Y-23791D01*
X42874Y-23760D01*
X42650Y-23760D01*
X42650Y-23884D01*
X42681Y-23915D01*
X42755Y-23915D01*
X42805Y-23915D01*
X42851Y-23896D01*
X42886Y-23861D01*
X42905Y-23815D01*
X42905Y-24593D01*
X42904Y-24594D01*
X42869Y-24629D01*
X42850Y-24675D01*
X42850Y-24710D01*
X42777Y-24710D01*
X42758Y-24691D01*
X42712Y-24672D01*
X42662Y-24672D01*
X42600Y-24672D01*
X41756Y-24672D01*
X41710Y-24691D01*
X41675Y-24726D01*
X41656Y-24772D01*
X41656Y-24822D01*
X41656Y-25085D01*
X41568Y-25085D01*
X41415Y-24931D01*
X41415Y-24405D01*
X41417Y-24405D01*
X41527Y-24405D01*
X41545Y-24397D01*
X41564Y-24405D01*
X41614Y-24405D01*
X41724Y-24405D01*
X41742Y-24397D01*
X41761Y-24405D01*
X41811Y-24405D01*
X41921Y-24405D01*
X41939Y-24397D01*
X41958Y-24405D01*
X42008Y-24405D01*
X42118Y-24405D01*
X42136Y-24397D01*
X42155Y-24405D01*
X42205Y-24405D01*
X42315Y-24405D01*
X42361Y-24386D01*
X42396Y-24351D01*
X42415Y-24305D01*
X42415Y-24255D01*
X42415Y-23945D01*
X42396Y-23899D01*
X42361Y-23864D01*
X42315Y-23845D01*
X42278Y-23845D01*
X42345Y-23778D01*
X42345Y-23785D01*
X42351Y-23785D01*
X42345Y-23791D01*
X42345Y-23815D01*
X42364Y-23861D01*
X42399Y-23896D01*
X42445Y-23915D01*
X42495Y-23915D01*
X42569Y-23915D01*
X42600Y-23884D01*
X42600Y-23785D01*
X42600Y-23760D01*
X42600Y-23723D01*
X42625Y-23723D01*
X42650Y-23718D01*
X42805Y-23718D01*
X42824Y-23710D01*
X42874Y-23710D01*
X42905Y-23679D01*
X42905Y-23655D01*
X42897Y-23636D01*
X42905Y-23618D01*
X42905Y-23568D01*
X42905Y-23506D01*
X43209Y-23506D01*
X43272Y-23493D01*
X43326Y-23458D01*
X43517Y-23267D01*
X43552Y-23213D01*
X43565Y-23150D01*
X43565Y-21968D01*
X43718Y-21815D01*
X43925Y-21815D01*
X43925Y-22575D01*
X43944Y-22621D01*
X43979Y-22656D01*
X44025Y-22675D01*
X44075Y-22675D01*
X44375Y-22675D01*
X44421Y-22656D01*
X44456Y-22621D01*
X44475Y-22575D01*
X44475Y-22925D01*
X44456Y-22879D01*
X44421Y-22844D01*
X44375Y-22825D01*
X44325Y-22825D01*
X44025Y-22825D01*
X43979Y-22844D01*
X43944Y-22879D01*
X43925Y-22925D01*
X43925Y-22975D01*
X43925Y-24775D01*
X43944Y-24821D01*
X43979Y-24856D01*
X44025Y-24875D01*
X44075Y-24875D01*
X44375Y-24875D01*
X44421Y-24856D01*
X44456Y-24821D01*
X44475Y-24775D01*
X44475Y-24725D01*
X44475Y-24035D01*
X44762Y-24035D01*
X44830Y-24103D01*
X44940Y-24149D01*
X45059Y-24149D01*
X45169Y-24104D01*
X45253Y-24020D01*
X45299Y-23910D01*
X45299Y-25335D01*
X44950Y-25335D01*
X44887Y-25348D01*
X44873Y-25356D01*
X44860Y-25351D01*
X44741Y-25351D01*
X44631Y-25396D01*
X44547Y-25480D01*
X44501Y-25590D01*
X44501Y-25709D01*
X44546Y-25819D01*
X44630Y-25903D01*
X44740Y-25949D01*
X44859Y-25949D01*
X44969Y-25904D01*
X45053Y-25820D01*
X45099Y-25710D01*
X45099Y-25665D01*
X77900Y-25665D01*
X77963Y-25652D01*
X78017Y-25617D01*
X78814Y-24818D01*
X78816Y-24817D01*
X78817Y-24817D01*
X78852Y-24763D01*
X78865Y-24700D01*
X78865Y-26300D01*
X43650Y-26300D01*
X43650Y-25825D01*
X43650Y-25681D01*
X43650Y-25569D01*
X43650Y-25425D01*
X43631Y-25379D01*
X43596Y-25344D01*
X43550Y-25325D01*
X43500Y-25325D01*
X43306Y-25325D01*
X43275Y-25356D01*
X43275Y-25600D01*
X43619Y-25600D01*
X43650Y-25569D01*
X43650Y-25681D01*
X43619Y-25650D01*
X43275Y-25650D01*
X43275Y-25894D01*
X43306Y-25925D01*
X43500Y-25925D01*
X43550Y-25925D01*
X43596Y-25906D01*
X43631Y-25871D01*
X43650Y-25825D01*
X43650Y-26300D01*
X43225Y-26300D01*
X43225Y-25894D01*
X43225Y-25650D01*
X43225Y-25600D01*
X43225Y-25356D01*
X43194Y-25325D01*
X43000Y-25325D01*
X42950Y-25325D01*
X42904Y-25344D01*
X42869Y-25379D01*
X42850Y-25425D01*
X42850Y-25569D01*
X42881Y-25600D01*
X43225Y-25600D01*
X43225Y-25650D01*
X42881Y-25650D01*
X42850Y-25681D01*
X42850Y-25825D01*
X42869Y-25871D01*
X42904Y-25906D01*
X42950Y-25925D01*
X43000Y-25925D01*
X43194Y-25925D01*
X43225Y-25894D01*
X43225Y-26300D01*
X39650Y-26300D01*
X39650Y-25825D01*
X39650Y-25681D01*
X39650Y-25569D01*
X39650Y-25425D01*
X39631Y-25379D01*
X39596Y-25344D01*
X39550Y-25325D01*
X39500Y-25325D01*
X39306Y-25325D01*
X39275Y-25356D01*
X39275Y-25600D01*
X39619Y-25600D01*
X39650Y-25569D01*
X39650Y-25681D01*
X39619Y-25650D01*
X39275Y-25650D01*
X39275Y-25894D01*
X39306Y-25925D01*
X39500Y-25925D01*
X39550Y-25925D01*
X39596Y-25906D01*
X39631Y-25871D01*
X39650Y-25825D01*
X39650Y-26300D01*
X39225Y-26300D01*
X39225Y-25894D01*
X39225Y-25650D01*
X39225Y-25600D01*
X39225Y-25356D01*
X39194Y-25325D01*
X39000Y-25325D01*
X38950Y-25325D01*
X38904Y-25344D01*
X38869Y-25379D01*
X38850Y-25425D01*
X38850Y-25569D01*
X38881Y-25600D01*
X39225Y-25600D01*
X39225Y-25650D01*
X38881Y-25650D01*
X38850Y-25681D01*
X38850Y-25825D01*
X38869Y-25871D01*
X38904Y-25906D01*
X38950Y-25925D01*
X39000Y-25925D01*
X39194Y-25925D01*
X39225Y-25894D01*
X39225Y-26300D01*
X38477Y-26300D01*
X38506Y-26271D01*
X38525Y-26225D01*
X38525Y-25956D01*
X38525Y-25844D01*
X38525Y-25575D01*
X38506Y-25529D01*
X38471Y-25494D01*
X38425Y-25475D01*
X38375Y-25475D01*
X38056Y-25475D01*
X38025Y-25506D01*
X38025Y-25875D01*
X38494Y-25875D01*
X38525Y-25844D01*
X38525Y-25956D01*
X38494Y-25925D01*
X38050Y-25925D01*
X38025Y-25925D01*
X37975Y-25925D01*
X37975Y-25875D01*
X37975Y-25506D01*
X37944Y-25475D01*
X37625Y-25475D01*
X37575Y-25475D01*
X37529Y-25494D01*
X37494Y-25529D01*
X37475Y-25575D01*
X37475Y-25844D01*
X37506Y-25875D01*
X37975Y-25875D01*
X37975Y-25925D01*
X37950Y-25925D01*
X37506Y-25925D01*
X37475Y-25956D01*
X37475Y-26225D01*
X37494Y-26271D01*
X37523Y-26300D01*
X36920Y-26300D01*
X36920Y-25948D01*
X36920Y-25566D01*
X36920Y-25454D01*
X36920Y-25072D01*
X36901Y-25026D01*
X36866Y-24991D01*
X36820Y-24972D01*
X36770Y-24972D01*
X36556Y-24972D01*
X36525Y-25003D01*
X36525Y-25485D01*
X36889Y-25485D01*
X36920Y-25454D01*
X36920Y-25566D01*
X36889Y-25535D01*
X36525Y-25535D01*
X36525Y-26017D01*
X36556Y-26048D01*
X36770Y-26048D01*
X36820Y-26048D01*
X36866Y-26029D01*
X36901Y-25994D01*
X36920Y-25948D01*
X36920Y-26300D01*
X36475Y-26300D01*
X36475Y-26017D01*
X36475Y-25535D01*
X36475Y-25485D01*
X36475Y-25003D01*
X36444Y-24972D01*
X36230Y-24972D01*
X36180Y-24972D01*
X36134Y-24991D01*
X36099Y-25026D01*
X36080Y-25072D01*
X36080Y-25454D01*
X36111Y-25485D01*
X36475Y-25485D01*
X36475Y-25535D01*
X36111Y-25535D01*
X36080Y-25566D01*
X36080Y-25948D01*
X36099Y-25994D01*
X36134Y-26029D01*
X36180Y-26048D01*
X36230Y-26048D01*
X36444Y-26048D01*
X36475Y-26017D01*
X36475Y-26300D01*
X35926Y-26300D01*
X35937Y-26289D01*
X35956Y-26243D01*
X35956Y-25802D01*
X35956Y-25690D01*
X35956Y-25249D01*
X35937Y-25203D01*
X35902Y-25168D01*
X35895Y-25165D01*
X35902Y-25163D01*
X35937Y-25128D01*
X35956Y-25082D01*
X35956Y-24759D01*
X35925Y-24728D01*
X35482Y-24728D01*
X35482Y-25151D01*
X35496Y-25165D01*
X35482Y-25180D01*
X35482Y-25721D01*
X35925Y-25721D01*
X35956Y-25690D01*
X35956Y-25802D01*
X35925Y-25771D01*
X35507Y-25771D01*
X35482Y-25771D01*
X35432Y-25771D01*
X35432Y-25721D01*
X35432Y-25696D01*
X35432Y-25180D01*
X35417Y-25165D01*
X35432Y-25151D01*
X35432Y-24753D01*
X35432Y-24728D01*
X35432Y-24678D01*
X35432Y-24653D01*
X35432Y-24255D01*
X35427Y-24250D01*
X35432Y-24245D01*
X35432Y-23847D01*
X35432Y-23822D01*
X35432Y-23772D01*
X35432Y-23747D01*
X35432Y-23349D01*
X35417Y-23334D01*
X35432Y-23320D01*
X35432Y-22804D01*
X35432Y-22779D01*
X35432Y-22729D01*
X35432Y-22704D01*
X35432Y-22188D01*
X35401Y-22157D01*
X35200Y-22157D01*
X35200Y-19200D01*
X79800Y-19200D01*
X79800Y-26300D01*
X79800Y-26300D01*
G37*
G54D29*
X79800Y-26300D02*
X78865Y-26300D01*
X78865Y-24700D01*
X78865Y-23450D01*
X78852Y-23387D01*
X78817Y-23333D01*
X77893Y-22409D01*
X77925Y-22335D01*
X77925Y-22166D01*
X77919Y-22151D01*
X77919Y-21325D01*
X77915Y-21159D01*
X77858Y-21021D01*
X77796Y-20990D01*
X77760Y-21025D01*
X77760Y-20954D01*
X77729Y-20892D01*
X77575Y-20831D01*
X77409Y-20835D01*
X77271Y-20892D01*
X77240Y-20954D01*
X77500Y-21215D01*
X77760Y-20954D01*
X77760Y-21025D01*
X77535Y-21250D01*
X77796Y-21510D01*
X77858Y-21479D01*
X77919Y-21325D01*
X77919Y-22151D01*
X77861Y-22010D01*
X77760Y-21909D01*
X77760Y-21546D01*
X77500Y-21285D01*
X77465Y-21320D01*
X77465Y-21250D01*
X77204Y-20990D01*
X77142Y-21021D01*
X77081Y-21175D01*
X77085Y-21341D01*
X77142Y-21479D01*
X77204Y-21510D01*
X77465Y-21250D01*
X77465Y-21320D01*
X77240Y-21546D01*
X77271Y-21608D01*
X77425Y-21669D01*
X77591Y-21665D01*
X77729Y-21608D01*
X77760Y-21546D01*
X77760Y-21909D01*
X77741Y-21890D01*
X77585Y-21825D01*
X77416Y-21825D01*
X77260Y-21889D01*
X77140Y-22009D01*
X77075Y-22165D01*
X77075Y-22334D01*
X77139Y-22490D01*
X77259Y-22610D01*
X77415Y-22675D01*
X77584Y-22675D01*
X77659Y-22643D01*
X78535Y-23519D01*
X78535Y-24631D01*
X77925Y-25241D01*
X77925Y-24575D01*
X77925Y-24525D01*
X77925Y-23925D01*
X77925Y-23335D01*
X77925Y-23166D01*
X77861Y-23010D01*
X77741Y-22890D01*
X77585Y-22825D01*
X77416Y-22825D01*
X77260Y-22889D01*
X77140Y-23009D01*
X77108Y-23085D01*
X76750Y-23085D01*
X76687Y-23098D01*
X76633Y-23133D01*
X76631Y-23135D01*
X76081Y-23685D01*
X76075Y-23685D01*
X76075Y-22925D01*
X76075Y-22575D01*
X76075Y-22525D01*
X76075Y-21706D01*
X76075Y-21594D01*
X76075Y-20775D01*
X76075Y-20725D01*
X76056Y-20679D01*
X76021Y-20644D01*
X75975Y-20625D01*
X75856Y-20625D01*
X75825Y-20656D01*
X75825Y-21625D01*
X76044Y-21625D01*
X76075Y-21594D01*
X76075Y-21706D01*
X76044Y-21675D01*
X75825Y-21675D01*
X75825Y-22644D01*
X75856Y-22675D01*
X75975Y-22675D01*
X76021Y-22656D01*
X76056Y-22621D01*
X76075Y-22575D01*
X76075Y-22925D01*
X76056Y-22879D01*
X76021Y-22844D01*
X75975Y-22825D01*
X75925Y-22825D01*
X75775Y-22825D01*
X75775Y-22644D01*
X75775Y-21675D01*
X75775Y-21625D01*
X75775Y-20656D01*
X75744Y-20625D01*
X75625Y-20625D01*
X75579Y-20644D01*
X75544Y-20679D01*
X75525Y-20725D01*
X75525Y-20775D01*
X75525Y-21594D01*
X75556Y-21625D01*
X75775Y-21625D01*
X75775Y-21675D01*
X75556Y-21675D01*
X75525Y-21706D01*
X75525Y-22525D01*
X75525Y-22575D01*
X75544Y-22621D01*
X75579Y-22656D01*
X75625Y-22675D01*
X75744Y-22675D01*
X75775Y-22644D01*
X75775Y-22825D01*
X75625Y-22825D01*
X75579Y-22844D01*
X75544Y-22879D01*
X75525Y-22925D01*
X75525Y-22975D01*
X75525Y-24775D01*
X75544Y-24821D01*
X75579Y-24856D01*
X75625Y-24875D01*
X75675Y-24875D01*
X75975Y-24875D01*
X76021Y-24856D01*
X76056Y-24821D01*
X76075Y-24775D01*
X76075Y-24725D01*
X76075Y-24015D01*
X76150Y-24015D01*
X76213Y-24002D01*
X76267Y-23967D01*
X76818Y-23415D01*
X77108Y-23415D01*
X77139Y-23490D01*
X77259Y-23610D01*
X77415Y-23675D01*
X77584Y-23675D01*
X77740Y-23611D01*
X77860Y-23491D01*
X77925Y-23335D01*
X77925Y-23925D01*
X77906Y-23879D01*
X77871Y-23844D01*
X77825Y-23825D01*
X77775Y-23825D01*
X77175Y-23825D01*
X77129Y-23844D01*
X77094Y-23879D01*
X77075Y-23925D01*
X77075Y-23975D01*
X77075Y-24575D01*
X77094Y-24621D01*
X77129Y-24656D01*
X77175Y-24675D01*
X77225Y-24675D01*
X77825Y-24675D01*
X77871Y-24656D01*
X77906Y-24621D01*
X77925Y-24575D01*
X77925Y-25241D01*
X77831Y-25335D01*
X75299Y-25335D01*
X75299Y-23910D01*
X75299Y-23791D01*
X75254Y-23681D01*
X75170Y-23597D01*
X75060Y-23551D01*
X74941Y-23551D01*
X74831Y-23596D01*
X74762Y-23665D01*
X74475Y-23665D01*
X74475Y-22925D01*
X74475Y-22575D01*
X74475Y-22525D01*
X74475Y-20725D01*
X74456Y-20679D01*
X74421Y-20644D01*
X74375Y-20625D01*
X74325Y-20625D01*
X74025Y-20625D01*
X73979Y-20644D01*
X73944Y-20679D01*
X73925Y-20725D01*
X73925Y-20775D01*
X73925Y-21485D01*
X70950Y-21485D01*
X70887Y-21498D01*
X70833Y-21533D01*
X70831Y-21535D01*
X68681Y-23685D01*
X66075Y-23685D01*
X66075Y-22925D01*
X66075Y-22575D01*
X66075Y-22525D01*
X66075Y-21706D01*
X66075Y-21594D01*
X66075Y-20775D01*
X66075Y-20725D01*
X66056Y-20679D01*
X66021Y-20644D01*
X65975Y-20625D01*
X65856Y-20625D01*
X65825Y-20656D01*
X65825Y-21625D01*
X66044Y-21625D01*
X66075Y-21594D01*
X66075Y-21706D01*
X66044Y-21675D01*
X65825Y-21675D01*
X65825Y-22644D01*
X65856Y-22675D01*
X65975Y-22675D01*
X66021Y-22656D01*
X66056Y-22621D01*
X66075Y-22575D01*
X66075Y-22925D01*
X66056Y-22879D01*
X66021Y-22844D01*
X65975Y-22825D01*
X65925Y-22825D01*
X65775Y-22825D01*
X65775Y-22644D01*
X65775Y-21675D01*
X65775Y-21625D01*
X65775Y-20656D01*
X65744Y-20625D01*
X65625Y-20625D01*
X65579Y-20644D01*
X65544Y-20679D01*
X65525Y-20725D01*
X65525Y-20775D01*
X65525Y-21594D01*
X65556Y-21625D01*
X65775Y-21625D01*
X65775Y-21675D01*
X65556Y-21675D01*
X65525Y-21706D01*
X65525Y-22525D01*
X65525Y-22575D01*
X65544Y-22621D01*
X65579Y-22656D01*
X65625Y-22675D01*
X65744Y-22675D01*
X65775Y-22644D01*
X65775Y-22825D01*
X65625Y-22825D01*
X65579Y-22844D01*
X65544Y-22879D01*
X65525Y-22925D01*
X65525Y-22975D01*
X65525Y-24775D01*
X65544Y-24821D01*
X65579Y-24856D01*
X65625Y-24875D01*
X65675Y-24875D01*
X65975Y-24875D01*
X66021Y-24856D01*
X66056Y-24821D01*
X66075Y-24775D01*
X66075Y-24725D01*
X66075Y-24015D01*
X68750Y-24015D01*
X68813Y-24002D01*
X68867Y-23967D01*
X71018Y-21815D01*
X73925Y-21815D01*
X73925Y-22575D01*
X73944Y-22621D01*
X73979Y-22656D01*
X74025Y-22675D01*
X74075Y-22675D01*
X74375Y-22675D01*
X74421Y-22656D01*
X74456Y-22621D01*
X74475Y-22575D01*
X74475Y-22925D01*
X74456Y-22879D01*
X74421Y-22844D01*
X74375Y-22825D01*
X74325Y-22825D01*
X74025Y-22825D01*
X73979Y-22844D01*
X73944Y-22879D01*
X73925Y-22925D01*
X73925Y-22975D01*
X73925Y-24775D01*
X73944Y-24821D01*
X73979Y-24856D01*
X74025Y-24875D01*
X74075Y-24875D01*
X74375Y-24875D01*
X74421Y-24856D01*
X74456Y-24821D01*
X74475Y-24775D01*
X74475Y-24725D01*
X74475Y-24035D01*
X74762Y-24035D01*
X74830Y-24103D01*
X74940Y-24149D01*
X75059Y-24149D01*
X75169Y-24104D01*
X75253Y-24020D01*
X75299Y-23910D01*
X75299Y-25335D01*
X65299Y-25335D01*
X65299Y-23910D01*
X65299Y-23791D01*
X65254Y-23681D01*
X65170Y-23597D01*
X65060Y-23551D01*
X64941Y-23551D01*
X64831Y-23596D01*
X64762Y-23665D01*
X64475Y-23665D01*
X64475Y-22925D01*
X64475Y-22575D01*
X64475Y-22525D01*
X64475Y-20725D01*
X64456Y-20679D01*
X64421Y-20644D01*
X64375Y-20625D01*
X64325Y-20625D01*
X64025Y-20625D01*
X63979Y-20644D01*
X63944Y-20679D01*
X63925Y-20725D01*
X63925Y-20775D01*
X63925Y-21485D01*
X61000Y-21485D01*
X60937Y-21498D01*
X60883Y-21533D01*
X60881Y-21535D01*
X58731Y-23685D01*
X56075Y-23685D01*
X56075Y-22925D01*
X56075Y-22575D01*
X56075Y-22525D01*
X56075Y-21706D01*
X56075Y-21594D01*
X56075Y-20775D01*
X56075Y-20725D01*
X56056Y-20679D01*
X56021Y-20644D01*
X55975Y-20625D01*
X55856Y-20625D01*
X55825Y-20656D01*
X55825Y-21625D01*
X56044Y-21625D01*
X56075Y-21594D01*
X56075Y-21706D01*
X56044Y-21675D01*
X55825Y-21675D01*
X55825Y-22644D01*
X55856Y-22675D01*
X55975Y-22675D01*
X56021Y-22656D01*
X56056Y-22621D01*
X56075Y-22575D01*
X56075Y-22925D01*
X56056Y-22879D01*
X56021Y-22844D01*
X55975Y-22825D01*
X55925Y-22825D01*
X55775Y-22825D01*
X55775Y-22644D01*
X55775Y-21675D01*
X55775Y-21625D01*
X55775Y-20656D01*
X55744Y-20625D01*
X55625Y-20625D01*
X55579Y-20644D01*
X55544Y-20679D01*
X55525Y-20725D01*
X55525Y-20775D01*
X55525Y-21594D01*
X55556Y-21625D01*
X55775Y-21625D01*
X55775Y-21675D01*
X55556Y-21675D01*
X55525Y-21706D01*
X55525Y-22525D01*
X55525Y-22575D01*
X55544Y-22621D01*
X55579Y-22656D01*
X55625Y-22675D01*
X55744Y-22675D01*
X55775Y-22644D01*
X55775Y-22825D01*
X55625Y-22825D01*
X55579Y-22844D01*
X55544Y-22879D01*
X55525Y-22925D01*
X55525Y-22975D01*
X55525Y-24775D01*
X55544Y-24821D01*
X55579Y-24856D01*
X55625Y-24875D01*
X55675Y-24875D01*
X55975Y-24875D01*
X56021Y-24856D01*
X56056Y-24821D01*
X56075Y-24775D01*
X56075Y-24725D01*
X56075Y-24015D01*
X58800Y-24015D01*
X58863Y-24002D01*
X58917Y-23967D01*
X61068Y-21815D01*
X63925Y-21815D01*
X63925Y-22575D01*
X63944Y-22621D01*
X63979Y-22656D01*
X64025Y-22675D01*
X64075Y-22675D01*
X64375Y-22675D01*
X64421Y-22656D01*
X64456Y-22621D01*
X64475Y-22575D01*
X64475Y-22925D01*
X64456Y-22879D01*
X64421Y-22844D01*
X64375Y-22825D01*
X64325Y-22825D01*
X64025Y-22825D01*
X63979Y-22844D01*
X63944Y-22879D01*
X63925Y-22925D01*
X63925Y-22975D01*
X63925Y-24775D01*
X63944Y-24821D01*
X63979Y-24856D01*
X64025Y-24875D01*
X64075Y-24875D01*
X64375Y-24875D01*
X64421Y-24856D01*
X64456Y-24821D01*
X64475Y-24775D01*
X64475Y-24725D01*
X64475Y-24035D01*
X64762Y-24035D01*
X64830Y-24103D01*
X64940Y-24149D01*
X65059Y-24149D01*
X65169Y-24104D01*
X65253Y-24020D01*
X65299Y-23910D01*
X65299Y-25335D01*
X55299Y-25335D01*
X55299Y-23910D01*
X55299Y-23791D01*
X55254Y-23681D01*
X55170Y-23597D01*
X55060Y-23551D01*
X54941Y-23551D01*
X54831Y-23596D01*
X54762Y-23665D01*
X54475Y-23665D01*
X54475Y-22925D01*
X54475Y-22575D01*
X54475Y-22525D01*
X54475Y-20725D01*
X54456Y-20679D01*
X54421Y-20644D01*
X54375Y-20625D01*
X54325Y-20625D01*
X54025Y-20625D01*
X53979Y-20644D01*
X53944Y-20679D01*
X53925Y-20725D01*
X53925Y-20775D01*
X53925Y-21485D01*
X50550Y-21485D01*
X50487Y-21498D01*
X50433Y-21533D01*
X50431Y-21535D01*
X48281Y-23685D01*
X46075Y-23685D01*
X46075Y-22925D01*
X46075Y-22575D01*
X46075Y-22525D01*
X46075Y-21706D01*
X46075Y-21594D01*
X46075Y-20775D01*
X46075Y-20725D01*
X46056Y-20679D01*
X46021Y-20644D01*
X45975Y-20625D01*
X45856Y-20625D01*
X45825Y-20656D01*
X45825Y-21625D01*
X46044Y-21625D01*
X46075Y-21594D01*
X46075Y-21706D01*
X46044Y-21675D01*
X45825Y-21675D01*
X45825Y-22644D01*
X45856Y-22675D01*
X45975Y-22675D01*
X46021Y-22656D01*
X46056Y-22621D01*
X46075Y-22575D01*
X46075Y-22925D01*
X46056Y-22879D01*
X46021Y-22844D01*
X45975Y-22825D01*
X45925Y-22825D01*
X45775Y-22825D01*
X45775Y-22644D01*
X45775Y-21675D01*
X45775Y-21625D01*
X45775Y-20656D01*
X45744Y-20625D01*
X45625Y-20625D01*
X45579Y-20644D01*
X45544Y-20679D01*
X45525Y-20725D01*
X45525Y-20775D01*
X45525Y-21594D01*
X45556Y-21625D01*
X45775Y-21625D01*
X45775Y-21675D01*
X45556Y-21675D01*
X45525Y-21706D01*
X45525Y-22525D01*
X45525Y-22575D01*
X45544Y-22621D01*
X45579Y-22656D01*
X45625Y-22675D01*
X45744Y-22675D01*
X45775Y-22644D01*
X45775Y-22825D01*
X45625Y-22825D01*
X45579Y-22844D01*
X45544Y-22879D01*
X45525Y-22925D01*
X45525Y-22975D01*
X45525Y-24775D01*
X45544Y-24821D01*
X45579Y-24856D01*
X45625Y-24875D01*
X45675Y-24875D01*
X45975Y-24875D01*
X46021Y-24856D01*
X46056Y-24821D01*
X46075Y-24775D01*
X46075Y-24725D01*
X46075Y-24015D01*
X48350Y-24015D01*
X48413Y-24002D01*
X48467Y-23967D01*
X50618Y-21815D01*
X53925Y-21815D01*
X53925Y-22575D01*
X53944Y-22621D01*
X53979Y-22656D01*
X54025Y-22675D01*
X54075Y-22675D01*
X54375Y-22675D01*
X54421Y-22656D01*
X54456Y-22621D01*
X54475Y-22575D01*
X54475Y-22925D01*
X54456Y-22879D01*
X54421Y-22844D01*
X54375Y-22825D01*
X54325Y-22825D01*
X54025Y-22825D01*
X53979Y-22844D01*
X53944Y-22879D01*
X53925Y-22925D01*
X53925Y-22975D01*
X53925Y-24775D01*
X53944Y-24821D01*
X53979Y-24856D01*
X54025Y-24875D01*
X54075Y-24875D01*
X54375Y-24875D01*
X54421Y-24856D01*
X54456Y-24821D01*
X54475Y-24775D01*
X54475Y-24725D01*
X54475Y-24035D01*
X54762Y-24035D01*
X54830Y-24103D01*
X54940Y-24149D01*
X55059Y-24149D01*
X55169Y-24104D01*
X55253Y-24020D01*
X55299Y-23910D01*
X55299Y-25335D01*
X45299Y-25335D01*
X45299Y-23910D01*
X45299Y-23791D01*
X45254Y-23681D01*
X45170Y-23597D01*
X45060Y-23551D01*
X44941Y-23551D01*
X44831Y-23596D01*
X44762Y-23665D01*
X44475Y-23665D01*
X44475Y-22925D01*
X44475Y-22575D01*
X44475Y-22525D01*
X44475Y-20725D01*
X44456Y-20679D01*
X44421Y-20644D01*
X44375Y-20625D01*
X44325Y-20625D01*
X44025Y-20625D01*
X43979Y-20644D01*
X43944Y-20679D01*
X43925Y-20725D01*
X43925Y-20775D01*
X43925Y-21485D01*
X43650Y-21485D01*
X43587Y-21498D01*
X43533Y-21533D01*
X43531Y-21535D01*
X43283Y-21783D01*
X43248Y-21837D01*
X43235Y-21900D01*
X43235Y-23081D01*
X43140Y-23176D01*
X42905Y-23176D01*
X42905Y-23174D01*
X42905Y-23064D01*
X42897Y-23045D01*
X42905Y-23027D01*
X42905Y-22977D01*
X42905Y-22867D01*
X42897Y-22848D01*
X42905Y-22830D01*
X42905Y-22780D01*
X42905Y-22670D01*
X42897Y-22651D01*
X42905Y-22633D01*
X42905Y-22583D01*
X42905Y-22473D01*
X42897Y-22454D01*
X42905Y-22436D01*
X42905Y-22386D01*
X42905Y-22276D01*
X42897Y-22257D01*
X42905Y-22239D01*
X42905Y-22189D01*
X42905Y-22079D01*
X42897Y-22060D01*
X42905Y-22042D01*
X42905Y-21992D01*
X42905Y-21882D01*
X42897Y-21863D01*
X42905Y-21845D01*
X42905Y-21795D01*
X42905Y-21685D01*
X42886Y-21639D01*
X42851Y-21604D01*
X42805Y-21585D01*
X42755Y-21585D01*
X42445Y-21585D01*
X42420Y-21595D01*
X42420Y-21375D01*
X42420Y-21100D01*
X42475Y-21100D01*
X42521Y-21081D01*
X42556Y-21046D01*
X42575Y-21000D01*
X42575Y-20950D01*
X42575Y-20400D01*
X42556Y-20354D01*
X42521Y-20319D01*
X42475Y-20300D01*
X42425Y-20300D01*
X42075Y-20300D01*
X42029Y-20319D01*
X41994Y-20354D01*
X41975Y-20400D01*
X41975Y-20450D01*
X41975Y-21000D01*
X41994Y-21046D01*
X42029Y-21081D01*
X42050Y-21089D01*
X42050Y-21375D01*
X42050Y-21701D01*
X42041Y-21701D01*
X41931Y-21746D01*
X41847Y-21830D01*
X41801Y-21940D01*
X41801Y-22059D01*
X41846Y-22169D01*
X41821Y-22144D01*
X41775Y-22125D01*
X41648Y-22125D01*
X41703Y-22070D01*
X41749Y-21960D01*
X41749Y-21841D01*
X41704Y-21731D01*
X41628Y-21655D01*
X41724Y-21655D01*
X41742Y-21647D01*
X41761Y-21655D01*
X41811Y-21655D01*
X41921Y-21655D01*
X41939Y-21647D01*
X41958Y-21655D01*
X41982Y-21655D01*
X42013Y-21624D01*
X42013Y-21574D01*
X42021Y-21555D01*
X42021Y-21505D01*
X42021Y-21195D01*
X42013Y-21175D01*
X42013Y-21126D01*
X41982Y-21095D01*
X41958Y-21095D01*
X41939Y-21102D01*
X41921Y-21095D01*
X41871Y-21095D01*
X41761Y-21095D01*
X41742Y-21102D01*
X41730Y-21097D01*
X41771Y-21081D01*
X41806Y-21046D01*
X41825Y-21000D01*
X41825Y-20950D01*
X41825Y-20400D01*
X41806Y-20354D01*
X41771Y-20319D01*
X41725Y-20300D01*
X41675Y-20300D01*
X41325Y-20300D01*
X41279Y-20319D01*
X41244Y-20354D01*
X41225Y-20400D01*
X41225Y-20450D01*
X41225Y-20540D01*
X41187Y-20548D01*
X41133Y-20583D01*
X41131Y-20585D01*
X40936Y-20780D01*
X40907Y-20824D01*
X40792Y-20708D01*
X40738Y-20673D01*
X40675Y-20660D01*
X39450Y-20660D01*
X39450Y-20625D01*
X39431Y-20579D01*
X39396Y-20544D01*
X39350Y-20525D01*
X39300Y-20525D01*
X39215Y-20525D01*
X39215Y-20250D01*
X39202Y-20187D01*
X39167Y-20133D01*
X39164Y-20131D01*
X38717Y-19683D01*
X38663Y-19648D01*
X38600Y-19635D01*
X38468Y-19635D01*
X38468Y-19500D01*
X38449Y-19454D01*
X38414Y-19419D01*
X38368Y-19400D01*
X38318Y-19400D01*
X37532Y-19400D01*
X37486Y-19419D01*
X37451Y-19454D01*
X37432Y-19500D01*
X37432Y-19550D01*
X37432Y-19635D01*
X36468Y-19635D01*
X36468Y-19500D01*
X36449Y-19454D01*
X36414Y-19419D01*
X36368Y-19400D01*
X36318Y-19400D01*
X35532Y-19400D01*
X35486Y-19419D01*
X35451Y-19454D01*
X35432Y-19500D01*
X35432Y-19550D01*
X35432Y-20100D01*
X35451Y-20146D01*
X35486Y-20181D01*
X35532Y-20200D01*
X35582Y-20200D01*
X36368Y-20200D01*
X36414Y-20181D01*
X36449Y-20146D01*
X36468Y-20100D01*
X36468Y-20050D01*
X36468Y-19965D01*
X37432Y-19965D01*
X37432Y-20100D01*
X37451Y-20146D01*
X37486Y-20181D01*
X37532Y-20200D01*
X37582Y-20200D01*
X38368Y-20200D01*
X38414Y-20181D01*
X38449Y-20146D01*
X38468Y-20100D01*
X38468Y-20050D01*
X38468Y-19965D01*
X38531Y-19965D01*
X38885Y-20318D01*
X38885Y-20525D01*
X38750Y-20525D01*
X38704Y-20544D01*
X38669Y-20579D01*
X38650Y-20625D01*
X38650Y-20675D01*
X38650Y-21025D01*
X38669Y-21071D01*
X38704Y-21106D01*
X38750Y-21125D01*
X38800Y-21125D01*
X39350Y-21125D01*
X39396Y-21106D01*
X39431Y-21071D01*
X39450Y-21025D01*
X39450Y-20990D01*
X40606Y-20990D01*
X40691Y-21074D01*
X40691Y-21095D01*
X40689Y-21095D01*
X40579Y-21095D01*
X40560Y-21102D01*
X40542Y-21095D01*
X40518Y-21095D01*
X40487Y-21126D01*
X40487Y-21175D01*
X40479Y-21195D01*
X40479Y-21245D01*
X40479Y-21555D01*
X40487Y-21574D01*
X40487Y-21624D01*
X40518Y-21655D01*
X40542Y-21655D01*
X40560Y-21647D01*
X40579Y-21655D01*
X40629Y-21655D01*
X40739Y-21655D01*
X40757Y-21647D01*
X40776Y-21655D01*
X40826Y-21655D01*
X40888Y-21655D01*
X40901Y-21716D01*
X40936Y-21770D01*
X41033Y-21867D01*
X41087Y-21902D01*
X41150Y-21915D01*
X41151Y-21915D01*
X41151Y-21959D01*
X41196Y-22069D01*
X41252Y-22125D01*
X41225Y-22125D01*
X41056Y-22125D01*
X41025Y-22156D01*
X41025Y-22475D01*
X41156Y-22475D01*
X41344Y-22475D01*
X41450Y-22475D01*
X41475Y-22475D01*
X41525Y-22475D01*
X41550Y-22475D01*
X41844Y-22475D01*
X41875Y-22444D01*
X41875Y-22275D01*
X41875Y-22225D01*
X41856Y-22179D01*
X41930Y-22253D01*
X42040Y-22299D01*
X42159Y-22299D01*
X42269Y-22254D01*
X42345Y-22178D01*
X42345Y-22239D01*
X42352Y-22257D01*
X42345Y-22276D01*
X42345Y-22326D01*
X42345Y-22436D01*
X42352Y-22454D01*
X42345Y-22473D01*
X42345Y-22523D01*
X42345Y-22633D01*
X42352Y-22651D01*
X42345Y-22670D01*
X42345Y-22720D01*
X42345Y-22830D01*
X42352Y-22848D01*
X42345Y-22867D01*
X42345Y-22917D01*
X42345Y-23027D01*
X42352Y-23045D01*
X42345Y-23064D01*
X42345Y-23114D01*
X42345Y-23224D01*
X42352Y-23242D01*
X42345Y-23261D01*
X42345Y-23311D01*
X42345Y-23353D01*
X42276Y-23353D01*
X42270Y-23347D01*
X42160Y-23301D01*
X42041Y-23301D01*
X41931Y-23346D01*
X41875Y-23402D01*
X41875Y-23275D01*
X41875Y-23225D01*
X41875Y-23056D01*
X41875Y-22944D01*
X41875Y-22775D01*
X41875Y-22725D01*
X41875Y-22556D01*
X41844Y-22525D01*
X41525Y-22525D01*
X41525Y-22656D01*
X41525Y-22844D01*
X41525Y-22975D01*
X41844Y-22975D01*
X41875Y-22944D01*
X41875Y-23056D01*
X41844Y-23025D01*
X41525Y-23025D01*
X41525Y-23344D01*
X41556Y-23375D01*
X41775Y-23375D01*
X41821Y-23356D01*
X41856Y-23321D01*
X41875Y-23275D01*
X41875Y-23402D01*
X41847Y-23430D01*
X41801Y-23540D01*
X41801Y-23659D01*
X41846Y-23769D01*
X41922Y-23845D01*
X41921Y-23845D01*
X41871Y-23845D01*
X41761Y-23845D01*
X41742Y-23852D01*
X41724Y-23845D01*
X41674Y-23845D01*
X41564Y-23845D01*
X41545Y-23852D01*
X41527Y-23845D01*
X41477Y-23845D01*
X41475Y-23845D01*
X41475Y-23344D01*
X41475Y-23025D01*
X41475Y-22975D01*
X41475Y-22844D01*
X41475Y-22656D01*
X41475Y-22525D01*
X41344Y-22525D01*
X41156Y-22525D01*
X41025Y-22525D01*
X41025Y-22656D01*
X41025Y-22844D01*
X41025Y-22975D01*
X41156Y-22975D01*
X41344Y-22975D01*
X41475Y-22975D01*
X41475Y-23025D01*
X41344Y-23025D01*
X41156Y-23025D01*
X41025Y-23025D01*
X41025Y-23344D01*
X41056Y-23375D01*
X41225Y-23375D01*
X41275Y-23375D01*
X41444Y-23375D01*
X41475Y-23344D01*
X41475Y-23845D01*
X41367Y-23845D01*
X41348Y-23852D01*
X41330Y-23845D01*
X41280Y-23845D01*
X41170Y-23845D01*
X41151Y-23852D01*
X41133Y-23845D01*
X41083Y-23845D01*
X40975Y-23845D01*
X40975Y-23344D01*
X40975Y-23025D01*
X40975Y-22975D01*
X40975Y-22844D01*
X40975Y-22656D01*
X40975Y-22525D01*
X40975Y-22475D01*
X40975Y-22156D01*
X40944Y-22125D01*
X40725Y-22125D01*
X40679Y-22144D01*
X40653Y-22170D01*
X40699Y-22060D01*
X40699Y-21941D01*
X40654Y-21831D01*
X40570Y-21747D01*
X40460Y-21701D01*
X40450Y-21701D01*
X40450Y-21375D01*
X40445Y-21349D01*
X40445Y-21195D01*
X40437Y-21175D01*
X40437Y-21126D01*
X40406Y-21095D01*
X40382Y-21095D01*
X40363Y-21102D01*
X40345Y-21095D01*
X40295Y-21095D01*
X40185Y-21095D01*
X40139Y-21114D01*
X40104Y-21149D01*
X40085Y-21195D01*
X40085Y-21245D01*
X40085Y-21349D01*
X40080Y-21375D01*
X40080Y-21595D01*
X40055Y-21585D01*
X40005Y-21585D01*
X39695Y-21585D01*
X39649Y-21604D01*
X39614Y-21639D01*
X39595Y-21685D01*
X39595Y-21735D01*
X39595Y-21777D01*
X39449Y-21777D01*
X39450Y-21775D01*
X39450Y-21725D01*
X39450Y-21375D01*
X39431Y-21329D01*
X39396Y-21294D01*
X39350Y-21275D01*
X39300Y-21275D01*
X38750Y-21275D01*
X38704Y-21294D01*
X38669Y-21329D01*
X38650Y-21375D01*
X38650Y-21425D01*
X38650Y-21775D01*
X38669Y-21821D01*
X38704Y-21856D01*
X38750Y-21875D01*
X38800Y-21875D01*
X38869Y-21875D01*
X38879Y-21921D01*
X38919Y-21981D01*
X39031Y-22093D01*
X39091Y-22133D01*
X39162Y-22147D01*
X39169Y-22147D01*
X38981Y-22335D01*
X38625Y-22335D01*
X38625Y-22200D01*
X38606Y-22154D01*
X38571Y-22119D01*
X38525Y-22100D01*
X38475Y-22100D01*
X38468Y-22100D01*
X38468Y-21700D01*
X38468Y-21650D01*
X38468Y-21456D01*
X38468Y-21344D01*
X38468Y-21150D01*
X38468Y-21100D01*
X38449Y-21054D01*
X38414Y-21019D01*
X38368Y-21000D01*
X38006Y-21000D01*
X37975Y-21031D01*
X37975Y-21375D01*
X38437Y-21375D01*
X38468Y-21344D01*
X38468Y-21456D01*
X38437Y-21425D01*
X37975Y-21425D01*
X37975Y-21769D01*
X38006Y-21800D01*
X38368Y-21800D01*
X38414Y-21781D01*
X38449Y-21746D01*
X38468Y-21700D01*
X38468Y-22100D01*
X38125Y-22100D01*
X38079Y-22119D01*
X38044Y-22154D01*
X38025Y-22200D01*
X38025Y-22250D01*
X38025Y-22800D01*
X38044Y-22846D01*
X38079Y-22881D01*
X38125Y-22900D01*
X38175Y-22900D01*
X38525Y-22900D01*
X38571Y-22881D01*
X38606Y-22846D01*
X38625Y-22800D01*
X38625Y-22750D01*
X38625Y-22665D01*
X38951Y-22665D01*
X38683Y-22933D01*
X38648Y-22987D01*
X38635Y-23050D01*
X38635Y-23383D01*
X38621Y-23369D01*
X38575Y-23350D01*
X38525Y-23350D01*
X38175Y-23350D01*
X38129Y-23369D01*
X38094Y-23404D01*
X38075Y-23450D01*
X38075Y-23500D01*
X38075Y-24050D01*
X38094Y-24096D01*
X38129Y-24131D01*
X38175Y-24150D01*
X38225Y-24150D01*
X38575Y-24150D01*
X38621Y-24131D01*
X38656Y-24096D01*
X38675Y-24050D01*
X38675Y-24000D01*
X38675Y-23894D01*
X38717Y-23867D01*
X38914Y-23668D01*
X38916Y-23667D01*
X38917Y-23667D01*
X38951Y-23614D01*
X38952Y-23613D01*
X38962Y-23564D01*
X38965Y-23551D01*
X38964Y-23550D01*
X38965Y-23550D01*
X38965Y-23118D01*
X39364Y-22718D01*
X39366Y-22717D01*
X39367Y-22717D01*
X39542Y-22540D01*
X39572Y-22521D01*
X39606Y-22521D01*
X39619Y-22521D01*
X39626Y-22528D01*
X39675Y-22528D01*
X39695Y-22536D01*
X39745Y-22536D01*
X40055Y-22536D01*
X40074Y-22528D01*
X40124Y-22528D01*
X40155Y-22497D01*
X40155Y-22473D01*
X40147Y-22454D01*
X40155Y-22436D01*
X40155Y-22386D01*
X40155Y-22276D01*
X40147Y-22257D01*
X40155Y-22239D01*
X40155Y-22189D01*
X40155Y-22178D01*
X40230Y-22253D01*
X40340Y-22299D01*
X40459Y-22299D01*
X40569Y-22254D01*
X40644Y-22179D01*
X40625Y-22225D01*
X40625Y-22275D01*
X40625Y-22444D01*
X40656Y-22475D01*
X40975Y-22475D01*
X40975Y-22525D01*
X40656Y-22525D01*
X40625Y-22556D01*
X40625Y-22725D01*
X40625Y-22775D01*
X40625Y-22944D01*
X40656Y-22975D01*
X40975Y-22975D01*
X40975Y-23025D01*
X40656Y-23025D01*
X40625Y-23056D01*
X40625Y-23225D01*
X40625Y-23275D01*
X40644Y-23321D01*
X40679Y-23356D01*
X40725Y-23375D01*
X40944Y-23375D01*
X40975Y-23344D01*
X40975Y-23845D01*
X40973Y-23845D01*
X40954Y-23852D01*
X40936Y-23845D01*
X40912Y-23845D01*
X40881Y-23876D01*
X40881Y-23925D01*
X40873Y-23945D01*
X40873Y-23995D01*
X40873Y-24305D01*
X40881Y-24324D01*
X40881Y-24374D01*
X40888Y-24381D01*
X40888Y-24878D01*
X40844Y-24922D01*
X40844Y-24772D01*
X40844Y-24125D01*
X40844Y-23859D01*
X40830Y-23788D01*
X40790Y-23728D01*
X40699Y-23637D01*
X40699Y-23541D01*
X40654Y-23431D01*
X40585Y-23362D01*
X40585Y-23100D01*
X40571Y-23029D01*
X40531Y-22969D01*
X40378Y-22816D01*
X40318Y-22776D01*
X40247Y-22762D01*
X40155Y-22762D01*
X40155Y-22670D01*
X40147Y-22651D01*
X40155Y-22633D01*
X40155Y-22609D01*
X40124Y-22578D01*
X40074Y-22578D01*
X40055Y-22570D01*
X40005Y-22570D01*
X39695Y-22570D01*
X39675Y-22578D01*
X39626Y-22578D01*
X39619Y-22585D01*
X39600Y-22585D01*
X39537Y-22598D01*
X39483Y-22633D01*
X39481Y-22635D01*
X39233Y-22883D01*
X39198Y-22937D01*
X39185Y-23000D01*
X39185Y-23631D01*
X38525Y-24291D01*
X38525Y-24275D01*
X38506Y-24229D01*
X38471Y-24194D01*
X38425Y-24175D01*
X38375Y-24175D01*
X37925Y-24175D01*
X37925Y-24050D01*
X37925Y-24000D01*
X37925Y-23450D01*
X37925Y-21769D01*
X37925Y-21425D01*
X37925Y-21375D01*
X37925Y-21031D01*
X37894Y-21000D01*
X37532Y-21000D01*
X37486Y-21019D01*
X37451Y-21054D01*
X37432Y-21100D01*
X37432Y-21150D01*
X37432Y-21344D01*
X37463Y-21375D01*
X37925Y-21375D01*
X37925Y-21425D01*
X37463Y-21425D01*
X37432Y-21456D01*
X37432Y-21650D01*
X37432Y-21700D01*
X37451Y-21746D01*
X37486Y-21781D01*
X37532Y-21800D01*
X37894Y-21800D01*
X37925Y-21769D01*
X37925Y-23450D01*
X37906Y-23404D01*
X37871Y-23369D01*
X37825Y-23350D01*
X37775Y-23350D01*
X37425Y-23350D01*
X37379Y-23369D01*
X37344Y-23404D01*
X37325Y-23450D01*
X37325Y-23500D01*
X37325Y-23605D01*
X37315Y-23612D01*
X37315Y-22867D01*
X37329Y-22881D01*
X37375Y-22900D01*
X37425Y-22900D01*
X37775Y-22900D01*
X37821Y-22881D01*
X37856Y-22846D01*
X37875Y-22800D01*
X37875Y-22750D01*
X37875Y-22200D01*
X37856Y-22154D01*
X37821Y-22119D01*
X37775Y-22100D01*
X37725Y-22100D01*
X37375Y-22100D01*
X37329Y-22119D01*
X37294Y-22154D01*
X37275Y-22200D01*
X37275Y-22250D01*
X37275Y-22355D01*
X37233Y-22383D01*
X37231Y-22385D01*
X37033Y-22583D01*
X36998Y-22637D01*
X36985Y-22700D01*
X36985Y-23631D01*
X36920Y-23696D01*
X36920Y-23428D01*
X36920Y-23046D01*
X36920Y-22934D01*
X36920Y-22552D01*
X36901Y-22506D01*
X36866Y-22471D01*
X36820Y-22452D01*
X36770Y-22452D01*
X36556Y-22452D01*
X36525Y-22483D01*
X36525Y-22965D01*
X36889Y-22965D01*
X36920Y-22934D01*
X36920Y-23046D01*
X36889Y-23015D01*
X36525Y-23015D01*
X36525Y-23497D01*
X36556Y-23528D01*
X36770Y-23528D01*
X36820Y-23528D01*
X36866Y-23509D01*
X36901Y-23474D01*
X36920Y-23428D01*
X36920Y-23696D01*
X36890Y-23726D01*
X36890Y-23635D01*
X36871Y-23589D01*
X36836Y-23554D01*
X36790Y-23535D01*
X36740Y-23535D01*
X36210Y-23535D01*
X36200Y-23538D01*
X36190Y-23528D01*
X36230Y-23528D01*
X36444Y-23528D01*
X36475Y-23497D01*
X36475Y-23040D01*
X36475Y-23015D01*
X36475Y-22965D01*
X36475Y-22940D01*
X36475Y-22483D01*
X36444Y-22452D01*
X36230Y-22452D01*
X36185Y-22452D01*
X36185Y-22426D01*
X36212Y-22399D01*
X36309Y-22399D01*
X36419Y-22354D01*
X36503Y-22270D01*
X36549Y-22160D01*
X36549Y-22041D01*
X36504Y-21931D01*
X36468Y-21895D01*
X36468Y-21700D01*
X36468Y-21650D01*
X36468Y-21456D01*
X36468Y-21344D01*
X36468Y-21150D01*
X36468Y-21100D01*
X36449Y-21054D01*
X36414Y-21019D01*
X36368Y-21000D01*
X36006Y-21000D01*
X35975Y-21031D01*
X35975Y-21375D01*
X36437Y-21375D01*
X36468Y-21344D01*
X36468Y-21456D01*
X36437Y-21425D01*
X35975Y-21425D01*
X35975Y-21769D01*
X36006Y-21800D01*
X36368Y-21800D01*
X36414Y-21781D01*
X36449Y-21746D01*
X36468Y-21700D01*
X36468Y-21895D01*
X36420Y-21847D01*
X36310Y-21801D01*
X36191Y-21801D01*
X36081Y-21846D01*
X35997Y-21930D01*
X35951Y-22040D01*
X35951Y-22137D01*
X35925Y-22163D01*
X35925Y-21769D01*
X35925Y-21425D01*
X35925Y-21375D01*
X35925Y-21031D01*
X35894Y-21000D01*
X35532Y-21000D01*
X35486Y-21019D01*
X35451Y-21054D01*
X35432Y-21100D01*
X35432Y-21150D01*
X35432Y-21344D01*
X35463Y-21375D01*
X35925Y-21375D01*
X35925Y-21425D01*
X35463Y-21425D01*
X35432Y-21456D01*
X35432Y-21650D01*
X35432Y-21700D01*
X35451Y-21746D01*
X35486Y-21781D01*
X35532Y-21800D01*
X35894Y-21800D01*
X35925Y-21769D01*
X35925Y-22163D01*
X35907Y-22181D01*
X35902Y-22176D01*
X35856Y-22157D01*
X35806Y-22157D01*
X35513Y-22157D01*
X35482Y-22188D01*
X35482Y-22704D01*
X35482Y-22729D01*
X35482Y-22779D01*
X35482Y-22804D01*
X35482Y-23320D01*
X35496Y-23334D01*
X35482Y-23349D01*
X35482Y-23747D01*
X35482Y-23772D01*
X35482Y-23822D01*
X35482Y-23847D01*
X35482Y-24245D01*
X35487Y-24250D01*
X35482Y-24255D01*
X35482Y-24678D01*
X35925Y-24678D01*
X35956Y-24647D01*
X35956Y-24324D01*
X35937Y-24278D01*
X35909Y-24250D01*
X35937Y-24222D01*
X35956Y-24176D01*
X35956Y-23853D01*
X35950Y-23847D01*
X35956Y-23847D01*
X35956Y-23818D01*
X36007Y-23869D01*
X36067Y-23909D01*
X36110Y-23917D01*
X36110Y-23941D01*
X36110Y-24097D01*
X36120Y-24122D01*
X36110Y-24147D01*
X36110Y-24197D01*
X36110Y-24353D01*
X36120Y-24378D01*
X36110Y-24403D01*
X36110Y-24453D01*
X36110Y-24609D01*
X36120Y-24634D01*
X36110Y-24659D01*
X36110Y-24709D01*
X36110Y-24865D01*
X36129Y-24911D01*
X36164Y-24946D01*
X36210Y-24965D01*
X36260Y-24965D01*
X36790Y-24965D01*
X36836Y-24946D01*
X36871Y-24911D01*
X36890Y-24865D01*
X36890Y-24815D01*
X36890Y-24659D01*
X36879Y-24634D01*
X36890Y-24609D01*
X36890Y-24559D01*
X36890Y-24415D01*
X36900Y-24415D01*
X36963Y-24402D01*
X37017Y-24367D01*
X37327Y-24056D01*
X37344Y-24096D01*
X37379Y-24131D01*
X37425Y-24150D01*
X37475Y-24150D01*
X37825Y-24150D01*
X37871Y-24131D01*
X37906Y-24096D01*
X37925Y-24050D01*
X37925Y-24175D01*
X37575Y-24175D01*
X37529Y-24194D01*
X37494Y-24229D01*
X37475Y-24275D01*
X37475Y-24325D01*
X37475Y-24925D01*
X37494Y-24971D01*
X37529Y-25006D01*
X37575Y-25025D01*
X37625Y-25025D01*
X38425Y-25025D01*
X38471Y-25006D01*
X38506Y-24971D01*
X38525Y-24925D01*
X38525Y-24875D01*
X38525Y-24744D01*
X38567Y-24717D01*
X39464Y-23818D01*
X39466Y-23817D01*
X39467Y-23817D01*
X39501Y-23763D01*
X39502Y-23763D01*
X39512Y-23711D01*
X39515Y-23701D01*
X39514Y-23700D01*
X39515Y-23700D01*
X39515Y-23068D01*
X39595Y-22988D01*
X39595Y-23027D01*
X39602Y-23045D01*
X39595Y-23064D01*
X39595Y-23114D01*
X39595Y-23224D01*
X39602Y-23242D01*
X39595Y-23261D01*
X39595Y-23311D01*
X39595Y-23421D01*
X39602Y-23439D01*
X39595Y-23458D01*
X39595Y-23508D01*
X39595Y-23618D01*
X39602Y-23636D01*
X39595Y-23655D01*
X39595Y-23705D01*
X39595Y-23815D01*
X39614Y-23861D01*
X39649Y-23896D01*
X39695Y-23915D01*
X39745Y-23915D01*
X40055Y-23915D01*
X40101Y-23896D01*
X40136Y-23861D01*
X40155Y-23815D01*
X40155Y-23778D01*
X40222Y-23845D01*
X40185Y-23845D01*
X40139Y-23864D01*
X40104Y-23899D01*
X40085Y-23945D01*
X40085Y-23995D01*
X40085Y-24305D01*
X40104Y-24351D01*
X40139Y-24386D01*
X40185Y-24405D01*
X40235Y-24405D01*
X40345Y-24405D01*
X40363Y-24397D01*
X40382Y-24405D01*
X40432Y-24405D01*
X40542Y-24405D01*
X40560Y-24397D01*
X40579Y-24405D01*
X40629Y-24405D01*
X40739Y-24405D01*
X40757Y-24397D01*
X40776Y-24405D01*
X40800Y-24405D01*
X40831Y-24374D01*
X40831Y-24324D01*
X40839Y-24305D01*
X40839Y-24255D01*
X40839Y-24150D01*
X40844Y-24125D01*
X40844Y-24772D01*
X40825Y-24726D01*
X40790Y-24691D01*
X40744Y-24672D01*
X40694Y-24672D01*
X39788Y-24672D01*
X39742Y-24691D01*
X39723Y-24710D01*
X39650Y-24710D01*
X39650Y-24675D01*
X39631Y-24629D01*
X39596Y-24594D01*
X39550Y-24575D01*
X39500Y-24575D01*
X38950Y-24575D01*
X38904Y-24594D01*
X38869Y-24629D01*
X38850Y-24675D01*
X38850Y-24725D01*
X38850Y-25075D01*
X38869Y-25121D01*
X38904Y-25156D01*
X38950Y-25175D01*
X39000Y-25175D01*
X39550Y-25175D01*
X39596Y-25156D01*
X39631Y-25121D01*
X39650Y-25075D01*
X39650Y-25040D01*
X39688Y-25040D01*
X39688Y-25728D01*
X39707Y-25774D01*
X39742Y-25809D01*
X39788Y-25828D01*
X39838Y-25828D01*
X40744Y-25828D01*
X40790Y-25809D01*
X40825Y-25774D01*
X40844Y-25728D01*
X40844Y-25678D01*
X40844Y-25381D01*
X40867Y-25367D01*
X41126Y-25106D01*
X41133Y-25117D01*
X41381Y-25364D01*
X41383Y-25367D01*
X41437Y-25402D01*
X41500Y-25415D01*
X41656Y-25415D01*
X41656Y-25728D01*
X41675Y-25774D01*
X41710Y-25809D01*
X41756Y-25828D01*
X41806Y-25828D01*
X42712Y-25828D01*
X42758Y-25809D01*
X42793Y-25774D01*
X42812Y-25728D01*
X42812Y-25678D01*
X42812Y-25040D01*
X42850Y-25040D01*
X42850Y-25075D01*
X42869Y-25121D01*
X42904Y-25156D01*
X42950Y-25175D01*
X43000Y-25175D01*
X43550Y-25175D01*
X43596Y-25156D01*
X43631Y-25121D01*
X43650Y-25075D01*
X43650Y-25025D01*
X43650Y-24675D01*
X43631Y-24629D01*
X43596Y-24594D01*
X43550Y-24575D01*
X43500Y-24575D01*
X42950Y-24575D01*
X42905Y-24593D01*
X42905Y-23815D01*
X42905Y-23791D01*
X42874Y-23760D01*
X42650Y-23760D01*
X42650Y-23884D01*
X42681Y-23915D01*
X42755Y-23915D01*
X42805Y-23915D01*
X42851Y-23896D01*
X42886Y-23861D01*
X42905Y-23815D01*
X42905Y-24593D01*
X42904Y-24594D01*
X42869Y-24629D01*
X42850Y-24675D01*
X42850Y-24710D01*
X42777Y-24710D01*
X42758Y-24691D01*
X42712Y-24672D01*
X42662Y-24672D01*
X42600Y-24672D01*
X41756Y-24672D01*
X41710Y-24691D01*
X41675Y-24726D01*
X41656Y-24772D01*
X41656Y-24822D01*
X41656Y-25085D01*
X41568Y-25085D01*
X41415Y-24931D01*
X41415Y-24405D01*
X41417Y-24405D01*
X41527Y-24405D01*
X41545Y-24397D01*
X41564Y-24405D01*
X41614Y-24405D01*
X41724Y-24405D01*
X41742Y-24397D01*
X41761Y-24405D01*
X41811Y-24405D01*
X41921Y-24405D01*
X41939Y-24397D01*
X41958Y-24405D01*
X42008Y-24405D01*
X42118Y-24405D01*
X42136Y-24397D01*
X42155Y-24405D01*
X42205Y-24405D01*
X42315Y-24405D01*
X42361Y-24386D01*
X42396Y-24351D01*
X42415Y-24305D01*
X42415Y-24255D01*
X42415Y-23945D01*
X42396Y-23899D01*
X42361Y-23864D01*
X42315Y-23845D01*
X42278Y-23845D01*
X42345Y-23778D01*
X42345Y-23785D01*
X42351Y-23785D01*
X42345Y-23791D01*
X42345Y-23815D01*
X42364Y-23861D01*
X42399Y-23896D01*
X42445Y-23915D01*
X42495Y-23915D01*
X42569Y-23915D01*
X42600Y-23884D01*
X42600Y-23785D01*
X42600Y-23760D01*
X42600Y-23723D01*
X42625Y-23723D01*
X42650Y-23718D01*
X42805Y-23718D01*
X42824Y-23710D01*
X42874Y-23710D01*
X42905Y-23679D01*
X42905Y-23655D01*
X42897Y-23636D01*
X42905Y-23618D01*
X42905Y-23568D01*
X42905Y-23506D01*
X43209Y-23506D01*
X43272Y-23493D01*
X43326Y-23458D01*
X43517Y-23267D01*
X43552Y-23213D01*
X43565Y-23150D01*
X43565Y-21968D01*
X43718Y-21815D01*
X43925Y-21815D01*
X43925Y-22575D01*
X43944Y-22621D01*
X43979Y-22656D01*
X44025Y-22675D01*
X44075Y-22675D01*
X44375Y-22675D01*
X44421Y-22656D01*
X44456Y-22621D01*
X44475Y-22575D01*
X44475Y-22925D01*
X44456Y-22879D01*
X44421Y-22844D01*
X44375Y-22825D01*
X44325Y-22825D01*
X44025Y-22825D01*
X43979Y-22844D01*
X43944Y-22879D01*
X43925Y-22925D01*
X43925Y-22975D01*
X43925Y-24775D01*
X43944Y-24821D01*
X43979Y-24856D01*
X44025Y-24875D01*
X44075Y-24875D01*
X44375Y-24875D01*
X44421Y-24856D01*
X44456Y-24821D01*
X44475Y-24775D01*
X44475Y-24725D01*
X44475Y-24035D01*
X44762Y-24035D01*
X44830Y-24103D01*
X44940Y-24149D01*
X45059Y-24149D01*
X45169Y-24104D01*
X45253Y-24020D01*
X45299Y-23910D01*
X45299Y-25335D01*
X44950Y-25335D01*
X44887Y-25348D01*
X44873Y-25356D01*
X44860Y-25351D01*
X44741Y-25351D01*
X44631Y-25396D01*
X44547Y-25480D01*
X44501Y-25590D01*
X44501Y-25709D01*
X44546Y-25819D01*
X44630Y-25903D01*
X44740Y-25949D01*
X44859Y-25949D01*
X44969Y-25904D01*
X45053Y-25820D01*
X45099Y-25710D01*
X45099Y-25665D01*
X77900Y-25665D01*
X77963Y-25652D01*
X78017Y-25617D01*
X78814Y-24818D01*
X78816Y-24817D01*
X78817Y-24817D01*
X78852Y-24763D01*
X78865Y-24700D01*
X78865Y-26300D01*
X43650Y-26300D01*
X43650Y-25825D01*
X43650Y-25681D01*
X43650Y-25569D01*
X43650Y-25425D01*
X43631Y-25379D01*
X43596Y-25344D01*
X43550Y-25325D01*
X43500Y-25325D01*
X43306Y-25325D01*
X43275Y-25356D01*
X43275Y-25600D01*
X43619Y-25600D01*
X43650Y-25569D01*
X43650Y-25681D01*
X43619Y-25650D01*
X43275Y-25650D01*
X43275Y-25894D01*
X43306Y-25925D01*
X43500Y-25925D01*
X43550Y-25925D01*
X43596Y-25906D01*
X43631Y-25871D01*
X43650Y-25825D01*
X43650Y-26300D01*
X43225Y-26300D01*
X43225Y-25894D01*
X43225Y-25650D01*
X43225Y-25600D01*
X43225Y-25356D01*
X43194Y-25325D01*
X43000Y-25325D01*
X42950Y-25325D01*
X42904Y-25344D01*
X42869Y-25379D01*
X42850Y-25425D01*
X42850Y-25569D01*
X42881Y-25600D01*
X43225Y-25600D01*
X43225Y-25650D01*
X42881Y-25650D01*
X42850Y-25681D01*
X42850Y-25825D01*
X42869Y-25871D01*
X42904Y-25906D01*
X42950Y-25925D01*
X43000Y-25925D01*
X43194Y-25925D01*
X43225Y-25894D01*
X43225Y-26300D01*
X39650Y-26300D01*
X39650Y-25825D01*
X39650Y-25681D01*
X39650Y-25569D01*
X39650Y-25425D01*
X39631Y-25379D01*
X39596Y-25344D01*
X39550Y-25325D01*
X39500Y-25325D01*
X39306Y-25325D01*
X39275Y-25356D01*
X39275Y-25600D01*
X39619Y-25600D01*
X39650Y-25569D01*
X39650Y-25681D01*
X39619Y-25650D01*
X39275Y-25650D01*
X39275Y-25894D01*
X39306Y-25925D01*
X39500Y-25925D01*
X39550Y-25925D01*
X39596Y-25906D01*
X39631Y-25871D01*
X39650Y-25825D01*
X39650Y-26300D01*
X39225Y-26300D01*
X39225Y-25894D01*
X39225Y-25650D01*
X39225Y-25600D01*
X39225Y-25356D01*
X39194Y-25325D01*
X39000Y-25325D01*
X38950Y-25325D01*
X38904Y-25344D01*
X38869Y-25379D01*
X38850Y-25425D01*
X38850Y-25569D01*
X38881Y-25600D01*
X39225Y-25600D01*
X39225Y-25650D01*
X38881Y-25650D01*
X38850Y-25681D01*
X38850Y-25825D01*
X38869Y-25871D01*
X38904Y-25906D01*
X38950Y-25925D01*
X39000Y-25925D01*
X39194Y-25925D01*
X39225Y-25894D01*
X39225Y-26300D01*
X38477Y-26300D01*
X38506Y-26271D01*
X38525Y-26225D01*
X38525Y-25956D01*
X38525Y-25844D01*
X38525Y-25575D01*
X38506Y-25529D01*
X38471Y-25494D01*
X38425Y-25475D01*
X38375Y-25475D01*
X38056Y-25475D01*
X38025Y-25506D01*
X38025Y-25875D01*
X38494Y-25875D01*
X38525Y-25844D01*
X38525Y-25956D01*
X38494Y-25925D01*
X38050Y-25925D01*
X38025Y-25925D01*
X37975Y-25925D01*
X37975Y-25875D01*
X37975Y-25506D01*
X37944Y-25475D01*
X37625Y-25475D01*
X37575Y-25475D01*
X37529Y-25494D01*
X37494Y-25529D01*
X37475Y-25575D01*
X37475Y-25844D01*
X37506Y-25875D01*
X37975Y-25875D01*
X37975Y-25925D01*
X37950Y-25925D01*
X37506Y-25925D01*
X37475Y-25956D01*
X37475Y-26225D01*
X37494Y-26271D01*
X37523Y-26300D01*
X36920Y-26300D01*
X36920Y-25948D01*
X36920Y-25566D01*
X36920Y-25454D01*
X36920Y-25072D01*
X36901Y-25026D01*
X36866Y-24991D01*
X36820Y-24972D01*
X36770Y-24972D01*
X36556Y-24972D01*
X36525Y-25003D01*
X36525Y-25485D01*
X36889Y-25485D01*
X36920Y-25454D01*
X36920Y-25566D01*
X36889Y-25535D01*
X36525Y-25535D01*
X36525Y-26017D01*
X36556Y-26048D01*
X36770Y-26048D01*
X36820Y-26048D01*
X36866Y-26029D01*
X36901Y-25994D01*
X36920Y-25948D01*
X36920Y-26300D01*
X36475Y-26300D01*
X36475Y-26017D01*
X36475Y-25535D01*
X36475Y-25485D01*
X36475Y-25003D01*
X36444Y-24972D01*
X36230Y-24972D01*
X36180Y-24972D01*
X36134Y-24991D01*
X36099Y-25026D01*
X36080Y-25072D01*
X36080Y-25454D01*
X36111Y-25485D01*
X36475Y-25485D01*
X36475Y-25535D01*
X36111Y-25535D01*
X36080Y-25566D01*
X36080Y-25948D01*
X36099Y-25994D01*
X36134Y-26029D01*
X36180Y-26048D01*
X36230Y-26048D01*
X36444Y-26048D01*
X36475Y-26017D01*
X36475Y-26300D01*
X35926Y-26300D01*
X35937Y-26289D01*
X35956Y-26243D01*
X35956Y-25802D01*
X35956Y-25690D01*
X35956Y-25249D01*
X35937Y-25203D01*
X35902Y-25168D01*
X35895Y-25165D01*
X35902Y-25163D01*
X35937Y-25128D01*
X35956Y-25082D01*
X35956Y-24759D01*
X35925Y-24728D01*
X35482Y-24728D01*
X35482Y-25151D01*
X35496Y-25165D01*
X35482Y-25180D01*
X35482Y-25721D01*
X35925Y-25721D01*
X35956Y-25690D01*
X35956Y-25802D01*
X35925Y-25771D01*
X35507Y-25771D01*
X35482Y-25771D01*
X35432Y-25771D01*
X35432Y-25721D01*
X35432Y-25696D01*
X35432Y-25180D01*
X35417Y-25165D01*
X35432Y-25151D01*
X35432Y-24753D01*
X35432Y-24728D01*
X35432Y-24678D01*
X35432Y-24653D01*
X35432Y-24255D01*
X35427Y-24250D01*
X35432Y-24245D01*
X35432Y-23847D01*
X35432Y-23822D01*
X35432Y-23772D01*
X35432Y-23747D01*
X35432Y-23349D01*
X35417Y-23334D01*
X35432Y-23320D01*
X35432Y-22804D01*
X35432Y-22779D01*
X35432Y-22729D01*
X35432Y-22704D01*
X35432Y-22188D01*
X35401Y-22157D01*
X35200Y-22157D01*
X35200Y-19200D01*
X79800Y-19200D01*
X79800Y-26300D01*
M02*
