G04 (created by PCBNEW-RS274X (2012-apr-16-27)-stable) date Tue 14 Jan 2014 09:47:31 PM CET*
G01*
G70*
G90*
%MOIN*%
G04 Gerber Fmt 3.4, Leading zero omitted, Abs format*
%FSLAX34Y34*%
G04 APERTURE LIST*
%ADD10C,0.006000*%
%ADD11R,0.100000X0.080000*%
%ADD12R,0.075000X0.055000*%
%ADD13R,0.055000X0.075000*%
%ADD14R,0.080000X0.080000*%
%ADD15C,0.080000*%
%ADD16R,0.110600X0.110600*%
%ADD17R,0.073100X0.035700*%
%ADD18R,0.079100X0.102700*%
%ADD19R,0.094800X0.114500*%
%ADD20R,0.094800X0.090900*%
%ADD21R,0.051000X0.031000*%
%ADD22R,0.031000X0.051000*%
%ADD23R,0.070000X0.070000*%
%ADD24R,0.098700X0.075100*%
%ADD25R,0.079100X0.055400*%
G04 APERTURE END LIST*
G54D10*
G54D11*
X38000Y-24600D03*
X38000Y-25900D03*
G54D12*
X43250Y-25625D03*
X43250Y-24875D03*
X39250Y-25625D03*
X39250Y-24875D03*
G54D13*
X38375Y-23750D03*
X37625Y-23750D03*
X38325Y-22500D03*
X37575Y-22500D03*
G54D12*
X39050Y-20825D03*
X39050Y-21575D03*
G54D14*
X77500Y-24250D03*
G54D15*
X77500Y-23250D03*
X77500Y-22250D03*
X77500Y-21250D03*
G54D16*
X42234Y-25250D03*
X40266Y-25250D03*
G54D17*
X36500Y-24250D03*
X36500Y-23994D03*
X36500Y-24506D03*
X36500Y-23738D03*
X36500Y-24762D03*
G54D18*
X36500Y-22990D03*
X36500Y-25510D03*
G54D19*
X35457Y-22754D03*
X35457Y-25746D03*
G54D20*
X35457Y-23797D03*
X35457Y-24703D03*
G54D21*
X39875Y-21765D03*
G54D22*
X40265Y-24125D03*
G54D10*
G36*
X42370Y-23580D02*
X42880Y-23580D01*
X42880Y-23890D01*
X42370Y-23890D01*
X42370Y-23580D01*
X42370Y-23580D01*
G37*
G54D22*
X42235Y-21375D03*
G54D21*
X39875Y-21962D03*
G54D22*
X40462Y-24125D03*
G54D10*
G36*
X42370Y-23383D02*
X42880Y-23383D01*
X42880Y-23693D01*
X42370Y-23693D01*
X42370Y-23383D01*
X42370Y-23383D01*
G37*
G54D22*
X42038Y-21375D03*
G54D21*
X39875Y-22159D03*
G54D22*
X40659Y-24125D03*
G54D10*
G36*
X42370Y-23186D02*
X42880Y-23186D01*
X42880Y-23496D01*
X42370Y-23496D01*
X42370Y-23186D01*
X42370Y-23186D01*
G37*
G54D22*
X41841Y-21375D03*
G54D21*
X39875Y-22356D03*
G54D22*
X40856Y-24125D03*
G54D10*
G36*
X42370Y-22989D02*
X42880Y-22989D01*
X42880Y-23299D01*
X42370Y-23299D01*
X42370Y-22989D01*
X42370Y-22989D01*
G37*
G54D22*
X41644Y-21375D03*
G54D21*
X39875Y-22553D03*
G54D22*
X41053Y-24125D03*
G54D10*
G36*
X42370Y-22792D02*
X42880Y-22792D01*
X42880Y-23102D01*
X42370Y-23102D01*
X42370Y-22792D01*
X42370Y-22792D01*
G37*
G54D22*
X41447Y-21375D03*
G54D21*
X39875Y-22750D03*
G54D22*
X41250Y-24125D03*
G54D10*
G36*
X42370Y-22595D02*
X42880Y-22595D01*
X42880Y-22905D01*
X42370Y-22905D01*
X42370Y-22595D01*
X42370Y-22595D01*
G37*
G54D22*
X41250Y-21375D03*
G54D21*
X39875Y-22947D03*
G54D22*
X41447Y-24125D03*
G54D10*
G36*
X42370Y-22398D02*
X42880Y-22398D01*
X42880Y-22708D01*
X42370Y-22708D01*
X42370Y-22398D01*
X42370Y-22398D01*
G37*
G54D22*
X41053Y-21375D03*
G54D21*
X39875Y-23144D03*
G54D22*
X41644Y-24125D03*
G54D10*
G36*
X42370Y-22201D02*
X42880Y-22201D01*
X42880Y-22511D01*
X42370Y-22511D01*
X42370Y-22201D01*
X42370Y-22201D01*
G37*
G54D22*
X40856Y-21375D03*
G54D21*
X39875Y-23341D03*
G54D22*
X41841Y-24125D03*
G54D10*
G36*
X42370Y-22004D02*
X42880Y-22004D01*
X42880Y-22314D01*
X42370Y-22314D01*
X42370Y-22004D01*
X42370Y-22004D01*
G37*
G54D22*
X40659Y-21375D03*
G54D21*
X39875Y-23538D03*
G54D22*
X42038Y-24125D03*
G54D10*
G36*
X42370Y-21807D02*
X42880Y-21807D01*
X42880Y-22117D01*
X42370Y-22117D01*
X42370Y-21807D01*
X42370Y-21807D01*
G37*
G54D22*
X40462Y-21375D03*
G54D21*
X39875Y-23735D03*
G54D22*
X42235Y-24125D03*
G54D10*
G36*
X42370Y-21610D02*
X42880Y-21610D01*
X42880Y-21920D01*
X42370Y-21920D01*
X42370Y-21610D01*
X42370Y-21610D01*
G37*
G54D22*
X40265Y-21375D03*
G54D23*
X41000Y-22500D03*
X41500Y-22500D03*
X41000Y-23000D03*
X41500Y-23000D03*
G54D13*
X41525Y-20700D03*
X42275Y-20700D03*
G54D24*
X37950Y-19800D03*
X37950Y-21400D03*
X35950Y-19800D03*
X35950Y-21400D03*
G54D25*
X45970Y-23400D03*
X45970Y-22100D03*
X44030Y-23400D03*
X44030Y-22100D03*
X55970Y-23400D03*
X55970Y-22100D03*
X54030Y-23400D03*
X54030Y-22100D03*
X65970Y-23400D03*
X65970Y-22100D03*
X64030Y-23400D03*
X64030Y-22100D03*
X75970Y-23400D03*
X75970Y-22100D03*
X74030Y-23400D03*
X74030Y-22100D03*
M02*
